%TF.GenerationSoftware,KiCad,Pcbnew,(5.1.6)-1*%
%TF.CreationDate,2021-01-10T19:41:06-07:00*%
%TF.ProjectId,AltoidsSmall,416c746f-6964-4735-936d-616c6c2e6b69,rev?*%
%TF.SameCoordinates,Original*%
%TF.FileFunction,Legend,Top*%
%TF.FilePolarity,Positive*%
%FSLAX46Y46*%
G04 Gerber Fmt 4.6, Leading zero omitted, Abs format (unit mm)*
G04 Created by KiCad (PCBNEW (5.1.6)-1) date 2021-01-10 19:41:06*
%MOMM*%
%LPD*%
G01*
G04 APERTURE LIST*
%ADD10C,0.150000*%
%ADD11C,0.100000*%
%ADD12C,0.120000*%
G04 APERTURE END LIST*
D10*
X157075285Y-117689380D02*
X157646714Y-117689380D01*
X157361000Y-118689380D02*
X157361000Y-117689380D01*
X158551476Y-118689380D02*
X158218142Y-118213190D01*
X157980047Y-118689380D02*
X157980047Y-117689380D01*
X158361000Y-117689380D01*
X158456238Y-117737000D01*
X158503857Y-117784619D01*
X158551476Y-117879857D01*
X158551476Y-118022714D01*
X158503857Y-118117952D01*
X158456238Y-118165571D01*
X158361000Y-118213190D01*
X157980047Y-118213190D01*
X150280642Y-118895738D02*
X150328261Y-118943357D01*
X150375880Y-119086214D01*
X150375880Y-119181452D01*
X150328261Y-119324309D01*
X150233023Y-119419547D01*
X150137785Y-119467166D01*
X149947309Y-119514785D01*
X149804452Y-119514785D01*
X149613976Y-119467166D01*
X149518738Y-119419547D01*
X149423500Y-119324309D01*
X149375880Y-119181452D01*
X149375880Y-119086214D01*
X149423500Y-118943357D01*
X149471119Y-118895738D01*
X150375880Y-117990976D02*
X150375880Y-118467166D01*
X149375880Y-118467166D01*
X150375880Y-117657642D02*
X149375880Y-117657642D01*
X150375880Y-117086214D02*
X149804452Y-117514785D01*
X149375880Y-117086214D02*
X149947309Y-117657642D01*
X152153880Y-113617309D02*
X151153880Y-113617309D01*
X151153880Y-112950642D02*
X151153880Y-112760166D01*
X151201500Y-112664928D01*
X151296738Y-112569690D01*
X151487214Y-112522071D01*
X151820547Y-112522071D01*
X152011023Y-112569690D01*
X152106261Y-112664928D01*
X152153880Y-112760166D01*
X152153880Y-112950642D01*
X152106261Y-113045880D01*
X152011023Y-113141119D01*
X151820547Y-113188738D01*
X151487214Y-113188738D01*
X151296738Y-113141119D01*
X151201500Y-113045880D01*
X151153880Y-112950642D01*
D11*
X142576666Y-131044904D02*
X142576666Y-130244904D01*
X142881428Y-130244904D01*
X142957619Y-130283000D01*
X142995714Y-130321095D01*
X143033809Y-130397285D01*
X143033809Y-130511571D01*
X142995714Y-130587761D01*
X142957619Y-130625857D01*
X142881428Y-130663952D01*
X142576666Y-130663952D01*
X143338571Y-130816333D02*
X143719523Y-130816333D01*
X143262380Y-131044904D02*
X143529047Y-130244904D01*
X143795714Y-131044904D01*
X144176666Y-130587761D02*
X144100476Y-130549666D01*
X144062380Y-130511571D01*
X144024285Y-130435380D01*
X144024285Y-130397285D01*
X144062380Y-130321095D01*
X144100476Y-130283000D01*
X144176666Y-130244904D01*
X144329047Y-130244904D01*
X144405238Y-130283000D01*
X144443333Y-130321095D01*
X144481428Y-130397285D01*
X144481428Y-130435380D01*
X144443333Y-130511571D01*
X144405238Y-130549666D01*
X144329047Y-130587761D01*
X144176666Y-130587761D01*
X144100476Y-130625857D01*
X144062380Y-130663952D01*
X144024285Y-130740142D01*
X144024285Y-130892523D01*
X144062380Y-130968714D01*
X144100476Y-131006809D01*
X144176666Y-131044904D01*
X144329047Y-131044904D01*
X144405238Y-131006809D01*
X144443333Y-130968714D01*
X144481428Y-130892523D01*
X144481428Y-130740142D01*
X144443333Y-130663952D01*
X144405238Y-130625857D01*
X144329047Y-130587761D01*
D10*
X120904071Y-108418380D02*
X121094547Y-108418380D01*
X121189785Y-108466000D01*
X121285023Y-108561238D01*
X121332642Y-108751714D01*
X121332642Y-109085047D01*
X121285023Y-109275523D01*
X121189785Y-109370761D01*
X121094547Y-109418380D01*
X120904071Y-109418380D01*
X120808833Y-109370761D01*
X120713595Y-109275523D01*
X120665976Y-109085047D01*
X120665976Y-108751714D01*
X120713595Y-108561238D01*
X120808833Y-108466000D01*
X120904071Y-108418380D01*
X121713595Y-108513619D02*
X121761214Y-108466000D01*
X121856452Y-108418380D01*
X122094547Y-108418380D01*
X122189785Y-108466000D01*
X122237404Y-108513619D01*
X122285023Y-108608857D01*
X122285023Y-108704095D01*
X122237404Y-108846952D01*
X121665976Y-109418380D01*
X122285023Y-109418380D01*
X123063071Y-113307880D02*
X123253547Y-113307880D01*
X123348785Y-113355500D01*
X123444023Y-113450738D01*
X123491642Y-113641214D01*
X123491642Y-113974547D01*
X123444023Y-114165023D01*
X123348785Y-114260261D01*
X123253547Y-114307880D01*
X123063071Y-114307880D01*
X122967833Y-114260261D01*
X122872595Y-114165023D01*
X122824976Y-113974547D01*
X122824976Y-113641214D01*
X122872595Y-113450738D01*
X122967833Y-113355500D01*
X123063071Y-113307880D01*
X124444023Y-114307880D02*
X123872595Y-114307880D01*
X124158309Y-114307880D02*
X124158309Y-113307880D01*
X124063071Y-113450738D01*
X123967833Y-113545976D01*
X123872595Y-113593595D01*
X123055095Y-116847880D02*
X123055095Y-115847880D01*
X123293190Y-115847880D01*
X123436047Y-115895500D01*
X123531285Y-115990738D01*
X123578904Y-116085976D01*
X123626523Y-116276452D01*
X123626523Y-116419309D01*
X123578904Y-116609785D01*
X123531285Y-116705023D01*
X123436047Y-116800261D01*
X123293190Y-116847880D01*
X123055095Y-116847880D01*
X123690023Y-119229142D02*
X123642404Y-119276761D01*
X123499547Y-119324380D01*
X123404309Y-119324380D01*
X123261452Y-119276761D01*
X123166214Y-119181523D01*
X123118595Y-119086285D01*
X123070976Y-118895809D01*
X123070976Y-118752952D01*
X123118595Y-118562476D01*
X123166214Y-118467238D01*
X123261452Y-118372000D01*
X123404309Y-118324380D01*
X123499547Y-118324380D01*
X123642404Y-118372000D01*
X123690023Y-118419619D01*
X123515428Y-121340571D02*
X123658285Y-121388190D01*
X123705904Y-121435809D01*
X123753523Y-121531047D01*
X123753523Y-121673904D01*
X123705904Y-121769142D01*
X123658285Y-121816761D01*
X123563047Y-121864380D01*
X123182095Y-121864380D01*
X123182095Y-120864380D01*
X123515428Y-120864380D01*
X123610666Y-120912000D01*
X123658285Y-120959619D01*
X123705904Y-121054857D01*
X123705904Y-121150095D01*
X123658285Y-121245333D01*
X123610666Y-121292952D01*
X123515428Y-121340571D01*
X123182095Y-121340571D01*
X123205904Y-124182166D02*
X123682095Y-124182166D01*
X123110666Y-124467880D02*
X123444000Y-123467880D01*
X123777333Y-124467880D01*
D11*
X133242214Y-130917904D02*
X133242214Y-130117904D01*
X133546976Y-130117904D01*
X133623166Y-130156000D01*
X133661261Y-130194095D01*
X133699357Y-130270285D01*
X133699357Y-130384571D01*
X133661261Y-130460761D01*
X133623166Y-130498857D01*
X133546976Y-130536952D01*
X133242214Y-130536952D01*
X134004119Y-130689333D02*
X134385071Y-130689333D01*
X133927928Y-130917904D02*
X134194595Y-130117904D01*
X134461261Y-130917904D01*
X135146976Y-130917904D02*
X134689833Y-130917904D01*
X134918404Y-130917904D02*
X134918404Y-130117904D01*
X134842214Y-130232190D01*
X134766023Y-130308380D01*
X134689833Y-130346476D01*
X135413642Y-130117904D02*
X135908880Y-130117904D01*
X135642214Y-130422666D01*
X135756500Y-130422666D01*
X135832690Y-130460761D01*
X135870785Y-130498857D01*
X135908880Y-130575047D01*
X135908880Y-130765523D01*
X135870785Y-130841714D01*
X135832690Y-130879809D01*
X135756500Y-130917904D01*
X135527928Y-130917904D01*
X135451738Y-130879809D01*
X135413642Y-130841714D01*
X136544214Y-130790904D02*
X136544214Y-129990904D01*
X136848976Y-129990904D01*
X136925166Y-130029000D01*
X136963261Y-130067095D01*
X137001357Y-130143285D01*
X137001357Y-130257571D01*
X136963261Y-130333761D01*
X136925166Y-130371857D01*
X136848976Y-130409952D01*
X136544214Y-130409952D01*
X137306119Y-130562333D02*
X137687071Y-130562333D01*
X137229928Y-130790904D02*
X137496595Y-129990904D01*
X137763261Y-130790904D01*
X138448976Y-130790904D02*
X137991833Y-130790904D01*
X138220404Y-130790904D02*
X138220404Y-129990904D01*
X138144214Y-130105190D01*
X138068023Y-130181380D01*
X137991833Y-130219476D01*
X138753738Y-130067095D02*
X138791833Y-130029000D01*
X138868023Y-129990904D01*
X139058500Y-129990904D01*
X139134690Y-130029000D01*
X139172785Y-130067095D01*
X139210880Y-130143285D01*
X139210880Y-130219476D01*
X139172785Y-130333761D01*
X138715642Y-130790904D01*
X139210880Y-130790904D01*
X139528714Y-130854404D02*
X139528714Y-130054404D01*
X139833476Y-130054404D01*
X139909666Y-130092500D01*
X139947761Y-130130595D01*
X139985857Y-130206785D01*
X139985857Y-130321071D01*
X139947761Y-130397261D01*
X139909666Y-130435357D01*
X139833476Y-130473452D01*
X139528714Y-130473452D01*
X140290619Y-130625833D02*
X140671571Y-130625833D01*
X140214428Y-130854404D02*
X140481095Y-130054404D01*
X140747761Y-130854404D01*
X141433476Y-130854404D02*
X140976333Y-130854404D01*
X141204904Y-130854404D02*
X141204904Y-130054404D01*
X141128714Y-130168690D01*
X141052523Y-130244880D01*
X140976333Y-130282976D01*
X142195380Y-130854404D02*
X141738238Y-130854404D01*
X141966809Y-130854404D02*
X141966809Y-130054404D01*
X141890619Y-130168690D01*
X141814428Y-130244880D01*
X141738238Y-130282976D01*
X144862666Y-130727404D02*
X144862666Y-129927404D01*
X145167428Y-129927404D01*
X145243619Y-129965500D01*
X145281714Y-130003595D01*
X145319809Y-130079785D01*
X145319809Y-130194071D01*
X145281714Y-130270261D01*
X145243619Y-130308357D01*
X145167428Y-130346452D01*
X144862666Y-130346452D01*
X145624571Y-130498833D02*
X146005523Y-130498833D01*
X145548380Y-130727404D02*
X145815047Y-129927404D01*
X146081714Y-130727404D01*
X146272190Y-129927404D02*
X146805523Y-129927404D01*
X146462666Y-130727404D01*
X147466166Y-130727404D02*
X147466166Y-129927404D01*
X147770928Y-129927404D01*
X147847119Y-129965500D01*
X147885214Y-130003595D01*
X147923309Y-130079785D01*
X147923309Y-130194071D01*
X147885214Y-130270261D01*
X147847119Y-130308357D01*
X147770928Y-130346452D01*
X147466166Y-130346452D01*
X148228071Y-130498833D02*
X148609023Y-130498833D01*
X148151880Y-130727404D02*
X148418547Y-129927404D01*
X148685214Y-130727404D01*
X149294738Y-129927404D02*
X149142357Y-129927404D01*
X149066166Y-129965500D01*
X149028071Y-130003595D01*
X148951880Y-130117880D01*
X148913785Y-130270261D01*
X148913785Y-130575023D01*
X148951880Y-130651214D01*
X148989976Y-130689309D01*
X149066166Y-130727404D01*
X149218547Y-130727404D01*
X149294738Y-130689309D01*
X149332833Y-130651214D01*
X149370928Y-130575023D01*
X149370928Y-130384547D01*
X149332833Y-130308357D01*
X149294738Y-130270261D01*
X149218547Y-130232166D01*
X149066166Y-130232166D01*
X148989976Y-130270261D01*
X148951880Y-130308357D01*
X148913785Y-130384547D01*
X150069666Y-130727404D02*
X150069666Y-129927404D01*
X150374428Y-129927404D01*
X150450619Y-129965500D01*
X150488714Y-130003595D01*
X150526809Y-130079785D01*
X150526809Y-130194071D01*
X150488714Y-130270261D01*
X150450619Y-130308357D01*
X150374428Y-130346452D01*
X150069666Y-130346452D01*
X150831571Y-130498833D02*
X151212523Y-130498833D01*
X150755380Y-130727404D02*
X151022047Y-129927404D01*
X151288714Y-130727404D01*
X151936333Y-129927404D02*
X151555380Y-129927404D01*
X151517285Y-130308357D01*
X151555380Y-130270261D01*
X151631571Y-130232166D01*
X151822047Y-130232166D01*
X151898238Y-130270261D01*
X151936333Y-130308357D01*
X151974428Y-130384547D01*
X151974428Y-130575023D01*
X151936333Y-130651214D01*
X151898238Y-130689309D01*
X151822047Y-130727404D01*
X151631571Y-130727404D01*
X151555380Y-130689309D01*
X151517285Y-130651214D01*
X152355666Y-130727404D02*
X152355666Y-129927404D01*
X152660428Y-129927404D01*
X152736619Y-129965500D01*
X152774714Y-130003595D01*
X152812809Y-130079785D01*
X152812809Y-130194071D01*
X152774714Y-130270261D01*
X152736619Y-130308357D01*
X152660428Y-130346452D01*
X152355666Y-130346452D01*
X153117571Y-130498833D02*
X153498523Y-130498833D01*
X153041380Y-130727404D02*
X153308047Y-129927404D01*
X153574714Y-130727404D01*
X154184238Y-130194071D02*
X154184238Y-130727404D01*
X153993761Y-129889309D02*
X153803285Y-130460738D01*
X154298523Y-130460738D01*
X154895666Y-130790904D02*
X154895666Y-129990904D01*
X155200428Y-129990904D01*
X155276619Y-130029000D01*
X155314714Y-130067095D01*
X155352809Y-130143285D01*
X155352809Y-130257571D01*
X155314714Y-130333761D01*
X155276619Y-130371857D01*
X155200428Y-130409952D01*
X154895666Y-130409952D01*
X155657571Y-130562333D02*
X156038523Y-130562333D01*
X155581380Y-130790904D02*
X155848047Y-129990904D01*
X156114714Y-130790904D01*
X156305190Y-129990904D02*
X156800428Y-129990904D01*
X156533761Y-130295666D01*
X156648047Y-130295666D01*
X156724238Y-130333761D01*
X156762333Y-130371857D01*
X156800428Y-130448047D01*
X156800428Y-130638523D01*
X156762333Y-130714714D01*
X156724238Y-130752809D01*
X156648047Y-130790904D01*
X156419476Y-130790904D01*
X156343285Y-130752809D01*
X156305190Y-130714714D01*
X157499166Y-130790904D02*
X157499166Y-129990904D01*
X157803928Y-129990904D01*
X157880119Y-130029000D01*
X157918214Y-130067095D01*
X157956309Y-130143285D01*
X157956309Y-130257571D01*
X157918214Y-130333761D01*
X157880119Y-130371857D01*
X157803928Y-130409952D01*
X157499166Y-130409952D01*
X158261071Y-130562333D02*
X158642023Y-130562333D01*
X158184880Y-130790904D02*
X158451547Y-129990904D01*
X158718214Y-130790904D01*
X158946785Y-130067095D02*
X158984880Y-130029000D01*
X159061071Y-129990904D01*
X159251547Y-129990904D01*
X159327738Y-130029000D01*
X159365833Y-130067095D01*
X159403928Y-130143285D01*
X159403928Y-130219476D01*
X159365833Y-130333761D01*
X158908690Y-130790904D01*
X159403928Y-130790904D01*
D10*
X158884880Y-107505285D02*
X157884880Y-107505285D01*
X157884880Y-107124333D01*
X157932500Y-107029095D01*
X157980119Y-106981476D01*
X158075357Y-106933857D01*
X158218214Y-106933857D01*
X158313452Y-106981476D01*
X158361071Y-107029095D01*
X158408690Y-107124333D01*
X158408690Y-107505285D01*
X158361071Y-106171952D02*
X158408690Y-106029095D01*
X158456309Y-105981476D01*
X158551547Y-105933857D01*
X158694404Y-105933857D01*
X158789642Y-105981476D01*
X158837261Y-106029095D01*
X158884880Y-106124333D01*
X158884880Y-106505285D01*
X157884880Y-106505285D01*
X157884880Y-106171952D01*
X157932500Y-106076714D01*
X157980119Y-106029095D01*
X158075357Y-105981476D01*
X158170595Y-105981476D01*
X158265833Y-106029095D01*
X158313452Y-106076714D01*
X158361071Y-106171952D01*
X158361071Y-106505285D01*
X158884880Y-104981476D02*
X158884880Y-105552904D01*
X158884880Y-105267190D02*
X157884880Y-105267190D01*
X158027738Y-105362428D01*
X158122976Y-105457666D01*
X158170595Y-105552904D01*
X158218214Y-104124333D02*
X158884880Y-104124333D01*
X157837261Y-104362428D02*
X158551547Y-104600523D01*
X158551547Y-103981476D01*
X156408380Y-107505285D02*
X155408380Y-107505285D01*
X155408380Y-107124333D01*
X155456000Y-107029095D01*
X155503619Y-106981476D01*
X155598857Y-106933857D01*
X155741714Y-106933857D01*
X155836952Y-106981476D01*
X155884571Y-107029095D01*
X155932190Y-107124333D01*
X155932190Y-107505285D01*
X155884571Y-106171952D02*
X155932190Y-106029095D01*
X155979809Y-105981476D01*
X156075047Y-105933857D01*
X156217904Y-105933857D01*
X156313142Y-105981476D01*
X156360761Y-106029095D01*
X156408380Y-106124333D01*
X156408380Y-106505285D01*
X155408380Y-106505285D01*
X155408380Y-106171952D01*
X155456000Y-106076714D01*
X155503619Y-106029095D01*
X155598857Y-105981476D01*
X155694095Y-105981476D01*
X155789333Y-106029095D01*
X155836952Y-106076714D01*
X155884571Y-106171952D01*
X155884571Y-106505285D01*
X156408380Y-104981476D02*
X156408380Y-105552904D01*
X156408380Y-105267190D02*
X155408380Y-105267190D01*
X155551238Y-105362428D01*
X155646476Y-105457666D01*
X155694095Y-105552904D01*
X155408380Y-104648142D02*
X155408380Y-104029095D01*
X155789333Y-104362428D01*
X155789333Y-104219571D01*
X155836952Y-104124333D01*
X155884571Y-104076714D01*
X155979809Y-104029095D01*
X156217904Y-104029095D01*
X156313142Y-104076714D01*
X156360761Y-104124333D01*
X156408380Y-104219571D01*
X156408380Y-104505285D01*
X156360761Y-104600523D01*
X156313142Y-104648142D01*
X153804880Y-107505285D02*
X152804880Y-107505285D01*
X152804880Y-107124333D01*
X152852500Y-107029095D01*
X152900119Y-106981476D01*
X152995357Y-106933857D01*
X153138214Y-106933857D01*
X153233452Y-106981476D01*
X153281071Y-107029095D01*
X153328690Y-107124333D01*
X153328690Y-107505285D01*
X153281071Y-106171952D02*
X153328690Y-106029095D01*
X153376309Y-105981476D01*
X153471547Y-105933857D01*
X153614404Y-105933857D01*
X153709642Y-105981476D01*
X153757261Y-106029095D01*
X153804880Y-106124333D01*
X153804880Y-106505285D01*
X152804880Y-106505285D01*
X152804880Y-106171952D01*
X152852500Y-106076714D01*
X152900119Y-106029095D01*
X152995357Y-105981476D01*
X153090595Y-105981476D01*
X153185833Y-106029095D01*
X153233452Y-106076714D01*
X153281071Y-106171952D01*
X153281071Y-106505285D01*
X153804880Y-104981476D02*
X153804880Y-105552904D01*
X153804880Y-105267190D02*
X152804880Y-105267190D01*
X152947738Y-105362428D01*
X153042976Y-105457666D01*
X153090595Y-105552904D01*
X152900119Y-104600523D02*
X152852500Y-104552904D01*
X152804880Y-104457666D01*
X152804880Y-104219571D01*
X152852500Y-104124333D01*
X152900119Y-104076714D01*
X152995357Y-104029095D01*
X153090595Y-104029095D01*
X153233452Y-104076714D01*
X153804880Y-104648142D01*
X153804880Y-104029095D01*
X151264880Y-107441785D02*
X150264880Y-107441785D01*
X150264880Y-107060833D01*
X150312500Y-106965595D01*
X150360119Y-106917976D01*
X150455357Y-106870357D01*
X150598214Y-106870357D01*
X150693452Y-106917976D01*
X150741071Y-106965595D01*
X150788690Y-107060833D01*
X150788690Y-107441785D01*
X150741071Y-106108452D02*
X150788690Y-105965595D01*
X150836309Y-105917976D01*
X150931547Y-105870357D01*
X151074404Y-105870357D01*
X151169642Y-105917976D01*
X151217261Y-105965595D01*
X151264880Y-106060833D01*
X151264880Y-106441785D01*
X150264880Y-106441785D01*
X150264880Y-106108452D01*
X150312500Y-106013214D01*
X150360119Y-105965595D01*
X150455357Y-105917976D01*
X150550595Y-105917976D01*
X150645833Y-105965595D01*
X150693452Y-106013214D01*
X150741071Y-106108452D01*
X150741071Y-106441785D01*
X151264880Y-104917976D02*
X151264880Y-105489404D01*
X151264880Y-105203690D02*
X150264880Y-105203690D01*
X150407738Y-105298928D01*
X150502976Y-105394166D01*
X150550595Y-105489404D01*
X151264880Y-103965595D02*
X151264880Y-104537023D01*
X151264880Y-104251309D02*
X150264880Y-104251309D01*
X150407738Y-104346547D01*
X150502976Y-104441785D01*
X150550595Y-104537023D01*
X148724880Y-107378285D02*
X147724880Y-107378285D01*
X147724880Y-106997333D01*
X147772500Y-106902095D01*
X147820119Y-106854476D01*
X147915357Y-106806857D01*
X148058214Y-106806857D01*
X148153452Y-106854476D01*
X148201071Y-106902095D01*
X148248690Y-106997333D01*
X148248690Y-107378285D01*
X148201071Y-106044952D02*
X148248690Y-105902095D01*
X148296309Y-105854476D01*
X148391547Y-105806857D01*
X148534404Y-105806857D01*
X148629642Y-105854476D01*
X148677261Y-105902095D01*
X148724880Y-105997333D01*
X148724880Y-106378285D01*
X147724880Y-106378285D01*
X147724880Y-106044952D01*
X147772500Y-105949714D01*
X147820119Y-105902095D01*
X147915357Y-105854476D01*
X148010595Y-105854476D01*
X148105833Y-105902095D01*
X148153452Y-105949714D01*
X148201071Y-106044952D01*
X148201071Y-106378285D01*
X148724880Y-104854476D02*
X148724880Y-105425904D01*
X148724880Y-105140190D02*
X147724880Y-105140190D01*
X147867738Y-105235428D01*
X147962976Y-105330666D01*
X148010595Y-105425904D01*
X147724880Y-104235428D02*
X147724880Y-104140190D01*
X147772500Y-104044952D01*
X147820119Y-103997333D01*
X147915357Y-103949714D01*
X148105833Y-103902095D01*
X148343928Y-103902095D01*
X148534404Y-103949714D01*
X148629642Y-103997333D01*
X148677261Y-104044952D01*
X148724880Y-104140190D01*
X148724880Y-104235428D01*
X148677261Y-104330666D01*
X148629642Y-104378285D01*
X148534404Y-104425904D01*
X148343928Y-104473523D01*
X148105833Y-104473523D01*
X147915357Y-104425904D01*
X147820119Y-104378285D01*
X147772500Y-104330666D01*
X147724880Y-104235428D01*
X146184880Y-107092595D02*
X145184880Y-107092595D01*
X145184880Y-106711642D01*
X145232500Y-106616404D01*
X145280119Y-106568785D01*
X145375357Y-106521166D01*
X145518214Y-106521166D01*
X145613452Y-106568785D01*
X145661071Y-106616404D01*
X145708690Y-106711642D01*
X145708690Y-107092595D01*
X145661071Y-105759261D02*
X145708690Y-105616404D01*
X145756309Y-105568785D01*
X145851547Y-105521166D01*
X145994404Y-105521166D01*
X146089642Y-105568785D01*
X146137261Y-105616404D01*
X146184880Y-105711642D01*
X146184880Y-106092595D01*
X145184880Y-106092595D01*
X145184880Y-105759261D01*
X145232500Y-105664023D01*
X145280119Y-105616404D01*
X145375357Y-105568785D01*
X145470595Y-105568785D01*
X145565833Y-105616404D01*
X145613452Y-105664023D01*
X145661071Y-105759261D01*
X145661071Y-106092595D01*
X146184880Y-105044976D02*
X146184880Y-104854500D01*
X146137261Y-104759261D01*
X146089642Y-104711642D01*
X145946785Y-104616404D01*
X145756309Y-104568785D01*
X145375357Y-104568785D01*
X145280119Y-104616404D01*
X145232500Y-104664023D01*
X145184880Y-104759261D01*
X145184880Y-104949738D01*
X145232500Y-105044976D01*
X145280119Y-105092595D01*
X145375357Y-105140214D01*
X145613452Y-105140214D01*
X145708690Y-105092595D01*
X145756309Y-105044976D01*
X145803928Y-104949738D01*
X145803928Y-104759261D01*
X145756309Y-104664023D01*
X145708690Y-104616404D01*
X145613452Y-104568785D01*
X143708380Y-107029095D02*
X142708380Y-107029095D01*
X142708380Y-106648142D01*
X142756000Y-106552904D01*
X142803619Y-106505285D01*
X142898857Y-106457666D01*
X143041714Y-106457666D01*
X143136952Y-106505285D01*
X143184571Y-106552904D01*
X143232190Y-106648142D01*
X143232190Y-107029095D01*
X143184571Y-105695761D02*
X143232190Y-105552904D01*
X143279809Y-105505285D01*
X143375047Y-105457666D01*
X143517904Y-105457666D01*
X143613142Y-105505285D01*
X143660761Y-105552904D01*
X143708380Y-105648142D01*
X143708380Y-106029095D01*
X142708380Y-106029095D01*
X142708380Y-105695761D01*
X142756000Y-105600523D01*
X142803619Y-105552904D01*
X142898857Y-105505285D01*
X142994095Y-105505285D01*
X143089333Y-105552904D01*
X143136952Y-105600523D01*
X143184571Y-105695761D01*
X143184571Y-106029095D01*
X143136952Y-104886238D02*
X143089333Y-104981476D01*
X143041714Y-105029095D01*
X142946476Y-105076714D01*
X142898857Y-105076714D01*
X142803619Y-105029095D01*
X142756000Y-104981476D01*
X142708380Y-104886238D01*
X142708380Y-104695761D01*
X142756000Y-104600523D01*
X142803619Y-104552904D01*
X142898857Y-104505285D01*
X142946476Y-104505285D01*
X143041714Y-104552904D01*
X143089333Y-104600523D01*
X143136952Y-104695761D01*
X143136952Y-104886238D01*
X143184571Y-104981476D01*
X143232190Y-105029095D01*
X143327428Y-105076714D01*
X143517904Y-105076714D01*
X143613142Y-105029095D01*
X143660761Y-104981476D01*
X143708380Y-104886238D01*
X143708380Y-104695761D01*
X143660761Y-104600523D01*
X143613142Y-104552904D01*
X143517904Y-104505285D01*
X143327428Y-104505285D01*
X143232190Y-104552904D01*
X143184571Y-104600523D01*
X143136952Y-104695761D01*
X141104880Y-107029095D02*
X140104880Y-107029095D01*
X140104880Y-106648142D01*
X140152500Y-106552904D01*
X140200119Y-106505285D01*
X140295357Y-106457666D01*
X140438214Y-106457666D01*
X140533452Y-106505285D01*
X140581071Y-106552904D01*
X140628690Y-106648142D01*
X140628690Y-107029095D01*
X140581071Y-105695761D02*
X140628690Y-105552904D01*
X140676309Y-105505285D01*
X140771547Y-105457666D01*
X140914404Y-105457666D01*
X141009642Y-105505285D01*
X141057261Y-105552904D01*
X141104880Y-105648142D01*
X141104880Y-106029095D01*
X140104880Y-106029095D01*
X140104880Y-105695761D01*
X140152500Y-105600523D01*
X140200119Y-105552904D01*
X140295357Y-105505285D01*
X140390595Y-105505285D01*
X140485833Y-105552904D01*
X140533452Y-105600523D01*
X140581071Y-105695761D01*
X140581071Y-106029095D01*
X140104880Y-105124333D02*
X140104880Y-104457666D01*
X141104880Y-104886238D01*
X138564880Y-107029095D02*
X137564880Y-107029095D01*
X137564880Y-106648142D01*
X137612500Y-106552904D01*
X137660119Y-106505285D01*
X137755357Y-106457666D01*
X137898214Y-106457666D01*
X137993452Y-106505285D01*
X138041071Y-106552904D01*
X138088690Y-106648142D01*
X138088690Y-107029095D01*
X138041071Y-105695761D02*
X138088690Y-105552904D01*
X138136309Y-105505285D01*
X138231547Y-105457666D01*
X138374404Y-105457666D01*
X138469642Y-105505285D01*
X138517261Y-105552904D01*
X138564880Y-105648142D01*
X138564880Y-106029095D01*
X137564880Y-106029095D01*
X137564880Y-105695761D01*
X137612500Y-105600523D01*
X137660119Y-105552904D01*
X137755357Y-105505285D01*
X137850595Y-105505285D01*
X137945833Y-105552904D01*
X137993452Y-105600523D01*
X138041071Y-105695761D01*
X138041071Y-106029095D01*
X137564880Y-104600523D02*
X137564880Y-104791000D01*
X137612500Y-104886238D01*
X137660119Y-104933857D01*
X137802976Y-105029095D01*
X137993452Y-105076714D01*
X138374404Y-105076714D01*
X138469642Y-105029095D01*
X138517261Y-104981476D01*
X138564880Y-104886238D01*
X138564880Y-104695761D01*
X138517261Y-104600523D01*
X138469642Y-104552904D01*
X138374404Y-104505285D01*
X138136309Y-104505285D01*
X138041071Y-104552904D01*
X137993452Y-104600523D01*
X137945833Y-104695761D01*
X137945833Y-104886238D01*
X137993452Y-104981476D01*
X138041071Y-105029095D01*
X138136309Y-105076714D01*
X136088380Y-106965595D02*
X135088380Y-106965595D01*
X135088380Y-106584642D01*
X135136000Y-106489404D01*
X135183619Y-106441785D01*
X135278857Y-106394166D01*
X135421714Y-106394166D01*
X135516952Y-106441785D01*
X135564571Y-106489404D01*
X135612190Y-106584642D01*
X135612190Y-106965595D01*
X135564571Y-105632261D02*
X135612190Y-105489404D01*
X135659809Y-105441785D01*
X135755047Y-105394166D01*
X135897904Y-105394166D01*
X135993142Y-105441785D01*
X136040761Y-105489404D01*
X136088380Y-105584642D01*
X136088380Y-105965595D01*
X135088380Y-105965595D01*
X135088380Y-105632261D01*
X135136000Y-105537023D01*
X135183619Y-105489404D01*
X135278857Y-105441785D01*
X135374095Y-105441785D01*
X135469333Y-105489404D01*
X135516952Y-105537023D01*
X135564571Y-105632261D01*
X135564571Y-105965595D01*
X135088380Y-104489404D02*
X135088380Y-104965595D01*
X135564571Y-105013214D01*
X135516952Y-104965595D01*
X135469333Y-104870357D01*
X135469333Y-104632261D01*
X135516952Y-104537023D01*
X135564571Y-104489404D01*
X135659809Y-104441785D01*
X135897904Y-104441785D01*
X135993142Y-104489404D01*
X136040761Y-104537023D01*
X136088380Y-104632261D01*
X136088380Y-104870357D01*
X136040761Y-104965595D01*
X135993142Y-105013214D01*
X148740880Y-124658380D02*
X148407547Y-124182190D01*
X148169452Y-124658380D02*
X148169452Y-123658380D01*
X148550404Y-123658380D01*
X148645642Y-123706000D01*
X148693261Y-123753619D01*
X148740880Y-123848857D01*
X148740880Y-123991714D01*
X148693261Y-124086952D01*
X148645642Y-124134571D01*
X148550404Y-124182190D01*
X148169452Y-124182190D01*
X149121833Y-124610761D02*
X149264690Y-124658380D01*
X149502785Y-124658380D01*
X149598023Y-124610761D01*
X149645642Y-124563142D01*
X149693261Y-124467904D01*
X149693261Y-124372666D01*
X149645642Y-124277428D01*
X149598023Y-124229809D01*
X149502785Y-124182190D01*
X149312309Y-124134571D01*
X149217071Y-124086952D01*
X149169452Y-124039333D01*
X149121833Y-123944095D01*
X149121833Y-123848857D01*
X149169452Y-123753619D01*
X149217071Y-123706000D01*
X149312309Y-123658380D01*
X149550404Y-123658380D01*
X149693261Y-123706000D01*
X149978976Y-123658380D02*
X150550404Y-123658380D01*
X150264690Y-124658380D02*
X150264690Y-123658380D01*
X131072166Y-129595571D02*
X131215023Y-129643190D01*
X131262642Y-129690809D01*
X131310261Y-129786047D01*
X131310261Y-129928904D01*
X131262642Y-130024142D01*
X131215023Y-130071761D01*
X131119785Y-130119380D01*
X130738833Y-130119380D01*
X130738833Y-129119380D01*
X131072166Y-129119380D01*
X131167404Y-129167000D01*
X131215023Y-129214619D01*
X131262642Y-129309857D01*
X131262642Y-129405095D01*
X131215023Y-129500333D01*
X131167404Y-129547952D01*
X131072166Y-129595571D01*
X130738833Y-129595571D01*
X131929309Y-129119380D02*
X132119785Y-129119380D01*
X132215023Y-129167000D01*
X132310261Y-129262238D01*
X132357880Y-129452714D01*
X132357880Y-129786047D01*
X132310261Y-129976523D01*
X132215023Y-130071761D01*
X132119785Y-130119380D01*
X131929309Y-130119380D01*
X131834071Y-130071761D01*
X131738833Y-129976523D01*
X131691214Y-129786047D01*
X131691214Y-129452714D01*
X131738833Y-129262238D01*
X131834071Y-129167000D01*
X131929309Y-129119380D01*
X132976928Y-129119380D02*
X133167404Y-129119380D01*
X133262642Y-129167000D01*
X133357880Y-129262238D01*
X133405500Y-129452714D01*
X133405500Y-129786047D01*
X133357880Y-129976523D01*
X133262642Y-130071761D01*
X133167404Y-130119380D01*
X132976928Y-130119380D01*
X132881690Y-130071761D01*
X132786452Y-129976523D01*
X132738833Y-129786047D01*
X132738833Y-129452714D01*
X132786452Y-129262238D01*
X132881690Y-129167000D01*
X132976928Y-129119380D01*
X133691214Y-129119380D02*
X134262642Y-129119380D01*
X133976928Y-130119380D02*
X133976928Y-129119380D01*
X134786452Y-129119380D02*
X134881690Y-129119380D01*
X134976928Y-129167000D01*
X135024547Y-129214619D01*
X135072166Y-129309857D01*
X135119785Y-129500333D01*
X135119785Y-129738428D01*
X135072166Y-129928904D01*
X135024547Y-130024142D01*
X134976928Y-130071761D01*
X134881690Y-130119380D01*
X134786452Y-130119380D01*
X134691214Y-130071761D01*
X134643595Y-130024142D01*
X134595976Y-129928904D01*
X134548357Y-129738428D01*
X134548357Y-129500333D01*
X134595976Y-129309857D01*
X134643595Y-129214619D01*
X134691214Y-129167000D01*
X134786452Y-129119380D01*
D12*
%TO.C,D3*%
X159752500Y-122656500D02*
X159752500Y-120171500D01*
X159752500Y-120171500D02*
X158382500Y-120171500D01*
X158382500Y-120171500D02*
X158382500Y-122656500D01*
%TO.C,D2*%
X158255500Y-111849000D02*
X158255500Y-114334000D01*
X158255500Y-114334000D02*
X159625500Y-114334000D01*
X159625500Y-114334000D02*
X159625500Y-111849000D01*
%TO.C,D1*%
X139205500Y-127406500D02*
X139205500Y-129891500D01*
X139205500Y-129891500D02*
X140575500Y-129891500D01*
X140575500Y-129891500D02*
X140575500Y-127406500D01*
%TO.C,C19*%
X144316267Y-121350500D02*
X143973733Y-121350500D01*
X144316267Y-120330500D02*
X143973733Y-120330500D01*
%TO.C,Y1*%
X142335500Y-121857500D02*
X142335500Y-125157500D01*
X142335500Y-125157500D02*
X146335500Y-125157500D01*
%TO.C,U6*%
X157360500Y-128839500D02*
X158290500Y-128839500D01*
X160520500Y-128839500D02*
X159590500Y-128839500D01*
X160520500Y-128839500D02*
X160520500Y-126679500D01*
X157360500Y-128839500D02*
X157360500Y-127379500D01*
%TO.C,FB1*%
X162317500Y-132265922D02*
X162317500Y-132783078D01*
X160897500Y-132265922D02*
X160897500Y-132783078D01*
%TO.C,C18*%
X144100733Y-125410500D02*
X144443267Y-125410500D01*
X144100733Y-126430500D02*
X144443267Y-126430500D01*
%TO.C,C17*%
X156910500Y-127844733D02*
X156910500Y-128187267D01*
X155890500Y-127844733D02*
X155890500Y-128187267D01*
%TO.C,C16*%
X160970500Y-128250767D02*
X160970500Y-127908233D01*
X161990500Y-128250767D02*
X161990500Y-127908233D01*
%TO.C,C13*%
X162999922Y-113082000D02*
X163517078Y-113082000D01*
X162999922Y-114502000D02*
X163517078Y-114502000D01*
%TO.C,SW2*%
X151361500Y-126886500D02*
X151361500Y-126986500D01*
X146961500Y-128486500D02*
X151361500Y-128486500D01*
X151361500Y-125386500D02*
X146961500Y-125386500D01*
X146961500Y-126886500D02*
X146961500Y-126986500D01*
%TO.C,SW1*%
X135169000Y-127013500D02*
X135169000Y-127113500D01*
X130769000Y-128613500D02*
X135169000Y-128613500D01*
X135169000Y-125513500D02*
X130769000Y-125513500D01*
X130769000Y-127013500D02*
X130769000Y-127113500D01*
%TO.C,C12*%
X161292000Y-113010767D02*
X161292000Y-112668233D01*
X160272000Y-113010767D02*
X160272000Y-112668233D01*
%TO.C,U4*%
X171889600Y-119220000D02*
X172339600Y-119220000D01*
X171889600Y-119220000D02*
X171889600Y-118770000D01*
D10*
%TO.C,U5*%
X127180000Y-115101500D02*
X127180000Y-113876500D01*
X124055000Y-115101500D02*
X124055000Y-118451500D01*
X127405000Y-115101500D02*
X127405000Y-118451500D01*
X124055000Y-115101500D02*
X124355000Y-115101500D01*
X124055000Y-118451500D02*
X124355000Y-118451500D01*
X127405000Y-118451500D02*
X127105000Y-118451500D01*
X127405000Y-115101500D02*
X127180000Y-115101500D01*
D12*
%TO.C,U3*%
X159688000Y-118606000D02*
X159688000Y-119331000D01*
X163908000Y-115111000D02*
X163183000Y-115111000D01*
X163908000Y-115836000D02*
X163908000Y-115111000D01*
X163908000Y-119331000D02*
X163183000Y-119331000D01*
X163908000Y-118606000D02*
X163908000Y-119331000D01*
X159688000Y-115111000D02*
X160413000Y-115111000D01*
X159688000Y-115836000D02*
X159688000Y-115111000D01*
%TO.C,R12*%
X126430500Y-110724767D02*
X126430500Y-110382233D01*
X125410500Y-110724767D02*
X125410500Y-110382233D01*
%TO.C,R11*%
X123696000Y-110382233D02*
X123696000Y-110724767D01*
X124716000Y-110382233D02*
X124716000Y-110724767D01*
%TO.C,R10*%
X160191267Y-123886500D02*
X159848733Y-123886500D01*
X160191267Y-124906500D02*
X159848733Y-124906500D01*
%TO.C,R9*%
X157562733Y-110619000D02*
X157905267Y-110619000D01*
X157562733Y-109599000D02*
X157905267Y-109599000D01*
%TO.C,R8*%
X166770233Y-117096000D02*
X167112767Y-117096000D01*
X166770233Y-116076000D02*
X167112767Y-116076000D01*
%TO.C,R7*%
X166833733Y-119064500D02*
X167176267Y-119064500D01*
X166833733Y-118044500D02*
X167176267Y-118044500D01*
%TO.C,R6*%
X164340000Y-111296267D02*
X164340000Y-110953733D01*
X163320000Y-111296267D02*
X163320000Y-110953733D01*
%TO.C,J5*%
X120022000Y-122742000D02*
X120027700Y-110045500D01*
X122682000Y-125342000D02*
X121352000Y-125342000D01*
X122682000Y-122742000D02*
X122669300Y-110045500D01*
X122682000Y-124012000D02*
X122682000Y-125342000D01*
X122682000Y-122742000D02*
X120022000Y-122742000D01*
X122669300Y-110045500D02*
X120027700Y-110045500D01*
%TO.C,C15*%
X130194233Y-113794000D02*
X130536767Y-113794000D01*
X130194233Y-112774000D02*
X130536767Y-112774000D01*
%TO.C,C14*%
X128014000Y-115525733D02*
X128014000Y-115868267D01*
X129034000Y-115525733D02*
X129034000Y-115868267D01*
%TO.C,C11*%
X167176267Y-114425000D02*
X166833733Y-114425000D01*
X167176267Y-115445000D02*
X166833733Y-115445000D01*
%TO.C,C10*%
X167112767Y-119695500D02*
X166770233Y-119695500D01*
X167112767Y-120715500D02*
X166770233Y-120715500D01*
%TO.C,C9*%
X166308500Y-112312267D02*
X166308500Y-111969733D01*
X165288500Y-112312267D02*
X165288500Y-111969733D01*
%TO.C,J4*%
X156926900Y-116760001D02*
X156926900Y-121836501D01*
X154266900Y-114160001D02*
X155596900Y-114160001D01*
X154266900Y-116760001D02*
X154266900Y-121836501D01*
X154266900Y-115490001D02*
X154266900Y-114160001D01*
X154266900Y-116760001D02*
X156926900Y-116760001D01*
X154266900Y-121836501D02*
X156926900Y-121836501D01*
%TO.C,J3*%
X153347001Y-116760001D02*
X153347001Y-121836501D01*
X150687001Y-114160001D02*
X152017001Y-114160001D01*
X150687001Y-116760001D02*
X150687001Y-121836501D01*
X150687001Y-115490001D02*
X150687001Y-114160001D01*
X150687001Y-116760001D02*
X153347001Y-116760001D01*
X150687001Y-121836501D02*
X153347001Y-121836501D01*
%TO.C,C8*%
X132145500Y-116527733D02*
X132145500Y-116870267D01*
X131125500Y-116527733D02*
X131125500Y-116870267D01*
%TO.C,C6*%
X138664767Y-125287500D02*
X138322233Y-125287500D01*
X138664767Y-124267500D02*
X138322233Y-124267500D01*
%TO.C,J2*%
X157159000Y-134041500D02*
X134302500Y-134041500D01*
X159759000Y-131381500D02*
X159759000Y-132711500D01*
X157159000Y-131381500D02*
X134302500Y-131381500D01*
X158429000Y-131381500D02*
X159759000Y-131381500D01*
X157159000Y-131381500D02*
X157159000Y-134041500D01*
X134302500Y-131381500D02*
X134302500Y-134041500D01*
%TO.C,J1*%
X136842500Y-101200600D02*
X159699000Y-101200600D01*
X134242500Y-103860600D02*
X134242500Y-102530600D01*
X136842500Y-103860600D02*
X159699000Y-103860600D01*
X135572500Y-103860600D02*
X134242500Y-103860600D01*
X136842500Y-103860600D02*
X136842500Y-101200600D01*
X159699000Y-103860600D02*
X159699000Y-101200600D01*
%TO.C,U2*%
X138684698Y-121436613D02*
X139596866Y-122348781D01*
X138366500Y-121754811D02*
X138684698Y-121436613D01*
X138048302Y-121436613D02*
X138366500Y-121754811D01*
X133261189Y-116649500D02*
X133579387Y-116331302D01*
X133579387Y-116967698D02*
X133261189Y-116649500D01*
X143471811Y-116649500D02*
X143153613Y-116967698D01*
X143153613Y-116331302D02*
X143471811Y-116649500D01*
X138366500Y-111544189D02*
X138048302Y-111862387D01*
X138684698Y-111862387D02*
X138366500Y-111544189D01*
%TO.C,U1*%
X169098500Y-128262500D02*
X167638500Y-128262500D01*
X169098500Y-125102500D02*
X166938500Y-125102500D01*
X169098500Y-125102500D02*
X169098500Y-126032500D01*
X169098500Y-128262500D02*
X169098500Y-127332500D01*
%TO.C,R5*%
X147110267Y-118870000D02*
X146767733Y-118870000D01*
X147110267Y-119890000D02*
X146767733Y-119890000D01*
%TO.C,R4*%
X131933767Y-123442000D02*
X131591233Y-123442000D01*
X131933767Y-124462000D02*
X131591233Y-124462000D01*
%TO.C,R3*%
X142242000Y-128504767D02*
X142242000Y-128162233D01*
X141222000Y-128504767D02*
X141222000Y-128162233D01*
%TO.C,R2*%
X128712500Y-110445733D02*
X128712500Y-110788267D01*
X129732500Y-110445733D02*
X129732500Y-110788267D01*
%TO.C,R1*%
X127061500Y-110382233D02*
X127061500Y-110724767D01*
X128081500Y-110382233D02*
X128081500Y-110724767D01*
%TO.C,C7*%
X138537767Y-107821000D02*
X138195233Y-107821000D01*
X138537767Y-108841000D02*
X138195233Y-108841000D01*
%TO.C,C5*%
X138664767Y-122807000D02*
X138322233Y-122807000D01*
X138664767Y-123827000D02*
X138322233Y-123827000D01*
%TO.C,C4*%
X129601500Y-116527733D02*
X129601500Y-116870267D01*
X130621500Y-116527733D02*
X130621500Y-116870267D01*
%TO.C,C3*%
X138537767Y-109472000D02*
X138195233Y-109472000D01*
X138537767Y-110492000D02*
X138195233Y-110492000D01*
%TO.C,C2*%
X166308500Y-126790267D02*
X166308500Y-126447733D01*
X165288500Y-126790267D02*
X165288500Y-126447733D01*
%TO.C,C1*%
X168509767Y-123632500D02*
X168167233Y-123632500D01*
X168509767Y-124652500D02*
X168167233Y-124652500D01*
%TO.C,D3*%
D10*
X160899880Y-122594595D02*
X159899880Y-122594595D01*
X159899880Y-122356500D01*
X159947500Y-122213642D01*
X160042738Y-122118404D01*
X160137976Y-122070785D01*
X160328452Y-122023166D01*
X160471309Y-122023166D01*
X160661785Y-122070785D01*
X160757023Y-122118404D01*
X160852261Y-122213642D01*
X160899880Y-122356500D01*
X160899880Y-122594595D01*
X159899880Y-121689833D02*
X159899880Y-121070785D01*
X160280833Y-121404119D01*
X160280833Y-121261261D01*
X160328452Y-121166023D01*
X160376071Y-121118404D01*
X160471309Y-121070785D01*
X160709404Y-121070785D01*
X160804642Y-121118404D01*
X160852261Y-121166023D01*
X160899880Y-121261261D01*
X160899880Y-121546976D01*
X160852261Y-121642214D01*
X160804642Y-121689833D01*
%TO.C,D2*%
X158012880Y-113387095D02*
X157012880Y-113387095D01*
X157012880Y-113149000D01*
X157060500Y-113006142D01*
X157155738Y-112910904D01*
X157250976Y-112863285D01*
X157441452Y-112815666D01*
X157584309Y-112815666D01*
X157774785Y-112863285D01*
X157870023Y-112910904D01*
X157965261Y-113006142D01*
X158012880Y-113149000D01*
X158012880Y-113387095D01*
X157108119Y-112434714D02*
X157060500Y-112387095D01*
X157012880Y-112291857D01*
X157012880Y-112053761D01*
X157060500Y-111958523D01*
X157108119Y-111910904D01*
X157203357Y-111863285D01*
X157298595Y-111863285D01*
X157441452Y-111910904D01*
X158012880Y-112482333D01*
X158012880Y-111863285D01*
%TO.C,D1*%
X138962880Y-128944595D02*
X137962880Y-128944595D01*
X137962880Y-128706500D01*
X138010500Y-128563642D01*
X138105738Y-128468404D01*
X138200976Y-128420785D01*
X138391452Y-128373166D01*
X138534309Y-128373166D01*
X138724785Y-128420785D01*
X138820023Y-128468404D01*
X138915261Y-128563642D01*
X138962880Y-128706500D01*
X138962880Y-128944595D01*
X138962880Y-127420785D02*
X138962880Y-127992214D01*
X138962880Y-127706500D02*
X137962880Y-127706500D01*
X138105738Y-127801738D01*
X138200976Y-127896976D01*
X138248595Y-127992214D01*
%TO.C,C19*%
X146486642Y-121261142D02*
X146439023Y-121308761D01*
X146296166Y-121356380D01*
X146200928Y-121356380D01*
X146058071Y-121308761D01*
X145962833Y-121213523D01*
X145915214Y-121118285D01*
X145867595Y-120927809D01*
X145867595Y-120784952D01*
X145915214Y-120594476D01*
X145962833Y-120499238D01*
X146058071Y-120404000D01*
X146200928Y-120356380D01*
X146296166Y-120356380D01*
X146439023Y-120404000D01*
X146486642Y-120451619D01*
X147439023Y-121356380D02*
X146867595Y-121356380D01*
X147153309Y-121356380D02*
X147153309Y-120356380D01*
X147058071Y-120499238D01*
X146962833Y-120594476D01*
X146867595Y-120642095D01*
X147915214Y-121356380D02*
X148105690Y-121356380D01*
X148200928Y-121308761D01*
X148248547Y-121261142D01*
X148343785Y-121118285D01*
X148391404Y-120927809D01*
X148391404Y-120546857D01*
X148343785Y-120451619D01*
X148296166Y-120404000D01*
X148200928Y-120356380D01*
X148010452Y-120356380D01*
X147915214Y-120404000D01*
X147867595Y-120451619D01*
X147819976Y-120546857D01*
X147819976Y-120784952D01*
X147867595Y-120880190D01*
X147915214Y-120927809D01*
X148010452Y-120975428D01*
X148200928Y-120975428D01*
X148296166Y-120927809D01*
X148343785Y-120880190D01*
X148391404Y-120784952D01*
%TO.C,Y1*%
X146907309Y-122467690D02*
X146907309Y-122943880D01*
X146573976Y-121943880D02*
X146907309Y-122467690D01*
X147240642Y-121943880D01*
X148097785Y-122943880D02*
X147526357Y-122943880D01*
X147812071Y-122943880D02*
X147812071Y-121943880D01*
X147716833Y-122086738D01*
X147621595Y-122181976D01*
X147526357Y-122229595D01*
%TO.C,U6*%
X160782095Y-129754380D02*
X160782095Y-130563904D01*
X160829714Y-130659142D01*
X160877333Y-130706761D01*
X160972571Y-130754380D01*
X161163047Y-130754380D01*
X161258285Y-130706761D01*
X161305904Y-130659142D01*
X161353523Y-130563904D01*
X161353523Y-129754380D01*
X162258285Y-129754380D02*
X162067809Y-129754380D01*
X161972571Y-129802000D01*
X161924952Y-129849619D01*
X161829714Y-129992476D01*
X161782095Y-130182952D01*
X161782095Y-130563904D01*
X161829714Y-130659142D01*
X161877333Y-130706761D01*
X161972571Y-130754380D01*
X162163047Y-130754380D01*
X162258285Y-130706761D01*
X162305904Y-130659142D01*
X162353523Y-130563904D01*
X162353523Y-130325809D01*
X162305904Y-130230571D01*
X162258285Y-130182952D01*
X162163047Y-130135333D01*
X161972571Y-130135333D01*
X161877333Y-130182952D01*
X161829714Y-130230571D01*
X161782095Y-130325809D01*
%TO.C,FB1*%
X163186071Y-133357833D02*
X163186071Y-133691166D01*
X163709880Y-133691166D02*
X162709880Y-133691166D01*
X162709880Y-133214976D01*
X163186071Y-132500690D02*
X163233690Y-132357833D01*
X163281309Y-132310214D01*
X163376547Y-132262595D01*
X163519404Y-132262595D01*
X163614642Y-132310214D01*
X163662261Y-132357833D01*
X163709880Y-132453071D01*
X163709880Y-132834023D01*
X162709880Y-132834023D01*
X162709880Y-132500690D01*
X162757500Y-132405452D01*
X162805119Y-132357833D01*
X162900357Y-132310214D01*
X162995595Y-132310214D01*
X163090833Y-132357833D01*
X163138452Y-132405452D01*
X163186071Y-132500690D01*
X163186071Y-132834023D01*
X163709880Y-131310214D02*
X163709880Y-131881642D01*
X163709880Y-131595928D02*
X162709880Y-131595928D01*
X162852738Y-131691166D01*
X162947976Y-131786404D01*
X162995595Y-131881642D01*
%TO.C,C18*%
X143629142Y-128627142D02*
X143581523Y-128674761D01*
X143438666Y-128722380D01*
X143343428Y-128722380D01*
X143200571Y-128674761D01*
X143105333Y-128579523D01*
X143057714Y-128484285D01*
X143010095Y-128293809D01*
X143010095Y-128150952D01*
X143057714Y-127960476D01*
X143105333Y-127865238D01*
X143200571Y-127770000D01*
X143343428Y-127722380D01*
X143438666Y-127722380D01*
X143581523Y-127770000D01*
X143629142Y-127817619D01*
X144581523Y-128722380D02*
X144010095Y-128722380D01*
X144295809Y-128722380D02*
X144295809Y-127722380D01*
X144200571Y-127865238D01*
X144105333Y-127960476D01*
X144010095Y-128008095D01*
X145152952Y-128150952D02*
X145057714Y-128103333D01*
X145010095Y-128055714D01*
X144962476Y-127960476D01*
X144962476Y-127912857D01*
X145010095Y-127817619D01*
X145057714Y-127770000D01*
X145152952Y-127722380D01*
X145343428Y-127722380D01*
X145438666Y-127770000D01*
X145486285Y-127817619D01*
X145533904Y-127912857D01*
X145533904Y-127960476D01*
X145486285Y-128055714D01*
X145438666Y-128103333D01*
X145343428Y-128150952D01*
X145152952Y-128150952D01*
X145057714Y-128198571D01*
X145010095Y-128246190D01*
X144962476Y-128341428D01*
X144962476Y-128531904D01*
X145010095Y-128627142D01*
X145057714Y-128674761D01*
X145152952Y-128722380D01*
X145343428Y-128722380D01*
X145438666Y-128674761D01*
X145486285Y-128627142D01*
X145533904Y-128531904D01*
X145533904Y-128341428D01*
X145486285Y-128246190D01*
X145438666Y-128198571D01*
X145343428Y-128150952D01*
%TO.C,C17*%
X155376642Y-126087142D02*
X155329023Y-126134761D01*
X155186166Y-126182380D01*
X155090928Y-126182380D01*
X154948071Y-126134761D01*
X154852833Y-126039523D01*
X154805214Y-125944285D01*
X154757595Y-125753809D01*
X154757595Y-125610952D01*
X154805214Y-125420476D01*
X154852833Y-125325238D01*
X154948071Y-125230000D01*
X155090928Y-125182380D01*
X155186166Y-125182380D01*
X155329023Y-125230000D01*
X155376642Y-125277619D01*
X156329023Y-126182380D02*
X155757595Y-126182380D01*
X156043309Y-126182380D02*
X156043309Y-125182380D01*
X155948071Y-125325238D01*
X155852833Y-125420476D01*
X155757595Y-125468095D01*
X156662357Y-125182380D02*
X157329023Y-125182380D01*
X156900452Y-126182380D01*
%TO.C,C16*%
X161282142Y-126087142D02*
X161234523Y-126134761D01*
X161091666Y-126182380D01*
X160996428Y-126182380D01*
X160853571Y-126134761D01*
X160758333Y-126039523D01*
X160710714Y-125944285D01*
X160663095Y-125753809D01*
X160663095Y-125610952D01*
X160710714Y-125420476D01*
X160758333Y-125325238D01*
X160853571Y-125230000D01*
X160996428Y-125182380D01*
X161091666Y-125182380D01*
X161234523Y-125230000D01*
X161282142Y-125277619D01*
X162234523Y-126182380D02*
X161663095Y-126182380D01*
X161948809Y-126182380D02*
X161948809Y-125182380D01*
X161853571Y-125325238D01*
X161758333Y-125420476D01*
X161663095Y-125468095D01*
X163091666Y-125182380D02*
X162901190Y-125182380D01*
X162805952Y-125230000D01*
X162758333Y-125277619D01*
X162663095Y-125420476D01*
X162615476Y-125610952D01*
X162615476Y-125991904D01*
X162663095Y-126087142D01*
X162710714Y-126134761D01*
X162805952Y-126182380D01*
X162996428Y-126182380D01*
X163091666Y-126134761D01*
X163139285Y-126087142D01*
X163186904Y-125991904D01*
X163186904Y-125753809D01*
X163139285Y-125658571D01*
X163091666Y-125610952D01*
X162996428Y-125563333D01*
X162805952Y-125563333D01*
X162710714Y-125610952D01*
X162663095Y-125658571D01*
X162615476Y-125753809D01*
%TO.C,C13*%
X162726642Y-112212357D02*
X162774261Y-112259976D01*
X162821880Y-112402833D01*
X162821880Y-112498071D01*
X162774261Y-112640928D01*
X162679023Y-112736166D01*
X162583785Y-112783785D01*
X162393309Y-112831404D01*
X162250452Y-112831404D01*
X162059976Y-112783785D01*
X161964738Y-112736166D01*
X161869500Y-112640928D01*
X161821880Y-112498071D01*
X161821880Y-112402833D01*
X161869500Y-112259976D01*
X161917119Y-112212357D01*
X162821880Y-111259976D02*
X162821880Y-111831404D01*
X162821880Y-111545690D02*
X161821880Y-111545690D01*
X161964738Y-111640928D01*
X162059976Y-111736166D01*
X162107595Y-111831404D01*
X161821880Y-110926642D02*
X161821880Y-110307595D01*
X162202833Y-110640928D01*
X162202833Y-110498071D01*
X162250452Y-110402833D01*
X162298071Y-110355214D01*
X162393309Y-110307595D01*
X162631404Y-110307595D01*
X162726642Y-110355214D01*
X162774261Y-110402833D01*
X162821880Y-110498071D01*
X162821880Y-110783785D01*
X162774261Y-110879023D01*
X162726642Y-110926642D01*
%TO.C,SW2*%
X149566261Y-128333333D02*
X149613880Y-128190476D01*
X149613880Y-127952380D01*
X149566261Y-127857142D01*
X149518642Y-127809523D01*
X149423404Y-127761904D01*
X149328166Y-127761904D01*
X149232928Y-127809523D01*
X149185309Y-127857142D01*
X149137690Y-127952380D01*
X149090071Y-128142857D01*
X149042452Y-128238095D01*
X148994833Y-128285714D01*
X148899595Y-128333333D01*
X148804357Y-128333333D01*
X148709119Y-128285714D01*
X148661500Y-128238095D01*
X148613880Y-128142857D01*
X148613880Y-127904761D01*
X148661500Y-127761904D01*
X148613880Y-127428571D02*
X149613880Y-127190476D01*
X148899595Y-127000000D01*
X149613880Y-126809523D01*
X148613880Y-126571428D01*
X148709119Y-126238095D02*
X148661500Y-126190476D01*
X148613880Y-126095238D01*
X148613880Y-125857142D01*
X148661500Y-125761904D01*
X148709119Y-125714285D01*
X148804357Y-125666666D01*
X148899595Y-125666666D01*
X149042452Y-125714285D01*
X149613880Y-126285714D01*
X149613880Y-125666666D01*
%TO.C,SW1*%
X133310261Y-128206333D02*
X133357880Y-128063476D01*
X133357880Y-127825380D01*
X133310261Y-127730142D01*
X133262642Y-127682523D01*
X133167404Y-127634904D01*
X133072166Y-127634904D01*
X132976928Y-127682523D01*
X132929309Y-127730142D01*
X132881690Y-127825380D01*
X132834071Y-128015857D01*
X132786452Y-128111095D01*
X132738833Y-128158714D01*
X132643595Y-128206333D01*
X132548357Y-128206333D01*
X132453119Y-128158714D01*
X132405500Y-128111095D01*
X132357880Y-128015857D01*
X132357880Y-127777761D01*
X132405500Y-127634904D01*
X132357880Y-127301571D02*
X133357880Y-127063476D01*
X132643595Y-126873000D01*
X133357880Y-126682523D01*
X132357880Y-126444428D01*
X133357880Y-125539666D02*
X133357880Y-126111095D01*
X133357880Y-125825380D02*
X132357880Y-125825380D01*
X132500738Y-125920619D01*
X132595976Y-126015857D01*
X132643595Y-126111095D01*
%TO.C,C12*%
X161393142Y-110307357D02*
X161440761Y-110354976D01*
X161488380Y-110497833D01*
X161488380Y-110593071D01*
X161440761Y-110735928D01*
X161345523Y-110831166D01*
X161250285Y-110878785D01*
X161059809Y-110926404D01*
X160916952Y-110926404D01*
X160726476Y-110878785D01*
X160631238Y-110831166D01*
X160536000Y-110735928D01*
X160488380Y-110593071D01*
X160488380Y-110497833D01*
X160536000Y-110354976D01*
X160583619Y-110307357D01*
X161488380Y-109354976D02*
X161488380Y-109926404D01*
X161488380Y-109640690D02*
X160488380Y-109640690D01*
X160631238Y-109735928D01*
X160726476Y-109831166D01*
X160774095Y-109926404D01*
X160583619Y-108974023D02*
X160536000Y-108926404D01*
X160488380Y-108831166D01*
X160488380Y-108593071D01*
X160536000Y-108497833D01*
X160583619Y-108450214D01*
X160678857Y-108402595D01*
X160774095Y-108402595D01*
X160916952Y-108450214D01*
X161488380Y-109021642D01*
X161488380Y-108402595D01*
%TO.C,U5*%
X125182380Y-117411404D02*
X125991904Y-117411404D01*
X126087142Y-117363785D01*
X126134761Y-117316166D01*
X126182380Y-117220928D01*
X126182380Y-117030452D01*
X126134761Y-116935214D01*
X126087142Y-116887595D01*
X125991904Y-116839976D01*
X125182380Y-116839976D01*
X125182380Y-115887595D02*
X125182380Y-116363785D01*
X125658571Y-116411404D01*
X125610952Y-116363785D01*
X125563333Y-116268547D01*
X125563333Y-116030452D01*
X125610952Y-115935214D01*
X125658571Y-115887595D01*
X125753809Y-115839976D01*
X125991904Y-115839976D01*
X126087142Y-115887595D01*
X126134761Y-115935214D01*
X126182380Y-116030452D01*
X126182380Y-116268547D01*
X126134761Y-116363785D01*
X126087142Y-116411404D01*
%TO.C,R12*%
X126499880Y-108084857D02*
X126023690Y-108418190D01*
X126499880Y-108656285D02*
X125499880Y-108656285D01*
X125499880Y-108275333D01*
X125547500Y-108180095D01*
X125595119Y-108132476D01*
X125690357Y-108084857D01*
X125833214Y-108084857D01*
X125928452Y-108132476D01*
X125976071Y-108180095D01*
X126023690Y-108275333D01*
X126023690Y-108656285D01*
X126499880Y-107132476D02*
X126499880Y-107703904D01*
X126499880Y-107418190D02*
X125499880Y-107418190D01*
X125642738Y-107513428D01*
X125737976Y-107608666D01*
X125785595Y-107703904D01*
X125595119Y-106751523D02*
X125547500Y-106703904D01*
X125499880Y-106608666D01*
X125499880Y-106370571D01*
X125547500Y-106275333D01*
X125595119Y-106227714D01*
X125690357Y-106180095D01*
X125785595Y-106180095D01*
X125928452Y-106227714D01*
X126499880Y-106799142D01*
X126499880Y-106180095D01*
%TO.C,R11*%
X124721880Y-108021357D02*
X124245690Y-108354690D01*
X124721880Y-108592785D02*
X123721880Y-108592785D01*
X123721880Y-108211833D01*
X123769500Y-108116595D01*
X123817119Y-108068976D01*
X123912357Y-108021357D01*
X124055214Y-108021357D01*
X124150452Y-108068976D01*
X124198071Y-108116595D01*
X124245690Y-108211833D01*
X124245690Y-108592785D01*
X124721880Y-107068976D02*
X124721880Y-107640404D01*
X124721880Y-107354690D02*
X123721880Y-107354690D01*
X123864738Y-107449928D01*
X123959976Y-107545166D01*
X124007595Y-107640404D01*
X124721880Y-106116595D02*
X124721880Y-106688023D01*
X124721880Y-106402309D02*
X123721880Y-106402309D01*
X123864738Y-106497547D01*
X123959976Y-106592785D01*
X124007595Y-106688023D01*
%TO.C,R10*%
X162488642Y-123896380D02*
X162155309Y-123420190D01*
X161917214Y-123896380D02*
X161917214Y-122896380D01*
X162298166Y-122896380D01*
X162393404Y-122944000D01*
X162441023Y-122991619D01*
X162488642Y-123086857D01*
X162488642Y-123229714D01*
X162441023Y-123324952D01*
X162393404Y-123372571D01*
X162298166Y-123420190D01*
X161917214Y-123420190D01*
X163441023Y-123896380D02*
X162869595Y-123896380D01*
X163155309Y-123896380D02*
X163155309Y-122896380D01*
X163060071Y-123039238D01*
X162964833Y-123134476D01*
X162869595Y-123182095D01*
X164060071Y-122896380D02*
X164155309Y-122896380D01*
X164250547Y-122944000D01*
X164298166Y-122991619D01*
X164345785Y-123086857D01*
X164393404Y-123277333D01*
X164393404Y-123515428D01*
X164345785Y-123705904D01*
X164298166Y-123801142D01*
X164250547Y-123848761D01*
X164155309Y-123896380D01*
X164060071Y-123896380D01*
X163964833Y-123848761D01*
X163917214Y-123801142D01*
X163869595Y-123705904D01*
X163821976Y-123515428D01*
X163821976Y-123277333D01*
X163869595Y-123086857D01*
X163917214Y-122991619D01*
X163964833Y-122944000D01*
X164060071Y-122896380D01*
%TO.C,R9*%
X157567333Y-109131380D02*
X157234000Y-108655190D01*
X156995904Y-109131380D02*
X156995904Y-108131380D01*
X157376857Y-108131380D01*
X157472095Y-108179000D01*
X157519714Y-108226619D01*
X157567333Y-108321857D01*
X157567333Y-108464714D01*
X157519714Y-108559952D01*
X157472095Y-108607571D01*
X157376857Y-108655190D01*
X156995904Y-108655190D01*
X158043523Y-109131380D02*
X158234000Y-109131380D01*
X158329238Y-109083761D01*
X158376857Y-109036142D01*
X158472095Y-108893285D01*
X158519714Y-108702809D01*
X158519714Y-108321857D01*
X158472095Y-108226619D01*
X158424476Y-108179000D01*
X158329238Y-108131380D01*
X158138761Y-108131380D01*
X158043523Y-108179000D01*
X157995904Y-108226619D01*
X157948285Y-108321857D01*
X157948285Y-108559952D01*
X157995904Y-108655190D01*
X158043523Y-108702809D01*
X158138761Y-108750428D01*
X158329238Y-108750428D01*
X158424476Y-108702809D01*
X158472095Y-108655190D01*
X158519714Y-108559952D01*
%TO.C,R8*%
X169568833Y-117101880D02*
X169235500Y-116625690D01*
X168997404Y-117101880D02*
X168997404Y-116101880D01*
X169378357Y-116101880D01*
X169473595Y-116149500D01*
X169521214Y-116197119D01*
X169568833Y-116292357D01*
X169568833Y-116435214D01*
X169521214Y-116530452D01*
X169473595Y-116578071D01*
X169378357Y-116625690D01*
X168997404Y-116625690D01*
X170140261Y-116530452D02*
X170045023Y-116482833D01*
X169997404Y-116435214D01*
X169949785Y-116339976D01*
X169949785Y-116292357D01*
X169997404Y-116197119D01*
X170045023Y-116149500D01*
X170140261Y-116101880D01*
X170330738Y-116101880D01*
X170425976Y-116149500D01*
X170473595Y-116197119D01*
X170521214Y-116292357D01*
X170521214Y-116339976D01*
X170473595Y-116435214D01*
X170425976Y-116482833D01*
X170330738Y-116530452D01*
X170140261Y-116530452D01*
X170045023Y-116578071D01*
X169997404Y-116625690D01*
X169949785Y-116720928D01*
X169949785Y-116911404D01*
X169997404Y-117006642D01*
X170045023Y-117054261D01*
X170140261Y-117101880D01*
X170330738Y-117101880D01*
X170425976Y-117054261D01*
X170473595Y-117006642D01*
X170521214Y-116911404D01*
X170521214Y-116720928D01*
X170473595Y-116625690D01*
X170425976Y-116578071D01*
X170330738Y-116530452D01*
%TO.C,R7*%
X169378333Y-118943380D02*
X169045000Y-118467190D01*
X168806904Y-118943380D02*
X168806904Y-117943380D01*
X169187857Y-117943380D01*
X169283095Y-117991000D01*
X169330714Y-118038619D01*
X169378333Y-118133857D01*
X169378333Y-118276714D01*
X169330714Y-118371952D01*
X169283095Y-118419571D01*
X169187857Y-118467190D01*
X168806904Y-118467190D01*
X169711666Y-117943380D02*
X170378333Y-117943380D01*
X169949761Y-118943380D01*
%TO.C,R6*%
X164345880Y-108688166D02*
X163869690Y-109021500D01*
X164345880Y-109259595D02*
X163345880Y-109259595D01*
X163345880Y-108878642D01*
X163393500Y-108783404D01*
X163441119Y-108735785D01*
X163536357Y-108688166D01*
X163679214Y-108688166D01*
X163774452Y-108735785D01*
X163822071Y-108783404D01*
X163869690Y-108878642D01*
X163869690Y-109259595D01*
X163345880Y-107831023D02*
X163345880Y-108021500D01*
X163393500Y-108116738D01*
X163441119Y-108164357D01*
X163583976Y-108259595D01*
X163774452Y-108307214D01*
X164155404Y-108307214D01*
X164250642Y-108259595D01*
X164298261Y-108211976D01*
X164345880Y-108116738D01*
X164345880Y-107926261D01*
X164298261Y-107831023D01*
X164250642Y-107783404D01*
X164155404Y-107735785D01*
X163917309Y-107735785D01*
X163822071Y-107783404D01*
X163774452Y-107831023D01*
X163726833Y-107926261D01*
X163726833Y-108116738D01*
X163774452Y-108211976D01*
X163822071Y-108259595D01*
X163917309Y-108307214D01*
%TO.C,J5*%
X121045666Y-125817380D02*
X121045666Y-126531666D01*
X120998047Y-126674523D01*
X120902809Y-126769761D01*
X120759952Y-126817380D01*
X120664714Y-126817380D01*
X121998047Y-125817380D02*
X121521857Y-125817380D01*
X121474238Y-126293571D01*
X121521857Y-126245952D01*
X121617095Y-126198333D01*
X121855190Y-126198333D01*
X121950428Y-126245952D01*
X121998047Y-126293571D01*
X122045666Y-126388809D01*
X122045666Y-126626904D01*
X121998047Y-126722142D01*
X121950428Y-126769761D01*
X121855190Y-126817380D01*
X121617095Y-126817380D01*
X121521857Y-126769761D01*
X121474238Y-126722142D01*
%TO.C,C15*%
X130992642Y-112307642D02*
X130945023Y-112355261D01*
X130802166Y-112402880D01*
X130706928Y-112402880D01*
X130564071Y-112355261D01*
X130468833Y-112260023D01*
X130421214Y-112164785D01*
X130373595Y-111974309D01*
X130373595Y-111831452D01*
X130421214Y-111640976D01*
X130468833Y-111545738D01*
X130564071Y-111450500D01*
X130706928Y-111402880D01*
X130802166Y-111402880D01*
X130945023Y-111450500D01*
X130992642Y-111498119D01*
X131945023Y-112402880D02*
X131373595Y-112402880D01*
X131659309Y-112402880D02*
X131659309Y-111402880D01*
X131564071Y-111545738D01*
X131468833Y-111640976D01*
X131373595Y-111688595D01*
X132849785Y-111402880D02*
X132373595Y-111402880D01*
X132325976Y-111879071D01*
X132373595Y-111831452D01*
X132468833Y-111783833D01*
X132706928Y-111783833D01*
X132802166Y-111831452D01*
X132849785Y-111879071D01*
X132897404Y-111974309D01*
X132897404Y-112212404D01*
X132849785Y-112307642D01*
X132802166Y-112355261D01*
X132706928Y-112402880D01*
X132468833Y-112402880D01*
X132373595Y-112355261D01*
X132325976Y-112307642D01*
%TO.C,C14*%
X128881142Y-119451357D02*
X128928761Y-119498976D01*
X128976380Y-119641833D01*
X128976380Y-119737071D01*
X128928761Y-119879928D01*
X128833523Y-119975166D01*
X128738285Y-120022785D01*
X128547809Y-120070404D01*
X128404952Y-120070404D01*
X128214476Y-120022785D01*
X128119238Y-119975166D01*
X128024000Y-119879928D01*
X127976380Y-119737071D01*
X127976380Y-119641833D01*
X128024000Y-119498976D01*
X128071619Y-119451357D01*
X128976380Y-118498976D02*
X128976380Y-119070404D01*
X128976380Y-118784690D02*
X127976380Y-118784690D01*
X128119238Y-118879928D01*
X128214476Y-118975166D01*
X128262095Y-119070404D01*
X128309714Y-117641833D02*
X128976380Y-117641833D01*
X127928761Y-117879928D02*
X128643047Y-118118023D01*
X128643047Y-117498976D01*
%TO.C,C11*%
X169092642Y-113514142D02*
X169045023Y-113561761D01*
X168902166Y-113609380D01*
X168806928Y-113609380D01*
X168664071Y-113561761D01*
X168568833Y-113466523D01*
X168521214Y-113371285D01*
X168473595Y-113180809D01*
X168473595Y-113037952D01*
X168521214Y-112847476D01*
X168568833Y-112752238D01*
X168664071Y-112657000D01*
X168806928Y-112609380D01*
X168902166Y-112609380D01*
X169045023Y-112657000D01*
X169092642Y-112704619D01*
X170045023Y-113609380D02*
X169473595Y-113609380D01*
X169759309Y-113609380D02*
X169759309Y-112609380D01*
X169664071Y-112752238D01*
X169568833Y-112847476D01*
X169473595Y-112895095D01*
X170997404Y-113609380D02*
X170425976Y-113609380D01*
X170711690Y-113609380D02*
X170711690Y-112609380D01*
X170616452Y-112752238D01*
X170521214Y-112847476D01*
X170425976Y-112895095D01*
%TO.C,C10*%
X166235142Y-122150142D02*
X166187523Y-122197761D01*
X166044666Y-122245380D01*
X165949428Y-122245380D01*
X165806571Y-122197761D01*
X165711333Y-122102523D01*
X165663714Y-122007285D01*
X165616095Y-121816809D01*
X165616095Y-121673952D01*
X165663714Y-121483476D01*
X165711333Y-121388238D01*
X165806571Y-121293000D01*
X165949428Y-121245380D01*
X166044666Y-121245380D01*
X166187523Y-121293000D01*
X166235142Y-121340619D01*
X167187523Y-122245380D02*
X166616095Y-122245380D01*
X166901809Y-122245380D02*
X166901809Y-121245380D01*
X166806571Y-121388238D01*
X166711333Y-121483476D01*
X166616095Y-121531095D01*
X167806571Y-121245380D02*
X167901809Y-121245380D01*
X167997047Y-121293000D01*
X168044666Y-121340619D01*
X168092285Y-121435857D01*
X168139904Y-121626333D01*
X168139904Y-121864428D01*
X168092285Y-122054904D01*
X168044666Y-122150142D01*
X167997047Y-122197761D01*
X167901809Y-122245380D01*
X167806571Y-122245380D01*
X167711333Y-122197761D01*
X167663714Y-122150142D01*
X167616095Y-122054904D01*
X167568476Y-121864428D01*
X167568476Y-121626333D01*
X167616095Y-121435857D01*
X167663714Y-121340619D01*
X167711333Y-121293000D01*
X167806571Y-121245380D01*
%TO.C,C9*%
X166727142Y-109577166D02*
X166774761Y-109624785D01*
X166822380Y-109767642D01*
X166822380Y-109862880D01*
X166774761Y-110005738D01*
X166679523Y-110100976D01*
X166584285Y-110148595D01*
X166393809Y-110196214D01*
X166250952Y-110196214D01*
X166060476Y-110148595D01*
X165965238Y-110100976D01*
X165870000Y-110005738D01*
X165822380Y-109862880D01*
X165822380Y-109767642D01*
X165870000Y-109624785D01*
X165917619Y-109577166D01*
X166822380Y-109100976D02*
X166822380Y-108910500D01*
X166774761Y-108815261D01*
X166727142Y-108767642D01*
X166584285Y-108672404D01*
X166393809Y-108624785D01*
X166012857Y-108624785D01*
X165917619Y-108672404D01*
X165870000Y-108720023D01*
X165822380Y-108815261D01*
X165822380Y-109005738D01*
X165870000Y-109100976D01*
X165917619Y-109148595D01*
X166012857Y-109196214D01*
X166250952Y-109196214D01*
X166346190Y-109148595D01*
X166393809Y-109100976D01*
X166441428Y-109005738D01*
X166441428Y-108815261D01*
X166393809Y-108720023D01*
X166346190Y-108672404D01*
X166250952Y-108624785D01*
%TO.C,C8*%
X133008642Y-119864166D02*
X133056261Y-119911785D01*
X133103880Y-120054642D01*
X133103880Y-120149880D01*
X133056261Y-120292738D01*
X132961023Y-120387976D01*
X132865785Y-120435595D01*
X132675309Y-120483214D01*
X132532452Y-120483214D01*
X132341976Y-120435595D01*
X132246738Y-120387976D01*
X132151500Y-120292738D01*
X132103880Y-120149880D01*
X132103880Y-120054642D01*
X132151500Y-119911785D01*
X132199119Y-119864166D01*
X132532452Y-119292738D02*
X132484833Y-119387976D01*
X132437214Y-119435595D01*
X132341976Y-119483214D01*
X132294357Y-119483214D01*
X132199119Y-119435595D01*
X132151500Y-119387976D01*
X132103880Y-119292738D01*
X132103880Y-119102261D01*
X132151500Y-119007023D01*
X132199119Y-118959404D01*
X132294357Y-118911785D01*
X132341976Y-118911785D01*
X132437214Y-118959404D01*
X132484833Y-119007023D01*
X132532452Y-119102261D01*
X132532452Y-119292738D01*
X132580071Y-119387976D01*
X132627690Y-119435595D01*
X132722928Y-119483214D01*
X132913404Y-119483214D01*
X133008642Y-119435595D01*
X133056261Y-119387976D01*
X133103880Y-119292738D01*
X133103880Y-119102261D01*
X133056261Y-119007023D01*
X133008642Y-118959404D01*
X132913404Y-118911785D01*
X132722928Y-118911785D01*
X132627690Y-118959404D01*
X132580071Y-119007023D01*
X132532452Y-119102261D01*
%TO.C,C6*%
X138390333Y-126785642D02*
X138342714Y-126833261D01*
X138199857Y-126880880D01*
X138104619Y-126880880D01*
X137961761Y-126833261D01*
X137866523Y-126738023D01*
X137818904Y-126642785D01*
X137771285Y-126452309D01*
X137771285Y-126309452D01*
X137818904Y-126118976D01*
X137866523Y-126023738D01*
X137961761Y-125928500D01*
X138104619Y-125880880D01*
X138199857Y-125880880D01*
X138342714Y-125928500D01*
X138390333Y-125976119D01*
X139247476Y-125880880D02*
X139057000Y-125880880D01*
X138961761Y-125928500D01*
X138914142Y-125976119D01*
X138818904Y-126118976D01*
X138771285Y-126309452D01*
X138771285Y-126690404D01*
X138818904Y-126785642D01*
X138866523Y-126833261D01*
X138961761Y-126880880D01*
X139152238Y-126880880D01*
X139247476Y-126833261D01*
X139295095Y-126785642D01*
X139342714Y-126690404D01*
X139342714Y-126452309D01*
X139295095Y-126357071D01*
X139247476Y-126309452D01*
X139152238Y-126261833D01*
X138961761Y-126261833D01*
X138866523Y-126309452D01*
X138818904Y-126357071D01*
X138771285Y-126452309D01*
%TO.C,J2*%
X132611880Y-132857833D02*
X133326166Y-132857833D01*
X133469023Y-132905452D01*
X133564261Y-133000690D01*
X133611880Y-133143547D01*
X133611880Y-133238785D01*
X132707119Y-132429261D02*
X132659500Y-132381642D01*
X132611880Y-132286404D01*
X132611880Y-132048309D01*
X132659500Y-131953071D01*
X132707119Y-131905452D01*
X132802357Y-131857833D01*
X132897595Y-131857833D01*
X133040452Y-131905452D01*
X133611880Y-132476880D01*
X133611880Y-131857833D01*
%TO.C,J1*%
X132671880Y-102890933D02*
X133386166Y-102890933D01*
X133529023Y-102938552D01*
X133624261Y-103033790D01*
X133671880Y-103176647D01*
X133671880Y-103271885D01*
X133671880Y-101890933D02*
X133671880Y-102462361D01*
X133671880Y-102176647D02*
X132671880Y-102176647D01*
X132814738Y-102271885D01*
X132909976Y-102367123D01*
X132957595Y-102462361D01*
%TO.C,U2*%
X138595977Y-118581026D02*
X138023557Y-119153446D01*
X137989885Y-119254461D01*
X137989885Y-119321805D01*
X138023557Y-119422820D01*
X138158244Y-119557507D01*
X138259259Y-119591179D01*
X138326603Y-119591179D01*
X138427618Y-119557507D01*
X139000038Y-118985087D01*
X139235740Y-119355477D02*
X139303083Y-119355477D01*
X139404099Y-119389148D01*
X139572457Y-119557507D01*
X139606129Y-119658522D01*
X139606129Y-119725866D01*
X139572457Y-119826881D01*
X139505114Y-119894225D01*
X139370427Y-119961568D01*
X138562305Y-119961568D01*
X139000038Y-120399301D01*
%TO.C,U1*%
X167513095Y-128611380D02*
X167513095Y-129420904D01*
X167560714Y-129516142D01*
X167608333Y-129563761D01*
X167703571Y-129611380D01*
X167894047Y-129611380D01*
X167989285Y-129563761D01*
X168036904Y-129516142D01*
X168084523Y-129420904D01*
X168084523Y-128611380D01*
X169084523Y-129611380D02*
X168513095Y-129611380D01*
X168798809Y-129611380D02*
X168798809Y-128611380D01*
X168703571Y-128754238D01*
X168608333Y-128849476D01*
X168513095Y-128897095D01*
%TO.C,R5*%
X147788333Y-118498880D02*
X147455000Y-118022690D01*
X147216904Y-118498880D02*
X147216904Y-117498880D01*
X147597857Y-117498880D01*
X147693095Y-117546500D01*
X147740714Y-117594119D01*
X147788333Y-117689357D01*
X147788333Y-117832214D01*
X147740714Y-117927452D01*
X147693095Y-117975071D01*
X147597857Y-118022690D01*
X147216904Y-118022690D01*
X148693095Y-117498880D02*
X148216904Y-117498880D01*
X148169285Y-117975071D01*
X148216904Y-117927452D01*
X148312142Y-117879833D01*
X148550238Y-117879833D01*
X148645476Y-117927452D01*
X148693095Y-117975071D01*
X148740714Y-118070309D01*
X148740714Y-118308404D01*
X148693095Y-118403642D01*
X148645476Y-118451261D01*
X148550238Y-118498880D01*
X148312142Y-118498880D01*
X148216904Y-118451261D01*
X148169285Y-118403642D01*
%TO.C,R4*%
X130579833Y-123007380D02*
X130246500Y-122531190D01*
X130008404Y-123007380D02*
X130008404Y-122007380D01*
X130389357Y-122007380D01*
X130484595Y-122055000D01*
X130532214Y-122102619D01*
X130579833Y-122197857D01*
X130579833Y-122340714D01*
X130532214Y-122435952D01*
X130484595Y-122483571D01*
X130389357Y-122531190D01*
X130008404Y-122531190D01*
X131436976Y-122340714D02*
X131436976Y-123007380D01*
X131198880Y-121959761D02*
X130960785Y-122674047D01*
X131579833Y-122674047D01*
%TO.C,R3*%
X143279833Y-130119380D02*
X142946500Y-129643190D01*
X142708404Y-130119380D02*
X142708404Y-129119380D01*
X143089357Y-129119380D01*
X143184595Y-129167000D01*
X143232214Y-129214619D01*
X143279833Y-129309857D01*
X143279833Y-129452714D01*
X143232214Y-129547952D01*
X143184595Y-129595571D01*
X143089357Y-129643190D01*
X142708404Y-129643190D01*
X143613166Y-129119380D02*
X144232214Y-129119380D01*
X143898880Y-129500333D01*
X144041738Y-129500333D01*
X144136976Y-129547952D01*
X144184595Y-129595571D01*
X144232214Y-129690809D01*
X144232214Y-129928904D01*
X144184595Y-130024142D01*
X144136976Y-130071761D01*
X144041738Y-130119380D01*
X143756023Y-130119380D01*
X143660785Y-130071761D01*
X143613166Y-130024142D01*
%TO.C,R2*%
X129801880Y-107989666D02*
X129325690Y-108323000D01*
X129801880Y-108561095D02*
X128801880Y-108561095D01*
X128801880Y-108180142D01*
X128849500Y-108084904D01*
X128897119Y-108037285D01*
X128992357Y-107989666D01*
X129135214Y-107989666D01*
X129230452Y-108037285D01*
X129278071Y-108084904D01*
X129325690Y-108180142D01*
X129325690Y-108561095D01*
X128897119Y-107608714D02*
X128849500Y-107561095D01*
X128801880Y-107465857D01*
X128801880Y-107227761D01*
X128849500Y-107132523D01*
X128897119Y-107084904D01*
X128992357Y-107037285D01*
X129087595Y-107037285D01*
X129230452Y-107084904D01*
X129801880Y-107656333D01*
X129801880Y-107037285D01*
%TO.C,R1*%
X128214380Y-106783166D02*
X127738190Y-107116500D01*
X128214380Y-107354595D02*
X127214380Y-107354595D01*
X127214380Y-106973642D01*
X127262000Y-106878404D01*
X127309619Y-106830785D01*
X127404857Y-106783166D01*
X127547714Y-106783166D01*
X127642952Y-106830785D01*
X127690571Y-106878404D01*
X127738190Y-106973642D01*
X127738190Y-107354595D01*
X128214380Y-105830785D02*
X128214380Y-106402214D01*
X128214380Y-106116500D02*
X127214380Y-106116500D01*
X127357238Y-106211738D01*
X127452476Y-106306976D01*
X127500095Y-106402214D01*
%TO.C,C7*%
X135342333Y-108751642D02*
X135294714Y-108799261D01*
X135151857Y-108846880D01*
X135056619Y-108846880D01*
X134913761Y-108799261D01*
X134818523Y-108704023D01*
X134770904Y-108608785D01*
X134723285Y-108418309D01*
X134723285Y-108275452D01*
X134770904Y-108084976D01*
X134818523Y-107989738D01*
X134913761Y-107894500D01*
X135056619Y-107846880D01*
X135151857Y-107846880D01*
X135294714Y-107894500D01*
X135342333Y-107942119D01*
X135675666Y-107846880D02*
X136342333Y-107846880D01*
X135913761Y-108846880D01*
%TO.C,C5*%
X140930333Y-123420142D02*
X140882714Y-123467761D01*
X140739857Y-123515380D01*
X140644619Y-123515380D01*
X140501761Y-123467761D01*
X140406523Y-123372523D01*
X140358904Y-123277285D01*
X140311285Y-123086809D01*
X140311285Y-122943952D01*
X140358904Y-122753476D01*
X140406523Y-122658238D01*
X140501761Y-122563000D01*
X140644619Y-122515380D01*
X140739857Y-122515380D01*
X140882714Y-122563000D01*
X140930333Y-122610619D01*
X141835095Y-122515380D02*
X141358904Y-122515380D01*
X141311285Y-122991571D01*
X141358904Y-122943952D01*
X141454142Y-122896333D01*
X141692238Y-122896333D01*
X141787476Y-122943952D01*
X141835095Y-122991571D01*
X141882714Y-123086809D01*
X141882714Y-123324904D01*
X141835095Y-123420142D01*
X141787476Y-123467761D01*
X141692238Y-123515380D01*
X141454142Y-123515380D01*
X141358904Y-123467761D01*
X141311285Y-123420142D01*
%TO.C,C4*%
X130214642Y-119483166D02*
X130262261Y-119530785D01*
X130309880Y-119673642D01*
X130309880Y-119768880D01*
X130262261Y-119911738D01*
X130167023Y-120006976D01*
X130071785Y-120054595D01*
X129881309Y-120102214D01*
X129738452Y-120102214D01*
X129547976Y-120054595D01*
X129452738Y-120006976D01*
X129357500Y-119911738D01*
X129309880Y-119768880D01*
X129309880Y-119673642D01*
X129357500Y-119530785D01*
X129405119Y-119483166D01*
X129643214Y-118626023D02*
X130309880Y-118626023D01*
X129262261Y-118864119D02*
X129976547Y-119102214D01*
X129976547Y-118483166D01*
%TO.C,C3*%
X140803333Y-110212142D02*
X140755714Y-110259761D01*
X140612857Y-110307380D01*
X140517619Y-110307380D01*
X140374761Y-110259761D01*
X140279523Y-110164523D01*
X140231904Y-110069285D01*
X140184285Y-109878809D01*
X140184285Y-109735952D01*
X140231904Y-109545476D01*
X140279523Y-109450238D01*
X140374761Y-109355000D01*
X140517619Y-109307380D01*
X140612857Y-109307380D01*
X140755714Y-109355000D01*
X140803333Y-109402619D01*
X141136666Y-109307380D02*
X141755714Y-109307380D01*
X141422380Y-109688333D01*
X141565238Y-109688333D01*
X141660476Y-109735952D01*
X141708095Y-109783571D01*
X141755714Y-109878809D01*
X141755714Y-110116904D01*
X141708095Y-110212142D01*
X141660476Y-110259761D01*
X141565238Y-110307380D01*
X141279523Y-110307380D01*
X141184285Y-110259761D01*
X141136666Y-110212142D01*
%TO.C,C2*%
X164725642Y-126785666D02*
X164773261Y-126833285D01*
X164820880Y-126976142D01*
X164820880Y-127071380D01*
X164773261Y-127214238D01*
X164678023Y-127309476D01*
X164582785Y-127357095D01*
X164392309Y-127404714D01*
X164249452Y-127404714D01*
X164058976Y-127357095D01*
X163963738Y-127309476D01*
X163868500Y-127214238D01*
X163820880Y-127071380D01*
X163820880Y-126976142D01*
X163868500Y-126833285D01*
X163916119Y-126785666D01*
X163916119Y-126404714D02*
X163868500Y-126357095D01*
X163820880Y-126261857D01*
X163820880Y-126023761D01*
X163868500Y-125928523D01*
X163916119Y-125880904D01*
X164011357Y-125833285D01*
X164106595Y-125833285D01*
X164249452Y-125880904D01*
X164820880Y-126452333D01*
X164820880Y-125833285D01*
%TO.C,C1*%
X168108333Y-123166142D02*
X168060714Y-123213761D01*
X167917857Y-123261380D01*
X167822619Y-123261380D01*
X167679761Y-123213761D01*
X167584523Y-123118523D01*
X167536904Y-123023285D01*
X167489285Y-122832809D01*
X167489285Y-122689952D01*
X167536904Y-122499476D01*
X167584523Y-122404238D01*
X167679761Y-122309000D01*
X167822619Y-122261380D01*
X167917857Y-122261380D01*
X168060714Y-122309000D01*
X168108333Y-122356619D01*
X169060714Y-123261380D02*
X168489285Y-123261380D01*
X168775000Y-123261380D02*
X168775000Y-122261380D01*
X168679761Y-122404238D01*
X168584523Y-122499476D01*
X168489285Y-122547095D01*
%TD*%
M02*
