%TF.GenerationSoftware,KiCad,Pcbnew,(5.1.6)-1*%
%TF.CreationDate,2021-01-10T19:41:06-07:00*%
%TF.ProjectId,AltoidsSmall,416c746f-6964-4735-936d-616c6c2e6b69,rev?*%
%TF.SameCoordinates,Original*%
%TF.FileFunction,Copper,L3,Inr*%
%TF.FilePolarity,Positive*%
%FSLAX46Y46*%
G04 Gerber Fmt 4.6, Leading zero omitted, Abs format (unit mm)*
G04 Created by KiCad (PCBNEW (5.1.6)-1) date 2021-01-10 19:41:06*
%MOMM*%
%LPD*%
G01*
G04 APERTURE LIST*
%TA.AperFunction,ViaPad*%
%ADD10C,1.700000*%
%TD*%
%TA.AperFunction,ViaPad*%
%ADD11O,1.700000X1.700000*%
%TD*%
%TA.AperFunction,ViaPad*%
%ADD12R,1.700000X1.700000*%
%TD*%
%TA.AperFunction,ViaPad*%
%ADD13C,0.800000*%
%TD*%
%TA.AperFunction,Conductor*%
%ADD14C,0.381000*%
%TD*%
%TA.AperFunction,Conductor*%
%ADD15C,0.254000*%
%TD*%
%TA.AperFunction,Conductor*%
%ADD16C,0.101600*%
%TD*%
G04 APERTURE END LIST*
D10*
%TO.N,/DAC/ADC1*%
%TO.C,J5*%
X121500900Y-111312000D03*
D11*
%TO.N,/DAC/ADC0*%
X121196100Y-113852000D03*
D12*
%TO.N,Net-(J5-Pad1)*%
X121196100Y-124012000D03*
D11*
%TO.N,Net-(J5-Pad4)*%
X121500900Y-116392000D03*
%TO.N,Net-(J5-Pad3)*%
X121196100Y-118932000D03*
%TO.N,Net-(J5-Pad2)*%
X121500900Y-121472000D03*
%TD*%
D12*
%TO.N,+3V3*%
%TO.C,J4*%
X155752800Y-115490001D03*
D11*
%TO.N,GND*%
X155752800Y-120570001D03*
%TO.N,/MCU/SWD_TRACE*%
X155448000Y-118030001D03*
%TD*%
D12*
%TO.N,/MCU/SWDIO*%
%TO.C,J3*%
X152172901Y-115490001D03*
D11*
%TO.N,/MCU/~RST*%
X152172901Y-120570001D03*
%TO.N,/MCU/SWCLK*%
X151868101Y-118030001D03*
%TD*%
%TO.N,Net-(J2-Pad10)*%
%TO.C,J2*%
X135569000Y-132562600D03*
%TO.N,Net-(J2-Pad7)*%
X143189000Y-132867400D03*
%TO.N,Net-(J2-Pad8)*%
X140649000Y-132562600D03*
%TO.N,Net-(J2-Pad9)*%
X138109000Y-132867400D03*
D10*
%TO.N,Net-(J2-Pad6)*%
X145729000Y-132562600D03*
D11*
%TO.N,Net-(J2-Pad5)*%
X148269000Y-132867400D03*
D12*
%TO.N,Net-(J2-Pad1)*%
X158429000Y-132867400D03*
D11*
%TO.N,Net-(J2-Pad4)*%
X150809000Y-132562600D03*
%TO.N,Net-(J2-Pad3)*%
X153349000Y-132867400D03*
%TO.N,Net-(J2-Pad2)*%
X155889000Y-132562600D03*
%TD*%
%TO.N,Net-(J1-Pad10)*%
%TO.C,J1*%
X158432500Y-102679500D03*
%TO.N,Net-(J1-Pad7)*%
X150812500Y-102374700D03*
%TO.N,Net-(J1-Pad8)*%
X153352500Y-102679500D03*
%TO.N,Net-(J1-Pad9)*%
X155892500Y-102374700D03*
D10*
%TO.N,Net-(J1-Pad6)*%
X148272500Y-102679500D03*
D11*
%TO.N,/DAC/SDA*%
X145732500Y-102374700D03*
D12*
%TO.N,Net-(J1-Pad1)*%
X135572500Y-102374700D03*
D11*
%TO.N,/DAC/SCL*%
X143192500Y-102679500D03*
%TO.N,Net-(J1-Pad3)*%
X140652500Y-102374700D03*
%TO.N,Net-(J1-Pad2)*%
X138112500Y-102679500D03*
%TD*%
D13*
%TO.N,GND*%
X143510000Y-127254000D03*
X144462500Y-127254000D03*
X124968000Y-123698000D03*
X136398000Y-109855000D03*
X130492500Y-118999000D03*
X131635500Y-118999000D03*
X132969000Y-116332000D03*
X165481000Y-124460000D03*
X159893000Y-110426500D03*
X160972500Y-110363000D03*
X167576500Y-113347500D03*
X167640000Y-111252000D03*
X167640000Y-112204500D03*
X164338000Y-120205500D03*
X166116000Y-121920000D03*
X164338000Y-121920000D03*
X159131000Y-115125500D03*
X169608500Y-116395500D03*
X157861000Y-125730000D03*
X158940500Y-125730000D03*
X159956500Y-125730000D03*
X161099500Y-125666500D03*
X155067000Y-128905000D03*
X155067000Y-127889000D03*
X140522036Y-118486272D03*
X141160500Y-124142500D03*
X142303507Y-120786326D03*
X142049500Y-122491500D03*
%TO.N,+3V3*%
X127762000Y-108077000D03*
X130429000Y-114617500D03*
X140589000Y-108585000D03*
X140081000Y-126111000D03*
X165163500Y-109601000D03*
X167386000Y-129921000D03*
X167386000Y-128905000D03*
X165798500Y-129921000D03*
X165798500Y-128905000D03*
X164211000Y-129921000D03*
X163195000Y-129921000D03*
X164211000Y-128905000D03*
X163195000Y-128905000D03*
X164211000Y-127444500D03*
X163131500Y-127444500D03*
X159829500Y-119126000D03*
X155384500Y-110236000D03*
X162242500Y-124460000D03*
%TO.N,VDDA*%
X122936000Y-108140500D03*
%TO.N,+3V3*%
X133096000Y-127762000D03*
X144589500Y-118300500D03*
%TO.N,Net-(R4-Pad1)*%
X133908423Y-126053422D03*
X133809869Y-122887869D03*
%TO.N,Net-(J1-Pad10)*%
X140409248Y-115117032D03*
%TO.N,Net-(J1-Pad7)*%
X141365904Y-111159334D03*
%TO.N,Net-(J1-Pad8)*%
X139230281Y-113531104D03*
%TO.N,Net-(J1-Pad9)*%
X139943421Y-114232143D03*
%TO.N,Net-(J1-Pad6)*%
X141938193Y-110315193D03*
%TO.N,Net-(J1-Pad1)*%
X133647872Y-120739752D03*
%TO.N,Net-(J1-Pad3)*%
X132461000Y-122745500D03*
%TO.N,Net-(J1-Pad2)*%
X132831183Y-121528183D03*
%TO.N,Net-(J2-Pad10)*%
X131381500Y-120396000D03*
%TO.N,Net-(J2-Pad7)*%
X139548805Y-118716152D03*
%TO.N,Net-(J2-Pad8)*%
X139168797Y-117729000D03*
%TO.N,Net-(J2-Pad9)*%
X138054488Y-118413326D03*
%TO.N,Net-(J2-Pad6)*%
X148209000Y-110998000D03*
%TO.N,Net-(J2-Pad5)*%
X147367443Y-112759943D03*
%TO.N,Net-(J2-Pad4)*%
X148082000Y-113665000D03*
%TO.N,Net-(J2-Pad3)*%
X148971000Y-114300000D03*
%TO.N,Net-(J2-Pad2)*%
X149891611Y-115908050D03*
%TO.N,/MCU/SWDIO*%
X137063800Y-116068460D03*
X144372461Y-115636510D03*
%TO.N,/MCU/SWCLK*%
X136096310Y-116719270D03*
X145037964Y-116506690D03*
%TO.N,/MCU/SWD_TRACE*%
X137668000Y-117475000D03*
X143424259Y-116571880D03*
%TO.N,VBUS*%
X169862500Y-118755000D03*
X169164000Y-122364500D03*
X162369500Y-112522000D03*
%TO.N,/DAC/SDA*%
X134874000Y-123571000D03*
X137541000Y-119888000D03*
%TO.N,/DAC/SCL*%
X136783189Y-119034574D03*
%TO.N,/DAC/ADC1*%
X141423673Y-117027320D03*
%TO.N,/DAC/ADC0*%
X140454799Y-117274925D03*
%TO.N,/DAC/~LDAC*%
X133858000Y-110744000D03*
X131064000Y-110617000D03*
%TO.N,/USB2FTDI/DR-*%
X164719000Y-116840000D03*
X164782500Y-118554500D03*
%TO.N,VDDA*%
X155765500Y-124587000D03*
X122936000Y-106997500D03*
X130810000Y-112014000D03*
%TD*%
D14*
%TO.N,VBUS*%
X168430990Y-121631490D02*
X169164000Y-122364500D01*
X168430990Y-119207891D02*
X168430990Y-121631490D01*
X168883881Y-118755000D02*
X168430990Y-119207891D01*
X169862500Y-118755000D02*
X169090500Y-118755000D01*
X169090500Y-118755000D02*
X168883881Y-118755000D01*
D15*
X163142099Y-113919000D02*
X168430990Y-119207891D01*
X162369500Y-113146401D02*
X163142099Y-113919000D01*
X162369500Y-112522000D02*
X162369500Y-113146401D01*
D16*
%TO.N,/DAC/ADC1*%
X141237848Y-117027320D02*
X141423673Y-117027320D01*
X121729500Y-111125000D02*
X121729500Y-111061500D01*
X137510417Y-113299889D02*
X141237848Y-117027320D01*
X123967889Y-113299889D02*
X137510417Y-113299889D01*
X121729500Y-111061500D02*
X123967889Y-113299889D01*
%TO.N,/DAC/ADC0*%
X140054800Y-116874926D02*
X140454799Y-117274925D01*
X136781374Y-113601500D02*
X140054800Y-116874926D01*
X121412000Y-113601500D02*
X136781374Y-113601500D01*
D14*
%TO.N,VDDA*%
X155765500Y-124587000D02*
X152654000Y-124587000D01*
X150627600Y-122560600D02*
X150627600Y-118179100D01*
X152654000Y-124587000D02*
X150627600Y-122560600D01*
X150627600Y-118179100D02*
X143129000Y-110680500D01*
X143129000Y-110680500D02*
X143129000Y-108585000D01*
X143129000Y-108585000D02*
X141541500Y-106997500D01*
X132080000Y-110744000D02*
X130810000Y-112014000D01*
X132080000Y-106997500D02*
X132080000Y-110744000D01*
X141541500Y-106997500D02*
X132080000Y-106997500D01*
X132080000Y-106997500D02*
X122936000Y-106997500D01*
%TD*%
D15*
%TO.N,+3V3*%
G36*
X162381933Y-100482668D02*
G01*
X163747156Y-100709902D01*
X165079216Y-101085582D01*
X166362002Y-101605164D01*
X167580023Y-102262372D01*
X168718574Y-103049273D01*
X169763898Y-103956359D01*
X170703373Y-104972677D01*
X171525640Y-106085937D01*
X172220787Y-107282720D01*
X172780408Y-108548559D01*
X173197740Y-109868146D01*
X173467750Y-111225577D01*
X173587861Y-112612392D01*
X173593968Y-113001128D01*
X173588112Y-113576500D01*
X168866441Y-113576500D01*
X168846500Y-113574536D01*
X168826560Y-113576500D01*
X168826559Y-113576500D01*
X168766910Y-113582375D01*
X168690379Y-113605590D01*
X168619847Y-113643290D01*
X168558026Y-113694026D01*
X168507290Y-113755847D01*
X168469590Y-113826379D01*
X168446375Y-113902910D01*
X168438536Y-113982500D01*
X168440501Y-114002451D01*
X168440500Y-115423059D01*
X168440500Y-115677059D01*
X168438536Y-115697000D01*
X168446375Y-115776590D01*
X168469590Y-115853121D01*
X168507290Y-115923653D01*
X168557614Y-115984972D01*
X168558026Y-115985474D01*
X168619847Y-116036210D01*
X168690379Y-116073910D01*
X168766910Y-116097125D01*
X168846500Y-116104964D01*
X168866440Y-116103000D01*
X168884309Y-116103000D01*
X168857513Y-116167691D01*
X168827500Y-116318578D01*
X168827500Y-116472422D01*
X168857513Y-116623309D01*
X168916387Y-116765442D01*
X169001858Y-116893359D01*
X169110641Y-117002142D01*
X169238558Y-117087613D01*
X169380691Y-117146487D01*
X169531578Y-117176500D01*
X169685422Y-117176500D01*
X169836309Y-117146487D01*
X169978442Y-117087613D01*
X170106359Y-117002142D01*
X170215142Y-116893359D01*
X170300613Y-116765442D01*
X170359487Y-116623309D01*
X170389500Y-116472422D01*
X170389500Y-116318578D01*
X170359487Y-116167691D01*
X170332691Y-116103000D01*
X173520500Y-116103000D01*
X173520501Y-118974000D01*
X170615239Y-118974000D01*
X170643500Y-118831922D01*
X170643500Y-118678078D01*
X170613487Y-118527191D01*
X170554613Y-118385058D01*
X170469142Y-118257141D01*
X170360359Y-118148358D01*
X170232442Y-118062887D01*
X170090309Y-118004013D01*
X169939422Y-117974000D01*
X169785578Y-117974000D01*
X169634691Y-118004013D01*
X169492558Y-118062887D01*
X169364641Y-118148358D01*
X169329499Y-118183500D01*
X168911955Y-118183500D01*
X168883881Y-118180735D01*
X168835327Y-118185517D01*
X168771847Y-118191769D01*
X168664119Y-118224448D01*
X168564836Y-118277516D01*
X168477814Y-118348933D01*
X168459915Y-118370743D01*
X168386089Y-118444569D01*
X163518954Y-113577435D01*
X163518949Y-113577429D01*
X163212098Y-113270578D01*
X166795500Y-113270578D01*
X166795500Y-113424422D01*
X166825513Y-113575309D01*
X166884387Y-113717442D01*
X166969858Y-113845359D01*
X167078641Y-113954142D01*
X167206558Y-114039613D01*
X167348691Y-114098487D01*
X167499578Y-114128500D01*
X167653422Y-114128500D01*
X167804309Y-114098487D01*
X167946442Y-114039613D01*
X168074359Y-113954142D01*
X168183142Y-113845359D01*
X168268613Y-113717442D01*
X168327487Y-113575309D01*
X168357500Y-113424422D01*
X168357500Y-113270578D01*
X168327487Y-113119691D01*
X168268613Y-112977558D01*
X168183142Y-112849641D01*
X168141251Y-112807750D01*
X168246642Y-112702359D01*
X168332113Y-112574442D01*
X168390987Y-112432309D01*
X168421000Y-112281422D01*
X168421000Y-112127578D01*
X168390987Y-111976691D01*
X168332113Y-111834558D01*
X168261081Y-111728250D01*
X168332113Y-111621942D01*
X168390987Y-111479809D01*
X168421000Y-111328922D01*
X168421000Y-111175078D01*
X168390987Y-111024191D01*
X168332113Y-110882058D01*
X168246642Y-110754141D01*
X168137859Y-110645358D01*
X168009942Y-110559887D01*
X167867809Y-110501013D01*
X167716922Y-110471000D01*
X167563078Y-110471000D01*
X167412191Y-110501013D01*
X167270058Y-110559887D01*
X167142141Y-110645358D01*
X167033358Y-110754141D01*
X166947887Y-110882058D01*
X166889013Y-111024191D01*
X166859000Y-111175078D01*
X166859000Y-111328922D01*
X166889013Y-111479809D01*
X166947887Y-111621942D01*
X167018919Y-111728250D01*
X166947887Y-111834558D01*
X166889013Y-111976691D01*
X166859000Y-112127578D01*
X166859000Y-112281422D01*
X166889013Y-112432309D01*
X166947887Y-112574442D01*
X167033358Y-112702359D01*
X167075249Y-112744250D01*
X166969858Y-112849641D01*
X166884387Y-112977558D01*
X166825513Y-113119691D01*
X166795500Y-113270578D01*
X163212098Y-113270578D01*
X162968760Y-113027241D01*
X162976142Y-113019859D01*
X163061613Y-112891942D01*
X163120487Y-112749809D01*
X163150500Y-112598922D01*
X163150500Y-112445078D01*
X163120487Y-112294191D01*
X163061613Y-112152058D01*
X162976142Y-112024141D01*
X162867359Y-111915358D01*
X162739442Y-111829887D01*
X162597309Y-111771013D01*
X162446422Y-111741000D01*
X162292578Y-111741000D01*
X162141691Y-111771013D01*
X161999558Y-111829887D01*
X161871641Y-111915358D01*
X161762858Y-112024141D01*
X161677387Y-112152058D01*
X161618513Y-112294191D01*
X161588500Y-112445078D01*
X161588500Y-112598922D01*
X161618513Y-112749809D01*
X161677387Y-112891942D01*
X161762858Y-113019859D01*
X161861501Y-113118502D01*
X161861501Y-113121447D01*
X161859043Y-113146401D01*
X161864386Y-113200640D01*
X161868852Y-113245986D01*
X161886147Y-113303000D01*
X161897900Y-113341744D01*
X161945071Y-113429996D01*
X161987057Y-113481156D01*
X162008553Y-113507349D01*
X162027930Y-113523251D01*
X162800528Y-114295850D01*
X162800534Y-114295855D01*
X164576686Y-116072007D01*
X164491191Y-116089013D01*
X164349058Y-116147887D01*
X164221141Y-116233358D01*
X164112358Y-116342141D01*
X164026887Y-116470058D01*
X163968013Y-116612191D01*
X163938000Y-116763078D01*
X163938000Y-116916922D01*
X163968013Y-117067809D01*
X164026887Y-117209942D01*
X164112358Y-117337859D01*
X164221141Y-117446642D01*
X164349058Y-117532113D01*
X164491191Y-117590987D01*
X164642078Y-117621000D01*
X164795922Y-117621000D01*
X164946809Y-117590987D01*
X165088942Y-117532113D01*
X165216859Y-117446642D01*
X165325642Y-117337859D01*
X165411113Y-117209942D01*
X165469987Y-117067809D01*
X165486993Y-116982314D01*
X167859490Y-119354812D01*
X167859491Y-121603406D01*
X167856725Y-121631490D01*
X167867759Y-121743523D01*
X167900438Y-121851251D01*
X167952748Y-121949115D01*
X167953507Y-121950535D01*
X168024924Y-122037557D01*
X168046734Y-122055456D01*
X168383000Y-122391722D01*
X168383000Y-122441422D01*
X168413013Y-122592309D01*
X168471887Y-122734442D01*
X168557358Y-122862359D01*
X168666141Y-122971142D01*
X168794058Y-123056613D01*
X168936191Y-123115487D01*
X169087078Y-123145500D01*
X169240922Y-123145500D01*
X169391809Y-123115487D01*
X169533942Y-123056613D01*
X169661859Y-122971142D01*
X169770642Y-122862359D01*
X169856113Y-122734442D01*
X169914987Y-122592309D01*
X169945000Y-122441422D01*
X169945000Y-122287578D01*
X169914987Y-122136691D01*
X169856113Y-121994558D01*
X169770642Y-121866641D01*
X169661859Y-121757858D01*
X169533942Y-121672387D01*
X169391809Y-121613513D01*
X169240922Y-121583500D01*
X169191222Y-121583500D01*
X169108222Y-121500500D01*
X173588459Y-121500500D01*
X173593877Y-121991070D01*
X173517332Y-123381933D01*
X173290097Y-124747160D01*
X172914417Y-126079219D01*
X172394836Y-127362002D01*
X171737624Y-128580029D01*
X170950727Y-129718574D01*
X170043641Y-130763898D01*
X169027328Y-131703368D01*
X167914063Y-132525640D01*
X166717276Y-133220789D01*
X165451441Y-133780408D01*
X164131852Y-134197740D01*
X162774424Y-134467750D01*
X161387608Y-134587861D01*
X160996806Y-134594000D01*
X132011171Y-134594000D01*
X130618067Y-134517332D01*
X129252840Y-134290097D01*
X127920781Y-133914417D01*
X126637998Y-133394836D01*
X125419971Y-132737624D01*
X124991309Y-132441357D01*
X134338000Y-132441357D01*
X134338000Y-132683843D01*
X134385307Y-132921669D01*
X134478102Y-133145697D01*
X134612820Y-133347317D01*
X134784283Y-133518780D01*
X134985903Y-133653498D01*
X135209931Y-133746293D01*
X135447757Y-133793600D01*
X135690243Y-133793600D01*
X135928069Y-133746293D01*
X136152097Y-133653498D01*
X136353717Y-133518780D01*
X136525180Y-133347317D01*
X136659898Y-133145697D01*
X136752693Y-132921669D01*
X136787604Y-132746157D01*
X136878000Y-132746157D01*
X136878000Y-132988643D01*
X136925307Y-133226469D01*
X137018102Y-133450497D01*
X137152820Y-133652117D01*
X137324283Y-133823580D01*
X137525903Y-133958298D01*
X137749931Y-134051093D01*
X137987757Y-134098400D01*
X138230243Y-134098400D01*
X138468069Y-134051093D01*
X138692097Y-133958298D01*
X138893717Y-133823580D01*
X139065180Y-133652117D01*
X139199898Y-133450497D01*
X139292693Y-133226469D01*
X139340000Y-132988643D01*
X139340000Y-132746157D01*
X139292693Y-132508331D01*
X139264952Y-132441357D01*
X139418000Y-132441357D01*
X139418000Y-132683843D01*
X139465307Y-132921669D01*
X139558102Y-133145697D01*
X139692820Y-133347317D01*
X139864283Y-133518780D01*
X140065903Y-133653498D01*
X140289931Y-133746293D01*
X140527757Y-133793600D01*
X140770243Y-133793600D01*
X141008069Y-133746293D01*
X141232097Y-133653498D01*
X141433717Y-133518780D01*
X141605180Y-133347317D01*
X141739898Y-133145697D01*
X141832693Y-132921669D01*
X141867604Y-132746157D01*
X141958000Y-132746157D01*
X141958000Y-132988643D01*
X142005307Y-133226469D01*
X142098102Y-133450497D01*
X142232820Y-133652117D01*
X142404283Y-133823580D01*
X142605903Y-133958298D01*
X142829931Y-134051093D01*
X143067757Y-134098400D01*
X143310243Y-134098400D01*
X143548069Y-134051093D01*
X143772097Y-133958298D01*
X143973717Y-133823580D01*
X144145180Y-133652117D01*
X144279898Y-133450497D01*
X144372693Y-133226469D01*
X144420000Y-132988643D01*
X144420000Y-132746157D01*
X144372693Y-132508331D01*
X144344952Y-132441357D01*
X144498000Y-132441357D01*
X144498000Y-132683843D01*
X144545307Y-132921669D01*
X144638102Y-133145697D01*
X144772820Y-133347317D01*
X144944283Y-133518780D01*
X145145903Y-133653498D01*
X145369931Y-133746293D01*
X145607757Y-133793600D01*
X145850243Y-133793600D01*
X146088069Y-133746293D01*
X146312097Y-133653498D01*
X146513717Y-133518780D01*
X146685180Y-133347317D01*
X146819898Y-133145697D01*
X146912693Y-132921669D01*
X146947604Y-132746157D01*
X147038000Y-132746157D01*
X147038000Y-132988643D01*
X147085307Y-133226469D01*
X147178102Y-133450497D01*
X147312820Y-133652117D01*
X147484283Y-133823580D01*
X147685903Y-133958298D01*
X147909931Y-134051093D01*
X148147757Y-134098400D01*
X148390243Y-134098400D01*
X148628069Y-134051093D01*
X148852097Y-133958298D01*
X149053717Y-133823580D01*
X149225180Y-133652117D01*
X149359898Y-133450497D01*
X149452693Y-133226469D01*
X149500000Y-132988643D01*
X149500000Y-132746157D01*
X149452693Y-132508331D01*
X149424952Y-132441357D01*
X149578000Y-132441357D01*
X149578000Y-132683843D01*
X149625307Y-132921669D01*
X149718102Y-133145697D01*
X149852820Y-133347317D01*
X150024283Y-133518780D01*
X150225903Y-133653498D01*
X150449931Y-133746293D01*
X150687757Y-133793600D01*
X150930243Y-133793600D01*
X151168069Y-133746293D01*
X151392097Y-133653498D01*
X151593717Y-133518780D01*
X151765180Y-133347317D01*
X151899898Y-133145697D01*
X151992693Y-132921669D01*
X152027604Y-132746157D01*
X152118000Y-132746157D01*
X152118000Y-132988643D01*
X152165307Y-133226469D01*
X152258102Y-133450497D01*
X152392820Y-133652117D01*
X152564283Y-133823580D01*
X152765903Y-133958298D01*
X152989931Y-134051093D01*
X153227757Y-134098400D01*
X153470243Y-134098400D01*
X153708069Y-134051093D01*
X153932097Y-133958298D01*
X154133717Y-133823580D01*
X154305180Y-133652117D01*
X154439898Y-133450497D01*
X154532693Y-133226469D01*
X154580000Y-132988643D01*
X154580000Y-132746157D01*
X154532693Y-132508331D01*
X154504952Y-132441357D01*
X154658000Y-132441357D01*
X154658000Y-132683843D01*
X154705307Y-132921669D01*
X154798102Y-133145697D01*
X154932820Y-133347317D01*
X155104283Y-133518780D01*
X155305903Y-133653498D01*
X155529931Y-133746293D01*
X155767757Y-133793600D01*
X156010243Y-133793600D01*
X156248069Y-133746293D01*
X156472097Y-133653498D01*
X156673717Y-133518780D01*
X156845180Y-133347317D01*
X156979898Y-133145697D01*
X157072693Y-132921669D01*
X157120000Y-132683843D01*
X157120000Y-132441357D01*
X157072693Y-132203531D01*
X156995596Y-132017400D01*
X157196157Y-132017400D01*
X157196157Y-133717400D01*
X157203513Y-133792089D01*
X157225299Y-133863908D01*
X157260678Y-133930096D01*
X157308289Y-133988111D01*
X157366304Y-134035722D01*
X157432492Y-134071101D01*
X157504311Y-134092887D01*
X157579000Y-134100243D01*
X159279000Y-134100243D01*
X159353689Y-134092887D01*
X159425508Y-134071101D01*
X159491696Y-134035722D01*
X159549711Y-133988111D01*
X159597322Y-133930096D01*
X159632701Y-133863908D01*
X159654487Y-133792089D01*
X159661843Y-133717400D01*
X159661843Y-132017400D01*
X159654487Y-131942711D01*
X159632701Y-131870892D01*
X159597322Y-131804704D01*
X159549711Y-131746689D01*
X159491696Y-131699078D01*
X159425508Y-131663699D01*
X159353689Y-131641913D01*
X159279000Y-131634557D01*
X157579000Y-131634557D01*
X157504311Y-131641913D01*
X157432492Y-131663699D01*
X157366304Y-131699078D01*
X157308289Y-131746689D01*
X157260678Y-131804704D01*
X157225299Y-131870892D01*
X157203513Y-131942711D01*
X157196157Y-132017400D01*
X156995596Y-132017400D01*
X156979898Y-131979503D01*
X156845180Y-131777883D01*
X156673717Y-131606420D01*
X156472097Y-131471702D01*
X156248069Y-131378907D01*
X156010243Y-131331600D01*
X155767757Y-131331600D01*
X155529931Y-131378907D01*
X155305903Y-131471702D01*
X155104283Y-131606420D01*
X154932820Y-131777883D01*
X154798102Y-131979503D01*
X154705307Y-132203531D01*
X154658000Y-132441357D01*
X154504952Y-132441357D01*
X154439898Y-132284303D01*
X154305180Y-132082683D01*
X154133717Y-131911220D01*
X153932097Y-131776502D01*
X153708069Y-131683707D01*
X153470243Y-131636400D01*
X153227757Y-131636400D01*
X152989931Y-131683707D01*
X152765903Y-131776502D01*
X152564283Y-131911220D01*
X152392820Y-132082683D01*
X152258102Y-132284303D01*
X152165307Y-132508331D01*
X152118000Y-132746157D01*
X152027604Y-132746157D01*
X152040000Y-132683843D01*
X152040000Y-132441357D01*
X151992693Y-132203531D01*
X151899898Y-131979503D01*
X151765180Y-131777883D01*
X151593717Y-131606420D01*
X151392097Y-131471702D01*
X151168069Y-131378907D01*
X150930243Y-131331600D01*
X150687757Y-131331600D01*
X150449931Y-131378907D01*
X150225903Y-131471702D01*
X150024283Y-131606420D01*
X149852820Y-131777883D01*
X149718102Y-131979503D01*
X149625307Y-132203531D01*
X149578000Y-132441357D01*
X149424952Y-132441357D01*
X149359898Y-132284303D01*
X149225180Y-132082683D01*
X149053717Y-131911220D01*
X148852097Y-131776502D01*
X148628069Y-131683707D01*
X148390243Y-131636400D01*
X148147757Y-131636400D01*
X147909931Y-131683707D01*
X147685903Y-131776502D01*
X147484283Y-131911220D01*
X147312820Y-132082683D01*
X147178102Y-132284303D01*
X147085307Y-132508331D01*
X147038000Y-132746157D01*
X146947604Y-132746157D01*
X146960000Y-132683843D01*
X146960000Y-132441357D01*
X146912693Y-132203531D01*
X146819898Y-131979503D01*
X146685180Y-131777883D01*
X146513717Y-131606420D01*
X146312097Y-131471702D01*
X146088069Y-131378907D01*
X145850243Y-131331600D01*
X145607757Y-131331600D01*
X145369931Y-131378907D01*
X145145903Y-131471702D01*
X144944283Y-131606420D01*
X144772820Y-131777883D01*
X144638102Y-131979503D01*
X144545307Y-132203531D01*
X144498000Y-132441357D01*
X144344952Y-132441357D01*
X144279898Y-132284303D01*
X144145180Y-132082683D01*
X143973717Y-131911220D01*
X143772097Y-131776502D01*
X143548069Y-131683707D01*
X143310243Y-131636400D01*
X143067757Y-131636400D01*
X142829931Y-131683707D01*
X142605903Y-131776502D01*
X142404283Y-131911220D01*
X142232820Y-132082683D01*
X142098102Y-132284303D01*
X142005307Y-132508331D01*
X141958000Y-132746157D01*
X141867604Y-132746157D01*
X141880000Y-132683843D01*
X141880000Y-132441357D01*
X141832693Y-132203531D01*
X141739898Y-131979503D01*
X141605180Y-131777883D01*
X141433717Y-131606420D01*
X141232097Y-131471702D01*
X141008069Y-131378907D01*
X140770243Y-131331600D01*
X140527757Y-131331600D01*
X140289931Y-131378907D01*
X140065903Y-131471702D01*
X139864283Y-131606420D01*
X139692820Y-131777883D01*
X139558102Y-131979503D01*
X139465307Y-132203531D01*
X139418000Y-132441357D01*
X139264952Y-132441357D01*
X139199898Y-132284303D01*
X139065180Y-132082683D01*
X138893717Y-131911220D01*
X138692097Y-131776502D01*
X138468069Y-131683707D01*
X138230243Y-131636400D01*
X137987757Y-131636400D01*
X137749931Y-131683707D01*
X137525903Y-131776502D01*
X137324283Y-131911220D01*
X137152820Y-132082683D01*
X137018102Y-132284303D01*
X136925307Y-132508331D01*
X136878000Y-132746157D01*
X136787604Y-132746157D01*
X136800000Y-132683843D01*
X136800000Y-132441357D01*
X136752693Y-132203531D01*
X136659898Y-131979503D01*
X136525180Y-131777883D01*
X136353717Y-131606420D01*
X136152097Y-131471702D01*
X135928069Y-131378907D01*
X135690243Y-131331600D01*
X135447757Y-131331600D01*
X135209931Y-131378907D01*
X134985903Y-131471702D01*
X134784283Y-131606420D01*
X134612820Y-131777883D01*
X134478102Y-131979503D01*
X134385307Y-132203531D01*
X134338000Y-132441357D01*
X124991309Y-132441357D01*
X124281426Y-131950727D01*
X123236102Y-131043641D01*
X122296632Y-130027328D01*
X121474360Y-128914063D01*
X120779211Y-127717276D01*
X120540393Y-127177078D01*
X142729000Y-127177078D01*
X142729000Y-127330922D01*
X142759013Y-127481809D01*
X142817887Y-127623942D01*
X142903358Y-127751859D01*
X143012141Y-127860642D01*
X143140058Y-127946113D01*
X143282191Y-128004987D01*
X143433078Y-128035000D01*
X143586922Y-128035000D01*
X143737809Y-128004987D01*
X143879942Y-127946113D01*
X143986250Y-127875081D01*
X144092558Y-127946113D01*
X144234691Y-128004987D01*
X144385578Y-128035000D01*
X144539422Y-128035000D01*
X144690309Y-128004987D01*
X144832442Y-127946113D01*
X144960359Y-127860642D01*
X145008923Y-127812078D01*
X154286000Y-127812078D01*
X154286000Y-127965922D01*
X154316013Y-128116809D01*
X154374887Y-128258942D01*
X154460358Y-128386859D01*
X154470499Y-128397000D01*
X154460358Y-128407141D01*
X154374887Y-128535058D01*
X154316013Y-128677191D01*
X154286000Y-128828078D01*
X154286000Y-128981922D01*
X154316013Y-129132809D01*
X154374887Y-129274942D01*
X154460358Y-129402859D01*
X154569141Y-129511642D01*
X154697058Y-129597113D01*
X154839191Y-129655987D01*
X154990078Y-129686000D01*
X155143922Y-129686000D01*
X155294809Y-129655987D01*
X155436942Y-129597113D01*
X155564859Y-129511642D01*
X155673642Y-129402859D01*
X155759113Y-129274942D01*
X155817987Y-129132809D01*
X155848000Y-128981922D01*
X155848000Y-128828078D01*
X155817987Y-128677191D01*
X155759113Y-128535058D01*
X155673642Y-128407141D01*
X155663501Y-128397000D01*
X155673642Y-128386859D01*
X155759113Y-128258942D01*
X155817987Y-128116809D01*
X155848000Y-127965922D01*
X155848000Y-127812078D01*
X155817987Y-127661191D01*
X155759113Y-127519058D01*
X155673642Y-127391141D01*
X155564859Y-127282358D01*
X155436942Y-127196887D01*
X155294809Y-127138013D01*
X155143922Y-127108000D01*
X154990078Y-127108000D01*
X154839191Y-127138013D01*
X154697058Y-127196887D01*
X154569141Y-127282358D01*
X154460358Y-127391141D01*
X154374887Y-127519058D01*
X154316013Y-127661191D01*
X154286000Y-127812078D01*
X145008923Y-127812078D01*
X145069142Y-127751859D01*
X145154613Y-127623942D01*
X145213487Y-127481809D01*
X145243500Y-127330922D01*
X145243500Y-127177078D01*
X145213487Y-127026191D01*
X145154613Y-126884058D01*
X145069142Y-126756141D01*
X144960359Y-126647358D01*
X144832442Y-126561887D01*
X144690309Y-126503013D01*
X144539422Y-126473000D01*
X144385578Y-126473000D01*
X144234691Y-126503013D01*
X144092558Y-126561887D01*
X143986250Y-126632919D01*
X143879942Y-126561887D01*
X143737809Y-126503013D01*
X143586922Y-126473000D01*
X143433078Y-126473000D01*
X143282191Y-126503013D01*
X143140058Y-126561887D01*
X143012141Y-126647358D01*
X142903358Y-126756141D01*
X142817887Y-126884058D01*
X142759013Y-127026191D01*
X142729000Y-127177078D01*
X120540393Y-127177078D01*
X120219592Y-126451441D01*
X120069388Y-125976500D01*
X133127423Y-125976500D01*
X133127423Y-126130344D01*
X133157436Y-126281231D01*
X133216310Y-126423364D01*
X133301781Y-126551281D01*
X133410564Y-126660064D01*
X133538481Y-126745535D01*
X133680614Y-126804409D01*
X133831501Y-126834422D01*
X133985345Y-126834422D01*
X134136232Y-126804409D01*
X134278365Y-126745535D01*
X134406282Y-126660064D01*
X134515065Y-126551281D01*
X134600536Y-126423364D01*
X134659410Y-126281231D01*
X134689423Y-126130344D01*
X134689423Y-125976500D01*
X134659410Y-125825613D01*
X134600536Y-125683480D01*
X134580223Y-125653078D01*
X157080000Y-125653078D01*
X157080000Y-125806922D01*
X157110013Y-125957809D01*
X157168887Y-126099942D01*
X157254358Y-126227859D01*
X157363141Y-126336642D01*
X157491058Y-126422113D01*
X157633191Y-126480987D01*
X157784078Y-126511000D01*
X157937922Y-126511000D01*
X158088809Y-126480987D01*
X158230942Y-126422113D01*
X158358859Y-126336642D01*
X158400750Y-126294751D01*
X158442641Y-126336642D01*
X158570558Y-126422113D01*
X158712691Y-126480987D01*
X158863578Y-126511000D01*
X159017422Y-126511000D01*
X159168309Y-126480987D01*
X159310442Y-126422113D01*
X159438359Y-126336642D01*
X159448500Y-126326501D01*
X159458641Y-126336642D01*
X159586558Y-126422113D01*
X159728691Y-126480987D01*
X159879578Y-126511000D01*
X160033422Y-126511000D01*
X160184309Y-126480987D01*
X160326442Y-126422113D01*
X160454359Y-126336642D01*
X160559750Y-126231251D01*
X160601641Y-126273142D01*
X160729558Y-126358613D01*
X160871691Y-126417487D01*
X161022578Y-126447500D01*
X161176422Y-126447500D01*
X161327309Y-126417487D01*
X161469442Y-126358613D01*
X161597359Y-126273142D01*
X161706142Y-126164359D01*
X161791613Y-126036442D01*
X161850487Y-125894309D01*
X161880500Y-125743422D01*
X161880500Y-125589578D01*
X161850487Y-125438691D01*
X161791613Y-125296558D01*
X161706142Y-125168641D01*
X161597359Y-125059858D01*
X161469442Y-124974387D01*
X161327309Y-124915513D01*
X161176422Y-124885500D01*
X161022578Y-124885500D01*
X160871691Y-124915513D01*
X160729558Y-124974387D01*
X160601641Y-125059858D01*
X160496250Y-125165249D01*
X160454359Y-125123358D01*
X160326442Y-125037887D01*
X160184309Y-124979013D01*
X160033422Y-124949000D01*
X159879578Y-124949000D01*
X159728691Y-124979013D01*
X159586558Y-125037887D01*
X159458641Y-125123358D01*
X159448500Y-125133499D01*
X159438359Y-125123358D01*
X159310442Y-125037887D01*
X159168309Y-124979013D01*
X159017422Y-124949000D01*
X158863578Y-124949000D01*
X158712691Y-124979013D01*
X158570558Y-125037887D01*
X158442641Y-125123358D01*
X158400750Y-125165249D01*
X158358859Y-125123358D01*
X158230942Y-125037887D01*
X158088809Y-124979013D01*
X157937922Y-124949000D01*
X157784078Y-124949000D01*
X157633191Y-124979013D01*
X157491058Y-125037887D01*
X157363141Y-125123358D01*
X157254358Y-125232141D01*
X157168887Y-125360058D01*
X157110013Y-125502191D01*
X157080000Y-125653078D01*
X134580223Y-125653078D01*
X134515065Y-125555563D01*
X134406282Y-125446780D01*
X134278365Y-125361309D01*
X134136232Y-125302435D01*
X133985345Y-125272422D01*
X133831501Y-125272422D01*
X133680614Y-125302435D01*
X133538481Y-125361309D01*
X133410564Y-125446780D01*
X133301781Y-125555563D01*
X133216310Y-125683480D01*
X133157436Y-125825613D01*
X133127423Y-125976500D01*
X120069388Y-125976500D01*
X119802260Y-125131852D01*
X119532250Y-123774424D01*
X119479209Y-123162000D01*
X119963257Y-123162000D01*
X119963257Y-124862000D01*
X119970613Y-124936689D01*
X119992399Y-125008508D01*
X120027778Y-125074696D01*
X120075389Y-125132711D01*
X120133404Y-125180322D01*
X120199592Y-125215701D01*
X120271411Y-125237487D01*
X120346100Y-125244843D01*
X122046100Y-125244843D01*
X122120789Y-125237487D01*
X122192608Y-125215701D01*
X122258796Y-125180322D01*
X122316811Y-125132711D01*
X122364422Y-125074696D01*
X122399801Y-125008508D01*
X122421587Y-124936689D01*
X122428943Y-124862000D01*
X122428943Y-123621078D01*
X124187000Y-123621078D01*
X124187000Y-123774922D01*
X124217013Y-123925809D01*
X124275887Y-124067942D01*
X124361358Y-124195859D01*
X124470141Y-124304642D01*
X124598058Y-124390113D01*
X124740191Y-124448987D01*
X124891078Y-124479000D01*
X125044922Y-124479000D01*
X125195809Y-124448987D01*
X125337942Y-124390113D01*
X125465859Y-124304642D01*
X125574642Y-124195859D01*
X125660113Y-124067942D01*
X125718987Y-123925809D01*
X125749000Y-123774922D01*
X125749000Y-123621078D01*
X125718987Y-123470191D01*
X125660113Y-123328058D01*
X125574642Y-123200141D01*
X125465859Y-123091358D01*
X125337942Y-123005887D01*
X125195809Y-122947013D01*
X125044922Y-122917000D01*
X124891078Y-122917000D01*
X124740191Y-122947013D01*
X124598058Y-123005887D01*
X124470141Y-123091358D01*
X124361358Y-123200141D01*
X124275887Y-123328058D01*
X124217013Y-123470191D01*
X124187000Y-123621078D01*
X122428943Y-123621078D01*
X122428943Y-123162000D01*
X122421587Y-123087311D01*
X122399801Y-123015492D01*
X122364422Y-122949304D01*
X122316811Y-122891289D01*
X122258796Y-122843678D01*
X122192608Y-122808299D01*
X122120789Y-122786513D01*
X122046100Y-122779157D01*
X120346100Y-122779157D01*
X120271411Y-122786513D01*
X120199592Y-122808299D01*
X120133404Y-122843678D01*
X120075389Y-122891289D01*
X120027778Y-122949304D01*
X119992399Y-123015492D01*
X119970613Y-123087311D01*
X119963257Y-123162000D01*
X119479209Y-123162000D01*
X119412139Y-122387608D01*
X119406000Y-121996806D01*
X119406000Y-121350757D01*
X120269900Y-121350757D01*
X120269900Y-121593243D01*
X120317207Y-121831069D01*
X120410002Y-122055097D01*
X120544720Y-122256717D01*
X120716183Y-122428180D01*
X120917803Y-122562898D01*
X121141831Y-122655693D01*
X121379657Y-122703000D01*
X121622143Y-122703000D01*
X121795192Y-122668578D01*
X131680000Y-122668578D01*
X131680000Y-122822422D01*
X131710013Y-122973309D01*
X131768887Y-123115442D01*
X131854358Y-123243359D01*
X131963141Y-123352142D01*
X132091058Y-123437613D01*
X132233191Y-123496487D01*
X132384078Y-123526500D01*
X132537922Y-123526500D01*
X132688809Y-123496487D01*
X132830942Y-123437613D01*
X132958859Y-123352142D01*
X133067642Y-123243359D01*
X133094883Y-123202590D01*
X133117756Y-123257811D01*
X133203227Y-123385728D01*
X133312010Y-123494511D01*
X133439927Y-123579982D01*
X133582060Y-123638856D01*
X133732947Y-123668869D01*
X133886791Y-123668869D01*
X134037678Y-123638856D01*
X134093000Y-123615941D01*
X134093000Y-123647922D01*
X134123013Y-123798809D01*
X134181887Y-123940942D01*
X134267358Y-124068859D01*
X134376141Y-124177642D01*
X134504058Y-124263113D01*
X134646191Y-124321987D01*
X134797078Y-124352000D01*
X134950922Y-124352000D01*
X135101809Y-124321987D01*
X135243942Y-124263113D01*
X135371859Y-124177642D01*
X135480642Y-124068859D01*
X135482834Y-124065578D01*
X140379500Y-124065578D01*
X140379500Y-124219422D01*
X140409513Y-124370309D01*
X140468387Y-124512442D01*
X140553858Y-124640359D01*
X140662641Y-124749142D01*
X140790558Y-124834613D01*
X140932691Y-124893487D01*
X141083578Y-124923500D01*
X141237422Y-124923500D01*
X141388309Y-124893487D01*
X141530442Y-124834613D01*
X141658359Y-124749142D01*
X141767142Y-124640359D01*
X141852613Y-124512442D01*
X141911487Y-124370309D01*
X141941500Y-124219422D01*
X141941500Y-124065578D01*
X141911487Y-123914691D01*
X141852613Y-123772558D01*
X141767142Y-123644641D01*
X141658359Y-123535858D01*
X141530442Y-123450387D01*
X141388309Y-123391513D01*
X141237422Y-123361500D01*
X141083578Y-123361500D01*
X140932691Y-123391513D01*
X140790558Y-123450387D01*
X140662641Y-123535858D01*
X140553858Y-123644641D01*
X140468387Y-123772558D01*
X140409513Y-123914691D01*
X140379500Y-124065578D01*
X135482834Y-124065578D01*
X135566113Y-123940942D01*
X135624987Y-123798809D01*
X135655000Y-123647922D01*
X135655000Y-123494078D01*
X135624987Y-123343191D01*
X135566113Y-123201058D01*
X135480642Y-123073141D01*
X135371859Y-122964358D01*
X135243942Y-122878887D01*
X135101809Y-122820013D01*
X134950922Y-122790000D01*
X134797078Y-122790000D01*
X134646191Y-122820013D01*
X134590869Y-122842928D01*
X134590869Y-122810947D01*
X134560856Y-122660060D01*
X134501982Y-122517927D01*
X134432927Y-122414578D01*
X141268500Y-122414578D01*
X141268500Y-122568422D01*
X141298513Y-122719309D01*
X141357387Y-122861442D01*
X141442858Y-122989359D01*
X141551641Y-123098142D01*
X141679558Y-123183613D01*
X141821691Y-123242487D01*
X141972578Y-123272500D01*
X142126422Y-123272500D01*
X142277309Y-123242487D01*
X142419442Y-123183613D01*
X142547359Y-123098142D01*
X142656142Y-122989359D01*
X142741613Y-122861442D01*
X142800487Y-122719309D01*
X142830500Y-122568422D01*
X142830500Y-122414578D01*
X142800487Y-122263691D01*
X142741613Y-122121558D01*
X142656142Y-121993641D01*
X142547359Y-121884858D01*
X142419442Y-121799387D01*
X142277309Y-121740513D01*
X142126422Y-121710500D01*
X141972578Y-121710500D01*
X141821691Y-121740513D01*
X141679558Y-121799387D01*
X141551641Y-121884858D01*
X141442858Y-121993641D01*
X141357387Y-122121558D01*
X141298513Y-122263691D01*
X141268500Y-122414578D01*
X134432927Y-122414578D01*
X134416511Y-122390010D01*
X134307728Y-122281227D01*
X134179811Y-122195756D01*
X134037678Y-122136882D01*
X133886791Y-122106869D01*
X133732947Y-122106869D01*
X133582060Y-122136882D01*
X133439927Y-122195756D01*
X133312010Y-122281227D01*
X133203227Y-122390010D01*
X133175986Y-122430779D01*
X133153113Y-122375558D01*
X133082267Y-122269529D01*
X133201125Y-122220296D01*
X133329042Y-122134825D01*
X133437825Y-122026042D01*
X133523296Y-121898125D01*
X133582170Y-121755992D01*
X133612183Y-121605105D01*
X133612183Y-121520752D01*
X133724794Y-121520752D01*
X133875681Y-121490739D01*
X134017814Y-121431865D01*
X134145731Y-121346394D01*
X134254514Y-121237611D01*
X134339985Y-121109694D01*
X134398859Y-120967561D01*
X134428872Y-120816674D01*
X134428872Y-120709404D01*
X141522507Y-120709404D01*
X141522507Y-120863248D01*
X141552520Y-121014135D01*
X141611394Y-121156268D01*
X141696865Y-121284185D01*
X141805648Y-121392968D01*
X141933565Y-121478439D01*
X142075698Y-121537313D01*
X142226585Y-121567326D01*
X142380429Y-121567326D01*
X142531316Y-121537313D01*
X142673449Y-121478439D01*
X142801366Y-121392968D01*
X142910149Y-121284185D01*
X142995620Y-121156268D01*
X143054494Y-121014135D01*
X143084507Y-120863248D01*
X143084507Y-120709404D01*
X143054494Y-120558517D01*
X142995620Y-120416384D01*
X142910149Y-120288467D01*
X142801366Y-120179684D01*
X142673449Y-120094213D01*
X142531316Y-120035339D01*
X142380429Y-120005326D01*
X142226585Y-120005326D01*
X142075698Y-120035339D01*
X141933565Y-120094213D01*
X141805648Y-120179684D01*
X141696865Y-120288467D01*
X141611394Y-120416384D01*
X141552520Y-120558517D01*
X141522507Y-120709404D01*
X134428872Y-120709404D01*
X134428872Y-120662830D01*
X134398859Y-120511943D01*
X134339985Y-120369810D01*
X134254514Y-120241893D01*
X134145731Y-120133110D01*
X134017814Y-120047639D01*
X133875681Y-119988765D01*
X133724794Y-119958752D01*
X133570950Y-119958752D01*
X133420063Y-119988765D01*
X133277930Y-120047639D01*
X133150013Y-120133110D01*
X133041230Y-120241893D01*
X132955759Y-120369810D01*
X132896885Y-120511943D01*
X132866872Y-120662830D01*
X132866872Y-120747183D01*
X132754261Y-120747183D01*
X132603374Y-120777196D01*
X132461241Y-120836070D01*
X132333324Y-120921541D01*
X132224541Y-121030324D01*
X132139070Y-121158241D01*
X132080196Y-121300374D01*
X132050183Y-121451261D01*
X132050183Y-121605105D01*
X132080196Y-121755992D01*
X132139070Y-121898125D01*
X132209916Y-122004154D01*
X132091058Y-122053387D01*
X131963141Y-122138858D01*
X131854358Y-122247641D01*
X131768887Y-122375558D01*
X131710013Y-122517691D01*
X131680000Y-122668578D01*
X121795192Y-122668578D01*
X121859969Y-122655693D01*
X122083997Y-122562898D01*
X122285617Y-122428180D01*
X122457080Y-122256717D01*
X122591798Y-122055097D01*
X122684593Y-121831069D01*
X122731900Y-121593243D01*
X122731900Y-121350757D01*
X122684593Y-121112931D01*
X122591798Y-120888903D01*
X122457080Y-120687283D01*
X122285617Y-120515820D01*
X122083997Y-120381102D01*
X121859969Y-120288307D01*
X121622143Y-120241000D01*
X121379657Y-120241000D01*
X121141831Y-120288307D01*
X120917803Y-120381102D01*
X120716183Y-120515820D01*
X120544720Y-120687283D01*
X120410002Y-120888903D01*
X120317207Y-121112931D01*
X120269900Y-121350757D01*
X119406000Y-121350757D01*
X119406000Y-118810757D01*
X119965100Y-118810757D01*
X119965100Y-119053243D01*
X120012407Y-119291069D01*
X120105202Y-119515097D01*
X120239920Y-119716717D01*
X120411383Y-119888180D01*
X120613003Y-120022898D01*
X120837031Y-120115693D01*
X121074857Y-120163000D01*
X121317343Y-120163000D01*
X121555169Y-120115693D01*
X121779197Y-120022898D01*
X121980817Y-119888180D01*
X122152280Y-119716717D01*
X122286998Y-119515097D01*
X122379793Y-119291069D01*
X122427100Y-119053243D01*
X122427100Y-118922078D01*
X129711500Y-118922078D01*
X129711500Y-119075922D01*
X129741513Y-119226809D01*
X129800387Y-119368942D01*
X129885858Y-119496859D01*
X129994641Y-119605642D01*
X130122558Y-119691113D01*
X130264691Y-119749987D01*
X130415578Y-119780000D01*
X130569422Y-119780000D01*
X130720309Y-119749987D01*
X130862442Y-119691113D01*
X130990359Y-119605642D01*
X131064000Y-119532001D01*
X131137641Y-119605642D01*
X131186729Y-119638441D01*
X131153691Y-119645013D01*
X131011558Y-119703887D01*
X130883641Y-119789358D01*
X130774858Y-119898141D01*
X130689387Y-120026058D01*
X130630513Y-120168191D01*
X130600500Y-120319078D01*
X130600500Y-120472922D01*
X130630513Y-120623809D01*
X130689387Y-120765942D01*
X130774858Y-120893859D01*
X130883641Y-121002642D01*
X131011558Y-121088113D01*
X131153691Y-121146987D01*
X131304578Y-121177000D01*
X131458422Y-121177000D01*
X131609309Y-121146987D01*
X131751442Y-121088113D01*
X131879359Y-121002642D01*
X131988142Y-120893859D01*
X132073613Y-120765942D01*
X132132487Y-120623809D01*
X132162500Y-120472922D01*
X132162500Y-120319078D01*
X132132487Y-120168191D01*
X132073613Y-120026058D01*
X131988142Y-119898141D01*
X131879359Y-119789358D01*
X131830271Y-119756559D01*
X131863309Y-119749987D01*
X132005442Y-119691113D01*
X132133359Y-119605642D01*
X132242142Y-119496859D01*
X132327613Y-119368942D01*
X132386487Y-119226809D01*
X132416500Y-119075922D01*
X132416500Y-118922078D01*
X132386487Y-118771191D01*
X132327613Y-118629058D01*
X132242142Y-118501141D01*
X132133359Y-118392358D01*
X132005442Y-118306887D01*
X131863309Y-118248013D01*
X131712422Y-118218000D01*
X131558578Y-118218000D01*
X131407691Y-118248013D01*
X131265558Y-118306887D01*
X131137641Y-118392358D01*
X131064000Y-118465999D01*
X130990359Y-118392358D01*
X130862442Y-118306887D01*
X130720309Y-118248013D01*
X130569422Y-118218000D01*
X130415578Y-118218000D01*
X130264691Y-118248013D01*
X130122558Y-118306887D01*
X129994641Y-118392358D01*
X129885858Y-118501141D01*
X129800387Y-118629058D01*
X129741513Y-118771191D01*
X129711500Y-118922078D01*
X122427100Y-118922078D01*
X122427100Y-118810757D01*
X122379793Y-118572931D01*
X122286998Y-118348903D01*
X122152280Y-118147283D01*
X121980817Y-117975820D01*
X121779197Y-117841102D01*
X121555169Y-117748307D01*
X121317343Y-117701000D01*
X121074857Y-117701000D01*
X120837031Y-117748307D01*
X120613003Y-117841102D01*
X120411383Y-117975820D01*
X120239920Y-118147283D01*
X120105202Y-118348903D01*
X120012407Y-118572931D01*
X119965100Y-118810757D01*
X119406000Y-118810757D01*
X119406000Y-116270757D01*
X120269900Y-116270757D01*
X120269900Y-116513243D01*
X120317207Y-116751069D01*
X120410002Y-116975097D01*
X120544720Y-117176717D01*
X120716183Y-117348180D01*
X120917803Y-117482898D01*
X121141831Y-117575693D01*
X121379657Y-117623000D01*
X121622143Y-117623000D01*
X121859969Y-117575693D01*
X122083997Y-117482898D01*
X122285617Y-117348180D01*
X122457080Y-117176717D01*
X122591798Y-116975097D01*
X122684593Y-116751069D01*
X122731900Y-116513243D01*
X122731900Y-116270757D01*
X122728782Y-116255078D01*
X132188000Y-116255078D01*
X132188000Y-116408922D01*
X132218013Y-116559809D01*
X132276887Y-116701942D01*
X132362358Y-116829859D01*
X132471141Y-116938642D01*
X132599058Y-117024113D01*
X132741191Y-117082987D01*
X132892078Y-117113000D01*
X133045922Y-117113000D01*
X133196809Y-117082987D01*
X133338942Y-117024113D01*
X133466859Y-116938642D01*
X133575642Y-116829859D01*
X133661113Y-116701942D01*
X133719987Y-116559809D01*
X133750000Y-116408922D01*
X133750000Y-116255078D01*
X133719987Y-116104191D01*
X133661113Y-115962058D01*
X133575642Y-115834141D01*
X133466859Y-115725358D01*
X133338942Y-115639887D01*
X133196809Y-115581013D01*
X133045922Y-115551000D01*
X132892078Y-115551000D01*
X132741191Y-115581013D01*
X132599058Y-115639887D01*
X132471141Y-115725358D01*
X132362358Y-115834141D01*
X132276887Y-115962058D01*
X132218013Y-116104191D01*
X132188000Y-116255078D01*
X122728782Y-116255078D01*
X122684593Y-116032931D01*
X122591798Y-115808903D01*
X122457080Y-115607283D01*
X122285617Y-115435820D01*
X122083997Y-115301102D01*
X121859969Y-115208307D01*
X121622143Y-115161000D01*
X121379657Y-115161000D01*
X121141831Y-115208307D01*
X120917803Y-115301102D01*
X120716183Y-115435820D01*
X120544720Y-115607283D01*
X120410002Y-115808903D01*
X120317207Y-116032931D01*
X120269900Y-116270757D01*
X119406000Y-116270757D01*
X119406000Y-113730757D01*
X119965100Y-113730757D01*
X119965100Y-113973243D01*
X120012407Y-114211069D01*
X120105202Y-114435097D01*
X120239920Y-114636717D01*
X120411383Y-114808180D01*
X120613003Y-114942898D01*
X120837031Y-115035693D01*
X121074857Y-115083000D01*
X121317343Y-115083000D01*
X121555169Y-115035693D01*
X121779197Y-114942898D01*
X121980817Y-114808180D01*
X122152280Y-114636717D01*
X122286998Y-114435097D01*
X122379793Y-114211069D01*
X122415154Y-114033300D01*
X136602518Y-114033300D01*
X139689298Y-117120082D01*
X139685164Y-117140866D01*
X139666656Y-117122358D01*
X139538739Y-117036887D01*
X139396606Y-116978013D01*
X139245719Y-116948000D01*
X139091875Y-116948000D01*
X138940988Y-116978013D01*
X138798855Y-117036887D01*
X138670938Y-117122358D01*
X138562155Y-117231141D01*
X138476684Y-117359058D01*
X138449000Y-117425892D01*
X138449000Y-117398078D01*
X138418987Y-117247191D01*
X138360113Y-117105058D01*
X138274642Y-116977141D01*
X138165859Y-116868358D01*
X138037942Y-116782887D01*
X137895809Y-116724013D01*
X137744922Y-116694000D01*
X137591078Y-116694000D01*
X137508917Y-116710343D01*
X137561659Y-116675102D01*
X137670442Y-116566319D01*
X137755913Y-116438402D01*
X137814787Y-116296269D01*
X137844800Y-116145382D01*
X137844800Y-115991538D01*
X137814787Y-115840651D01*
X137755913Y-115698518D01*
X137670442Y-115570601D01*
X137561659Y-115461818D01*
X137433742Y-115376347D01*
X137291609Y-115317473D01*
X137140722Y-115287460D01*
X136986878Y-115287460D01*
X136835991Y-115317473D01*
X136693858Y-115376347D01*
X136565941Y-115461818D01*
X136457158Y-115570601D01*
X136371687Y-115698518D01*
X136312813Y-115840651D01*
X136288822Y-115961262D01*
X136173232Y-115938270D01*
X136019388Y-115938270D01*
X135868501Y-115968283D01*
X135726368Y-116027157D01*
X135598451Y-116112628D01*
X135489668Y-116221411D01*
X135404197Y-116349328D01*
X135345323Y-116491461D01*
X135315310Y-116642348D01*
X135315310Y-116796192D01*
X135345323Y-116947079D01*
X135404197Y-117089212D01*
X135489668Y-117217129D01*
X135598451Y-117325912D01*
X135726368Y-117411383D01*
X135868501Y-117470257D01*
X136019388Y-117500270D01*
X136173232Y-117500270D01*
X136324119Y-117470257D01*
X136466252Y-117411383D01*
X136594169Y-117325912D01*
X136702952Y-117217129D01*
X136788423Y-117089212D01*
X136847297Y-116947079D01*
X136871288Y-116826468D01*
X136986878Y-116849460D01*
X137140722Y-116849460D01*
X137222883Y-116833117D01*
X137170141Y-116868358D01*
X137061358Y-116977141D01*
X136975887Y-117105058D01*
X136917013Y-117247191D01*
X136887000Y-117398078D01*
X136887000Y-117551922D01*
X136917013Y-117702809D01*
X136975887Y-117844942D01*
X137061358Y-117972859D01*
X137170141Y-118081642D01*
X137298058Y-118167113D01*
X137309211Y-118171733D01*
X137303501Y-118185517D01*
X137273488Y-118336404D01*
X137273488Y-118422881D01*
X137153131Y-118342461D01*
X137010998Y-118283587D01*
X136860111Y-118253574D01*
X136706267Y-118253574D01*
X136555380Y-118283587D01*
X136413247Y-118342461D01*
X136285330Y-118427932D01*
X136176547Y-118536715D01*
X136091076Y-118664632D01*
X136032202Y-118806765D01*
X136002189Y-118957652D01*
X136002189Y-119111496D01*
X136032202Y-119262383D01*
X136091076Y-119404516D01*
X136176547Y-119532433D01*
X136285330Y-119641216D01*
X136413247Y-119726687D01*
X136555380Y-119785561D01*
X136706267Y-119815574D01*
X136760000Y-119815574D01*
X136760000Y-119964922D01*
X136790013Y-120115809D01*
X136848887Y-120257942D01*
X136934358Y-120385859D01*
X137043141Y-120494642D01*
X137171058Y-120580113D01*
X137313191Y-120638987D01*
X137464078Y-120669000D01*
X137617922Y-120669000D01*
X137768809Y-120638987D01*
X137910942Y-120580113D01*
X138038859Y-120494642D01*
X138147642Y-120385859D01*
X138233113Y-120257942D01*
X138291987Y-120115809D01*
X138322000Y-119964922D01*
X138322000Y-119811078D01*
X138291987Y-119660191D01*
X138233113Y-119518058D01*
X138147642Y-119390141D01*
X138038859Y-119281358D01*
X137910942Y-119195887D01*
X137842142Y-119167389D01*
X137977566Y-119194326D01*
X138131410Y-119194326D01*
X138282297Y-119164313D01*
X138424430Y-119105439D01*
X138552347Y-119019968D01*
X138661130Y-118911185D01*
X138746601Y-118783268D01*
X138767805Y-118732078D01*
X138767805Y-118793074D01*
X138797818Y-118943961D01*
X138856692Y-119086094D01*
X138942163Y-119214011D01*
X139050946Y-119322794D01*
X139178863Y-119408265D01*
X139320996Y-119467139D01*
X139471883Y-119497152D01*
X139625727Y-119497152D01*
X139776614Y-119467139D01*
X139918747Y-119408265D01*
X140046664Y-119322794D01*
X140155447Y-119214011D01*
X140173364Y-119187196D01*
X140294227Y-119237259D01*
X140445114Y-119267272D01*
X140598958Y-119267272D01*
X140749845Y-119237259D01*
X140891978Y-119178385D01*
X141019895Y-119092914D01*
X141128678Y-118984131D01*
X141214149Y-118856214D01*
X141273023Y-118714081D01*
X141303036Y-118563194D01*
X141303036Y-118409350D01*
X141273023Y-118258463D01*
X141214149Y-118116330D01*
X141128678Y-117988413D01*
X141019895Y-117879630D01*
X140980750Y-117853475D01*
X141061441Y-117772784D01*
X141087690Y-117733499D01*
X141195864Y-117778307D01*
X141346751Y-117808320D01*
X141500595Y-117808320D01*
X141651482Y-117778307D01*
X141793615Y-117719433D01*
X141921532Y-117633962D01*
X142030315Y-117525179D01*
X142115786Y-117397262D01*
X142174660Y-117255129D01*
X142204673Y-117104242D01*
X142204673Y-116950398D01*
X142174660Y-116799511D01*
X142115786Y-116657378D01*
X142030315Y-116529461D01*
X141995812Y-116494958D01*
X142643259Y-116494958D01*
X142643259Y-116648802D01*
X142673272Y-116799689D01*
X142732146Y-116941822D01*
X142817617Y-117069739D01*
X142926400Y-117178522D01*
X143054317Y-117263993D01*
X143196450Y-117322867D01*
X143347337Y-117352880D01*
X143501181Y-117352880D01*
X143652068Y-117322867D01*
X143794201Y-117263993D01*
X143922118Y-117178522D01*
X144030901Y-117069739D01*
X144116372Y-116941822D01*
X144175246Y-116799689D01*
X144205259Y-116648802D01*
X144205259Y-116494958D01*
X144185500Y-116395622D01*
X144260778Y-116410596D01*
X144256964Y-116429768D01*
X144256964Y-116583612D01*
X144286977Y-116734499D01*
X144345851Y-116876632D01*
X144431322Y-117004549D01*
X144540105Y-117113332D01*
X144668022Y-117198803D01*
X144810155Y-117257677D01*
X144961042Y-117287690D01*
X145114886Y-117287690D01*
X145265773Y-117257677D01*
X145407906Y-117198803D01*
X145535823Y-117113332D01*
X145644606Y-117004549D01*
X145730077Y-116876632D01*
X145788951Y-116734499D01*
X145818964Y-116583612D01*
X145818964Y-116429768D01*
X145788951Y-116278881D01*
X145730077Y-116136748D01*
X145644606Y-116008831D01*
X145535823Y-115900048D01*
X145407906Y-115814577D01*
X145265773Y-115755703D01*
X145149647Y-115732604D01*
X145153461Y-115713432D01*
X145153461Y-115559588D01*
X145123448Y-115408701D01*
X145064574Y-115266568D01*
X144979103Y-115138651D01*
X144870320Y-115029868D01*
X144742403Y-114944397D01*
X144600270Y-114885523D01*
X144449383Y-114855510D01*
X144295539Y-114855510D01*
X144144652Y-114885523D01*
X144002519Y-114944397D01*
X143874602Y-115029868D01*
X143765819Y-115138651D01*
X143680348Y-115266568D01*
X143621474Y-115408701D01*
X143591461Y-115559588D01*
X143591461Y-115713432D01*
X143611220Y-115812768D01*
X143501181Y-115790880D01*
X143347337Y-115790880D01*
X143196450Y-115820893D01*
X143054317Y-115879767D01*
X142926400Y-115965238D01*
X142817617Y-116074021D01*
X142732146Y-116201938D01*
X142673272Y-116344071D01*
X142643259Y-116494958D01*
X141995812Y-116494958D01*
X141921532Y-116420678D01*
X141793615Y-116335207D01*
X141651482Y-116276333D01*
X141500595Y-116246320D01*
X141346751Y-116246320D01*
X141195864Y-116276333D01*
X141126324Y-116305138D01*
X140673931Y-115852745D01*
X140779190Y-115809145D01*
X140907107Y-115723674D01*
X141015890Y-115614891D01*
X141101361Y-115486974D01*
X141160235Y-115344841D01*
X141190248Y-115193954D01*
X141190248Y-115040110D01*
X141160235Y-114889223D01*
X141101361Y-114747090D01*
X141015890Y-114619173D01*
X140907107Y-114510390D01*
X140779190Y-114424919D01*
X140707300Y-114395141D01*
X140724421Y-114309065D01*
X140724421Y-114155221D01*
X140694408Y-114004334D01*
X140635534Y-113862201D01*
X140550063Y-113734284D01*
X140441280Y-113625501D01*
X140313363Y-113540030D01*
X140171230Y-113481156D01*
X140020343Y-113451143D01*
X140010677Y-113451143D01*
X139981268Y-113303295D01*
X139922394Y-113161162D01*
X139836923Y-113033245D01*
X139728140Y-112924462D01*
X139600223Y-112838991D01*
X139458090Y-112780117D01*
X139307203Y-112750104D01*
X139153359Y-112750104D01*
X139002472Y-112780117D01*
X138860339Y-112838991D01*
X138732422Y-112924462D01*
X138623639Y-113033245D01*
X138538168Y-113161162D01*
X138479294Y-113303295D01*
X138449281Y-113454182D01*
X138449281Y-113608026D01*
X138454265Y-113633080D01*
X137830752Y-113009568D01*
X137817223Y-112993083D01*
X137751473Y-112939123D01*
X137676459Y-112899028D01*
X137595065Y-112874337D01*
X137531627Y-112868089D01*
X137510417Y-112866000D01*
X137489207Y-112868089D01*
X124146747Y-112868089D01*
X122728582Y-111449925D01*
X122731900Y-111433243D01*
X122731900Y-111190757D01*
X122684593Y-110952931D01*
X122591798Y-110728903D01*
X122457080Y-110527283D01*
X122285617Y-110355820D01*
X122083997Y-110221102D01*
X121859969Y-110128307D01*
X121622143Y-110081000D01*
X121379657Y-110081000D01*
X121141831Y-110128307D01*
X120917803Y-110221102D01*
X120716183Y-110355820D01*
X120544720Y-110527283D01*
X120410002Y-110728903D01*
X120317207Y-110952931D01*
X120269900Y-111190757D01*
X120269900Y-111433243D01*
X120317207Y-111671069D01*
X120410002Y-111895097D01*
X120544720Y-112096717D01*
X120716183Y-112268180D01*
X120917803Y-112402898D01*
X121141831Y-112495693D01*
X121379657Y-112543000D01*
X121622143Y-112543000D01*
X121859969Y-112495693D01*
X122083997Y-112402898D01*
X122285617Y-112268180D01*
X122305570Y-112248227D01*
X123227042Y-113169700D01*
X122220713Y-113169700D01*
X122152280Y-113067283D01*
X121980817Y-112895820D01*
X121779197Y-112761102D01*
X121555169Y-112668307D01*
X121317343Y-112621000D01*
X121074857Y-112621000D01*
X120837031Y-112668307D01*
X120613003Y-112761102D01*
X120411383Y-112895820D01*
X120239920Y-113067283D01*
X120105202Y-113268903D01*
X120012407Y-113492931D01*
X119965100Y-113730757D01*
X119406000Y-113730757D01*
X119406000Y-113011171D01*
X119482668Y-111618067D01*
X119709902Y-110252844D01*
X120085582Y-108920784D01*
X120605164Y-107637998D01*
X120992262Y-106920578D01*
X122155000Y-106920578D01*
X122155000Y-107074422D01*
X122185013Y-107225309D01*
X122243887Y-107367442D01*
X122329358Y-107495359D01*
X122402999Y-107569000D01*
X122329358Y-107642641D01*
X122243887Y-107770558D01*
X122185013Y-107912691D01*
X122155000Y-108063578D01*
X122155000Y-108217422D01*
X122185013Y-108368309D01*
X122243887Y-108510442D01*
X122329358Y-108638359D01*
X122438141Y-108747142D01*
X122566058Y-108832613D01*
X122708191Y-108891487D01*
X122859078Y-108921500D01*
X123012922Y-108921500D01*
X123163809Y-108891487D01*
X123305942Y-108832613D01*
X123433859Y-108747142D01*
X123542642Y-108638359D01*
X123628113Y-108510442D01*
X123686987Y-108368309D01*
X123717000Y-108217422D01*
X123717000Y-108063578D01*
X123686987Y-107912691D01*
X123628113Y-107770558D01*
X123542642Y-107642641D01*
X123469001Y-107569000D01*
X131508500Y-107569000D01*
X131508501Y-109974705D01*
X131433942Y-109924887D01*
X131291809Y-109866013D01*
X131140922Y-109836000D01*
X130987078Y-109836000D01*
X130836191Y-109866013D01*
X130694058Y-109924887D01*
X130566141Y-110010358D01*
X130457358Y-110119141D01*
X130371887Y-110247058D01*
X130313013Y-110389191D01*
X130283000Y-110540078D01*
X130283000Y-110693922D01*
X130313013Y-110844809D01*
X130371887Y-110986942D01*
X130457358Y-111114859D01*
X130566141Y-111223642D01*
X130615229Y-111256441D01*
X130582191Y-111263013D01*
X130440058Y-111321887D01*
X130312141Y-111407358D01*
X130203358Y-111516141D01*
X130117887Y-111644058D01*
X130059013Y-111786191D01*
X130029000Y-111937078D01*
X130029000Y-112090922D01*
X130059013Y-112241809D01*
X130117887Y-112383942D01*
X130203358Y-112511859D01*
X130312141Y-112620642D01*
X130440058Y-112706113D01*
X130582191Y-112764987D01*
X130733078Y-112795000D01*
X130886922Y-112795000D01*
X131037809Y-112764987D01*
X131179942Y-112706113D01*
X131307859Y-112620642D01*
X131416642Y-112511859D01*
X131502113Y-112383942D01*
X131560987Y-112241809D01*
X131591000Y-112090922D01*
X131591000Y-112041222D01*
X132464257Y-111167966D01*
X132486067Y-111150067D01*
X132557484Y-111063045D01*
X132610552Y-110963762D01*
X132643231Y-110856034D01*
X132651500Y-110772074D01*
X132651500Y-110772073D01*
X132654265Y-110744001D01*
X132651500Y-110715929D01*
X132651500Y-110667078D01*
X133077000Y-110667078D01*
X133077000Y-110820922D01*
X133107013Y-110971809D01*
X133165887Y-111113942D01*
X133251358Y-111241859D01*
X133360141Y-111350642D01*
X133488058Y-111436113D01*
X133630191Y-111494987D01*
X133781078Y-111525000D01*
X133934922Y-111525000D01*
X134085809Y-111494987D01*
X134227942Y-111436113D01*
X134355859Y-111350642D01*
X134464642Y-111241859D01*
X134550113Y-111113942D01*
X134608987Y-110971809D01*
X134639000Y-110820922D01*
X134639000Y-110667078D01*
X134608987Y-110516191D01*
X134550113Y-110374058D01*
X134464642Y-110246141D01*
X134355859Y-110137358D01*
X134227942Y-110051887D01*
X134085809Y-109993013D01*
X133934922Y-109963000D01*
X133781078Y-109963000D01*
X133630191Y-109993013D01*
X133488058Y-110051887D01*
X133360141Y-110137358D01*
X133251358Y-110246141D01*
X133165887Y-110374058D01*
X133107013Y-110516191D01*
X133077000Y-110667078D01*
X132651500Y-110667078D01*
X132651500Y-109778078D01*
X135617000Y-109778078D01*
X135617000Y-109931922D01*
X135647013Y-110082809D01*
X135705887Y-110224942D01*
X135791358Y-110352859D01*
X135900141Y-110461642D01*
X136028058Y-110547113D01*
X136170191Y-110605987D01*
X136321078Y-110636000D01*
X136474922Y-110636000D01*
X136625809Y-110605987D01*
X136767942Y-110547113D01*
X136895859Y-110461642D01*
X137004642Y-110352859D01*
X137090113Y-110224942D01*
X137148987Y-110082809D01*
X137179000Y-109931922D01*
X137179000Y-109778078D01*
X137148987Y-109627191D01*
X137090113Y-109485058D01*
X137004642Y-109357141D01*
X136895859Y-109248358D01*
X136767942Y-109162887D01*
X136625809Y-109104013D01*
X136474922Y-109074000D01*
X136321078Y-109074000D01*
X136170191Y-109104013D01*
X136028058Y-109162887D01*
X135900141Y-109248358D01*
X135791358Y-109357141D01*
X135705887Y-109485058D01*
X135647013Y-109627191D01*
X135617000Y-109778078D01*
X132651500Y-109778078D01*
X132651500Y-107569000D01*
X141304778Y-107569000D01*
X142557501Y-108821724D01*
X142557500Y-109836289D01*
X142544835Y-109817334D01*
X142436052Y-109708551D01*
X142308135Y-109623080D01*
X142166002Y-109564206D01*
X142015115Y-109534193D01*
X141861271Y-109534193D01*
X141710384Y-109564206D01*
X141568251Y-109623080D01*
X141440334Y-109708551D01*
X141331551Y-109817334D01*
X141246080Y-109945251D01*
X141187206Y-110087384D01*
X141157193Y-110238271D01*
X141157193Y-110392115D01*
X141159572Y-110404075D01*
X141138095Y-110408347D01*
X140995962Y-110467221D01*
X140868045Y-110552692D01*
X140759262Y-110661475D01*
X140673791Y-110789392D01*
X140614917Y-110931525D01*
X140584904Y-111082412D01*
X140584904Y-111236256D01*
X140614917Y-111387143D01*
X140673791Y-111529276D01*
X140759262Y-111657193D01*
X140868045Y-111765976D01*
X140995962Y-111851447D01*
X141138095Y-111910321D01*
X141288982Y-111940334D01*
X141442826Y-111940334D01*
X141593713Y-111910321D01*
X141735846Y-111851447D01*
X141863763Y-111765976D01*
X141972546Y-111657193D01*
X142058017Y-111529276D01*
X142116891Y-111387143D01*
X142146904Y-111236256D01*
X142146904Y-111082412D01*
X142144525Y-111070452D01*
X142166002Y-111066180D01*
X142308135Y-111007306D01*
X142436052Y-110921835D01*
X142544835Y-110813052D01*
X142564841Y-110783111D01*
X142565769Y-110792533D01*
X142598448Y-110900261D01*
X142651516Y-110999544D01*
X142722933Y-111086567D01*
X142744748Y-111104470D01*
X150056101Y-118415824D01*
X150056100Y-122532526D01*
X150053335Y-122560600D01*
X150059765Y-122625885D01*
X150064369Y-122672633D01*
X150097048Y-122780361D01*
X150150116Y-122879644D01*
X150221533Y-122966667D01*
X150243348Y-122984570D01*
X152230034Y-124971257D01*
X152247933Y-124993067D01*
X152334955Y-125064484D01*
X152434238Y-125117552D01*
X152541966Y-125150231D01*
X152625926Y-125158500D01*
X152625927Y-125158500D01*
X152653999Y-125161265D01*
X152682071Y-125158500D01*
X155232499Y-125158500D01*
X155267641Y-125193642D01*
X155395558Y-125279113D01*
X155537691Y-125337987D01*
X155688578Y-125368000D01*
X155842422Y-125368000D01*
X155993309Y-125337987D01*
X156135442Y-125279113D01*
X156263359Y-125193642D01*
X156372142Y-125084859D01*
X156457613Y-124956942D01*
X156516487Y-124814809D01*
X156546500Y-124663922D01*
X156546500Y-124510078D01*
X156521239Y-124383078D01*
X164700000Y-124383078D01*
X164700000Y-124536922D01*
X164730013Y-124687809D01*
X164788887Y-124829942D01*
X164874358Y-124957859D01*
X164983141Y-125066642D01*
X165111058Y-125152113D01*
X165253191Y-125210987D01*
X165404078Y-125241000D01*
X165557922Y-125241000D01*
X165708809Y-125210987D01*
X165850942Y-125152113D01*
X165978859Y-125066642D01*
X166087642Y-124957859D01*
X166173113Y-124829942D01*
X166231987Y-124687809D01*
X166262000Y-124536922D01*
X166262000Y-124383078D01*
X166231987Y-124232191D01*
X166173113Y-124090058D01*
X166087642Y-123962141D01*
X165978859Y-123853358D01*
X165850942Y-123767887D01*
X165708809Y-123709013D01*
X165557922Y-123679000D01*
X165404078Y-123679000D01*
X165253191Y-123709013D01*
X165111058Y-123767887D01*
X164983141Y-123853358D01*
X164874358Y-123962141D01*
X164788887Y-124090058D01*
X164730013Y-124232191D01*
X164700000Y-124383078D01*
X156521239Y-124383078D01*
X156516487Y-124359191D01*
X156457613Y-124217058D01*
X156372142Y-124089141D01*
X156263359Y-123980358D01*
X156135442Y-123894887D01*
X155993309Y-123836013D01*
X155842422Y-123806000D01*
X155688578Y-123806000D01*
X155537691Y-123836013D01*
X155395558Y-123894887D01*
X155267641Y-123980358D01*
X155232499Y-124015500D01*
X152890723Y-124015500D01*
X151199100Y-122323878D01*
X151199100Y-121843078D01*
X163557000Y-121843078D01*
X163557000Y-121996922D01*
X163587013Y-122147809D01*
X163645887Y-122289942D01*
X163731358Y-122417859D01*
X163840141Y-122526642D01*
X163968058Y-122612113D01*
X164110191Y-122670987D01*
X164261078Y-122701000D01*
X164414922Y-122701000D01*
X164565809Y-122670987D01*
X164707942Y-122612113D01*
X164835859Y-122526642D01*
X164944642Y-122417859D01*
X165030113Y-122289942D01*
X165088987Y-122147809D01*
X165119000Y-121996922D01*
X165119000Y-121843078D01*
X165335000Y-121843078D01*
X165335000Y-121996922D01*
X165365013Y-122147809D01*
X165423887Y-122289942D01*
X165509358Y-122417859D01*
X165618141Y-122526642D01*
X165746058Y-122612113D01*
X165888191Y-122670987D01*
X166039078Y-122701000D01*
X166192922Y-122701000D01*
X166343809Y-122670987D01*
X166485942Y-122612113D01*
X166613859Y-122526642D01*
X166722642Y-122417859D01*
X166808113Y-122289942D01*
X166866987Y-122147809D01*
X166897000Y-121996922D01*
X166897000Y-121843078D01*
X166866987Y-121692191D01*
X166808113Y-121550058D01*
X166722642Y-121422141D01*
X166613859Y-121313358D01*
X166485942Y-121227887D01*
X166343809Y-121169013D01*
X166192922Y-121139000D01*
X166039078Y-121139000D01*
X165888191Y-121169013D01*
X165746058Y-121227887D01*
X165618141Y-121313358D01*
X165509358Y-121422141D01*
X165423887Y-121550058D01*
X165365013Y-121692191D01*
X165335000Y-121843078D01*
X165119000Y-121843078D01*
X165088987Y-121692191D01*
X165030113Y-121550058D01*
X164944642Y-121422141D01*
X164835859Y-121313358D01*
X164707942Y-121227887D01*
X164565809Y-121169013D01*
X164414922Y-121139000D01*
X164261078Y-121139000D01*
X164110191Y-121169013D01*
X163968058Y-121227887D01*
X163840141Y-121313358D01*
X163731358Y-121422141D01*
X163645887Y-121550058D01*
X163587013Y-121692191D01*
X163557000Y-121843078D01*
X151199100Y-121843078D01*
X151199100Y-121328346D01*
X151216721Y-121354718D01*
X151388184Y-121526181D01*
X151589804Y-121660899D01*
X151813832Y-121753694D01*
X152051658Y-121801001D01*
X152294144Y-121801001D01*
X152531970Y-121753694D01*
X152755998Y-121660899D01*
X152957618Y-121526181D01*
X153129081Y-121354718D01*
X153263799Y-121153098D01*
X153356594Y-120929070D01*
X153403901Y-120691244D01*
X153403901Y-120448758D01*
X154521800Y-120448758D01*
X154521800Y-120691244D01*
X154569107Y-120929070D01*
X154661902Y-121153098D01*
X154796620Y-121354718D01*
X154968083Y-121526181D01*
X155169703Y-121660899D01*
X155393731Y-121753694D01*
X155631557Y-121801001D01*
X155874043Y-121801001D01*
X156111869Y-121753694D01*
X156335897Y-121660899D01*
X156537517Y-121526181D01*
X156708980Y-121354718D01*
X156843698Y-121153098D01*
X156936493Y-120929070D01*
X156983800Y-120691244D01*
X156983800Y-120448758D01*
X156936493Y-120210932D01*
X156902382Y-120128578D01*
X163557000Y-120128578D01*
X163557000Y-120282422D01*
X163587013Y-120433309D01*
X163645887Y-120575442D01*
X163731358Y-120703359D01*
X163840141Y-120812142D01*
X163968058Y-120897613D01*
X164110191Y-120956487D01*
X164261078Y-120986500D01*
X164414922Y-120986500D01*
X164565809Y-120956487D01*
X164707942Y-120897613D01*
X164835859Y-120812142D01*
X164944642Y-120703359D01*
X165030113Y-120575442D01*
X165088987Y-120433309D01*
X165119000Y-120282422D01*
X165119000Y-120128578D01*
X165088987Y-119977691D01*
X165030113Y-119835558D01*
X164944642Y-119707641D01*
X164835859Y-119598858D01*
X164707942Y-119513387D01*
X164565809Y-119454513D01*
X164414922Y-119424500D01*
X164261078Y-119424500D01*
X164110191Y-119454513D01*
X163968058Y-119513387D01*
X163840141Y-119598858D01*
X163731358Y-119707641D01*
X163645887Y-119835558D01*
X163587013Y-119977691D01*
X163557000Y-120128578D01*
X156902382Y-120128578D01*
X156843698Y-119986904D01*
X156708980Y-119785284D01*
X156537517Y-119613821D01*
X156335897Y-119479103D01*
X156111869Y-119386308D01*
X155874043Y-119339001D01*
X155631557Y-119339001D01*
X155393731Y-119386308D01*
X155169703Y-119479103D01*
X154968083Y-119613821D01*
X154796620Y-119785284D01*
X154661902Y-119986904D01*
X154569107Y-120210932D01*
X154521800Y-120448758D01*
X153403901Y-120448758D01*
X153356594Y-120210932D01*
X153263799Y-119986904D01*
X153129081Y-119785284D01*
X152957618Y-119613821D01*
X152755998Y-119479103D01*
X152531970Y-119386308D01*
X152294144Y-119339001D01*
X152051658Y-119339001D01*
X151813832Y-119386308D01*
X151589804Y-119479103D01*
X151388184Y-119613821D01*
X151216721Y-119785284D01*
X151199100Y-119811656D01*
X151199100Y-119063500D01*
X151285004Y-119120899D01*
X151509032Y-119213694D01*
X151746858Y-119261001D01*
X151989344Y-119261001D01*
X152227170Y-119213694D01*
X152451198Y-119120899D01*
X152652818Y-118986181D01*
X152824281Y-118814718D01*
X152958999Y-118613098D01*
X153051794Y-118389070D01*
X153099101Y-118151244D01*
X153099101Y-117908758D01*
X154217000Y-117908758D01*
X154217000Y-118151244D01*
X154264307Y-118389070D01*
X154357102Y-118613098D01*
X154491820Y-118814718D01*
X154663283Y-118986181D01*
X154864903Y-119120899D01*
X155088931Y-119213694D01*
X155326757Y-119261001D01*
X155569243Y-119261001D01*
X155807069Y-119213694D01*
X156031097Y-119120899D01*
X156232717Y-118986181D01*
X156404180Y-118814718D01*
X156538898Y-118613098D01*
X156595031Y-118477578D01*
X164001500Y-118477578D01*
X164001500Y-118631422D01*
X164031513Y-118782309D01*
X164090387Y-118924442D01*
X164175858Y-119052359D01*
X164284641Y-119161142D01*
X164412558Y-119246613D01*
X164554691Y-119305487D01*
X164705578Y-119335500D01*
X164859422Y-119335500D01*
X165010309Y-119305487D01*
X165152442Y-119246613D01*
X165280359Y-119161142D01*
X165389142Y-119052359D01*
X165474613Y-118924442D01*
X165533487Y-118782309D01*
X165563500Y-118631422D01*
X165563500Y-118477578D01*
X165533487Y-118326691D01*
X165474613Y-118184558D01*
X165389142Y-118056641D01*
X165280359Y-117947858D01*
X165152442Y-117862387D01*
X165010309Y-117803513D01*
X164859422Y-117773500D01*
X164705578Y-117773500D01*
X164554691Y-117803513D01*
X164412558Y-117862387D01*
X164284641Y-117947858D01*
X164175858Y-118056641D01*
X164090387Y-118184558D01*
X164031513Y-118326691D01*
X164001500Y-118477578D01*
X156595031Y-118477578D01*
X156631693Y-118389070D01*
X156679000Y-118151244D01*
X156679000Y-117908758D01*
X156631693Y-117670932D01*
X156538898Y-117446904D01*
X156404180Y-117245284D01*
X156232717Y-117073821D01*
X156085202Y-116975255D01*
X156602800Y-116978073D01*
X156727282Y-116965813D01*
X156846980Y-116929503D01*
X156957294Y-116870538D01*
X157053985Y-116791186D01*
X157133337Y-116694495D01*
X157192302Y-116584181D01*
X157228612Y-116464483D01*
X157240872Y-116340001D01*
X157237800Y-115775751D01*
X157079050Y-115617001D01*
X155879800Y-115617001D01*
X155879800Y-115637001D01*
X155625800Y-115637001D01*
X155625800Y-115617001D01*
X154426550Y-115617001D01*
X154267800Y-115775751D01*
X154264728Y-116340001D01*
X154276988Y-116464483D01*
X154313298Y-116584181D01*
X154372263Y-116694495D01*
X154451615Y-116791186D01*
X154548306Y-116870538D01*
X154658620Y-116929503D01*
X154778318Y-116965813D01*
X154818941Y-116969814D01*
X154663283Y-117073821D01*
X154491820Y-117245284D01*
X154357102Y-117446904D01*
X154264307Y-117670932D01*
X154217000Y-117908758D01*
X153099101Y-117908758D01*
X153051794Y-117670932D01*
X152958999Y-117446904D01*
X152824281Y-117245284D01*
X152652818Y-117073821D01*
X152451198Y-116939103D01*
X152227170Y-116846308D01*
X151989344Y-116799001D01*
X151746858Y-116799001D01*
X151509032Y-116846308D01*
X151285004Y-116939103D01*
X151083384Y-117073821D01*
X150911921Y-117245284D01*
X150777203Y-117446904D01*
X150755653Y-117498930D01*
X149945773Y-116689050D01*
X149968533Y-116689050D01*
X150119420Y-116659037D01*
X150261553Y-116600163D01*
X150389470Y-116514692D01*
X150498253Y-116405909D01*
X150583724Y-116277992D01*
X150642598Y-116135859D01*
X150672611Y-115984972D01*
X150672611Y-115831128D01*
X150642598Y-115680241D01*
X150583724Y-115538108D01*
X150498253Y-115410191D01*
X150389470Y-115301408D01*
X150261553Y-115215937D01*
X150119420Y-115157063D01*
X149968533Y-115127050D01*
X149814689Y-115127050D01*
X149663802Y-115157063D01*
X149521669Y-115215937D01*
X149393752Y-115301408D01*
X149284969Y-115410191D01*
X149199498Y-115538108D01*
X149140624Y-115680241D01*
X149110611Y-115831128D01*
X149110611Y-115853888D01*
X145939744Y-112683021D01*
X146586443Y-112683021D01*
X146586443Y-112836865D01*
X146616456Y-112987752D01*
X146675330Y-113129885D01*
X146760801Y-113257802D01*
X146869584Y-113366585D01*
X146997501Y-113452056D01*
X147139634Y-113510930D01*
X147290521Y-113540943D01*
X147310376Y-113540943D01*
X147301000Y-113588078D01*
X147301000Y-113741922D01*
X147331013Y-113892809D01*
X147389887Y-114034942D01*
X147475358Y-114162859D01*
X147584141Y-114271642D01*
X147712058Y-114357113D01*
X147854191Y-114415987D01*
X148005078Y-114446000D01*
X148158922Y-114446000D01*
X148202035Y-114437424D01*
X148220013Y-114527809D01*
X148278887Y-114669942D01*
X148364358Y-114797859D01*
X148473141Y-114906642D01*
X148601058Y-114992113D01*
X148743191Y-115050987D01*
X148894078Y-115081000D01*
X149047922Y-115081000D01*
X149198809Y-115050987D01*
X149340942Y-114992113D01*
X149468859Y-114906642D01*
X149577642Y-114797859D01*
X149663113Y-114669942D01*
X149675515Y-114640001D01*
X150940058Y-114640001D01*
X150940058Y-116340001D01*
X150947414Y-116414690D01*
X150969200Y-116486509D01*
X151004579Y-116552697D01*
X151052190Y-116610712D01*
X151110205Y-116658323D01*
X151176393Y-116693702D01*
X151248212Y-116715488D01*
X151322901Y-116722844D01*
X153022901Y-116722844D01*
X153097590Y-116715488D01*
X153169409Y-116693702D01*
X153235597Y-116658323D01*
X153293612Y-116610712D01*
X153341223Y-116552697D01*
X153376602Y-116486509D01*
X153398388Y-116414690D01*
X153405744Y-116340001D01*
X153405744Y-114640001D01*
X154264728Y-114640001D01*
X154267800Y-115204251D01*
X154426550Y-115363001D01*
X155625800Y-115363001D01*
X155625800Y-114163751D01*
X155879800Y-114163751D01*
X155879800Y-115363001D01*
X157079050Y-115363001D01*
X157237800Y-115204251D01*
X157238647Y-115048578D01*
X158350000Y-115048578D01*
X158350000Y-115202422D01*
X158380013Y-115353309D01*
X158438887Y-115495442D01*
X158524358Y-115623359D01*
X158633141Y-115732142D01*
X158761058Y-115817613D01*
X158903191Y-115876487D01*
X159054078Y-115906500D01*
X159207922Y-115906500D01*
X159358809Y-115876487D01*
X159500942Y-115817613D01*
X159628859Y-115732142D01*
X159737642Y-115623359D01*
X159823113Y-115495442D01*
X159881987Y-115353309D01*
X159912000Y-115202422D01*
X159912000Y-115048578D01*
X159881987Y-114897691D01*
X159823113Y-114755558D01*
X159737642Y-114627641D01*
X159628859Y-114518858D01*
X159500942Y-114433387D01*
X159358809Y-114374513D01*
X159207922Y-114344500D01*
X159054078Y-114344500D01*
X158903191Y-114374513D01*
X158761058Y-114433387D01*
X158633141Y-114518858D01*
X158524358Y-114627641D01*
X158438887Y-114755558D01*
X158380013Y-114897691D01*
X158350000Y-115048578D01*
X157238647Y-115048578D01*
X157240872Y-114640001D01*
X157228612Y-114515519D01*
X157192302Y-114395821D01*
X157133337Y-114285507D01*
X157053985Y-114188816D01*
X156957294Y-114109464D01*
X156846980Y-114050499D01*
X156727282Y-114014189D01*
X156602800Y-114001929D01*
X156038550Y-114005001D01*
X155879800Y-114163751D01*
X155625800Y-114163751D01*
X155467050Y-114005001D01*
X154902800Y-114001929D01*
X154778318Y-114014189D01*
X154658620Y-114050499D01*
X154548306Y-114109464D01*
X154451615Y-114188816D01*
X154372263Y-114285507D01*
X154313298Y-114395821D01*
X154276988Y-114515519D01*
X154264728Y-114640001D01*
X153405744Y-114640001D01*
X153398388Y-114565312D01*
X153376602Y-114493493D01*
X153341223Y-114427305D01*
X153293612Y-114369290D01*
X153235597Y-114321679D01*
X153169409Y-114286300D01*
X153097590Y-114264514D01*
X153022901Y-114257158D01*
X151322901Y-114257158D01*
X151248212Y-114264514D01*
X151176393Y-114286300D01*
X151110205Y-114321679D01*
X151052190Y-114369290D01*
X151004579Y-114427305D01*
X150969200Y-114493493D01*
X150947414Y-114565312D01*
X150940058Y-114640001D01*
X149675515Y-114640001D01*
X149721987Y-114527809D01*
X149752000Y-114376922D01*
X149752000Y-114223078D01*
X149721987Y-114072191D01*
X149663113Y-113930058D01*
X149577642Y-113802141D01*
X149468859Y-113693358D01*
X149340942Y-113607887D01*
X149198809Y-113549013D01*
X149047922Y-113519000D01*
X148894078Y-113519000D01*
X148850965Y-113527576D01*
X148832987Y-113437191D01*
X148774113Y-113295058D01*
X148688642Y-113167141D01*
X148579859Y-113058358D01*
X148451942Y-112972887D01*
X148309809Y-112914013D01*
X148158922Y-112884000D01*
X148139067Y-112884000D01*
X148148443Y-112836865D01*
X148148443Y-112683021D01*
X148118430Y-112532134D01*
X148059556Y-112390001D01*
X147974085Y-112262084D01*
X147865302Y-112153301D01*
X147737385Y-112067830D01*
X147595252Y-112008956D01*
X147444365Y-111978943D01*
X147290521Y-111978943D01*
X147139634Y-112008956D01*
X146997501Y-112067830D01*
X146869584Y-112153301D01*
X146760801Y-112262084D01*
X146675330Y-112390001D01*
X146616456Y-112532134D01*
X146586443Y-112683021D01*
X145939744Y-112683021D01*
X144177801Y-110921078D01*
X147428000Y-110921078D01*
X147428000Y-111074922D01*
X147458013Y-111225809D01*
X147516887Y-111367942D01*
X147602358Y-111495859D01*
X147711141Y-111604642D01*
X147839058Y-111690113D01*
X147981191Y-111748987D01*
X148132078Y-111779000D01*
X148285922Y-111779000D01*
X148436809Y-111748987D01*
X148578942Y-111690113D01*
X148706859Y-111604642D01*
X148815642Y-111495859D01*
X148901113Y-111367942D01*
X148959987Y-111225809D01*
X148990000Y-111074922D01*
X148990000Y-110921078D01*
X148959987Y-110770191D01*
X148901113Y-110628058D01*
X148815642Y-110500141D01*
X148706859Y-110391358D01*
X148644331Y-110349578D01*
X159112000Y-110349578D01*
X159112000Y-110503422D01*
X159142013Y-110654309D01*
X159200887Y-110796442D01*
X159286358Y-110924359D01*
X159395141Y-111033142D01*
X159523058Y-111118613D01*
X159665191Y-111177487D01*
X159816078Y-111207500D01*
X159969922Y-111207500D01*
X160120809Y-111177487D01*
X160262942Y-111118613D01*
X160390859Y-111033142D01*
X160464500Y-110959501D01*
X160474641Y-110969642D01*
X160602558Y-111055113D01*
X160744691Y-111113987D01*
X160895578Y-111144000D01*
X161049422Y-111144000D01*
X161200309Y-111113987D01*
X161342442Y-111055113D01*
X161470359Y-110969642D01*
X161579142Y-110860859D01*
X161664613Y-110732942D01*
X161723487Y-110590809D01*
X161753500Y-110439922D01*
X161753500Y-110286078D01*
X161723487Y-110135191D01*
X161664613Y-109993058D01*
X161579142Y-109865141D01*
X161470359Y-109756358D01*
X161342442Y-109670887D01*
X161200309Y-109612013D01*
X161049422Y-109582000D01*
X160895578Y-109582000D01*
X160744691Y-109612013D01*
X160602558Y-109670887D01*
X160474641Y-109756358D01*
X160401000Y-109829999D01*
X160390859Y-109819858D01*
X160262942Y-109734387D01*
X160120809Y-109675513D01*
X159969922Y-109645500D01*
X159816078Y-109645500D01*
X159665191Y-109675513D01*
X159523058Y-109734387D01*
X159395141Y-109819858D01*
X159286358Y-109928641D01*
X159200887Y-110056558D01*
X159142013Y-110198691D01*
X159112000Y-110349578D01*
X148644331Y-110349578D01*
X148578942Y-110305887D01*
X148436809Y-110247013D01*
X148285922Y-110217000D01*
X148132078Y-110217000D01*
X147981191Y-110247013D01*
X147839058Y-110305887D01*
X147711141Y-110391358D01*
X147602358Y-110500141D01*
X147516887Y-110628058D01*
X147458013Y-110770191D01*
X147428000Y-110921078D01*
X144177801Y-110921078D01*
X143700500Y-110443778D01*
X143700500Y-108613073D01*
X143703265Y-108584999D01*
X143692231Y-108472966D01*
X143659552Y-108365238D01*
X143606484Y-108265955D01*
X143566654Y-108217422D01*
X143535067Y-108178933D01*
X143513257Y-108161034D01*
X141965470Y-106613248D01*
X141947567Y-106591433D01*
X141860545Y-106520016D01*
X141761262Y-106466948D01*
X141653534Y-106434269D01*
X141569574Y-106426000D01*
X141541500Y-106423235D01*
X141513426Y-106426000D01*
X132108074Y-106426000D01*
X132080000Y-106423235D01*
X132051926Y-106426000D01*
X123469001Y-106426000D01*
X123433859Y-106390858D01*
X123305942Y-106305387D01*
X123163809Y-106246513D01*
X123012922Y-106216500D01*
X122859078Y-106216500D01*
X122708191Y-106246513D01*
X122566058Y-106305387D01*
X122438141Y-106390858D01*
X122329358Y-106499641D01*
X122243887Y-106627558D01*
X122185013Y-106769691D01*
X122155000Y-106920578D01*
X120992262Y-106920578D01*
X121262372Y-106419977D01*
X122049273Y-105281426D01*
X122956359Y-104236102D01*
X123972677Y-103296627D01*
X125085937Y-102474360D01*
X126282720Y-101779213D01*
X126858417Y-101524700D01*
X134339657Y-101524700D01*
X134339657Y-103224700D01*
X134347013Y-103299389D01*
X134368799Y-103371208D01*
X134404178Y-103437396D01*
X134451789Y-103495411D01*
X134509804Y-103543022D01*
X134575992Y-103578401D01*
X134647811Y-103600187D01*
X134722500Y-103607543D01*
X136422500Y-103607543D01*
X136497189Y-103600187D01*
X136569008Y-103578401D01*
X136635196Y-103543022D01*
X136693211Y-103495411D01*
X136740822Y-103437396D01*
X136776201Y-103371208D01*
X136797987Y-103299389D01*
X136805343Y-103224700D01*
X136805343Y-102558257D01*
X136881500Y-102558257D01*
X136881500Y-102800743D01*
X136928807Y-103038569D01*
X137021602Y-103262597D01*
X137156320Y-103464217D01*
X137327783Y-103635680D01*
X137529403Y-103770398D01*
X137753431Y-103863193D01*
X137991257Y-103910500D01*
X138233743Y-103910500D01*
X138471569Y-103863193D01*
X138695597Y-103770398D01*
X138897217Y-103635680D01*
X139068680Y-103464217D01*
X139203398Y-103262597D01*
X139296193Y-103038569D01*
X139343500Y-102800743D01*
X139343500Y-102558257D01*
X139296193Y-102320431D01*
X139268452Y-102253457D01*
X139421500Y-102253457D01*
X139421500Y-102495943D01*
X139468807Y-102733769D01*
X139561602Y-102957797D01*
X139696320Y-103159417D01*
X139867783Y-103330880D01*
X140069403Y-103465598D01*
X140293431Y-103558393D01*
X140531257Y-103605700D01*
X140773743Y-103605700D01*
X141011569Y-103558393D01*
X141235597Y-103465598D01*
X141437217Y-103330880D01*
X141608680Y-103159417D01*
X141743398Y-102957797D01*
X141836193Y-102733769D01*
X141871104Y-102558257D01*
X141961500Y-102558257D01*
X141961500Y-102800743D01*
X142008807Y-103038569D01*
X142101602Y-103262597D01*
X142236320Y-103464217D01*
X142407783Y-103635680D01*
X142609403Y-103770398D01*
X142833431Y-103863193D01*
X143071257Y-103910500D01*
X143313743Y-103910500D01*
X143551569Y-103863193D01*
X143775597Y-103770398D01*
X143977217Y-103635680D01*
X144148680Y-103464217D01*
X144283398Y-103262597D01*
X144376193Y-103038569D01*
X144423500Y-102800743D01*
X144423500Y-102558257D01*
X144376193Y-102320431D01*
X144348452Y-102253457D01*
X144501500Y-102253457D01*
X144501500Y-102495943D01*
X144548807Y-102733769D01*
X144641602Y-102957797D01*
X144776320Y-103159417D01*
X144947783Y-103330880D01*
X145149403Y-103465598D01*
X145373431Y-103558393D01*
X145611257Y-103605700D01*
X145853743Y-103605700D01*
X146091569Y-103558393D01*
X146315597Y-103465598D01*
X146517217Y-103330880D01*
X146688680Y-103159417D01*
X146823398Y-102957797D01*
X146916193Y-102733769D01*
X146951104Y-102558257D01*
X147041500Y-102558257D01*
X147041500Y-102800743D01*
X147088807Y-103038569D01*
X147181602Y-103262597D01*
X147316320Y-103464217D01*
X147487783Y-103635680D01*
X147689403Y-103770398D01*
X147913431Y-103863193D01*
X148151257Y-103910500D01*
X148393743Y-103910500D01*
X148631569Y-103863193D01*
X148855597Y-103770398D01*
X149057217Y-103635680D01*
X149228680Y-103464217D01*
X149363398Y-103262597D01*
X149456193Y-103038569D01*
X149503500Y-102800743D01*
X149503500Y-102558257D01*
X149456193Y-102320431D01*
X149428452Y-102253457D01*
X149581500Y-102253457D01*
X149581500Y-102495943D01*
X149628807Y-102733769D01*
X149721602Y-102957797D01*
X149856320Y-103159417D01*
X150027783Y-103330880D01*
X150229403Y-103465598D01*
X150453431Y-103558393D01*
X150691257Y-103605700D01*
X150933743Y-103605700D01*
X151171569Y-103558393D01*
X151395597Y-103465598D01*
X151597217Y-103330880D01*
X151768680Y-103159417D01*
X151903398Y-102957797D01*
X151996193Y-102733769D01*
X152031104Y-102558257D01*
X152121500Y-102558257D01*
X152121500Y-102800743D01*
X152168807Y-103038569D01*
X152261602Y-103262597D01*
X152396320Y-103464217D01*
X152567783Y-103635680D01*
X152769403Y-103770398D01*
X152993431Y-103863193D01*
X153231257Y-103910500D01*
X153473743Y-103910500D01*
X153711569Y-103863193D01*
X153935597Y-103770398D01*
X154137217Y-103635680D01*
X154308680Y-103464217D01*
X154443398Y-103262597D01*
X154536193Y-103038569D01*
X154583500Y-102800743D01*
X154583500Y-102558257D01*
X154536193Y-102320431D01*
X154508452Y-102253457D01*
X154661500Y-102253457D01*
X154661500Y-102495943D01*
X154708807Y-102733769D01*
X154801602Y-102957797D01*
X154936320Y-103159417D01*
X155107783Y-103330880D01*
X155309403Y-103465598D01*
X155533431Y-103558393D01*
X155771257Y-103605700D01*
X156013743Y-103605700D01*
X156251569Y-103558393D01*
X156475597Y-103465598D01*
X156677217Y-103330880D01*
X156848680Y-103159417D01*
X156983398Y-102957797D01*
X157076193Y-102733769D01*
X157111104Y-102558257D01*
X157201500Y-102558257D01*
X157201500Y-102800743D01*
X157248807Y-103038569D01*
X157341602Y-103262597D01*
X157476320Y-103464217D01*
X157647783Y-103635680D01*
X157849403Y-103770398D01*
X158073431Y-103863193D01*
X158311257Y-103910500D01*
X158553743Y-103910500D01*
X158791569Y-103863193D01*
X159015597Y-103770398D01*
X159217217Y-103635680D01*
X159388680Y-103464217D01*
X159523398Y-103262597D01*
X159616193Y-103038569D01*
X159663500Y-102800743D01*
X159663500Y-102558257D01*
X159616193Y-102320431D01*
X159523398Y-102096403D01*
X159388680Y-101894783D01*
X159217217Y-101723320D01*
X159015597Y-101588602D01*
X158791569Y-101495807D01*
X158553743Y-101448500D01*
X158311257Y-101448500D01*
X158073431Y-101495807D01*
X157849403Y-101588602D01*
X157647783Y-101723320D01*
X157476320Y-101894783D01*
X157341602Y-102096403D01*
X157248807Y-102320431D01*
X157201500Y-102558257D01*
X157111104Y-102558257D01*
X157123500Y-102495943D01*
X157123500Y-102253457D01*
X157076193Y-102015631D01*
X156983398Y-101791603D01*
X156848680Y-101589983D01*
X156677217Y-101418520D01*
X156475597Y-101283802D01*
X156251569Y-101191007D01*
X156013743Y-101143700D01*
X155771257Y-101143700D01*
X155533431Y-101191007D01*
X155309403Y-101283802D01*
X155107783Y-101418520D01*
X154936320Y-101589983D01*
X154801602Y-101791603D01*
X154708807Y-102015631D01*
X154661500Y-102253457D01*
X154508452Y-102253457D01*
X154443398Y-102096403D01*
X154308680Y-101894783D01*
X154137217Y-101723320D01*
X153935597Y-101588602D01*
X153711569Y-101495807D01*
X153473743Y-101448500D01*
X153231257Y-101448500D01*
X152993431Y-101495807D01*
X152769403Y-101588602D01*
X152567783Y-101723320D01*
X152396320Y-101894783D01*
X152261602Y-102096403D01*
X152168807Y-102320431D01*
X152121500Y-102558257D01*
X152031104Y-102558257D01*
X152043500Y-102495943D01*
X152043500Y-102253457D01*
X151996193Y-102015631D01*
X151903398Y-101791603D01*
X151768680Y-101589983D01*
X151597217Y-101418520D01*
X151395597Y-101283802D01*
X151171569Y-101191007D01*
X150933743Y-101143700D01*
X150691257Y-101143700D01*
X150453431Y-101191007D01*
X150229403Y-101283802D01*
X150027783Y-101418520D01*
X149856320Y-101589983D01*
X149721602Y-101791603D01*
X149628807Y-102015631D01*
X149581500Y-102253457D01*
X149428452Y-102253457D01*
X149363398Y-102096403D01*
X149228680Y-101894783D01*
X149057217Y-101723320D01*
X148855597Y-101588602D01*
X148631569Y-101495807D01*
X148393743Y-101448500D01*
X148151257Y-101448500D01*
X147913431Y-101495807D01*
X147689403Y-101588602D01*
X147487783Y-101723320D01*
X147316320Y-101894783D01*
X147181602Y-102096403D01*
X147088807Y-102320431D01*
X147041500Y-102558257D01*
X146951104Y-102558257D01*
X146963500Y-102495943D01*
X146963500Y-102253457D01*
X146916193Y-102015631D01*
X146823398Y-101791603D01*
X146688680Y-101589983D01*
X146517217Y-101418520D01*
X146315597Y-101283802D01*
X146091569Y-101191007D01*
X145853743Y-101143700D01*
X145611257Y-101143700D01*
X145373431Y-101191007D01*
X145149403Y-101283802D01*
X144947783Y-101418520D01*
X144776320Y-101589983D01*
X144641602Y-101791603D01*
X144548807Y-102015631D01*
X144501500Y-102253457D01*
X144348452Y-102253457D01*
X144283398Y-102096403D01*
X144148680Y-101894783D01*
X143977217Y-101723320D01*
X143775597Y-101588602D01*
X143551569Y-101495807D01*
X143313743Y-101448500D01*
X143071257Y-101448500D01*
X142833431Y-101495807D01*
X142609403Y-101588602D01*
X142407783Y-101723320D01*
X142236320Y-101894783D01*
X142101602Y-102096403D01*
X142008807Y-102320431D01*
X141961500Y-102558257D01*
X141871104Y-102558257D01*
X141883500Y-102495943D01*
X141883500Y-102253457D01*
X141836193Y-102015631D01*
X141743398Y-101791603D01*
X141608680Y-101589983D01*
X141437217Y-101418520D01*
X141235597Y-101283802D01*
X141011569Y-101191007D01*
X140773743Y-101143700D01*
X140531257Y-101143700D01*
X140293431Y-101191007D01*
X140069403Y-101283802D01*
X139867783Y-101418520D01*
X139696320Y-101589983D01*
X139561602Y-101791603D01*
X139468807Y-102015631D01*
X139421500Y-102253457D01*
X139268452Y-102253457D01*
X139203398Y-102096403D01*
X139068680Y-101894783D01*
X138897217Y-101723320D01*
X138695597Y-101588602D01*
X138471569Y-101495807D01*
X138233743Y-101448500D01*
X137991257Y-101448500D01*
X137753431Y-101495807D01*
X137529403Y-101588602D01*
X137327783Y-101723320D01*
X137156320Y-101894783D01*
X137021602Y-102096403D01*
X136928807Y-102320431D01*
X136881500Y-102558257D01*
X136805343Y-102558257D01*
X136805343Y-101524700D01*
X136797987Y-101450011D01*
X136776201Y-101378192D01*
X136740822Y-101312004D01*
X136693211Y-101253989D01*
X136635196Y-101206378D01*
X136569008Y-101170999D01*
X136497189Y-101149213D01*
X136422500Y-101141857D01*
X134722500Y-101141857D01*
X134647811Y-101149213D01*
X134575992Y-101170999D01*
X134509804Y-101206378D01*
X134451789Y-101253989D01*
X134404178Y-101312004D01*
X134368799Y-101378192D01*
X134347013Y-101450011D01*
X134339657Y-101524700D01*
X126858417Y-101524700D01*
X127548559Y-101219592D01*
X128868146Y-100802260D01*
X130225577Y-100532250D01*
X131612392Y-100412139D01*
X132003194Y-100406000D01*
X160988829Y-100406000D01*
X162381933Y-100482668D01*
G37*
X162381933Y-100482668D02*
X163747156Y-100709902D01*
X165079216Y-101085582D01*
X166362002Y-101605164D01*
X167580023Y-102262372D01*
X168718574Y-103049273D01*
X169763898Y-103956359D01*
X170703373Y-104972677D01*
X171525640Y-106085937D01*
X172220787Y-107282720D01*
X172780408Y-108548559D01*
X173197740Y-109868146D01*
X173467750Y-111225577D01*
X173587861Y-112612392D01*
X173593968Y-113001128D01*
X173588112Y-113576500D01*
X168866441Y-113576500D01*
X168846500Y-113574536D01*
X168826560Y-113576500D01*
X168826559Y-113576500D01*
X168766910Y-113582375D01*
X168690379Y-113605590D01*
X168619847Y-113643290D01*
X168558026Y-113694026D01*
X168507290Y-113755847D01*
X168469590Y-113826379D01*
X168446375Y-113902910D01*
X168438536Y-113982500D01*
X168440501Y-114002451D01*
X168440500Y-115423059D01*
X168440500Y-115677059D01*
X168438536Y-115697000D01*
X168446375Y-115776590D01*
X168469590Y-115853121D01*
X168507290Y-115923653D01*
X168557614Y-115984972D01*
X168558026Y-115985474D01*
X168619847Y-116036210D01*
X168690379Y-116073910D01*
X168766910Y-116097125D01*
X168846500Y-116104964D01*
X168866440Y-116103000D01*
X168884309Y-116103000D01*
X168857513Y-116167691D01*
X168827500Y-116318578D01*
X168827500Y-116472422D01*
X168857513Y-116623309D01*
X168916387Y-116765442D01*
X169001858Y-116893359D01*
X169110641Y-117002142D01*
X169238558Y-117087613D01*
X169380691Y-117146487D01*
X169531578Y-117176500D01*
X169685422Y-117176500D01*
X169836309Y-117146487D01*
X169978442Y-117087613D01*
X170106359Y-117002142D01*
X170215142Y-116893359D01*
X170300613Y-116765442D01*
X170359487Y-116623309D01*
X170389500Y-116472422D01*
X170389500Y-116318578D01*
X170359487Y-116167691D01*
X170332691Y-116103000D01*
X173520500Y-116103000D01*
X173520501Y-118974000D01*
X170615239Y-118974000D01*
X170643500Y-118831922D01*
X170643500Y-118678078D01*
X170613487Y-118527191D01*
X170554613Y-118385058D01*
X170469142Y-118257141D01*
X170360359Y-118148358D01*
X170232442Y-118062887D01*
X170090309Y-118004013D01*
X169939422Y-117974000D01*
X169785578Y-117974000D01*
X169634691Y-118004013D01*
X169492558Y-118062887D01*
X169364641Y-118148358D01*
X169329499Y-118183500D01*
X168911955Y-118183500D01*
X168883881Y-118180735D01*
X168835327Y-118185517D01*
X168771847Y-118191769D01*
X168664119Y-118224448D01*
X168564836Y-118277516D01*
X168477814Y-118348933D01*
X168459915Y-118370743D01*
X168386089Y-118444569D01*
X163518954Y-113577435D01*
X163518949Y-113577429D01*
X163212098Y-113270578D01*
X166795500Y-113270578D01*
X166795500Y-113424422D01*
X166825513Y-113575309D01*
X166884387Y-113717442D01*
X166969858Y-113845359D01*
X167078641Y-113954142D01*
X167206558Y-114039613D01*
X167348691Y-114098487D01*
X167499578Y-114128500D01*
X167653422Y-114128500D01*
X167804309Y-114098487D01*
X167946442Y-114039613D01*
X168074359Y-113954142D01*
X168183142Y-113845359D01*
X168268613Y-113717442D01*
X168327487Y-113575309D01*
X168357500Y-113424422D01*
X168357500Y-113270578D01*
X168327487Y-113119691D01*
X168268613Y-112977558D01*
X168183142Y-112849641D01*
X168141251Y-112807750D01*
X168246642Y-112702359D01*
X168332113Y-112574442D01*
X168390987Y-112432309D01*
X168421000Y-112281422D01*
X168421000Y-112127578D01*
X168390987Y-111976691D01*
X168332113Y-111834558D01*
X168261081Y-111728250D01*
X168332113Y-111621942D01*
X168390987Y-111479809D01*
X168421000Y-111328922D01*
X168421000Y-111175078D01*
X168390987Y-111024191D01*
X168332113Y-110882058D01*
X168246642Y-110754141D01*
X168137859Y-110645358D01*
X168009942Y-110559887D01*
X167867809Y-110501013D01*
X167716922Y-110471000D01*
X167563078Y-110471000D01*
X167412191Y-110501013D01*
X167270058Y-110559887D01*
X167142141Y-110645358D01*
X167033358Y-110754141D01*
X166947887Y-110882058D01*
X166889013Y-111024191D01*
X166859000Y-111175078D01*
X166859000Y-111328922D01*
X166889013Y-111479809D01*
X166947887Y-111621942D01*
X167018919Y-111728250D01*
X166947887Y-111834558D01*
X166889013Y-111976691D01*
X166859000Y-112127578D01*
X166859000Y-112281422D01*
X166889013Y-112432309D01*
X166947887Y-112574442D01*
X167033358Y-112702359D01*
X167075249Y-112744250D01*
X166969858Y-112849641D01*
X166884387Y-112977558D01*
X166825513Y-113119691D01*
X166795500Y-113270578D01*
X163212098Y-113270578D01*
X162968760Y-113027241D01*
X162976142Y-113019859D01*
X163061613Y-112891942D01*
X163120487Y-112749809D01*
X163150500Y-112598922D01*
X163150500Y-112445078D01*
X163120487Y-112294191D01*
X163061613Y-112152058D01*
X162976142Y-112024141D01*
X162867359Y-111915358D01*
X162739442Y-111829887D01*
X162597309Y-111771013D01*
X162446422Y-111741000D01*
X162292578Y-111741000D01*
X162141691Y-111771013D01*
X161999558Y-111829887D01*
X161871641Y-111915358D01*
X161762858Y-112024141D01*
X161677387Y-112152058D01*
X161618513Y-112294191D01*
X161588500Y-112445078D01*
X161588500Y-112598922D01*
X161618513Y-112749809D01*
X161677387Y-112891942D01*
X161762858Y-113019859D01*
X161861501Y-113118502D01*
X161861501Y-113121447D01*
X161859043Y-113146401D01*
X161864386Y-113200640D01*
X161868852Y-113245986D01*
X161886147Y-113303000D01*
X161897900Y-113341744D01*
X161945071Y-113429996D01*
X161987057Y-113481156D01*
X162008553Y-113507349D01*
X162027930Y-113523251D01*
X162800528Y-114295850D01*
X162800534Y-114295855D01*
X164576686Y-116072007D01*
X164491191Y-116089013D01*
X164349058Y-116147887D01*
X164221141Y-116233358D01*
X164112358Y-116342141D01*
X164026887Y-116470058D01*
X163968013Y-116612191D01*
X163938000Y-116763078D01*
X163938000Y-116916922D01*
X163968013Y-117067809D01*
X164026887Y-117209942D01*
X164112358Y-117337859D01*
X164221141Y-117446642D01*
X164349058Y-117532113D01*
X164491191Y-117590987D01*
X164642078Y-117621000D01*
X164795922Y-117621000D01*
X164946809Y-117590987D01*
X165088942Y-117532113D01*
X165216859Y-117446642D01*
X165325642Y-117337859D01*
X165411113Y-117209942D01*
X165469987Y-117067809D01*
X165486993Y-116982314D01*
X167859490Y-119354812D01*
X167859491Y-121603406D01*
X167856725Y-121631490D01*
X167867759Y-121743523D01*
X167900438Y-121851251D01*
X167952748Y-121949115D01*
X167953507Y-121950535D01*
X168024924Y-122037557D01*
X168046734Y-122055456D01*
X168383000Y-122391722D01*
X168383000Y-122441422D01*
X168413013Y-122592309D01*
X168471887Y-122734442D01*
X168557358Y-122862359D01*
X168666141Y-122971142D01*
X168794058Y-123056613D01*
X168936191Y-123115487D01*
X169087078Y-123145500D01*
X169240922Y-123145500D01*
X169391809Y-123115487D01*
X169533942Y-123056613D01*
X169661859Y-122971142D01*
X169770642Y-122862359D01*
X169856113Y-122734442D01*
X169914987Y-122592309D01*
X169945000Y-122441422D01*
X169945000Y-122287578D01*
X169914987Y-122136691D01*
X169856113Y-121994558D01*
X169770642Y-121866641D01*
X169661859Y-121757858D01*
X169533942Y-121672387D01*
X169391809Y-121613513D01*
X169240922Y-121583500D01*
X169191222Y-121583500D01*
X169108222Y-121500500D01*
X173588459Y-121500500D01*
X173593877Y-121991070D01*
X173517332Y-123381933D01*
X173290097Y-124747160D01*
X172914417Y-126079219D01*
X172394836Y-127362002D01*
X171737624Y-128580029D01*
X170950727Y-129718574D01*
X170043641Y-130763898D01*
X169027328Y-131703368D01*
X167914063Y-132525640D01*
X166717276Y-133220789D01*
X165451441Y-133780408D01*
X164131852Y-134197740D01*
X162774424Y-134467750D01*
X161387608Y-134587861D01*
X160996806Y-134594000D01*
X132011171Y-134594000D01*
X130618067Y-134517332D01*
X129252840Y-134290097D01*
X127920781Y-133914417D01*
X126637998Y-133394836D01*
X125419971Y-132737624D01*
X124991309Y-132441357D01*
X134338000Y-132441357D01*
X134338000Y-132683843D01*
X134385307Y-132921669D01*
X134478102Y-133145697D01*
X134612820Y-133347317D01*
X134784283Y-133518780D01*
X134985903Y-133653498D01*
X135209931Y-133746293D01*
X135447757Y-133793600D01*
X135690243Y-133793600D01*
X135928069Y-133746293D01*
X136152097Y-133653498D01*
X136353717Y-133518780D01*
X136525180Y-133347317D01*
X136659898Y-133145697D01*
X136752693Y-132921669D01*
X136787604Y-132746157D01*
X136878000Y-132746157D01*
X136878000Y-132988643D01*
X136925307Y-133226469D01*
X137018102Y-133450497D01*
X137152820Y-133652117D01*
X137324283Y-133823580D01*
X137525903Y-133958298D01*
X137749931Y-134051093D01*
X137987757Y-134098400D01*
X138230243Y-134098400D01*
X138468069Y-134051093D01*
X138692097Y-133958298D01*
X138893717Y-133823580D01*
X139065180Y-133652117D01*
X139199898Y-133450497D01*
X139292693Y-133226469D01*
X139340000Y-132988643D01*
X139340000Y-132746157D01*
X139292693Y-132508331D01*
X139264952Y-132441357D01*
X139418000Y-132441357D01*
X139418000Y-132683843D01*
X139465307Y-132921669D01*
X139558102Y-133145697D01*
X139692820Y-133347317D01*
X139864283Y-133518780D01*
X140065903Y-133653498D01*
X140289931Y-133746293D01*
X140527757Y-133793600D01*
X140770243Y-133793600D01*
X141008069Y-133746293D01*
X141232097Y-133653498D01*
X141433717Y-133518780D01*
X141605180Y-133347317D01*
X141739898Y-133145697D01*
X141832693Y-132921669D01*
X141867604Y-132746157D01*
X141958000Y-132746157D01*
X141958000Y-132988643D01*
X142005307Y-133226469D01*
X142098102Y-133450497D01*
X142232820Y-133652117D01*
X142404283Y-133823580D01*
X142605903Y-133958298D01*
X142829931Y-134051093D01*
X143067757Y-134098400D01*
X143310243Y-134098400D01*
X143548069Y-134051093D01*
X143772097Y-133958298D01*
X143973717Y-133823580D01*
X144145180Y-133652117D01*
X144279898Y-133450497D01*
X144372693Y-133226469D01*
X144420000Y-132988643D01*
X144420000Y-132746157D01*
X144372693Y-132508331D01*
X144344952Y-132441357D01*
X144498000Y-132441357D01*
X144498000Y-132683843D01*
X144545307Y-132921669D01*
X144638102Y-133145697D01*
X144772820Y-133347317D01*
X144944283Y-133518780D01*
X145145903Y-133653498D01*
X145369931Y-133746293D01*
X145607757Y-133793600D01*
X145850243Y-133793600D01*
X146088069Y-133746293D01*
X146312097Y-133653498D01*
X146513717Y-133518780D01*
X146685180Y-133347317D01*
X146819898Y-133145697D01*
X146912693Y-132921669D01*
X146947604Y-132746157D01*
X147038000Y-132746157D01*
X147038000Y-132988643D01*
X147085307Y-133226469D01*
X147178102Y-133450497D01*
X147312820Y-133652117D01*
X147484283Y-133823580D01*
X147685903Y-133958298D01*
X147909931Y-134051093D01*
X148147757Y-134098400D01*
X148390243Y-134098400D01*
X148628069Y-134051093D01*
X148852097Y-133958298D01*
X149053717Y-133823580D01*
X149225180Y-133652117D01*
X149359898Y-133450497D01*
X149452693Y-133226469D01*
X149500000Y-132988643D01*
X149500000Y-132746157D01*
X149452693Y-132508331D01*
X149424952Y-132441357D01*
X149578000Y-132441357D01*
X149578000Y-132683843D01*
X149625307Y-132921669D01*
X149718102Y-133145697D01*
X149852820Y-133347317D01*
X150024283Y-133518780D01*
X150225903Y-133653498D01*
X150449931Y-133746293D01*
X150687757Y-133793600D01*
X150930243Y-133793600D01*
X151168069Y-133746293D01*
X151392097Y-133653498D01*
X151593717Y-133518780D01*
X151765180Y-133347317D01*
X151899898Y-133145697D01*
X151992693Y-132921669D01*
X152027604Y-132746157D01*
X152118000Y-132746157D01*
X152118000Y-132988643D01*
X152165307Y-133226469D01*
X152258102Y-133450497D01*
X152392820Y-133652117D01*
X152564283Y-133823580D01*
X152765903Y-133958298D01*
X152989931Y-134051093D01*
X153227757Y-134098400D01*
X153470243Y-134098400D01*
X153708069Y-134051093D01*
X153932097Y-133958298D01*
X154133717Y-133823580D01*
X154305180Y-133652117D01*
X154439898Y-133450497D01*
X154532693Y-133226469D01*
X154580000Y-132988643D01*
X154580000Y-132746157D01*
X154532693Y-132508331D01*
X154504952Y-132441357D01*
X154658000Y-132441357D01*
X154658000Y-132683843D01*
X154705307Y-132921669D01*
X154798102Y-133145697D01*
X154932820Y-133347317D01*
X155104283Y-133518780D01*
X155305903Y-133653498D01*
X155529931Y-133746293D01*
X155767757Y-133793600D01*
X156010243Y-133793600D01*
X156248069Y-133746293D01*
X156472097Y-133653498D01*
X156673717Y-133518780D01*
X156845180Y-133347317D01*
X156979898Y-133145697D01*
X157072693Y-132921669D01*
X157120000Y-132683843D01*
X157120000Y-132441357D01*
X157072693Y-132203531D01*
X156995596Y-132017400D01*
X157196157Y-132017400D01*
X157196157Y-133717400D01*
X157203513Y-133792089D01*
X157225299Y-133863908D01*
X157260678Y-133930096D01*
X157308289Y-133988111D01*
X157366304Y-134035722D01*
X157432492Y-134071101D01*
X157504311Y-134092887D01*
X157579000Y-134100243D01*
X159279000Y-134100243D01*
X159353689Y-134092887D01*
X159425508Y-134071101D01*
X159491696Y-134035722D01*
X159549711Y-133988111D01*
X159597322Y-133930096D01*
X159632701Y-133863908D01*
X159654487Y-133792089D01*
X159661843Y-133717400D01*
X159661843Y-132017400D01*
X159654487Y-131942711D01*
X159632701Y-131870892D01*
X159597322Y-131804704D01*
X159549711Y-131746689D01*
X159491696Y-131699078D01*
X159425508Y-131663699D01*
X159353689Y-131641913D01*
X159279000Y-131634557D01*
X157579000Y-131634557D01*
X157504311Y-131641913D01*
X157432492Y-131663699D01*
X157366304Y-131699078D01*
X157308289Y-131746689D01*
X157260678Y-131804704D01*
X157225299Y-131870892D01*
X157203513Y-131942711D01*
X157196157Y-132017400D01*
X156995596Y-132017400D01*
X156979898Y-131979503D01*
X156845180Y-131777883D01*
X156673717Y-131606420D01*
X156472097Y-131471702D01*
X156248069Y-131378907D01*
X156010243Y-131331600D01*
X155767757Y-131331600D01*
X155529931Y-131378907D01*
X155305903Y-131471702D01*
X155104283Y-131606420D01*
X154932820Y-131777883D01*
X154798102Y-131979503D01*
X154705307Y-132203531D01*
X154658000Y-132441357D01*
X154504952Y-132441357D01*
X154439898Y-132284303D01*
X154305180Y-132082683D01*
X154133717Y-131911220D01*
X153932097Y-131776502D01*
X153708069Y-131683707D01*
X153470243Y-131636400D01*
X153227757Y-131636400D01*
X152989931Y-131683707D01*
X152765903Y-131776502D01*
X152564283Y-131911220D01*
X152392820Y-132082683D01*
X152258102Y-132284303D01*
X152165307Y-132508331D01*
X152118000Y-132746157D01*
X152027604Y-132746157D01*
X152040000Y-132683843D01*
X152040000Y-132441357D01*
X151992693Y-132203531D01*
X151899898Y-131979503D01*
X151765180Y-131777883D01*
X151593717Y-131606420D01*
X151392097Y-131471702D01*
X151168069Y-131378907D01*
X150930243Y-131331600D01*
X150687757Y-131331600D01*
X150449931Y-131378907D01*
X150225903Y-131471702D01*
X150024283Y-131606420D01*
X149852820Y-131777883D01*
X149718102Y-131979503D01*
X149625307Y-132203531D01*
X149578000Y-132441357D01*
X149424952Y-132441357D01*
X149359898Y-132284303D01*
X149225180Y-132082683D01*
X149053717Y-131911220D01*
X148852097Y-131776502D01*
X148628069Y-131683707D01*
X148390243Y-131636400D01*
X148147757Y-131636400D01*
X147909931Y-131683707D01*
X147685903Y-131776502D01*
X147484283Y-131911220D01*
X147312820Y-132082683D01*
X147178102Y-132284303D01*
X147085307Y-132508331D01*
X147038000Y-132746157D01*
X146947604Y-132746157D01*
X146960000Y-132683843D01*
X146960000Y-132441357D01*
X146912693Y-132203531D01*
X146819898Y-131979503D01*
X146685180Y-131777883D01*
X146513717Y-131606420D01*
X146312097Y-131471702D01*
X146088069Y-131378907D01*
X145850243Y-131331600D01*
X145607757Y-131331600D01*
X145369931Y-131378907D01*
X145145903Y-131471702D01*
X144944283Y-131606420D01*
X144772820Y-131777883D01*
X144638102Y-131979503D01*
X144545307Y-132203531D01*
X144498000Y-132441357D01*
X144344952Y-132441357D01*
X144279898Y-132284303D01*
X144145180Y-132082683D01*
X143973717Y-131911220D01*
X143772097Y-131776502D01*
X143548069Y-131683707D01*
X143310243Y-131636400D01*
X143067757Y-131636400D01*
X142829931Y-131683707D01*
X142605903Y-131776502D01*
X142404283Y-131911220D01*
X142232820Y-132082683D01*
X142098102Y-132284303D01*
X142005307Y-132508331D01*
X141958000Y-132746157D01*
X141867604Y-132746157D01*
X141880000Y-132683843D01*
X141880000Y-132441357D01*
X141832693Y-132203531D01*
X141739898Y-131979503D01*
X141605180Y-131777883D01*
X141433717Y-131606420D01*
X141232097Y-131471702D01*
X141008069Y-131378907D01*
X140770243Y-131331600D01*
X140527757Y-131331600D01*
X140289931Y-131378907D01*
X140065903Y-131471702D01*
X139864283Y-131606420D01*
X139692820Y-131777883D01*
X139558102Y-131979503D01*
X139465307Y-132203531D01*
X139418000Y-132441357D01*
X139264952Y-132441357D01*
X139199898Y-132284303D01*
X139065180Y-132082683D01*
X138893717Y-131911220D01*
X138692097Y-131776502D01*
X138468069Y-131683707D01*
X138230243Y-131636400D01*
X137987757Y-131636400D01*
X137749931Y-131683707D01*
X137525903Y-131776502D01*
X137324283Y-131911220D01*
X137152820Y-132082683D01*
X137018102Y-132284303D01*
X136925307Y-132508331D01*
X136878000Y-132746157D01*
X136787604Y-132746157D01*
X136800000Y-132683843D01*
X136800000Y-132441357D01*
X136752693Y-132203531D01*
X136659898Y-131979503D01*
X136525180Y-131777883D01*
X136353717Y-131606420D01*
X136152097Y-131471702D01*
X135928069Y-131378907D01*
X135690243Y-131331600D01*
X135447757Y-131331600D01*
X135209931Y-131378907D01*
X134985903Y-131471702D01*
X134784283Y-131606420D01*
X134612820Y-131777883D01*
X134478102Y-131979503D01*
X134385307Y-132203531D01*
X134338000Y-132441357D01*
X124991309Y-132441357D01*
X124281426Y-131950727D01*
X123236102Y-131043641D01*
X122296632Y-130027328D01*
X121474360Y-128914063D01*
X120779211Y-127717276D01*
X120540393Y-127177078D01*
X142729000Y-127177078D01*
X142729000Y-127330922D01*
X142759013Y-127481809D01*
X142817887Y-127623942D01*
X142903358Y-127751859D01*
X143012141Y-127860642D01*
X143140058Y-127946113D01*
X143282191Y-128004987D01*
X143433078Y-128035000D01*
X143586922Y-128035000D01*
X143737809Y-128004987D01*
X143879942Y-127946113D01*
X143986250Y-127875081D01*
X144092558Y-127946113D01*
X144234691Y-128004987D01*
X144385578Y-128035000D01*
X144539422Y-128035000D01*
X144690309Y-128004987D01*
X144832442Y-127946113D01*
X144960359Y-127860642D01*
X145008923Y-127812078D01*
X154286000Y-127812078D01*
X154286000Y-127965922D01*
X154316013Y-128116809D01*
X154374887Y-128258942D01*
X154460358Y-128386859D01*
X154470499Y-128397000D01*
X154460358Y-128407141D01*
X154374887Y-128535058D01*
X154316013Y-128677191D01*
X154286000Y-128828078D01*
X154286000Y-128981922D01*
X154316013Y-129132809D01*
X154374887Y-129274942D01*
X154460358Y-129402859D01*
X154569141Y-129511642D01*
X154697058Y-129597113D01*
X154839191Y-129655987D01*
X154990078Y-129686000D01*
X155143922Y-129686000D01*
X155294809Y-129655987D01*
X155436942Y-129597113D01*
X155564859Y-129511642D01*
X155673642Y-129402859D01*
X155759113Y-129274942D01*
X155817987Y-129132809D01*
X155848000Y-128981922D01*
X155848000Y-128828078D01*
X155817987Y-128677191D01*
X155759113Y-128535058D01*
X155673642Y-128407141D01*
X155663501Y-128397000D01*
X155673642Y-128386859D01*
X155759113Y-128258942D01*
X155817987Y-128116809D01*
X155848000Y-127965922D01*
X155848000Y-127812078D01*
X155817987Y-127661191D01*
X155759113Y-127519058D01*
X155673642Y-127391141D01*
X155564859Y-127282358D01*
X155436942Y-127196887D01*
X155294809Y-127138013D01*
X155143922Y-127108000D01*
X154990078Y-127108000D01*
X154839191Y-127138013D01*
X154697058Y-127196887D01*
X154569141Y-127282358D01*
X154460358Y-127391141D01*
X154374887Y-127519058D01*
X154316013Y-127661191D01*
X154286000Y-127812078D01*
X145008923Y-127812078D01*
X145069142Y-127751859D01*
X145154613Y-127623942D01*
X145213487Y-127481809D01*
X145243500Y-127330922D01*
X145243500Y-127177078D01*
X145213487Y-127026191D01*
X145154613Y-126884058D01*
X145069142Y-126756141D01*
X144960359Y-126647358D01*
X144832442Y-126561887D01*
X144690309Y-126503013D01*
X144539422Y-126473000D01*
X144385578Y-126473000D01*
X144234691Y-126503013D01*
X144092558Y-126561887D01*
X143986250Y-126632919D01*
X143879942Y-126561887D01*
X143737809Y-126503013D01*
X143586922Y-126473000D01*
X143433078Y-126473000D01*
X143282191Y-126503013D01*
X143140058Y-126561887D01*
X143012141Y-126647358D01*
X142903358Y-126756141D01*
X142817887Y-126884058D01*
X142759013Y-127026191D01*
X142729000Y-127177078D01*
X120540393Y-127177078D01*
X120219592Y-126451441D01*
X120069388Y-125976500D01*
X133127423Y-125976500D01*
X133127423Y-126130344D01*
X133157436Y-126281231D01*
X133216310Y-126423364D01*
X133301781Y-126551281D01*
X133410564Y-126660064D01*
X133538481Y-126745535D01*
X133680614Y-126804409D01*
X133831501Y-126834422D01*
X133985345Y-126834422D01*
X134136232Y-126804409D01*
X134278365Y-126745535D01*
X134406282Y-126660064D01*
X134515065Y-126551281D01*
X134600536Y-126423364D01*
X134659410Y-126281231D01*
X134689423Y-126130344D01*
X134689423Y-125976500D01*
X134659410Y-125825613D01*
X134600536Y-125683480D01*
X134580223Y-125653078D01*
X157080000Y-125653078D01*
X157080000Y-125806922D01*
X157110013Y-125957809D01*
X157168887Y-126099942D01*
X157254358Y-126227859D01*
X157363141Y-126336642D01*
X157491058Y-126422113D01*
X157633191Y-126480987D01*
X157784078Y-126511000D01*
X157937922Y-126511000D01*
X158088809Y-126480987D01*
X158230942Y-126422113D01*
X158358859Y-126336642D01*
X158400750Y-126294751D01*
X158442641Y-126336642D01*
X158570558Y-126422113D01*
X158712691Y-126480987D01*
X158863578Y-126511000D01*
X159017422Y-126511000D01*
X159168309Y-126480987D01*
X159310442Y-126422113D01*
X159438359Y-126336642D01*
X159448500Y-126326501D01*
X159458641Y-126336642D01*
X159586558Y-126422113D01*
X159728691Y-126480987D01*
X159879578Y-126511000D01*
X160033422Y-126511000D01*
X160184309Y-126480987D01*
X160326442Y-126422113D01*
X160454359Y-126336642D01*
X160559750Y-126231251D01*
X160601641Y-126273142D01*
X160729558Y-126358613D01*
X160871691Y-126417487D01*
X161022578Y-126447500D01*
X161176422Y-126447500D01*
X161327309Y-126417487D01*
X161469442Y-126358613D01*
X161597359Y-126273142D01*
X161706142Y-126164359D01*
X161791613Y-126036442D01*
X161850487Y-125894309D01*
X161880500Y-125743422D01*
X161880500Y-125589578D01*
X161850487Y-125438691D01*
X161791613Y-125296558D01*
X161706142Y-125168641D01*
X161597359Y-125059858D01*
X161469442Y-124974387D01*
X161327309Y-124915513D01*
X161176422Y-124885500D01*
X161022578Y-124885500D01*
X160871691Y-124915513D01*
X160729558Y-124974387D01*
X160601641Y-125059858D01*
X160496250Y-125165249D01*
X160454359Y-125123358D01*
X160326442Y-125037887D01*
X160184309Y-124979013D01*
X160033422Y-124949000D01*
X159879578Y-124949000D01*
X159728691Y-124979013D01*
X159586558Y-125037887D01*
X159458641Y-125123358D01*
X159448500Y-125133499D01*
X159438359Y-125123358D01*
X159310442Y-125037887D01*
X159168309Y-124979013D01*
X159017422Y-124949000D01*
X158863578Y-124949000D01*
X158712691Y-124979013D01*
X158570558Y-125037887D01*
X158442641Y-125123358D01*
X158400750Y-125165249D01*
X158358859Y-125123358D01*
X158230942Y-125037887D01*
X158088809Y-124979013D01*
X157937922Y-124949000D01*
X157784078Y-124949000D01*
X157633191Y-124979013D01*
X157491058Y-125037887D01*
X157363141Y-125123358D01*
X157254358Y-125232141D01*
X157168887Y-125360058D01*
X157110013Y-125502191D01*
X157080000Y-125653078D01*
X134580223Y-125653078D01*
X134515065Y-125555563D01*
X134406282Y-125446780D01*
X134278365Y-125361309D01*
X134136232Y-125302435D01*
X133985345Y-125272422D01*
X133831501Y-125272422D01*
X133680614Y-125302435D01*
X133538481Y-125361309D01*
X133410564Y-125446780D01*
X133301781Y-125555563D01*
X133216310Y-125683480D01*
X133157436Y-125825613D01*
X133127423Y-125976500D01*
X120069388Y-125976500D01*
X119802260Y-125131852D01*
X119532250Y-123774424D01*
X119479209Y-123162000D01*
X119963257Y-123162000D01*
X119963257Y-124862000D01*
X119970613Y-124936689D01*
X119992399Y-125008508D01*
X120027778Y-125074696D01*
X120075389Y-125132711D01*
X120133404Y-125180322D01*
X120199592Y-125215701D01*
X120271411Y-125237487D01*
X120346100Y-125244843D01*
X122046100Y-125244843D01*
X122120789Y-125237487D01*
X122192608Y-125215701D01*
X122258796Y-125180322D01*
X122316811Y-125132711D01*
X122364422Y-125074696D01*
X122399801Y-125008508D01*
X122421587Y-124936689D01*
X122428943Y-124862000D01*
X122428943Y-123621078D01*
X124187000Y-123621078D01*
X124187000Y-123774922D01*
X124217013Y-123925809D01*
X124275887Y-124067942D01*
X124361358Y-124195859D01*
X124470141Y-124304642D01*
X124598058Y-124390113D01*
X124740191Y-124448987D01*
X124891078Y-124479000D01*
X125044922Y-124479000D01*
X125195809Y-124448987D01*
X125337942Y-124390113D01*
X125465859Y-124304642D01*
X125574642Y-124195859D01*
X125660113Y-124067942D01*
X125718987Y-123925809D01*
X125749000Y-123774922D01*
X125749000Y-123621078D01*
X125718987Y-123470191D01*
X125660113Y-123328058D01*
X125574642Y-123200141D01*
X125465859Y-123091358D01*
X125337942Y-123005887D01*
X125195809Y-122947013D01*
X125044922Y-122917000D01*
X124891078Y-122917000D01*
X124740191Y-122947013D01*
X124598058Y-123005887D01*
X124470141Y-123091358D01*
X124361358Y-123200141D01*
X124275887Y-123328058D01*
X124217013Y-123470191D01*
X124187000Y-123621078D01*
X122428943Y-123621078D01*
X122428943Y-123162000D01*
X122421587Y-123087311D01*
X122399801Y-123015492D01*
X122364422Y-122949304D01*
X122316811Y-122891289D01*
X122258796Y-122843678D01*
X122192608Y-122808299D01*
X122120789Y-122786513D01*
X122046100Y-122779157D01*
X120346100Y-122779157D01*
X120271411Y-122786513D01*
X120199592Y-122808299D01*
X120133404Y-122843678D01*
X120075389Y-122891289D01*
X120027778Y-122949304D01*
X119992399Y-123015492D01*
X119970613Y-123087311D01*
X119963257Y-123162000D01*
X119479209Y-123162000D01*
X119412139Y-122387608D01*
X119406000Y-121996806D01*
X119406000Y-121350757D01*
X120269900Y-121350757D01*
X120269900Y-121593243D01*
X120317207Y-121831069D01*
X120410002Y-122055097D01*
X120544720Y-122256717D01*
X120716183Y-122428180D01*
X120917803Y-122562898D01*
X121141831Y-122655693D01*
X121379657Y-122703000D01*
X121622143Y-122703000D01*
X121795192Y-122668578D01*
X131680000Y-122668578D01*
X131680000Y-122822422D01*
X131710013Y-122973309D01*
X131768887Y-123115442D01*
X131854358Y-123243359D01*
X131963141Y-123352142D01*
X132091058Y-123437613D01*
X132233191Y-123496487D01*
X132384078Y-123526500D01*
X132537922Y-123526500D01*
X132688809Y-123496487D01*
X132830942Y-123437613D01*
X132958859Y-123352142D01*
X133067642Y-123243359D01*
X133094883Y-123202590D01*
X133117756Y-123257811D01*
X133203227Y-123385728D01*
X133312010Y-123494511D01*
X133439927Y-123579982D01*
X133582060Y-123638856D01*
X133732947Y-123668869D01*
X133886791Y-123668869D01*
X134037678Y-123638856D01*
X134093000Y-123615941D01*
X134093000Y-123647922D01*
X134123013Y-123798809D01*
X134181887Y-123940942D01*
X134267358Y-124068859D01*
X134376141Y-124177642D01*
X134504058Y-124263113D01*
X134646191Y-124321987D01*
X134797078Y-124352000D01*
X134950922Y-124352000D01*
X135101809Y-124321987D01*
X135243942Y-124263113D01*
X135371859Y-124177642D01*
X135480642Y-124068859D01*
X135482834Y-124065578D01*
X140379500Y-124065578D01*
X140379500Y-124219422D01*
X140409513Y-124370309D01*
X140468387Y-124512442D01*
X140553858Y-124640359D01*
X140662641Y-124749142D01*
X140790558Y-124834613D01*
X140932691Y-124893487D01*
X141083578Y-124923500D01*
X141237422Y-124923500D01*
X141388309Y-124893487D01*
X141530442Y-124834613D01*
X141658359Y-124749142D01*
X141767142Y-124640359D01*
X141852613Y-124512442D01*
X141911487Y-124370309D01*
X141941500Y-124219422D01*
X141941500Y-124065578D01*
X141911487Y-123914691D01*
X141852613Y-123772558D01*
X141767142Y-123644641D01*
X141658359Y-123535858D01*
X141530442Y-123450387D01*
X141388309Y-123391513D01*
X141237422Y-123361500D01*
X141083578Y-123361500D01*
X140932691Y-123391513D01*
X140790558Y-123450387D01*
X140662641Y-123535858D01*
X140553858Y-123644641D01*
X140468387Y-123772558D01*
X140409513Y-123914691D01*
X140379500Y-124065578D01*
X135482834Y-124065578D01*
X135566113Y-123940942D01*
X135624987Y-123798809D01*
X135655000Y-123647922D01*
X135655000Y-123494078D01*
X135624987Y-123343191D01*
X135566113Y-123201058D01*
X135480642Y-123073141D01*
X135371859Y-122964358D01*
X135243942Y-122878887D01*
X135101809Y-122820013D01*
X134950922Y-122790000D01*
X134797078Y-122790000D01*
X134646191Y-122820013D01*
X134590869Y-122842928D01*
X134590869Y-122810947D01*
X134560856Y-122660060D01*
X134501982Y-122517927D01*
X134432927Y-122414578D01*
X141268500Y-122414578D01*
X141268500Y-122568422D01*
X141298513Y-122719309D01*
X141357387Y-122861442D01*
X141442858Y-122989359D01*
X141551641Y-123098142D01*
X141679558Y-123183613D01*
X141821691Y-123242487D01*
X141972578Y-123272500D01*
X142126422Y-123272500D01*
X142277309Y-123242487D01*
X142419442Y-123183613D01*
X142547359Y-123098142D01*
X142656142Y-122989359D01*
X142741613Y-122861442D01*
X142800487Y-122719309D01*
X142830500Y-122568422D01*
X142830500Y-122414578D01*
X142800487Y-122263691D01*
X142741613Y-122121558D01*
X142656142Y-121993641D01*
X142547359Y-121884858D01*
X142419442Y-121799387D01*
X142277309Y-121740513D01*
X142126422Y-121710500D01*
X141972578Y-121710500D01*
X141821691Y-121740513D01*
X141679558Y-121799387D01*
X141551641Y-121884858D01*
X141442858Y-121993641D01*
X141357387Y-122121558D01*
X141298513Y-122263691D01*
X141268500Y-122414578D01*
X134432927Y-122414578D01*
X134416511Y-122390010D01*
X134307728Y-122281227D01*
X134179811Y-122195756D01*
X134037678Y-122136882D01*
X133886791Y-122106869D01*
X133732947Y-122106869D01*
X133582060Y-122136882D01*
X133439927Y-122195756D01*
X133312010Y-122281227D01*
X133203227Y-122390010D01*
X133175986Y-122430779D01*
X133153113Y-122375558D01*
X133082267Y-122269529D01*
X133201125Y-122220296D01*
X133329042Y-122134825D01*
X133437825Y-122026042D01*
X133523296Y-121898125D01*
X133582170Y-121755992D01*
X133612183Y-121605105D01*
X133612183Y-121520752D01*
X133724794Y-121520752D01*
X133875681Y-121490739D01*
X134017814Y-121431865D01*
X134145731Y-121346394D01*
X134254514Y-121237611D01*
X134339985Y-121109694D01*
X134398859Y-120967561D01*
X134428872Y-120816674D01*
X134428872Y-120709404D01*
X141522507Y-120709404D01*
X141522507Y-120863248D01*
X141552520Y-121014135D01*
X141611394Y-121156268D01*
X141696865Y-121284185D01*
X141805648Y-121392968D01*
X141933565Y-121478439D01*
X142075698Y-121537313D01*
X142226585Y-121567326D01*
X142380429Y-121567326D01*
X142531316Y-121537313D01*
X142673449Y-121478439D01*
X142801366Y-121392968D01*
X142910149Y-121284185D01*
X142995620Y-121156268D01*
X143054494Y-121014135D01*
X143084507Y-120863248D01*
X143084507Y-120709404D01*
X143054494Y-120558517D01*
X142995620Y-120416384D01*
X142910149Y-120288467D01*
X142801366Y-120179684D01*
X142673449Y-120094213D01*
X142531316Y-120035339D01*
X142380429Y-120005326D01*
X142226585Y-120005326D01*
X142075698Y-120035339D01*
X141933565Y-120094213D01*
X141805648Y-120179684D01*
X141696865Y-120288467D01*
X141611394Y-120416384D01*
X141552520Y-120558517D01*
X141522507Y-120709404D01*
X134428872Y-120709404D01*
X134428872Y-120662830D01*
X134398859Y-120511943D01*
X134339985Y-120369810D01*
X134254514Y-120241893D01*
X134145731Y-120133110D01*
X134017814Y-120047639D01*
X133875681Y-119988765D01*
X133724794Y-119958752D01*
X133570950Y-119958752D01*
X133420063Y-119988765D01*
X133277930Y-120047639D01*
X133150013Y-120133110D01*
X133041230Y-120241893D01*
X132955759Y-120369810D01*
X132896885Y-120511943D01*
X132866872Y-120662830D01*
X132866872Y-120747183D01*
X132754261Y-120747183D01*
X132603374Y-120777196D01*
X132461241Y-120836070D01*
X132333324Y-120921541D01*
X132224541Y-121030324D01*
X132139070Y-121158241D01*
X132080196Y-121300374D01*
X132050183Y-121451261D01*
X132050183Y-121605105D01*
X132080196Y-121755992D01*
X132139070Y-121898125D01*
X132209916Y-122004154D01*
X132091058Y-122053387D01*
X131963141Y-122138858D01*
X131854358Y-122247641D01*
X131768887Y-122375558D01*
X131710013Y-122517691D01*
X131680000Y-122668578D01*
X121795192Y-122668578D01*
X121859969Y-122655693D01*
X122083997Y-122562898D01*
X122285617Y-122428180D01*
X122457080Y-122256717D01*
X122591798Y-122055097D01*
X122684593Y-121831069D01*
X122731900Y-121593243D01*
X122731900Y-121350757D01*
X122684593Y-121112931D01*
X122591798Y-120888903D01*
X122457080Y-120687283D01*
X122285617Y-120515820D01*
X122083997Y-120381102D01*
X121859969Y-120288307D01*
X121622143Y-120241000D01*
X121379657Y-120241000D01*
X121141831Y-120288307D01*
X120917803Y-120381102D01*
X120716183Y-120515820D01*
X120544720Y-120687283D01*
X120410002Y-120888903D01*
X120317207Y-121112931D01*
X120269900Y-121350757D01*
X119406000Y-121350757D01*
X119406000Y-118810757D01*
X119965100Y-118810757D01*
X119965100Y-119053243D01*
X120012407Y-119291069D01*
X120105202Y-119515097D01*
X120239920Y-119716717D01*
X120411383Y-119888180D01*
X120613003Y-120022898D01*
X120837031Y-120115693D01*
X121074857Y-120163000D01*
X121317343Y-120163000D01*
X121555169Y-120115693D01*
X121779197Y-120022898D01*
X121980817Y-119888180D01*
X122152280Y-119716717D01*
X122286998Y-119515097D01*
X122379793Y-119291069D01*
X122427100Y-119053243D01*
X122427100Y-118922078D01*
X129711500Y-118922078D01*
X129711500Y-119075922D01*
X129741513Y-119226809D01*
X129800387Y-119368942D01*
X129885858Y-119496859D01*
X129994641Y-119605642D01*
X130122558Y-119691113D01*
X130264691Y-119749987D01*
X130415578Y-119780000D01*
X130569422Y-119780000D01*
X130720309Y-119749987D01*
X130862442Y-119691113D01*
X130990359Y-119605642D01*
X131064000Y-119532001D01*
X131137641Y-119605642D01*
X131186729Y-119638441D01*
X131153691Y-119645013D01*
X131011558Y-119703887D01*
X130883641Y-119789358D01*
X130774858Y-119898141D01*
X130689387Y-120026058D01*
X130630513Y-120168191D01*
X130600500Y-120319078D01*
X130600500Y-120472922D01*
X130630513Y-120623809D01*
X130689387Y-120765942D01*
X130774858Y-120893859D01*
X130883641Y-121002642D01*
X131011558Y-121088113D01*
X131153691Y-121146987D01*
X131304578Y-121177000D01*
X131458422Y-121177000D01*
X131609309Y-121146987D01*
X131751442Y-121088113D01*
X131879359Y-121002642D01*
X131988142Y-120893859D01*
X132073613Y-120765942D01*
X132132487Y-120623809D01*
X132162500Y-120472922D01*
X132162500Y-120319078D01*
X132132487Y-120168191D01*
X132073613Y-120026058D01*
X131988142Y-119898141D01*
X131879359Y-119789358D01*
X131830271Y-119756559D01*
X131863309Y-119749987D01*
X132005442Y-119691113D01*
X132133359Y-119605642D01*
X132242142Y-119496859D01*
X132327613Y-119368942D01*
X132386487Y-119226809D01*
X132416500Y-119075922D01*
X132416500Y-118922078D01*
X132386487Y-118771191D01*
X132327613Y-118629058D01*
X132242142Y-118501141D01*
X132133359Y-118392358D01*
X132005442Y-118306887D01*
X131863309Y-118248013D01*
X131712422Y-118218000D01*
X131558578Y-118218000D01*
X131407691Y-118248013D01*
X131265558Y-118306887D01*
X131137641Y-118392358D01*
X131064000Y-118465999D01*
X130990359Y-118392358D01*
X130862442Y-118306887D01*
X130720309Y-118248013D01*
X130569422Y-118218000D01*
X130415578Y-118218000D01*
X130264691Y-118248013D01*
X130122558Y-118306887D01*
X129994641Y-118392358D01*
X129885858Y-118501141D01*
X129800387Y-118629058D01*
X129741513Y-118771191D01*
X129711500Y-118922078D01*
X122427100Y-118922078D01*
X122427100Y-118810757D01*
X122379793Y-118572931D01*
X122286998Y-118348903D01*
X122152280Y-118147283D01*
X121980817Y-117975820D01*
X121779197Y-117841102D01*
X121555169Y-117748307D01*
X121317343Y-117701000D01*
X121074857Y-117701000D01*
X120837031Y-117748307D01*
X120613003Y-117841102D01*
X120411383Y-117975820D01*
X120239920Y-118147283D01*
X120105202Y-118348903D01*
X120012407Y-118572931D01*
X119965100Y-118810757D01*
X119406000Y-118810757D01*
X119406000Y-116270757D01*
X120269900Y-116270757D01*
X120269900Y-116513243D01*
X120317207Y-116751069D01*
X120410002Y-116975097D01*
X120544720Y-117176717D01*
X120716183Y-117348180D01*
X120917803Y-117482898D01*
X121141831Y-117575693D01*
X121379657Y-117623000D01*
X121622143Y-117623000D01*
X121859969Y-117575693D01*
X122083997Y-117482898D01*
X122285617Y-117348180D01*
X122457080Y-117176717D01*
X122591798Y-116975097D01*
X122684593Y-116751069D01*
X122731900Y-116513243D01*
X122731900Y-116270757D01*
X122728782Y-116255078D01*
X132188000Y-116255078D01*
X132188000Y-116408922D01*
X132218013Y-116559809D01*
X132276887Y-116701942D01*
X132362358Y-116829859D01*
X132471141Y-116938642D01*
X132599058Y-117024113D01*
X132741191Y-117082987D01*
X132892078Y-117113000D01*
X133045922Y-117113000D01*
X133196809Y-117082987D01*
X133338942Y-117024113D01*
X133466859Y-116938642D01*
X133575642Y-116829859D01*
X133661113Y-116701942D01*
X133719987Y-116559809D01*
X133750000Y-116408922D01*
X133750000Y-116255078D01*
X133719987Y-116104191D01*
X133661113Y-115962058D01*
X133575642Y-115834141D01*
X133466859Y-115725358D01*
X133338942Y-115639887D01*
X133196809Y-115581013D01*
X133045922Y-115551000D01*
X132892078Y-115551000D01*
X132741191Y-115581013D01*
X132599058Y-115639887D01*
X132471141Y-115725358D01*
X132362358Y-115834141D01*
X132276887Y-115962058D01*
X132218013Y-116104191D01*
X132188000Y-116255078D01*
X122728782Y-116255078D01*
X122684593Y-116032931D01*
X122591798Y-115808903D01*
X122457080Y-115607283D01*
X122285617Y-115435820D01*
X122083997Y-115301102D01*
X121859969Y-115208307D01*
X121622143Y-115161000D01*
X121379657Y-115161000D01*
X121141831Y-115208307D01*
X120917803Y-115301102D01*
X120716183Y-115435820D01*
X120544720Y-115607283D01*
X120410002Y-115808903D01*
X120317207Y-116032931D01*
X120269900Y-116270757D01*
X119406000Y-116270757D01*
X119406000Y-113730757D01*
X119965100Y-113730757D01*
X119965100Y-113973243D01*
X120012407Y-114211069D01*
X120105202Y-114435097D01*
X120239920Y-114636717D01*
X120411383Y-114808180D01*
X120613003Y-114942898D01*
X120837031Y-115035693D01*
X121074857Y-115083000D01*
X121317343Y-115083000D01*
X121555169Y-115035693D01*
X121779197Y-114942898D01*
X121980817Y-114808180D01*
X122152280Y-114636717D01*
X122286998Y-114435097D01*
X122379793Y-114211069D01*
X122415154Y-114033300D01*
X136602518Y-114033300D01*
X139689298Y-117120082D01*
X139685164Y-117140866D01*
X139666656Y-117122358D01*
X139538739Y-117036887D01*
X139396606Y-116978013D01*
X139245719Y-116948000D01*
X139091875Y-116948000D01*
X138940988Y-116978013D01*
X138798855Y-117036887D01*
X138670938Y-117122358D01*
X138562155Y-117231141D01*
X138476684Y-117359058D01*
X138449000Y-117425892D01*
X138449000Y-117398078D01*
X138418987Y-117247191D01*
X138360113Y-117105058D01*
X138274642Y-116977141D01*
X138165859Y-116868358D01*
X138037942Y-116782887D01*
X137895809Y-116724013D01*
X137744922Y-116694000D01*
X137591078Y-116694000D01*
X137508917Y-116710343D01*
X137561659Y-116675102D01*
X137670442Y-116566319D01*
X137755913Y-116438402D01*
X137814787Y-116296269D01*
X137844800Y-116145382D01*
X137844800Y-115991538D01*
X137814787Y-115840651D01*
X137755913Y-115698518D01*
X137670442Y-115570601D01*
X137561659Y-115461818D01*
X137433742Y-115376347D01*
X137291609Y-115317473D01*
X137140722Y-115287460D01*
X136986878Y-115287460D01*
X136835991Y-115317473D01*
X136693858Y-115376347D01*
X136565941Y-115461818D01*
X136457158Y-115570601D01*
X136371687Y-115698518D01*
X136312813Y-115840651D01*
X136288822Y-115961262D01*
X136173232Y-115938270D01*
X136019388Y-115938270D01*
X135868501Y-115968283D01*
X135726368Y-116027157D01*
X135598451Y-116112628D01*
X135489668Y-116221411D01*
X135404197Y-116349328D01*
X135345323Y-116491461D01*
X135315310Y-116642348D01*
X135315310Y-116796192D01*
X135345323Y-116947079D01*
X135404197Y-117089212D01*
X135489668Y-117217129D01*
X135598451Y-117325912D01*
X135726368Y-117411383D01*
X135868501Y-117470257D01*
X136019388Y-117500270D01*
X136173232Y-117500270D01*
X136324119Y-117470257D01*
X136466252Y-117411383D01*
X136594169Y-117325912D01*
X136702952Y-117217129D01*
X136788423Y-117089212D01*
X136847297Y-116947079D01*
X136871288Y-116826468D01*
X136986878Y-116849460D01*
X137140722Y-116849460D01*
X137222883Y-116833117D01*
X137170141Y-116868358D01*
X137061358Y-116977141D01*
X136975887Y-117105058D01*
X136917013Y-117247191D01*
X136887000Y-117398078D01*
X136887000Y-117551922D01*
X136917013Y-117702809D01*
X136975887Y-117844942D01*
X137061358Y-117972859D01*
X137170141Y-118081642D01*
X137298058Y-118167113D01*
X137309211Y-118171733D01*
X137303501Y-118185517D01*
X137273488Y-118336404D01*
X137273488Y-118422881D01*
X137153131Y-118342461D01*
X137010998Y-118283587D01*
X136860111Y-118253574D01*
X136706267Y-118253574D01*
X136555380Y-118283587D01*
X136413247Y-118342461D01*
X136285330Y-118427932D01*
X136176547Y-118536715D01*
X136091076Y-118664632D01*
X136032202Y-118806765D01*
X136002189Y-118957652D01*
X136002189Y-119111496D01*
X136032202Y-119262383D01*
X136091076Y-119404516D01*
X136176547Y-119532433D01*
X136285330Y-119641216D01*
X136413247Y-119726687D01*
X136555380Y-119785561D01*
X136706267Y-119815574D01*
X136760000Y-119815574D01*
X136760000Y-119964922D01*
X136790013Y-120115809D01*
X136848887Y-120257942D01*
X136934358Y-120385859D01*
X137043141Y-120494642D01*
X137171058Y-120580113D01*
X137313191Y-120638987D01*
X137464078Y-120669000D01*
X137617922Y-120669000D01*
X137768809Y-120638987D01*
X137910942Y-120580113D01*
X138038859Y-120494642D01*
X138147642Y-120385859D01*
X138233113Y-120257942D01*
X138291987Y-120115809D01*
X138322000Y-119964922D01*
X138322000Y-119811078D01*
X138291987Y-119660191D01*
X138233113Y-119518058D01*
X138147642Y-119390141D01*
X138038859Y-119281358D01*
X137910942Y-119195887D01*
X137842142Y-119167389D01*
X137977566Y-119194326D01*
X138131410Y-119194326D01*
X138282297Y-119164313D01*
X138424430Y-119105439D01*
X138552347Y-119019968D01*
X138661130Y-118911185D01*
X138746601Y-118783268D01*
X138767805Y-118732078D01*
X138767805Y-118793074D01*
X138797818Y-118943961D01*
X138856692Y-119086094D01*
X138942163Y-119214011D01*
X139050946Y-119322794D01*
X139178863Y-119408265D01*
X139320996Y-119467139D01*
X139471883Y-119497152D01*
X139625727Y-119497152D01*
X139776614Y-119467139D01*
X139918747Y-119408265D01*
X140046664Y-119322794D01*
X140155447Y-119214011D01*
X140173364Y-119187196D01*
X140294227Y-119237259D01*
X140445114Y-119267272D01*
X140598958Y-119267272D01*
X140749845Y-119237259D01*
X140891978Y-119178385D01*
X141019895Y-119092914D01*
X141128678Y-118984131D01*
X141214149Y-118856214D01*
X141273023Y-118714081D01*
X141303036Y-118563194D01*
X141303036Y-118409350D01*
X141273023Y-118258463D01*
X141214149Y-118116330D01*
X141128678Y-117988413D01*
X141019895Y-117879630D01*
X140980750Y-117853475D01*
X141061441Y-117772784D01*
X141087690Y-117733499D01*
X141195864Y-117778307D01*
X141346751Y-117808320D01*
X141500595Y-117808320D01*
X141651482Y-117778307D01*
X141793615Y-117719433D01*
X141921532Y-117633962D01*
X142030315Y-117525179D01*
X142115786Y-117397262D01*
X142174660Y-117255129D01*
X142204673Y-117104242D01*
X142204673Y-116950398D01*
X142174660Y-116799511D01*
X142115786Y-116657378D01*
X142030315Y-116529461D01*
X141995812Y-116494958D01*
X142643259Y-116494958D01*
X142643259Y-116648802D01*
X142673272Y-116799689D01*
X142732146Y-116941822D01*
X142817617Y-117069739D01*
X142926400Y-117178522D01*
X143054317Y-117263993D01*
X143196450Y-117322867D01*
X143347337Y-117352880D01*
X143501181Y-117352880D01*
X143652068Y-117322867D01*
X143794201Y-117263993D01*
X143922118Y-117178522D01*
X144030901Y-117069739D01*
X144116372Y-116941822D01*
X144175246Y-116799689D01*
X144205259Y-116648802D01*
X144205259Y-116494958D01*
X144185500Y-116395622D01*
X144260778Y-116410596D01*
X144256964Y-116429768D01*
X144256964Y-116583612D01*
X144286977Y-116734499D01*
X144345851Y-116876632D01*
X144431322Y-117004549D01*
X144540105Y-117113332D01*
X144668022Y-117198803D01*
X144810155Y-117257677D01*
X144961042Y-117287690D01*
X145114886Y-117287690D01*
X145265773Y-117257677D01*
X145407906Y-117198803D01*
X145535823Y-117113332D01*
X145644606Y-117004549D01*
X145730077Y-116876632D01*
X145788951Y-116734499D01*
X145818964Y-116583612D01*
X145818964Y-116429768D01*
X145788951Y-116278881D01*
X145730077Y-116136748D01*
X145644606Y-116008831D01*
X145535823Y-115900048D01*
X145407906Y-115814577D01*
X145265773Y-115755703D01*
X145149647Y-115732604D01*
X145153461Y-115713432D01*
X145153461Y-115559588D01*
X145123448Y-115408701D01*
X145064574Y-115266568D01*
X144979103Y-115138651D01*
X144870320Y-115029868D01*
X144742403Y-114944397D01*
X144600270Y-114885523D01*
X144449383Y-114855510D01*
X144295539Y-114855510D01*
X144144652Y-114885523D01*
X144002519Y-114944397D01*
X143874602Y-115029868D01*
X143765819Y-115138651D01*
X143680348Y-115266568D01*
X143621474Y-115408701D01*
X143591461Y-115559588D01*
X143591461Y-115713432D01*
X143611220Y-115812768D01*
X143501181Y-115790880D01*
X143347337Y-115790880D01*
X143196450Y-115820893D01*
X143054317Y-115879767D01*
X142926400Y-115965238D01*
X142817617Y-116074021D01*
X142732146Y-116201938D01*
X142673272Y-116344071D01*
X142643259Y-116494958D01*
X141995812Y-116494958D01*
X141921532Y-116420678D01*
X141793615Y-116335207D01*
X141651482Y-116276333D01*
X141500595Y-116246320D01*
X141346751Y-116246320D01*
X141195864Y-116276333D01*
X141126324Y-116305138D01*
X140673931Y-115852745D01*
X140779190Y-115809145D01*
X140907107Y-115723674D01*
X141015890Y-115614891D01*
X141101361Y-115486974D01*
X141160235Y-115344841D01*
X141190248Y-115193954D01*
X141190248Y-115040110D01*
X141160235Y-114889223D01*
X141101361Y-114747090D01*
X141015890Y-114619173D01*
X140907107Y-114510390D01*
X140779190Y-114424919D01*
X140707300Y-114395141D01*
X140724421Y-114309065D01*
X140724421Y-114155221D01*
X140694408Y-114004334D01*
X140635534Y-113862201D01*
X140550063Y-113734284D01*
X140441280Y-113625501D01*
X140313363Y-113540030D01*
X140171230Y-113481156D01*
X140020343Y-113451143D01*
X140010677Y-113451143D01*
X139981268Y-113303295D01*
X139922394Y-113161162D01*
X139836923Y-113033245D01*
X139728140Y-112924462D01*
X139600223Y-112838991D01*
X139458090Y-112780117D01*
X139307203Y-112750104D01*
X139153359Y-112750104D01*
X139002472Y-112780117D01*
X138860339Y-112838991D01*
X138732422Y-112924462D01*
X138623639Y-113033245D01*
X138538168Y-113161162D01*
X138479294Y-113303295D01*
X138449281Y-113454182D01*
X138449281Y-113608026D01*
X138454265Y-113633080D01*
X137830752Y-113009568D01*
X137817223Y-112993083D01*
X137751473Y-112939123D01*
X137676459Y-112899028D01*
X137595065Y-112874337D01*
X137531627Y-112868089D01*
X137510417Y-112866000D01*
X137489207Y-112868089D01*
X124146747Y-112868089D01*
X122728582Y-111449925D01*
X122731900Y-111433243D01*
X122731900Y-111190757D01*
X122684593Y-110952931D01*
X122591798Y-110728903D01*
X122457080Y-110527283D01*
X122285617Y-110355820D01*
X122083997Y-110221102D01*
X121859969Y-110128307D01*
X121622143Y-110081000D01*
X121379657Y-110081000D01*
X121141831Y-110128307D01*
X120917803Y-110221102D01*
X120716183Y-110355820D01*
X120544720Y-110527283D01*
X120410002Y-110728903D01*
X120317207Y-110952931D01*
X120269900Y-111190757D01*
X120269900Y-111433243D01*
X120317207Y-111671069D01*
X120410002Y-111895097D01*
X120544720Y-112096717D01*
X120716183Y-112268180D01*
X120917803Y-112402898D01*
X121141831Y-112495693D01*
X121379657Y-112543000D01*
X121622143Y-112543000D01*
X121859969Y-112495693D01*
X122083997Y-112402898D01*
X122285617Y-112268180D01*
X122305570Y-112248227D01*
X123227042Y-113169700D01*
X122220713Y-113169700D01*
X122152280Y-113067283D01*
X121980817Y-112895820D01*
X121779197Y-112761102D01*
X121555169Y-112668307D01*
X121317343Y-112621000D01*
X121074857Y-112621000D01*
X120837031Y-112668307D01*
X120613003Y-112761102D01*
X120411383Y-112895820D01*
X120239920Y-113067283D01*
X120105202Y-113268903D01*
X120012407Y-113492931D01*
X119965100Y-113730757D01*
X119406000Y-113730757D01*
X119406000Y-113011171D01*
X119482668Y-111618067D01*
X119709902Y-110252844D01*
X120085582Y-108920784D01*
X120605164Y-107637998D01*
X120992262Y-106920578D01*
X122155000Y-106920578D01*
X122155000Y-107074422D01*
X122185013Y-107225309D01*
X122243887Y-107367442D01*
X122329358Y-107495359D01*
X122402999Y-107569000D01*
X122329358Y-107642641D01*
X122243887Y-107770558D01*
X122185013Y-107912691D01*
X122155000Y-108063578D01*
X122155000Y-108217422D01*
X122185013Y-108368309D01*
X122243887Y-108510442D01*
X122329358Y-108638359D01*
X122438141Y-108747142D01*
X122566058Y-108832613D01*
X122708191Y-108891487D01*
X122859078Y-108921500D01*
X123012922Y-108921500D01*
X123163809Y-108891487D01*
X123305942Y-108832613D01*
X123433859Y-108747142D01*
X123542642Y-108638359D01*
X123628113Y-108510442D01*
X123686987Y-108368309D01*
X123717000Y-108217422D01*
X123717000Y-108063578D01*
X123686987Y-107912691D01*
X123628113Y-107770558D01*
X123542642Y-107642641D01*
X123469001Y-107569000D01*
X131508500Y-107569000D01*
X131508501Y-109974705D01*
X131433942Y-109924887D01*
X131291809Y-109866013D01*
X131140922Y-109836000D01*
X130987078Y-109836000D01*
X130836191Y-109866013D01*
X130694058Y-109924887D01*
X130566141Y-110010358D01*
X130457358Y-110119141D01*
X130371887Y-110247058D01*
X130313013Y-110389191D01*
X130283000Y-110540078D01*
X130283000Y-110693922D01*
X130313013Y-110844809D01*
X130371887Y-110986942D01*
X130457358Y-111114859D01*
X130566141Y-111223642D01*
X130615229Y-111256441D01*
X130582191Y-111263013D01*
X130440058Y-111321887D01*
X130312141Y-111407358D01*
X130203358Y-111516141D01*
X130117887Y-111644058D01*
X130059013Y-111786191D01*
X130029000Y-111937078D01*
X130029000Y-112090922D01*
X130059013Y-112241809D01*
X130117887Y-112383942D01*
X130203358Y-112511859D01*
X130312141Y-112620642D01*
X130440058Y-112706113D01*
X130582191Y-112764987D01*
X130733078Y-112795000D01*
X130886922Y-112795000D01*
X131037809Y-112764987D01*
X131179942Y-112706113D01*
X131307859Y-112620642D01*
X131416642Y-112511859D01*
X131502113Y-112383942D01*
X131560987Y-112241809D01*
X131591000Y-112090922D01*
X131591000Y-112041222D01*
X132464257Y-111167966D01*
X132486067Y-111150067D01*
X132557484Y-111063045D01*
X132610552Y-110963762D01*
X132643231Y-110856034D01*
X132651500Y-110772074D01*
X132651500Y-110772073D01*
X132654265Y-110744001D01*
X132651500Y-110715929D01*
X132651500Y-110667078D01*
X133077000Y-110667078D01*
X133077000Y-110820922D01*
X133107013Y-110971809D01*
X133165887Y-111113942D01*
X133251358Y-111241859D01*
X133360141Y-111350642D01*
X133488058Y-111436113D01*
X133630191Y-111494987D01*
X133781078Y-111525000D01*
X133934922Y-111525000D01*
X134085809Y-111494987D01*
X134227942Y-111436113D01*
X134355859Y-111350642D01*
X134464642Y-111241859D01*
X134550113Y-111113942D01*
X134608987Y-110971809D01*
X134639000Y-110820922D01*
X134639000Y-110667078D01*
X134608987Y-110516191D01*
X134550113Y-110374058D01*
X134464642Y-110246141D01*
X134355859Y-110137358D01*
X134227942Y-110051887D01*
X134085809Y-109993013D01*
X133934922Y-109963000D01*
X133781078Y-109963000D01*
X133630191Y-109993013D01*
X133488058Y-110051887D01*
X133360141Y-110137358D01*
X133251358Y-110246141D01*
X133165887Y-110374058D01*
X133107013Y-110516191D01*
X133077000Y-110667078D01*
X132651500Y-110667078D01*
X132651500Y-109778078D01*
X135617000Y-109778078D01*
X135617000Y-109931922D01*
X135647013Y-110082809D01*
X135705887Y-110224942D01*
X135791358Y-110352859D01*
X135900141Y-110461642D01*
X136028058Y-110547113D01*
X136170191Y-110605987D01*
X136321078Y-110636000D01*
X136474922Y-110636000D01*
X136625809Y-110605987D01*
X136767942Y-110547113D01*
X136895859Y-110461642D01*
X137004642Y-110352859D01*
X137090113Y-110224942D01*
X137148987Y-110082809D01*
X137179000Y-109931922D01*
X137179000Y-109778078D01*
X137148987Y-109627191D01*
X137090113Y-109485058D01*
X137004642Y-109357141D01*
X136895859Y-109248358D01*
X136767942Y-109162887D01*
X136625809Y-109104013D01*
X136474922Y-109074000D01*
X136321078Y-109074000D01*
X136170191Y-109104013D01*
X136028058Y-109162887D01*
X135900141Y-109248358D01*
X135791358Y-109357141D01*
X135705887Y-109485058D01*
X135647013Y-109627191D01*
X135617000Y-109778078D01*
X132651500Y-109778078D01*
X132651500Y-107569000D01*
X141304778Y-107569000D01*
X142557501Y-108821724D01*
X142557500Y-109836289D01*
X142544835Y-109817334D01*
X142436052Y-109708551D01*
X142308135Y-109623080D01*
X142166002Y-109564206D01*
X142015115Y-109534193D01*
X141861271Y-109534193D01*
X141710384Y-109564206D01*
X141568251Y-109623080D01*
X141440334Y-109708551D01*
X141331551Y-109817334D01*
X141246080Y-109945251D01*
X141187206Y-110087384D01*
X141157193Y-110238271D01*
X141157193Y-110392115D01*
X141159572Y-110404075D01*
X141138095Y-110408347D01*
X140995962Y-110467221D01*
X140868045Y-110552692D01*
X140759262Y-110661475D01*
X140673791Y-110789392D01*
X140614917Y-110931525D01*
X140584904Y-111082412D01*
X140584904Y-111236256D01*
X140614917Y-111387143D01*
X140673791Y-111529276D01*
X140759262Y-111657193D01*
X140868045Y-111765976D01*
X140995962Y-111851447D01*
X141138095Y-111910321D01*
X141288982Y-111940334D01*
X141442826Y-111940334D01*
X141593713Y-111910321D01*
X141735846Y-111851447D01*
X141863763Y-111765976D01*
X141972546Y-111657193D01*
X142058017Y-111529276D01*
X142116891Y-111387143D01*
X142146904Y-111236256D01*
X142146904Y-111082412D01*
X142144525Y-111070452D01*
X142166002Y-111066180D01*
X142308135Y-111007306D01*
X142436052Y-110921835D01*
X142544835Y-110813052D01*
X142564841Y-110783111D01*
X142565769Y-110792533D01*
X142598448Y-110900261D01*
X142651516Y-110999544D01*
X142722933Y-111086567D01*
X142744748Y-111104470D01*
X150056101Y-118415824D01*
X150056100Y-122532526D01*
X150053335Y-122560600D01*
X150059765Y-122625885D01*
X150064369Y-122672633D01*
X150097048Y-122780361D01*
X150150116Y-122879644D01*
X150221533Y-122966667D01*
X150243348Y-122984570D01*
X152230034Y-124971257D01*
X152247933Y-124993067D01*
X152334955Y-125064484D01*
X152434238Y-125117552D01*
X152541966Y-125150231D01*
X152625926Y-125158500D01*
X152625927Y-125158500D01*
X152653999Y-125161265D01*
X152682071Y-125158500D01*
X155232499Y-125158500D01*
X155267641Y-125193642D01*
X155395558Y-125279113D01*
X155537691Y-125337987D01*
X155688578Y-125368000D01*
X155842422Y-125368000D01*
X155993309Y-125337987D01*
X156135442Y-125279113D01*
X156263359Y-125193642D01*
X156372142Y-125084859D01*
X156457613Y-124956942D01*
X156516487Y-124814809D01*
X156546500Y-124663922D01*
X156546500Y-124510078D01*
X156521239Y-124383078D01*
X164700000Y-124383078D01*
X164700000Y-124536922D01*
X164730013Y-124687809D01*
X164788887Y-124829942D01*
X164874358Y-124957859D01*
X164983141Y-125066642D01*
X165111058Y-125152113D01*
X165253191Y-125210987D01*
X165404078Y-125241000D01*
X165557922Y-125241000D01*
X165708809Y-125210987D01*
X165850942Y-125152113D01*
X165978859Y-125066642D01*
X166087642Y-124957859D01*
X166173113Y-124829942D01*
X166231987Y-124687809D01*
X166262000Y-124536922D01*
X166262000Y-124383078D01*
X166231987Y-124232191D01*
X166173113Y-124090058D01*
X166087642Y-123962141D01*
X165978859Y-123853358D01*
X165850942Y-123767887D01*
X165708809Y-123709013D01*
X165557922Y-123679000D01*
X165404078Y-123679000D01*
X165253191Y-123709013D01*
X165111058Y-123767887D01*
X164983141Y-123853358D01*
X164874358Y-123962141D01*
X164788887Y-124090058D01*
X164730013Y-124232191D01*
X164700000Y-124383078D01*
X156521239Y-124383078D01*
X156516487Y-124359191D01*
X156457613Y-124217058D01*
X156372142Y-124089141D01*
X156263359Y-123980358D01*
X156135442Y-123894887D01*
X155993309Y-123836013D01*
X155842422Y-123806000D01*
X155688578Y-123806000D01*
X155537691Y-123836013D01*
X155395558Y-123894887D01*
X155267641Y-123980358D01*
X155232499Y-124015500D01*
X152890723Y-124015500D01*
X151199100Y-122323878D01*
X151199100Y-121843078D01*
X163557000Y-121843078D01*
X163557000Y-121996922D01*
X163587013Y-122147809D01*
X163645887Y-122289942D01*
X163731358Y-122417859D01*
X163840141Y-122526642D01*
X163968058Y-122612113D01*
X164110191Y-122670987D01*
X164261078Y-122701000D01*
X164414922Y-122701000D01*
X164565809Y-122670987D01*
X164707942Y-122612113D01*
X164835859Y-122526642D01*
X164944642Y-122417859D01*
X165030113Y-122289942D01*
X165088987Y-122147809D01*
X165119000Y-121996922D01*
X165119000Y-121843078D01*
X165335000Y-121843078D01*
X165335000Y-121996922D01*
X165365013Y-122147809D01*
X165423887Y-122289942D01*
X165509358Y-122417859D01*
X165618141Y-122526642D01*
X165746058Y-122612113D01*
X165888191Y-122670987D01*
X166039078Y-122701000D01*
X166192922Y-122701000D01*
X166343809Y-122670987D01*
X166485942Y-122612113D01*
X166613859Y-122526642D01*
X166722642Y-122417859D01*
X166808113Y-122289942D01*
X166866987Y-122147809D01*
X166897000Y-121996922D01*
X166897000Y-121843078D01*
X166866987Y-121692191D01*
X166808113Y-121550058D01*
X166722642Y-121422141D01*
X166613859Y-121313358D01*
X166485942Y-121227887D01*
X166343809Y-121169013D01*
X166192922Y-121139000D01*
X166039078Y-121139000D01*
X165888191Y-121169013D01*
X165746058Y-121227887D01*
X165618141Y-121313358D01*
X165509358Y-121422141D01*
X165423887Y-121550058D01*
X165365013Y-121692191D01*
X165335000Y-121843078D01*
X165119000Y-121843078D01*
X165088987Y-121692191D01*
X165030113Y-121550058D01*
X164944642Y-121422141D01*
X164835859Y-121313358D01*
X164707942Y-121227887D01*
X164565809Y-121169013D01*
X164414922Y-121139000D01*
X164261078Y-121139000D01*
X164110191Y-121169013D01*
X163968058Y-121227887D01*
X163840141Y-121313358D01*
X163731358Y-121422141D01*
X163645887Y-121550058D01*
X163587013Y-121692191D01*
X163557000Y-121843078D01*
X151199100Y-121843078D01*
X151199100Y-121328346D01*
X151216721Y-121354718D01*
X151388184Y-121526181D01*
X151589804Y-121660899D01*
X151813832Y-121753694D01*
X152051658Y-121801001D01*
X152294144Y-121801001D01*
X152531970Y-121753694D01*
X152755998Y-121660899D01*
X152957618Y-121526181D01*
X153129081Y-121354718D01*
X153263799Y-121153098D01*
X153356594Y-120929070D01*
X153403901Y-120691244D01*
X153403901Y-120448758D01*
X154521800Y-120448758D01*
X154521800Y-120691244D01*
X154569107Y-120929070D01*
X154661902Y-121153098D01*
X154796620Y-121354718D01*
X154968083Y-121526181D01*
X155169703Y-121660899D01*
X155393731Y-121753694D01*
X155631557Y-121801001D01*
X155874043Y-121801001D01*
X156111869Y-121753694D01*
X156335897Y-121660899D01*
X156537517Y-121526181D01*
X156708980Y-121354718D01*
X156843698Y-121153098D01*
X156936493Y-120929070D01*
X156983800Y-120691244D01*
X156983800Y-120448758D01*
X156936493Y-120210932D01*
X156902382Y-120128578D01*
X163557000Y-120128578D01*
X163557000Y-120282422D01*
X163587013Y-120433309D01*
X163645887Y-120575442D01*
X163731358Y-120703359D01*
X163840141Y-120812142D01*
X163968058Y-120897613D01*
X164110191Y-120956487D01*
X164261078Y-120986500D01*
X164414922Y-120986500D01*
X164565809Y-120956487D01*
X164707942Y-120897613D01*
X164835859Y-120812142D01*
X164944642Y-120703359D01*
X165030113Y-120575442D01*
X165088987Y-120433309D01*
X165119000Y-120282422D01*
X165119000Y-120128578D01*
X165088987Y-119977691D01*
X165030113Y-119835558D01*
X164944642Y-119707641D01*
X164835859Y-119598858D01*
X164707942Y-119513387D01*
X164565809Y-119454513D01*
X164414922Y-119424500D01*
X164261078Y-119424500D01*
X164110191Y-119454513D01*
X163968058Y-119513387D01*
X163840141Y-119598858D01*
X163731358Y-119707641D01*
X163645887Y-119835558D01*
X163587013Y-119977691D01*
X163557000Y-120128578D01*
X156902382Y-120128578D01*
X156843698Y-119986904D01*
X156708980Y-119785284D01*
X156537517Y-119613821D01*
X156335897Y-119479103D01*
X156111869Y-119386308D01*
X155874043Y-119339001D01*
X155631557Y-119339001D01*
X155393731Y-119386308D01*
X155169703Y-119479103D01*
X154968083Y-119613821D01*
X154796620Y-119785284D01*
X154661902Y-119986904D01*
X154569107Y-120210932D01*
X154521800Y-120448758D01*
X153403901Y-120448758D01*
X153356594Y-120210932D01*
X153263799Y-119986904D01*
X153129081Y-119785284D01*
X152957618Y-119613821D01*
X152755998Y-119479103D01*
X152531970Y-119386308D01*
X152294144Y-119339001D01*
X152051658Y-119339001D01*
X151813832Y-119386308D01*
X151589804Y-119479103D01*
X151388184Y-119613821D01*
X151216721Y-119785284D01*
X151199100Y-119811656D01*
X151199100Y-119063500D01*
X151285004Y-119120899D01*
X151509032Y-119213694D01*
X151746858Y-119261001D01*
X151989344Y-119261001D01*
X152227170Y-119213694D01*
X152451198Y-119120899D01*
X152652818Y-118986181D01*
X152824281Y-118814718D01*
X152958999Y-118613098D01*
X153051794Y-118389070D01*
X153099101Y-118151244D01*
X153099101Y-117908758D01*
X154217000Y-117908758D01*
X154217000Y-118151244D01*
X154264307Y-118389070D01*
X154357102Y-118613098D01*
X154491820Y-118814718D01*
X154663283Y-118986181D01*
X154864903Y-119120899D01*
X155088931Y-119213694D01*
X155326757Y-119261001D01*
X155569243Y-119261001D01*
X155807069Y-119213694D01*
X156031097Y-119120899D01*
X156232717Y-118986181D01*
X156404180Y-118814718D01*
X156538898Y-118613098D01*
X156595031Y-118477578D01*
X164001500Y-118477578D01*
X164001500Y-118631422D01*
X164031513Y-118782309D01*
X164090387Y-118924442D01*
X164175858Y-119052359D01*
X164284641Y-119161142D01*
X164412558Y-119246613D01*
X164554691Y-119305487D01*
X164705578Y-119335500D01*
X164859422Y-119335500D01*
X165010309Y-119305487D01*
X165152442Y-119246613D01*
X165280359Y-119161142D01*
X165389142Y-119052359D01*
X165474613Y-118924442D01*
X165533487Y-118782309D01*
X165563500Y-118631422D01*
X165563500Y-118477578D01*
X165533487Y-118326691D01*
X165474613Y-118184558D01*
X165389142Y-118056641D01*
X165280359Y-117947858D01*
X165152442Y-117862387D01*
X165010309Y-117803513D01*
X164859422Y-117773500D01*
X164705578Y-117773500D01*
X164554691Y-117803513D01*
X164412558Y-117862387D01*
X164284641Y-117947858D01*
X164175858Y-118056641D01*
X164090387Y-118184558D01*
X164031513Y-118326691D01*
X164001500Y-118477578D01*
X156595031Y-118477578D01*
X156631693Y-118389070D01*
X156679000Y-118151244D01*
X156679000Y-117908758D01*
X156631693Y-117670932D01*
X156538898Y-117446904D01*
X156404180Y-117245284D01*
X156232717Y-117073821D01*
X156085202Y-116975255D01*
X156602800Y-116978073D01*
X156727282Y-116965813D01*
X156846980Y-116929503D01*
X156957294Y-116870538D01*
X157053985Y-116791186D01*
X157133337Y-116694495D01*
X157192302Y-116584181D01*
X157228612Y-116464483D01*
X157240872Y-116340001D01*
X157237800Y-115775751D01*
X157079050Y-115617001D01*
X155879800Y-115617001D01*
X155879800Y-115637001D01*
X155625800Y-115637001D01*
X155625800Y-115617001D01*
X154426550Y-115617001D01*
X154267800Y-115775751D01*
X154264728Y-116340001D01*
X154276988Y-116464483D01*
X154313298Y-116584181D01*
X154372263Y-116694495D01*
X154451615Y-116791186D01*
X154548306Y-116870538D01*
X154658620Y-116929503D01*
X154778318Y-116965813D01*
X154818941Y-116969814D01*
X154663283Y-117073821D01*
X154491820Y-117245284D01*
X154357102Y-117446904D01*
X154264307Y-117670932D01*
X154217000Y-117908758D01*
X153099101Y-117908758D01*
X153051794Y-117670932D01*
X152958999Y-117446904D01*
X152824281Y-117245284D01*
X152652818Y-117073821D01*
X152451198Y-116939103D01*
X152227170Y-116846308D01*
X151989344Y-116799001D01*
X151746858Y-116799001D01*
X151509032Y-116846308D01*
X151285004Y-116939103D01*
X151083384Y-117073821D01*
X150911921Y-117245284D01*
X150777203Y-117446904D01*
X150755653Y-117498930D01*
X149945773Y-116689050D01*
X149968533Y-116689050D01*
X150119420Y-116659037D01*
X150261553Y-116600163D01*
X150389470Y-116514692D01*
X150498253Y-116405909D01*
X150583724Y-116277992D01*
X150642598Y-116135859D01*
X150672611Y-115984972D01*
X150672611Y-115831128D01*
X150642598Y-115680241D01*
X150583724Y-115538108D01*
X150498253Y-115410191D01*
X150389470Y-115301408D01*
X150261553Y-115215937D01*
X150119420Y-115157063D01*
X149968533Y-115127050D01*
X149814689Y-115127050D01*
X149663802Y-115157063D01*
X149521669Y-115215937D01*
X149393752Y-115301408D01*
X149284969Y-115410191D01*
X149199498Y-115538108D01*
X149140624Y-115680241D01*
X149110611Y-115831128D01*
X149110611Y-115853888D01*
X145939744Y-112683021D01*
X146586443Y-112683021D01*
X146586443Y-112836865D01*
X146616456Y-112987752D01*
X146675330Y-113129885D01*
X146760801Y-113257802D01*
X146869584Y-113366585D01*
X146997501Y-113452056D01*
X147139634Y-113510930D01*
X147290521Y-113540943D01*
X147310376Y-113540943D01*
X147301000Y-113588078D01*
X147301000Y-113741922D01*
X147331013Y-113892809D01*
X147389887Y-114034942D01*
X147475358Y-114162859D01*
X147584141Y-114271642D01*
X147712058Y-114357113D01*
X147854191Y-114415987D01*
X148005078Y-114446000D01*
X148158922Y-114446000D01*
X148202035Y-114437424D01*
X148220013Y-114527809D01*
X148278887Y-114669942D01*
X148364358Y-114797859D01*
X148473141Y-114906642D01*
X148601058Y-114992113D01*
X148743191Y-115050987D01*
X148894078Y-115081000D01*
X149047922Y-115081000D01*
X149198809Y-115050987D01*
X149340942Y-114992113D01*
X149468859Y-114906642D01*
X149577642Y-114797859D01*
X149663113Y-114669942D01*
X149675515Y-114640001D01*
X150940058Y-114640001D01*
X150940058Y-116340001D01*
X150947414Y-116414690D01*
X150969200Y-116486509D01*
X151004579Y-116552697D01*
X151052190Y-116610712D01*
X151110205Y-116658323D01*
X151176393Y-116693702D01*
X151248212Y-116715488D01*
X151322901Y-116722844D01*
X153022901Y-116722844D01*
X153097590Y-116715488D01*
X153169409Y-116693702D01*
X153235597Y-116658323D01*
X153293612Y-116610712D01*
X153341223Y-116552697D01*
X153376602Y-116486509D01*
X153398388Y-116414690D01*
X153405744Y-116340001D01*
X153405744Y-114640001D01*
X154264728Y-114640001D01*
X154267800Y-115204251D01*
X154426550Y-115363001D01*
X155625800Y-115363001D01*
X155625800Y-114163751D01*
X155879800Y-114163751D01*
X155879800Y-115363001D01*
X157079050Y-115363001D01*
X157237800Y-115204251D01*
X157238647Y-115048578D01*
X158350000Y-115048578D01*
X158350000Y-115202422D01*
X158380013Y-115353309D01*
X158438887Y-115495442D01*
X158524358Y-115623359D01*
X158633141Y-115732142D01*
X158761058Y-115817613D01*
X158903191Y-115876487D01*
X159054078Y-115906500D01*
X159207922Y-115906500D01*
X159358809Y-115876487D01*
X159500942Y-115817613D01*
X159628859Y-115732142D01*
X159737642Y-115623359D01*
X159823113Y-115495442D01*
X159881987Y-115353309D01*
X159912000Y-115202422D01*
X159912000Y-115048578D01*
X159881987Y-114897691D01*
X159823113Y-114755558D01*
X159737642Y-114627641D01*
X159628859Y-114518858D01*
X159500942Y-114433387D01*
X159358809Y-114374513D01*
X159207922Y-114344500D01*
X159054078Y-114344500D01*
X158903191Y-114374513D01*
X158761058Y-114433387D01*
X158633141Y-114518858D01*
X158524358Y-114627641D01*
X158438887Y-114755558D01*
X158380013Y-114897691D01*
X158350000Y-115048578D01*
X157238647Y-115048578D01*
X157240872Y-114640001D01*
X157228612Y-114515519D01*
X157192302Y-114395821D01*
X157133337Y-114285507D01*
X157053985Y-114188816D01*
X156957294Y-114109464D01*
X156846980Y-114050499D01*
X156727282Y-114014189D01*
X156602800Y-114001929D01*
X156038550Y-114005001D01*
X155879800Y-114163751D01*
X155625800Y-114163751D01*
X155467050Y-114005001D01*
X154902800Y-114001929D01*
X154778318Y-114014189D01*
X154658620Y-114050499D01*
X154548306Y-114109464D01*
X154451615Y-114188816D01*
X154372263Y-114285507D01*
X154313298Y-114395821D01*
X154276988Y-114515519D01*
X154264728Y-114640001D01*
X153405744Y-114640001D01*
X153398388Y-114565312D01*
X153376602Y-114493493D01*
X153341223Y-114427305D01*
X153293612Y-114369290D01*
X153235597Y-114321679D01*
X153169409Y-114286300D01*
X153097590Y-114264514D01*
X153022901Y-114257158D01*
X151322901Y-114257158D01*
X151248212Y-114264514D01*
X151176393Y-114286300D01*
X151110205Y-114321679D01*
X151052190Y-114369290D01*
X151004579Y-114427305D01*
X150969200Y-114493493D01*
X150947414Y-114565312D01*
X150940058Y-114640001D01*
X149675515Y-114640001D01*
X149721987Y-114527809D01*
X149752000Y-114376922D01*
X149752000Y-114223078D01*
X149721987Y-114072191D01*
X149663113Y-113930058D01*
X149577642Y-113802141D01*
X149468859Y-113693358D01*
X149340942Y-113607887D01*
X149198809Y-113549013D01*
X149047922Y-113519000D01*
X148894078Y-113519000D01*
X148850965Y-113527576D01*
X148832987Y-113437191D01*
X148774113Y-113295058D01*
X148688642Y-113167141D01*
X148579859Y-113058358D01*
X148451942Y-112972887D01*
X148309809Y-112914013D01*
X148158922Y-112884000D01*
X148139067Y-112884000D01*
X148148443Y-112836865D01*
X148148443Y-112683021D01*
X148118430Y-112532134D01*
X148059556Y-112390001D01*
X147974085Y-112262084D01*
X147865302Y-112153301D01*
X147737385Y-112067830D01*
X147595252Y-112008956D01*
X147444365Y-111978943D01*
X147290521Y-111978943D01*
X147139634Y-112008956D01*
X146997501Y-112067830D01*
X146869584Y-112153301D01*
X146760801Y-112262084D01*
X146675330Y-112390001D01*
X146616456Y-112532134D01*
X146586443Y-112683021D01*
X145939744Y-112683021D01*
X144177801Y-110921078D01*
X147428000Y-110921078D01*
X147428000Y-111074922D01*
X147458013Y-111225809D01*
X147516887Y-111367942D01*
X147602358Y-111495859D01*
X147711141Y-111604642D01*
X147839058Y-111690113D01*
X147981191Y-111748987D01*
X148132078Y-111779000D01*
X148285922Y-111779000D01*
X148436809Y-111748987D01*
X148578942Y-111690113D01*
X148706859Y-111604642D01*
X148815642Y-111495859D01*
X148901113Y-111367942D01*
X148959987Y-111225809D01*
X148990000Y-111074922D01*
X148990000Y-110921078D01*
X148959987Y-110770191D01*
X148901113Y-110628058D01*
X148815642Y-110500141D01*
X148706859Y-110391358D01*
X148644331Y-110349578D01*
X159112000Y-110349578D01*
X159112000Y-110503422D01*
X159142013Y-110654309D01*
X159200887Y-110796442D01*
X159286358Y-110924359D01*
X159395141Y-111033142D01*
X159523058Y-111118613D01*
X159665191Y-111177487D01*
X159816078Y-111207500D01*
X159969922Y-111207500D01*
X160120809Y-111177487D01*
X160262942Y-111118613D01*
X160390859Y-111033142D01*
X160464500Y-110959501D01*
X160474641Y-110969642D01*
X160602558Y-111055113D01*
X160744691Y-111113987D01*
X160895578Y-111144000D01*
X161049422Y-111144000D01*
X161200309Y-111113987D01*
X161342442Y-111055113D01*
X161470359Y-110969642D01*
X161579142Y-110860859D01*
X161664613Y-110732942D01*
X161723487Y-110590809D01*
X161753500Y-110439922D01*
X161753500Y-110286078D01*
X161723487Y-110135191D01*
X161664613Y-109993058D01*
X161579142Y-109865141D01*
X161470359Y-109756358D01*
X161342442Y-109670887D01*
X161200309Y-109612013D01*
X161049422Y-109582000D01*
X160895578Y-109582000D01*
X160744691Y-109612013D01*
X160602558Y-109670887D01*
X160474641Y-109756358D01*
X160401000Y-109829999D01*
X160390859Y-109819858D01*
X160262942Y-109734387D01*
X160120809Y-109675513D01*
X159969922Y-109645500D01*
X159816078Y-109645500D01*
X159665191Y-109675513D01*
X159523058Y-109734387D01*
X159395141Y-109819858D01*
X159286358Y-109928641D01*
X159200887Y-110056558D01*
X159142013Y-110198691D01*
X159112000Y-110349578D01*
X148644331Y-110349578D01*
X148578942Y-110305887D01*
X148436809Y-110247013D01*
X148285922Y-110217000D01*
X148132078Y-110217000D01*
X147981191Y-110247013D01*
X147839058Y-110305887D01*
X147711141Y-110391358D01*
X147602358Y-110500141D01*
X147516887Y-110628058D01*
X147458013Y-110770191D01*
X147428000Y-110921078D01*
X144177801Y-110921078D01*
X143700500Y-110443778D01*
X143700500Y-108613073D01*
X143703265Y-108584999D01*
X143692231Y-108472966D01*
X143659552Y-108365238D01*
X143606484Y-108265955D01*
X143566654Y-108217422D01*
X143535067Y-108178933D01*
X143513257Y-108161034D01*
X141965470Y-106613248D01*
X141947567Y-106591433D01*
X141860545Y-106520016D01*
X141761262Y-106466948D01*
X141653534Y-106434269D01*
X141569574Y-106426000D01*
X141541500Y-106423235D01*
X141513426Y-106426000D01*
X132108074Y-106426000D01*
X132080000Y-106423235D01*
X132051926Y-106426000D01*
X123469001Y-106426000D01*
X123433859Y-106390858D01*
X123305942Y-106305387D01*
X123163809Y-106246513D01*
X123012922Y-106216500D01*
X122859078Y-106216500D01*
X122708191Y-106246513D01*
X122566058Y-106305387D01*
X122438141Y-106390858D01*
X122329358Y-106499641D01*
X122243887Y-106627558D01*
X122185013Y-106769691D01*
X122155000Y-106920578D01*
X120992262Y-106920578D01*
X121262372Y-106419977D01*
X122049273Y-105281426D01*
X122956359Y-104236102D01*
X123972677Y-103296627D01*
X125085937Y-102474360D01*
X126282720Y-101779213D01*
X126858417Y-101524700D01*
X134339657Y-101524700D01*
X134339657Y-103224700D01*
X134347013Y-103299389D01*
X134368799Y-103371208D01*
X134404178Y-103437396D01*
X134451789Y-103495411D01*
X134509804Y-103543022D01*
X134575992Y-103578401D01*
X134647811Y-103600187D01*
X134722500Y-103607543D01*
X136422500Y-103607543D01*
X136497189Y-103600187D01*
X136569008Y-103578401D01*
X136635196Y-103543022D01*
X136693211Y-103495411D01*
X136740822Y-103437396D01*
X136776201Y-103371208D01*
X136797987Y-103299389D01*
X136805343Y-103224700D01*
X136805343Y-102558257D01*
X136881500Y-102558257D01*
X136881500Y-102800743D01*
X136928807Y-103038569D01*
X137021602Y-103262597D01*
X137156320Y-103464217D01*
X137327783Y-103635680D01*
X137529403Y-103770398D01*
X137753431Y-103863193D01*
X137991257Y-103910500D01*
X138233743Y-103910500D01*
X138471569Y-103863193D01*
X138695597Y-103770398D01*
X138897217Y-103635680D01*
X139068680Y-103464217D01*
X139203398Y-103262597D01*
X139296193Y-103038569D01*
X139343500Y-102800743D01*
X139343500Y-102558257D01*
X139296193Y-102320431D01*
X139268452Y-102253457D01*
X139421500Y-102253457D01*
X139421500Y-102495943D01*
X139468807Y-102733769D01*
X139561602Y-102957797D01*
X139696320Y-103159417D01*
X139867783Y-103330880D01*
X140069403Y-103465598D01*
X140293431Y-103558393D01*
X140531257Y-103605700D01*
X140773743Y-103605700D01*
X141011569Y-103558393D01*
X141235597Y-103465598D01*
X141437217Y-103330880D01*
X141608680Y-103159417D01*
X141743398Y-102957797D01*
X141836193Y-102733769D01*
X141871104Y-102558257D01*
X141961500Y-102558257D01*
X141961500Y-102800743D01*
X142008807Y-103038569D01*
X142101602Y-103262597D01*
X142236320Y-103464217D01*
X142407783Y-103635680D01*
X142609403Y-103770398D01*
X142833431Y-103863193D01*
X143071257Y-103910500D01*
X143313743Y-103910500D01*
X143551569Y-103863193D01*
X143775597Y-103770398D01*
X143977217Y-103635680D01*
X144148680Y-103464217D01*
X144283398Y-103262597D01*
X144376193Y-103038569D01*
X144423500Y-102800743D01*
X144423500Y-102558257D01*
X144376193Y-102320431D01*
X144348452Y-102253457D01*
X144501500Y-102253457D01*
X144501500Y-102495943D01*
X144548807Y-102733769D01*
X144641602Y-102957797D01*
X144776320Y-103159417D01*
X144947783Y-103330880D01*
X145149403Y-103465598D01*
X145373431Y-103558393D01*
X145611257Y-103605700D01*
X145853743Y-103605700D01*
X146091569Y-103558393D01*
X146315597Y-103465598D01*
X146517217Y-103330880D01*
X146688680Y-103159417D01*
X146823398Y-102957797D01*
X146916193Y-102733769D01*
X146951104Y-102558257D01*
X147041500Y-102558257D01*
X147041500Y-102800743D01*
X147088807Y-103038569D01*
X147181602Y-103262597D01*
X147316320Y-103464217D01*
X147487783Y-103635680D01*
X147689403Y-103770398D01*
X147913431Y-103863193D01*
X148151257Y-103910500D01*
X148393743Y-103910500D01*
X148631569Y-103863193D01*
X148855597Y-103770398D01*
X149057217Y-103635680D01*
X149228680Y-103464217D01*
X149363398Y-103262597D01*
X149456193Y-103038569D01*
X149503500Y-102800743D01*
X149503500Y-102558257D01*
X149456193Y-102320431D01*
X149428452Y-102253457D01*
X149581500Y-102253457D01*
X149581500Y-102495943D01*
X149628807Y-102733769D01*
X149721602Y-102957797D01*
X149856320Y-103159417D01*
X150027783Y-103330880D01*
X150229403Y-103465598D01*
X150453431Y-103558393D01*
X150691257Y-103605700D01*
X150933743Y-103605700D01*
X151171569Y-103558393D01*
X151395597Y-103465598D01*
X151597217Y-103330880D01*
X151768680Y-103159417D01*
X151903398Y-102957797D01*
X151996193Y-102733769D01*
X152031104Y-102558257D01*
X152121500Y-102558257D01*
X152121500Y-102800743D01*
X152168807Y-103038569D01*
X152261602Y-103262597D01*
X152396320Y-103464217D01*
X152567783Y-103635680D01*
X152769403Y-103770398D01*
X152993431Y-103863193D01*
X153231257Y-103910500D01*
X153473743Y-103910500D01*
X153711569Y-103863193D01*
X153935597Y-103770398D01*
X154137217Y-103635680D01*
X154308680Y-103464217D01*
X154443398Y-103262597D01*
X154536193Y-103038569D01*
X154583500Y-102800743D01*
X154583500Y-102558257D01*
X154536193Y-102320431D01*
X154508452Y-102253457D01*
X154661500Y-102253457D01*
X154661500Y-102495943D01*
X154708807Y-102733769D01*
X154801602Y-102957797D01*
X154936320Y-103159417D01*
X155107783Y-103330880D01*
X155309403Y-103465598D01*
X155533431Y-103558393D01*
X155771257Y-103605700D01*
X156013743Y-103605700D01*
X156251569Y-103558393D01*
X156475597Y-103465598D01*
X156677217Y-103330880D01*
X156848680Y-103159417D01*
X156983398Y-102957797D01*
X157076193Y-102733769D01*
X157111104Y-102558257D01*
X157201500Y-102558257D01*
X157201500Y-102800743D01*
X157248807Y-103038569D01*
X157341602Y-103262597D01*
X157476320Y-103464217D01*
X157647783Y-103635680D01*
X157849403Y-103770398D01*
X158073431Y-103863193D01*
X158311257Y-103910500D01*
X158553743Y-103910500D01*
X158791569Y-103863193D01*
X159015597Y-103770398D01*
X159217217Y-103635680D01*
X159388680Y-103464217D01*
X159523398Y-103262597D01*
X159616193Y-103038569D01*
X159663500Y-102800743D01*
X159663500Y-102558257D01*
X159616193Y-102320431D01*
X159523398Y-102096403D01*
X159388680Y-101894783D01*
X159217217Y-101723320D01*
X159015597Y-101588602D01*
X158791569Y-101495807D01*
X158553743Y-101448500D01*
X158311257Y-101448500D01*
X158073431Y-101495807D01*
X157849403Y-101588602D01*
X157647783Y-101723320D01*
X157476320Y-101894783D01*
X157341602Y-102096403D01*
X157248807Y-102320431D01*
X157201500Y-102558257D01*
X157111104Y-102558257D01*
X157123500Y-102495943D01*
X157123500Y-102253457D01*
X157076193Y-102015631D01*
X156983398Y-101791603D01*
X156848680Y-101589983D01*
X156677217Y-101418520D01*
X156475597Y-101283802D01*
X156251569Y-101191007D01*
X156013743Y-101143700D01*
X155771257Y-101143700D01*
X155533431Y-101191007D01*
X155309403Y-101283802D01*
X155107783Y-101418520D01*
X154936320Y-101589983D01*
X154801602Y-101791603D01*
X154708807Y-102015631D01*
X154661500Y-102253457D01*
X154508452Y-102253457D01*
X154443398Y-102096403D01*
X154308680Y-101894783D01*
X154137217Y-101723320D01*
X153935597Y-101588602D01*
X153711569Y-101495807D01*
X153473743Y-101448500D01*
X153231257Y-101448500D01*
X152993431Y-101495807D01*
X152769403Y-101588602D01*
X152567783Y-101723320D01*
X152396320Y-101894783D01*
X152261602Y-102096403D01*
X152168807Y-102320431D01*
X152121500Y-102558257D01*
X152031104Y-102558257D01*
X152043500Y-102495943D01*
X152043500Y-102253457D01*
X151996193Y-102015631D01*
X151903398Y-101791603D01*
X151768680Y-101589983D01*
X151597217Y-101418520D01*
X151395597Y-101283802D01*
X151171569Y-101191007D01*
X150933743Y-101143700D01*
X150691257Y-101143700D01*
X150453431Y-101191007D01*
X150229403Y-101283802D01*
X150027783Y-101418520D01*
X149856320Y-101589983D01*
X149721602Y-101791603D01*
X149628807Y-102015631D01*
X149581500Y-102253457D01*
X149428452Y-102253457D01*
X149363398Y-102096403D01*
X149228680Y-101894783D01*
X149057217Y-101723320D01*
X148855597Y-101588602D01*
X148631569Y-101495807D01*
X148393743Y-101448500D01*
X148151257Y-101448500D01*
X147913431Y-101495807D01*
X147689403Y-101588602D01*
X147487783Y-101723320D01*
X147316320Y-101894783D01*
X147181602Y-102096403D01*
X147088807Y-102320431D01*
X147041500Y-102558257D01*
X146951104Y-102558257D01*
X146963500Y-102495943D01*
X146963500Y-102253457D01*
X146916193Y-102015631D01*
X146823398Y-101791603D01*
X146688680Y-101589983D01*
X146517217Y-101418520D01*
X146315597Y-101283802D01*
X146091569Y-101191007D01*
X145853743Y-101143700D01*
X145611257Y-101143700D01*
X145373431Y-101191007D01*
X145149403Y-101283802D01*
X144947783Y-101418520D01*
X144776320Y-101589983D01*
X144641602Y-101791603D01*
X144548807Y-102015631D01*
X144501500Y-102253457D01*
X144348452Y-102253457D01*
X144283398Y-102096403D01*
X144148680Y-101894783D01*
X143977217Y-101723320D01*
X143775597Y-101588602D01*
X143551569Y-101495807D01*
X143313743Y-101448500D01*
X143071257Y-101448500D01*
X142833431Y-101495807D01*
X142609403Y-101588602D01*
X142407783Y-101723320D01*
X142236320Y-101894783D01*
X142101602Y-102096403D01*
X142008807Y-102320431D01*
X141961500Y-102558257D01*
X141871104Y-102558257D01*
X141883500Y-102495943D01*
X141883500Y-102253457D01*
X141836193Y-102015631D01*
X141743398Y-101791603D01*
X141608680Y-101589983D01*
X141437217Y-101418520D01*
X141235597Y-101283802D01*
X141011569Y-101191007D01*
X140773743Y-101143700D01*
X140531257Y-101143700D01*
X140293431Y-101191007D01*
X140069403Y-101283802D01*
X139867783Y-101418520D01*
X139696320Y-101589983D01*
X139561602Y-101791603D01*
X139468807Y-102015631D01*
X139421500Y-102253457D01*
X139268452Y-102253457D01*
X139203398Y-102096403D01*
X139068680Y-101894783D01*
X138897217Y-101723320D01*
X138695597Y-101588602D01*
X138471569Y-101495807D01*
X138233743Y-101448500D01*
X137991257Y-101448500D01*
X137753431Y-101495807D01*
X137529403Y-101588602D01*
X137327783Y-101723320D01*
X137156320Y-101894783D01*
X137021602Y-102096403D01*
X136928807Y-102320431D01*
X136881500Y-102558257D01*
X136805343Y-102558257D01*
X136805343Y-101524700D01*
X136797987Y-101450011D01*
X136776201Y-101378192D01*
X136740822Y-101312004D01*
X136693211Y-101253989D01*
X136635196Y-101206378D01*
X136569008Y-101170999D01*
X136497189Y-101149213D01*
X136422500Y-101141857D01*
X134722500Y-101141857D01*
X134647811Y-101149213D01*
X134575992Y-101170999D01*
X134509804Y-101206378D01*
X134451789Y-101253989D01*
X134404178Y-101312004D01*
X134368799Y-101378192D01*
X134347013Y-101450011D01*
X134339657Y-101524700D01*
X126858417Y-101524700D01*
X127548559Y-101219592D01*
X128868146Y-100802260D01*
X130225577Y-100532250D01*
X131612392Y-100412139D01*
X132003194Y-100406000D01*
X160988829Y-100406000D01*
X162381933Y-100482668D01*
%TD*%
M02*
