M48
; DRILL file {KiCad (5.1.6)-1} date 01/10/21 13:33:01
; FORMAT={-:-/ absolute / inch / decimal}
; #@! TF.CreationDate,2021-01-10T13:33:01-07:00
; #@! TF.GenerationSoftware,Kicad,Pcbnew,(5.1.6)-1
FMAT,2
INCH
T1C0.0157
T2C0.0394
%
G90
G05
T1
X4.84Y-4.2125
X4.84Y-4.2575
X4.92Y-4.87
X5.03Y-4.255
X5.135Y-4.5125
X5.1375Y-4.685
X5.15Y-4.41
X5.16Y-4.355
X5.1725Y-4.74
X5.1825Y-4.685
X5.215Y-4.8325
X5.2296Y-4.7846
X5.235Y-4.58
X5.24Y-5.03
X5.2617Y-4.7535
X5.2681Y-4.8381
X5.27Y-4.36
X5.272Y-4.9627
X5.31Y-4.865
X5.3581Y-4.5952
X5.37Y-4.325
X5.3852Y-4.6864
X5.3962Y-4.5696
X5.415Y-4.72
X5.42Y-4.625
X5.4352Y-4.6619
X5.4791Y-4.635
X5.4815Y-4.4697
X5.494Y-4.6739
X5.5096Y-4.4973
X5.515Y-4.965
X5.5279Y-4.5322
X5.5297Y-4.6171
X5.5324Y-4.6648
X5.535Y-4.275
X5.5575Y-4.8875
X5.5656Y-4.3764
X5.5679Y-4.6074
X5.5881Y-4.3431
X5.5925Y-4.8225
X5.6025Y-4.7554
X5.6466Y-4.5894
X5.65Y-5.01
X5.684Y-4.5526
X5.6875Y-5.01
X5.6925Y-4.6575
X5.7102Y-4.5869
X5.8019Y-4.4394
X5.83Y-4.475
X5.835Y-4.37
X5.865Y-4.5
X5.9012Y-4.5633
X6.105Y-5.035
X6.105Y-5.075
X6.1175Y-4.34
X6.1325Y-4.905
X6.215Y-4.95
X6.2575Y-4.95
X6.265Y-4.5325
X6.2925Y-4.69
X6.295Y-4.3475
X6.2975Y-4.95
X6.3375Y-4.345
X6.3425Y-4.9475
X6.3875Y-4.9
X6.3925Y-4.43
X6.4225Y-5.0175
X6.425Y-5.075
X6.425Y-5.115
X6.465Y-5.0175
X6.465Y-5.075
X6.465Y-5.115
X6.47Y-4.7325
X6.47Y-4.8
X6.485Y-4.6
X6.4875Y-4.6675
X6.5025Y-4.315
X6.515Y-4.9
X6.5275Y-5.075
X6.5275Y-5.115
X6.54Y-4.8
X6.59Y-5.075
X6.59Y-5.115
X6.5975Y-4.4625
X6.6Y-4.38
X6.6Y-4.4175
X6.66Y-4.8175
X6.6775Y-4.5825
X6.6875Y-4.6754
T2
X6.12Y-4.6469
X6.132Y-4.5469
X6.132Y-4.7469
X5.9791Y-4.6469
X5.9911Y-4.5469
X5.9911Y-4.7469
X4.7715Y-4.4824
X4.7715Y-4.6824
X4.7715Y-4.8824
X4.7835Y-4.3824
X4.7835Y-4.5824
X4.7835Y-4.7824
X5.3375Y-4.0305
X5.4375Y-4.0425
X5.5375Y-4.0305
X5.6375Y-4.0425
X5.7375Y-4.0305
X5.8375Y-4.0425
X5.9375Y-4.0305
X6.0375Y-4.0425
X6.1375Y-4.0305
X6.2375Y-4.0425
X5.3374Y-5.219
X5.4374Y-5.231
X5.5374Y-5.219
X5.6374Y-5.231
X5.7374Y-5.219
X5.8374Y-5.231
X5.9374Y-5.219
X6.0374Y-5.231
X6.1374Y-5.219
X6.2374Y-5.231
T0
M30
