%TF.GenerationSoftware,KiCad,Pcbnew,(5.1.6)-1*%
%TF.CreationDate,2021-01-10T13:33:15-07:00*%
%TF.ProjectId,AltoidsSmall,416c746f-6964-4735-936d-616c6c2e6b69,rev?*%
%TF.SameCoordinates,Original*%
%TF.FileFunction,Profile,NP*%
%FSLAX46Y46*%
G04 Gerber Fmt 4.6, Leading zero omitted, Abs format (unit mm)*
G04 Created by KiCad (PCBNEW (5.1.6)-1) date 2021-01-10 13:33:15*
%MOMM*%
%LPD*%
G01*
G04 APERTURE LIST*
%TA.AperFunction,Profile*%
%ADD10C,0.050000*%
%TD*%
G04 APERTURE END LIST*
D10*
X173990000Y-121094500D02*
X174000000Y-122000000D01*
X173926500Y-121094500D02*
X173990000Y-121094500D01*
X173990000Y-113982500D02*
X174000000Y-113000000D01*
X168846500Y-113982500D02*
X173990000Y-113982500D01*
X170053000Y-121094500D02*
X173926500Y-121094500D01*
X168846500Y-115443000D02*
X168846500Y-113982500D01*
X168846500Y-115697000D02*
X168846500Y-115443000D01*
X168846500Y-121094500D02*
X170053000Y-121094500D01*
X168846500Y-119634000D02*
X168846500Y-121094500D01*
X168846500Y-119380000D02*
X168846500Y-119634000D01*
X173926500Y-119380000D02*
X168846500Y-119380000D01*
X173926500Y-115697000D02*
X173926500Y-119380000D01*
X168846500Y-115697000D02*
X173926500Y-115697000D01*
X132000000Y-135000000D02*
X161000000Y-135000000D01*
X119000000Y-122000000D02*
X119000000Y-113000000D01*
X132000000Y-135000000D02*
G75*
G02*
X119000000Y-122000000I0J13000000D01*
G01*
X174000000Y-122000000D02*
G75*
G02*
X161000000Y-135000000I-13000000J0D01*
G01*
X161000000Y-100000000D02*
G75*
G02*
X174000000Y-113000000I0J-13000000D01*
G01*
X119000000Y-113000000D02*
G75*
G02*
X132000000Y-100000000I13000000J0D01*
G01*
X132000000Y-100000000D02*
X161000000Y-100000000D01*
M02*
