%TF.GenerationSoftware,KiCad,Pcbnew,(5.1.6)-1*%
%TF.CreationDate,2021-01-10T13:33:15-07:00*%
%TF.ProjectId,AltoidsSmall,416c746f-6964-4735-936d-616c6c2e6b69,rev?*%
%TF.SameCoordinates,Original*%
%TF.FileFunction,Copper,L4,Bot*%
%TF.FilePolarity,Positive*%
%FSLAX46Y46*%
G04 Gerber Fmt 4.6, Leading zero omitted, Abs format (unit mm)*
G04 Created by KiCad (PCBNEW (5.1.6)-1) date 2021-01-10 13:33:15*
%MOMM*%
%LPD*%
G01*
G04 APERTURE LIST*
%TA.AperFunction,ComponentPad*%
%ADD10C,1.700000*%
%TD*%
%TA.AperFunction,ComponentPad*%
%ADD11O,1.700000X1.700000*%
%TD*%
%TA.AperFunction,ComponentPad*%
%ADD12R,1.700000X1.700000*%
%TD*%
%TA.AperFunction,ViaPad*%
%ADD13C,0.800000*%
%TD*%
%TA.AperFunction,Conductor*%
%ADD14C,0.101600*%
%TD*%
%TA.AperFunction,Conductor*%
%ADD15C,0.228600*%
%TD*%
%TA.AperFunction,Conductor*%
%ADD16C,0.152400*%
%TD*%
%TA.AperFunction,Conductor*%
%ADD17C,0.254000*%
%TD*%
G04 APERTURE END LIST*
D10*
%TO.P,J5,6*%
%TO.N,/DAC/ADC1*%
X121500900Y-111312000D03*
D11*
%TO.P,J5,5*%
%TO.N,/DAC/ADC0*%
X121196100Y-113852000D03*
D12*
%TO.P,J5,1*%
%TO.N,Net-(J5-Pad1)*%
X121196100Y-124012000D03*
D11*
%TO.P,J5,4*%
%TO.N,Net-(J5-Pad4)*%
X121500900Y-116392000D03*
%TO.P,J5,3*%
%TO.N,Net-(J5-Pad3)*%
X121196100Y-118932000D03*
%TO.P,J5,2*%
%TO.N,Net-(J5-Pad2)*%
X121500900Y-121472000D03*
%TD*%
D12*
%TO.P,J4,1*%
%TO.N,+3V3*%
X155752800Y-115490001D03*
D11*
%TO.P,J4,3*%
%TO.N,GND*%
X155752800Y-120570001D03*
%TO.P,J4,2*%
%TO.N,/MCU/SWD_TRACE*%
X155448000Y-118030001D03*
%TD*%
D12*
%TO.P,J3,1*%
%TO.N,Net-(J3-Pad1)*%
X152172901Y-115490001D03*
D11*
%TO.P,J3,3*%
%TO.N,/MCU/~RST*%
X152172901Y-120570001D03*
%TO.P,J3,2*%
%TO.N,Net-(J3-Pad2)*%
X151868101Y-118030001D03*
%TD*%
%TO.P,J2,10*%
%TO.N,Net-(J2-Pad10)*%
X135569000Y-132562600D03*
%TO.P,J2,7*%
%TO.N,Net-(J2-Pad7)*%
X143189000Y-132867400D03*
%TO.P,J2,8*%
%TO.N,Net-(J2-Pad8)*%
X140649000Y-132562600D03*
%TO.P,J2,9*%
%TO.N,Net-(J2-Pad9)*%
X138109000Y-132867400D03*
D10*
%TO.P,J2,6*%
%TO.N,Net-(J2-Pad6)*%
X145729000Y-132562600D03*
D11*
%TO.P,J2,5*%
%TO.N,Net-(J2-Pad5)*%
X148269000Y-132867400D03*
D12*
%TO.P,J2,1*%
%TO.N,Net-(J2-Pad1)*%
X158429000Y-132867400D03*
D11*
%TO.P,J2,4*%
%TO.N,Net-(J2-Pad4)*%
X150809000Y-132562600D03*
%TO.P,J2,3*%
%TO.N,Net-(J2-Pad3)*%
X153349000Y-132867400D03*
%TO.P,J2,2*%
%TO.N,Net-(J2-Pad2)*%
X155889000Y-132562600D03*
%TD*%
%TO.P,J1,10*%
%TO.N,Net-(J1-Pad10)*%
X158432500Y-102679500D03*
%TO.P,J1,7*%
%TO.N,Net-(J1-Pad7)*%
X150812500Y-102374700D03*
%TO.P,J1,8*%
%TO.N,Net-(J1-Pad8)*%
X153352500Y-102679500D03*
%TO.P,J1,9*%
%TO.N,Net-(J1-Pad9)*%
X155892500Y-102374700D03*
D10*
%TO.P,J1,6*%
%TO.N,Net-(J1-Pad6)*%
X148272500Y-102679500D03*
D11*
%TO.P,J1,5*%
%TO.N,/DAC/SDA*%
X145732500Y-102374700D03*
D12*
%TO.P,J1,1*%
%TO.N,Net-(J1-Pad1)*%
X135572500Y-102374700D03*
D11*
%TO.P,J1,4*%
%TO.N,/DAC/SCL*%
X143192500Y-102679500D03*
%TO.P,J1,3*%
%TO.N,Net-(J1-Pad3)*%
X140652500Y-102374700D03*
%TO.P,J1,2*%
%TO.N,Net-(J1-Pad2)*%
X138112500Y-102679500D03*
%TD*%
D13*
%TO.N,GND*%
X143510000Y-127254000D03*
X144462500Y-127254000D03*
X124968000Y-123698000D03*
X136398000Y-109855000D03*
X130492500Y-118999000D03*
X131635500Y-118999000D03*
X132969000Y-116332000D03*
X165481000Y-124460000D03*
X159893000Y-110426500D03*
X160972500Y-110363000D03*
X167576500Y-113347500D03*
X167640000Y-111252000D03*
X167640000Y-112204500D03*
X164338000Y-120205500D03*
X166116000Y-121920000D03*
X164338000Y-121920000D03*
X159131000Y-115125500D03*
X169608500Y-116395500D03*
X157861000Y-125730000D03*
X158940500Y-125730000D03*
X159956500Y-125730000D03*
X161099500Y-125666500D03*
X155067000Y-128905000D03*
X155067000Y-127889000D03*
X140522036Y-118486272D03*
X141160500Y-124142500D03*
X142303507Y-120786326D03*
X142049500Y-122491500D03*
%TO.N,+3V3*%
X127762000Y-108077000D03*
X130429000Y-114617500D03*
X140589000Y-108585000D03*
X140081000Y-126111000D03*
X165163500Y-109601000D03*
X167386000Y-129921000D03*
X167386000Y-128905000D03*
X165798500Y-129921000D03*
X165798500Y-128905000D03*
X164211000Y-129921000D03*
X163195000Y-129921000D03*
X164211000Y-128905000D03*
X163195000Y-128905000D03*
X164211000Y-127444500D03*
X163131500Y-127444500D03*
X159829500Y-119126000D03*
X155384500Y-110236000D03*
X162242500Y-124460000D03*
%TO.N,VDDA*%
X122936000Y-108140500D03*
%TO.N,+3V3*%
X133096000Y-127762000D03*
X144589500Y-118300500D03*
%TO.N,Net-(R4-Pad1)*%
X133908423Y-126053422D03*
X133809869Y-122887869D03*
%TO.N,Net-(J1-Pad10)*%
X140409248Y-115117032D03*
%TO.N,Net-(J1-Pad7)*%
X141365904Y-111159334D03*
%TO.N,Net-(J1-Pad8)*%
X139230281Y-113531104D03*
%TO.N,Net-(J1-Pad9)*%
X139943421Y-114232143D03*
%TO.N,Net-(J1-Pad6)*%
X141938193Y-110315193D03*
%TO.N,Net-(J1-Pad1)*%
X133647872Y-120739752D03*
%TO.N,Net-(J1-Pad3)*%
X132461000Y-122745500D03*
%TO.N,Net-(J1-Pad2)*%
X132831183Y-121528183D03*
%TO.N,Net-(J2-Pad10)*%
X131381500Y-120396000D03*
%TO.N,Net-(J2-Pad7)*%
X139548805Y-118716152D03*
%TO.N,Net-(J2-Pad8)*%
X139168797Y-117729000D03*
%TO.N,Net-(J2-Pad9)*%
X138054488Y-118413326D03*
%TO.N,Net-(J2-Pad6)*%
X148209000Y-110998000D03*
%TO.N,Net-(J2-Pad5)*%
X147367443Y-112759943D03*
%TO.N,Net-(J2-Pad4)*%
X148082000Y-113665000D03*
%TO.N,Net-(J2-Pad3)*%
X148971000Y-114300000D03*
%TO.N,Net-(J2-Pad2)*%
X149891611Y-115908050D03*
%TO.N,Net-(J3-Pad1)*%
X137063800Y-116068460D03*
X144372461Y-115636510D03*
%TO.N,Net-(J3-Pad2)*%
X136096310Y-116719270D03*
X145037964Y-116506690D03*
%TO.N,/MCU/SWD_TRACE*%
X137668000Y-117475000D03*
X143424259Y-116571880D03*
%TO.N,VBUS*%
X169862500Y-118755000D03*
X169164000Y-122364500D03*
X162369500Y-112522000D03*
%TO.N,/DAC/SDA*%
X134874000Y-123571000D03*
X137541000Y-119888000D03*
%TO.N,/DAC/SCL*%
X136783189Y-119034574D03*
%TO.N,/DAC/ADC1*%
X141423673Y-117027320D03*
%TO.N,/DAC/ADC0*%
X140454799Y-117274925D03*
%TO.N,/DAC/~LDAC*%
X133858000Y-110744000D03*
X131064000Y-110617000D03*
%TO.N,/USB2FTDI/DR-*%
X164719000Y-116840000D03*
X164782500Y-118554500D03*
%TO.N,VDDA*%
X155765500Y-124587000D03*
X122936000Y-106997500D03*
X130810000Y-112014000D03*
%TD*%
D14*
%TO.N,Net-(R4-Pad1)*%
X133908423Y-122986423D02*
X133809869Y-122887869D01*
X133908423Y-126053422D02*
X133908423Y-122986423D01*
%TO.N,Net-(J1-Pad10)*%
X158369000Y-102743000D02*
X158369000Y-102679500D01*
X154940000Y-106172000D02*
X158369000Y-102743000D01*
X142999780Y-115117032D02*
X147388614Y-110728198D01*
X147388614Y-110728198D02*
X147399302Y-110728198D01*
X151955500Y-106172000D02*
X154940000Y-106172000D01*
X140409248Y-115117032D02*
X142999780Y-115117032D01*
X147399302Y-110728198D02*
X151955500Y-106172000D01*
D15*
%TO.N,Net-(J1-Pad7)*%
X150749000Y-102425500D02*
X150742329Y-102425500D01*
D14*
X150749000Y-102489000D02*
X142078666Y-111159334D01*
X142078666Y-111159334D02*
X141365904Y-111159334D01*
%TO.N,Net-(J1-Pad8)*%
X152527000Y-102679500D02*
X141675396Y-113531104D01*
X141675396Y-113531104D02*
X139230281Y-113531104D01*
%TO.N,Net-(J1-Pad9)*%
X153162000Y-105092500D02*
X151892000Y-105092500D01*
X151892000Y-105092500D02*
X142752357Y-114232143D01*
X155892500Y-102362000D02*
X153162000Y-105092500D01*
X142752357Y-114232143D02*
X139943421Y-114232143D01*
%TO.N,Net-(J1-Pad6)*%
X148272500Y-103980886D02*
X141938193Y-110315193D01*
X148272500Y-102679500D02*
X148272500Y-103980886D01*
%TO.N,Net-(J1-Pad1)*%
X135509000Y-108864230D02*
X135080390Y-109292840D01*
X135509000Y-102489000D02*
X135509000Y-108864230D01*
X135080390Y-109292840D02*
X135080390Y-110876376D01*
X133647872Y-120174067D02*
X133647872Y-120739752D01*
X133647872Y-112308894D02*
X133647872Y-120174067D01*
X135080390Y-110876376D02*
X133647872Y-112308894D01*
D15*
%TO.N,Net-(J1-Pad3)*%
X140652500Y-102298500D02*
X140652500Y-102885810D01*
D14*
X140716000Y-103822500D02*
X140716000Y-102425500D01*
X140017500Y-104521000D02*
X140716000Y-103822500D01*
X137096500Y-104521000D02*
X140017500Y-104521000D01*
X136334500Y-105283000D02*
X137096500Y-104521000D01*
X133031852Y-122745500D02*
X135096367Y-120680985D01*
X132461000Y-122745500D02*
X133031852Y-122745500D01*
X135747199Y-114478717D02*
X135747199Y-109479115D01*
X136334500Y-108891814D02*
X136334500Y-105283000D01*
X134715278Y-115510638D02*
X135747199Y-114478717D01*
X135096367Y-120680985D02*
X135096367Y-117785982D01*
X135096367Y-117785982D02*
X134715278Y-117404893D01*
X134715278Y-117404893D02*
X134715278Y-115510638D01*
X135747199Y-109479115D02*
X136334500Y-108891814D01*
%TO.N,Net-(J1-Pad2)*%
X135890000Y-108909772D02*
X135445588Y-109354184D01*
X138112500Y-102679500D02*
X135890000Y-104902000D01*
X134298673Y-112328055D02*
X134298673Y-121052137D01*
X135890000Y-104902000D02*
X135890000Y-108909772D01*
X134298673Y-121052137D02*
X133822627Y-121528183D01*
X133822627Y-121528183D02*
X132831183Y-121528183D01*
X135441864Y-109922312D02*
X135445588Y-109918588D01*
X135441864Y-111184864D02*
X135441864Y-109922312D01*
X135441864Y-111184864D02*
X134298673Y-112328055D01*
X135445588Y-109354184D02*
X135445588Y-109918588D01*
%TO.N,Net-(J2-Pad10)*%
X135572500Y-132524500D02*
X131381500Y-128333500D01*
X131381500Y-128333500D02*
X131381500Y-120396000D01*
%TO.N,Net-(J2-Pad7)*%
X142942000Y-132521000D02*
X142875000Y-132588000D01*
X143192500Y-132905500D02*
X143192500Y-132016500D01*
X143192500Y-132016500D02*
X142303500Y-131127500D01*
X140525500Y-131127500D02*
X140430250Y-131032250D01*
X140430250Y-131032250D02*
X140462000Y-131064000D01*
X142303500Y-131127500D02*
X140589000Y-131127500D01*
X140589000Y-131127500D02*
X140525500Y-131127500D01*
X140430250Y-131032250D02*
X139148806Y-129750806D01*
X139148806Y-119116151D02*
X139548805Y-118716152D01*
X139148806Y-129750806D02*
X139148806Y-119116151D01*
%TO.N,Net-(J2-Pad8)*%
X140402000Y-132267000D02*
X140335000Y-132334000D01*
X138705298Y-130618898D02*
X138705298Y-118192499D01*
X140649000Y-132562600D02*
X138705298Y-130618898D01*
X138705298Y-118192499D02*
X139168797Y-117729000D01*
%TO.N,Net-(J2-Pad9)*%
X138303000Y-132715000D02*
X138303000Y-118661838D01*
X138303000Y-118661838D02*
X138054488Y-118413326D01*
X138112500Y-132905500D02*
X138303000Y-132715000D01*
%TO.N,Net-(J2-Pad6)*%
X145482000Y-132330500D02*
X145415000Y-132397500D01*
X146954802Y-131336798D02*
X146954802Y-120972614D01*
X146700802Y-112506198D02*
X147809001Y-111397999D01*
X147809001Y-111397999D02*
X148209000Y-110998000D01*
X146700802Y-120718614D02*
X146700802Y-112506198D01*
X146954802Y-120972614D02*
X146700802Y-120718614D01*
X145729000Y-132562600D02*
X146954802Y-131336798D01*
%TO.N,Net-(J2-Pad5)*%
X148272500Y-132842000D02*
X147367443Y-131936943D01*
X147367443Y-113325628D02*
X147367443Y-112759943D01*
X147367443Y-131936943D02*
X147367443Y-113325628D01*
%TO.N,Net-(J2-Pad4)*%
X150812500Y-132524500D02*
X150749000Y-132524500D01*
X150812500Y-132461000D02*
X150876000Y-132461000D01*
X150812500Y-132461000D02*
X150749000Y-132524500D01*
X150809000Y-132562600D02*
X148082000Y-129835600D01*
X148082000Y-129835600D02*
X148082000Y-127444500D01*
X148082000Y-113665000D02*
X148082000Y-127444500D01*
%TO.N,Net-(J2-Pad3)*%
X153352500Y-131445000D02*
X153352500Y-132905500D01*
X149240801Y-127333301D02*
X153352500Y-131445000D01*
X149240801Y-120845615D02*
X149240801Y-127333301D01*
X149240801Y-114569801D02*
X148971000Y-114300000D01*
X149240801Y-120845615D02*
X149240801Y-114569801D01*
%TO.N,Net-(J2-Pad2)*%
X155829000Y-132651500D02*
X149891611Y-126714111D01*
X149891611Y-116473735D02*
X149891611Y-115908050D01*
X149891611Y-126714111D02*
X149891611Y-116473735D01*
%TO.N,Net-(J3-Pad1)*%
X137364427Y-115767833D02*
X140721633Y-115767833D01*
X140721633Y-115767833D02*
X141038278Y-115451188D01*
X144187139Y-115451188D02*
X144372461Y-115636510D01*
X137063800Y-116068460D02*
X137364427Y-115767833D01*
X141038278Y-115451188D02*
X144187139Y-115451188D01*
%TO.N,Net-(J3-Pad2)*%
X141163209Y-115752799D02*
X140846564Y-116069444D01*
X138147355Y-116069444D02*
X137497529Y-116719270D01*
X143568364Y-115752799D02*
X141163209Y-115752799D01*
X145037964Y-116506690D02*
X144322255Y-116506690D01*
X137497529Y-116719270D02*
X136096310Y-116719270D01*
X140846564Y-116069444D02*
X138147355Y-116069444D01*
X144322255Y-116506690D02*
X143568364Y-115752799D01*
%TO.N,/MCU/SWD_TRACE*%
X137668000Y-117475000D02*
X138766481Y-116376519D01*
X143228898Y-116376519D02*
X143424259Y-116571880D01*
X138766481Y-116376519D02*
X143228898Y-116376519D01*
D16*
%TO.N,/DAC/SDA*%
X134874000Y-123571000D02*
X134874000Y-122555000D01*
X134874000Y-122555000D02*
X137541000Y-119888000D01*
D14*
X137541000Y-119888000D02*
X137541000Y-118829199D01*
X137095574Y-118383773D02*
X136608273Y-118383773D01*
X137541000Y-118829199D02*
X137095574Y-118383773D01*
X136608273Y-118383773D02*
X135318500Y-117094000D01*
X135318500Y-117094000D02*
X135318500Y-115760500D01*
X135318500Y-115760500D02*
X145732500Y-105346500D01*
X145732500Y-105346500D02*
X145732500Y-102362000D01*
%TO.N,/DAC/SCL*%
X135016889Y-117268274D02*
X136783189Y-119034574D01*
X143192500Y-102679500D02*
X143192500Y-107459958D01*
X135016889Y-115635569D02*
X135016889Y-117268274D01*
X143192500Y-107459958D02*
X135016889Y-115635569D01*
D16*
%TO.N,/DAC/~LDAC*%
X133731000Y-110617000D02*
X133858000Y-110744000D01*
X131064000Y-110617000D02*
X133731000Y-110617000D01*
D14*
%TO.N,/USB2FTDI/DR-*%
X164719000Y-116840000D02*
X164719000Y-118491000D01*
X164719000Y-118491000D02*
X164782500Y-118554500D01*
%TD*%
D17*
%TO.N,GND*%
G36*
X162381933Y-100482668D02*
G01*
X163747156Y-100709902D01*
X165079216Y-101085582D01*
X166362002Y-101605164D01*
X167580023Y-102262372D01*
X168718574Y-103049273D01*
X169763898Y-103956359D01*
X170703373Y-104972677D01*
X171525640Y-106085937D01*
X172220787Y-107282720D01*
X172780408Y-108548559D01*
X173197740Y-109868146D01*
X173467750Y-111225577D01*
X173587861Y-112612392D01*
X173593968Y-113001128D01*
X173588112Y-113576500D01*
X168866441Y-113576500D01*
X168846500Y-113574536D01*
X168826560Y-113576500D01*
X168826559Y-113576500D01*
X168766910Y-113582375D01*
X168690379Y-113605590D01*
X168619847Y-113643290D01*
X168558026Y-113694026D01*
X168507290Y-113755847D01*
X168469590Y-113826379D01*
X168446375Y-113902910D01*
X168438536Y-113982500D01*
X168440501Y-114002451D01*
X168440500Y-115423059D01*
X168440500Y-115677059D01*
X168438536Y-115697000D01*
X168446375Y-115776590D01*
X168469590Y-115853121D01*
X168507290Y-115923653D01*
X168549970Y-115975658D01*
X168558026Y-115985474D01*
X168619847Y-116036210D01*
X168690379Y-116073910D01*
X168766910Y-116097125D01*
X168846500Y-116104964D01*
X168866440Y-116103000D01*
X173520500Y-116103000D01*
X173520501Y-118974000D01*
X170615239Y-118974000D01*
X170643500Y-118831922D01*
X170643500Y-118678078D01*
X170613487Y-118527191D01*
X170554613Y-118385058D01*
X170469142Y-118257141D01*
X170360359Y-118148358D01*
X170232442Y-118062887D01*
X170090309Y-118004013D01*
X169939422Y-117974000D01*
X169785578Y-117974000D01*
X169634691Y-118004013D01*
X169492558Y-118062887D01*
X169364641Y-118148358D01*
X169255858Y-118257141D01*
X169170387Y-118385058D01*
X169111513Y-118527191D01*
X169081500Y-118678078D01*
X169081500Y-118831922D01*
X169109761Y-118974000D01*
X168866440Y-118974000D01*
X168846500Y-118972036D01*
X168826559Y-118974000D01*
X168766910Y-118979875D01*
X168690379Y-119003090D01*
X168619847Y-119040790D01*
X168558026Y-119091526D01*
X168507290Y-119153347D01*
X168469590Y-119223879D01*
X168446375Y-119300410D01*
X168438536Y-119380000D01*
X168440500Y-119399941D01*
X168440500Y-119614060D01*
X168440501Y-121074549D01*
X168438536Y-121094500D01*
X168446375Y-121174090D01*
X168469590Y-121250621D01*
X168507290Y-121321153D01*
X168558026Y-121382974D01*
X168619847Y-121433710D01*
X168690379Y-121471410D01*
X168766910Y-121494625D01*
X168826559Y-121500500D01*
X168826560Y-121500500D01*
X168846500Y-121502464D01*
X168866441Y-121500500D01*
X173588459Y-121500500D01*
X173593877Y-121991070D01*
X173517332Y-123381933D01*
X173290097Y-124747160D01*
X172914417Y-126079219D01*
X172394836Y-127362002D01*
X171737624Y-128580029D01*
X170950727Y-129718574D01*
X170043641Y-130763898D01*
X169027328Y-131703368D01*
X167914063Y-132525640D01*
X166717276Y-133220789D01*
X165451441Y-133780408D01*
X164131852Y-134197740D01*
X162774424Y-134467750D01*
X161387608Y-134587861D01*
X160996806Y-134594000D01*
X132011171Y-134594000D01*
X130618067Y-134517332D01*
X129252840Y-134290097D01*
X127920781Y-133914417D01*
X126637998Y-133394836D01*
X125419971Y-132737624D01*
X124281426Y-131950727D01*
X123236102Y-131043641D01*
X122296632Y-130027328D01*
X121474360Y-128914063D01*
X120779211Y-127717276D01*
X120219592Y-126451441D01*
X119802260Y-125131852D01*
X119532250Y-123774424D01*
X119479209Y-123162000D01*
X119963257Y-123162000D01*
X119963257Y-124862000D01*
X119970613Y-124936689D01*
X119992399Y-125008508D01*
X120027778Y-125074696D01*
X120075389Y-125132711D01*
X120133404Y-125180322D01*
X120199592Y-125215701D01*
X120271411Y-125237487D01*
X120346100Y-125244843D01*
X122046100Y-125244843D01*
X122120789Y-125237487D01*
X122192608Y-125215701D01*
X122258796Y-125180322D01*
X122316811Y-125132711D01*
X122364422Y-125074696D01*
X122399801Y-125008508D01*
X122421587Y-124936689D01*
X122428943Y-124862000D01*
X122428943Y-123162000D01*
X122421587Y-123087311D01*
X122399801Y-123015492D01*
X122364422Y-122949304D01*
X122316811Y-122891289D01*
X122258796Y-122843678D01*
X122192608Y-122808299D01*
X122120789Y-122786513D01*
X122046100Y-122779157D01*
X120346100Y-122779157D01*
X120271411Y-122786513D01*
X120199592Y-122808299D01*
X120133404Y-122843678D01*
X120075389Y-122891289D01*
X120027778Y-122949304D01*
X119992399Y-123015492D01*
X119970613Y-123087311D01*
X119963257Y-123162000D01*
X119479209Y-123162000D01*
X119412139Y-122387608D01*
X119406000Y-121996806D01*
X119406000Y-121350757D01*
X120269900Y-121350757D01*
X120269900Y-121593243D01*
X120317207Y-121831069D01*
X120410002Y-122055097D01*
X120544720Y-122256717D01*
X120716183Y-122428180D01*
X120917803Y-122562898D01*
X121141831Y-122655693D01*
X121379657Y-122703000D01*
X121622143Y-122703000D01*
X121859969Y-122655693D01*
X122083997Y-122562898D01*
X122285617Y-122428180D01*
X122457080Y-122256717D01*
X122591798Y-122055097D01*
X122684593Y-121831069D01*
X122731900Y-121593243D01*
X122731900Y-121350757D01*
X122684593Y-121112931D01*
X122591798Y-120888903D01*
X122457080Y-120687283D01*
X122285617Y-120515820D01*
X122083997Y-120381102D01*
X121859969Y-120288307D01*
X121622143Y-120241000D01*
X121379657Y-120241000D01*
X121141831Y-120288307D01*
X120917803Y-120381102D01*
X120716183Y-120515820D01*
X120544720Y-120687283D01*
X120410002Y-120888903D01*
X120317207Y-121112931D01*
X120269900Y-121350757D01*
X119406000Y-121350757D01*
X119406000Y-118810757D01*
X119965100Y-118810757D01*
X119965100Y-119053243D01*
X120012407Y-119291069D01*
X120105202Y-119515097D01*
X120239920Y-119716717D01*
X120411383Y-119888180D01*
X120613003Y-120022898D01*
X120837031Y-120115693D01*
X121074857Y-120163000D01*
X121317343Y-120163000D01*
X121555169Y-120115693D01*
X121779197Y-120022898D01*
X121980817Y-119888180D01*
X122152280Y-119716717D01*
X122286998Y-119515097D01*
X122379793Y-119291069D01*
X122427100Y-119053243D01*
X122427100Y-118810757D01*
X122379793Y-118572931D01*
X122286998Y-118348903D01*
X122152280Y-118147283D01*
X121980817Y-117975820D01*
X121779197Y-117841102D01*
X121555169Y-117748307D01*
X121317343Y-117701000D01*
X121074857Y-117701000D01*
X120837031Y-117748307D01*
X120613003Y-117841102D01*
X120411383Y-117975820D01*
X120239920Y-118147283D01*
X120105202Y-118348903D01*
X120012407Y-118572931D01*
X119965100Y-118810757D01*
X119406000Y-118810757D01*
X119406000Y-116270757D01*
X120269900Y-116270757D01*
X120269900Y-116513243D01*
X120317207Y-116751069D01*
X120410002Y-116975097D01*
X120544720Y-117176717D01*
X120716183Y-117348180D01*
X120917803Y-117482898D01*
X121141831Y-117575693D01*
X121379657Y-117623000D01*
X121622143Y-117623000D01*
X121859969Y-117575693D01*
X122083997Y-117482898D01*
X122285617Y-117348180D01*
X122457080Y-117176717D01*
X122591798Y-116975097D01*
X122684593Y-116751069D01*
X122731900Y-116513243D01*
X122731900Y-116270757D01*
X122684593Y-116032931D01*
X122591798Y-115808903D01*
X122457080Y-115607283D01*
X122285617Y-115435820D01*
X122083997Y-115301102D01*
X121859969Y-115208307D01*
X121622143Y-115161000D01*
X121379657Y-115161000D01*
X121141831Y-115208307D01*
X120917803Y-115301102D01*
X120716183Y-115435820D01*
X120544720Y-115607283D01*
X120410002Y-115808903D01*
X120317207Y-116032931D01*
X120269900Y-116270757D01*
X119406000Y-116270757D01*
X119406000Y-113730757D01*
X119965100Y-113730757D01*
X119965100Y-113973243D01*
X120012407Y-114211069D01*
X120105202Y-114435097D01*
X120239920Y-114636717D01*
X120411383Y-114808180D01*
X120613003Y-114942898D01*
X120837031Y-115035693D01*
X121074857Y-115083000D01*
X121317343Y-115083000D01*
X121555169Y-115035693D01*
X121779197Y-114942898D01*
X121980817Y-114808180D01*
X122152280Y-114636717D01*
X122216517Y-114540578D01*
X129648000Y-114540578D01*
X129648000Y-114694422D01*
X129678013Y-114845309D01*
X129736887Y-114987442D01*
X129822358Y-115115359D01*
X129931141Y-115224142D01*
X130059058Y-115309613D01*
X130201191Y-115368487D01*
X130352078Y-115398500D01*
X130505922Y-115398500D01*
X130656809Y-115368487D01*
X130798942Y-115309613D01*
X130926859Y-115224142D01*
X131035642Y-115115359D01*
X131121113Y-114987442D01*
X131179987Y-114845309D01*
X131210000Y-114694422D01*
X131210000Y-114540578D01*
X131179987Y-114389691D01*
X131121113Y-114247558D01*
X131035642Y-114119641D01*
X130926859Y-114010858D01*
X130798942Y-113925387D01*
X130656809Y-113866513D01*
X130505922Y-113836500D01*
X130352078Y-113836500D01*
X130201191Y-113866513D01*
X130059058Y-113925387D01*
X129931141Y-114010858D01*
X129822358Y-114119641D01*
X129736887Y-114247558D01*
X129678013Y-114389691D01*
X129648000Y-114540578D01*
X122216517Y-114540578D01*
X122286998Y-114435097D01*
X122379793Y-114211069D01*
X122427100Y-113973243D01*
X122427100Y-113730757D01*
X122379793Y-113492931D01*
X122286998Y-113268903D01*
X122152280Y-113067283D01*
X121980817Y-112895820D01*
X121779197Y-112761102D01*
X121555169Y-112668307D01*
X121317343Y-112621000D01*
X121074857Y-112621000D01*
X120837031Y-112668307D01*
X120613003Y-112761102D01*
X120411383Y-112895820D01*
X120239920Y-113067283D01*
X120105202Y-113268903D01*
X120012407Y-113492931D01*
X119965100Y-113730757D01*
X119406000Y-113730757D01*
X119406000Y-113011171D01*
X119482668Y-111618067D01*
X119553791Y-111190757D01*
X120269900Y-111190757D01*
X120269900Y-111433243D01*
X120317207Y-111671069D01*
X120410002Y-111895097D01*
X120544720Y-112096717D01*
X120716183Y-112268180D01*
X120917803Y-112402898D01*
X121141831Y-112495693D01*
X121379657Y-112543000D01*
X121622143Y-112543000D01*
X121859969Y-112495693D01*
X122083997Y-112402898D01*
X122285617Y-112268180D01*
X122457080Y-112096717D01*
X122563747Y-111937078D01*
X130029000Y-111937078D01*
X130029000Y-112090922D01*
X130059013Y-112241809D01*
X130117887Y-112383942D01*
X130203358Y-112511859D01*
X130312141Y-112620642D01*
X130440058Y-112706113D01*
X130582191Y-112764987D01*
X130733078Y-112795000D01*
X130886922Y-112795000D01*
X131037809Y-112764987D01*
X131179942Y-112706113D01*
X131307859Y-112620642D01*
X131416642Y-112511859D01*
X131502113Y-112383942D01*
X131560987Y-112241809D01*
X131591000Y-112090922D01*
X131591000Y-111937078D01*
X131560987Y-111786191D01*
X131502113Y-111644058D01*
X131416642Y-111516141D01*
X131307859Y-111407358D01*
X131258771Y-111374559D01*
X131291809Y-111367987D01*
X131433942Y-111309113D01*
X131561859Y-111223642D01*
X131670642Y-111114859D01*
X131697809Y-111074200D01*
X133149425Y-111074200D01*
X133165887Y-111113942D01*
X133251358Y-111241859D01*
X133360141Y-111350642D01*
X133488058Y-111436113D01*
X133630191Y-111494987D01*
X133781078Y-111525000D01*
X133821109Y-111525000D01*
X133357551Y-111988559D01*
X133341066Y-112002088D01*
X133287106Y-112067839D01*
X133247011Y-112142853D01*
X133229860Y-112199392D01*
X133222320Y-112224247D01*
X133213983Y-112308894D01*
X133216072Y-112330104D01*
X133216073Y-120088970D01*
X133150013Y-120133110D01*
X133041230Y-120241893D01*
X132955759Y-120369810D01*
X132896885Y-120511943D01*
X132866872Y-120662830D01*
X132866872Y-120747183D01*
X132754261Y-120747183D01*
X132603374Y-120777196D01*
X132461241Y-120836070D01*
X132333324Y-120921541D01*
X132224541Y-121030324D01*
X132139070Y-121158241D01*
X132080196Y-121300374D01*
X132050183Y-121451261D01*
X132050183Y-121605105D01*
X132080196Y-121755992D01*
X132139070Y-121898125D01*
X132209916Y-122004154D01*
X132091058Y-122053387D01*
X131963141Y-122138858D01*
X131854358Y-122247641D01*
X131813300Y-122309089D01*
X131813300Y-121046781D01*
X131879359Y-121002642D01*
X131988142Y-120893859D01*
X132073613Y-120765942D01*
X132132487Y-120623809D01*
X132162500Y-120472922D01*
X132162500Y-120319078D01*
X132132487Y-120168191D01*
X132073613Y-120026058D01*
X131988142Y-119898141D01*
X131879359Y-119789358D01*
X131751442Y-119703887D01*
X131609309Y-119645013D01*
X131458422Y-119615000D01*
X131304578Y-119615000D01*
X131153691Y-119645013D01*
X131011558Y-119703887D01*
X130883641Y-119789358D01*
X130774858Y-119898141D01*
X130689387Y-120026058D01*
X130630513Y-120168191D01*
X130600500Y-120319078D01*
X130600500Y-120472922D01*
X130630513Y-120623809D01*
X130689387Y-120765942D01*
X130774858Y-120893859D01*
X130883641Y-121002642D01*
X130949701Y-121046782D01*
X130949700Y-128312290D01*
X130947611Y-128333500D01*
X130949700Y-128354709D01*
X130955948Y-128418147D01*
X130980639Y-128499541D01*
X131020734Y-128574555D01*
X131074694Y-128640306D01*
X131091179Y-128653835D01*
X134460160Y-132022818D01*
X134385307Y-132203531D01*
X134338000Y-132441357D01*
X134338000Y-132683843D01*
X134385307Y-132921669D01*
X134478102Y-133145697D01*
X134612820Y-133347317D01*
X134784283Y-133518780D01*
X134985903Y-133653498D01*
X135209931Y-133746293D01*
X135447757Y-133793600D01*
X135690243Y-133793600D01*
X135928069Y-133746293D01*
X136152097Y-133653498D01*
X136353717Y-133518780D01*
X136525180Y-133347317D01*
X136659898Y-133145697D01*
X136752693Y-132921669D01*
X136800000Y-132683843D01*
X136800000Y-132441357D01*
X136752693Y-132203531D01*
X136659898Y-131979503D01*
X136525180Y-131777883D01*
X136353717Y-131606420D01*
X136152097Y-131471702D01*
X135928069Y-131378907D01*
X135690243Y-131331600D01*
X135447757Y-131331600D01*
X135209931Y-131378907D01*
X135088049Y-131429392D01*
X131813300Y-128154644D01*
X131813300Y-127685078D01*
X132315000Y-127685078D01*
X132315000Y-127838922D01*
X132345013Y-127989809D01*
X132403887Y-128131942D01*
X132489358Y-128259859D01*
X132598141Y-128368642D01*
X132726058Y-128454113D01*
X132868191Y-128512987D01*
X133019078Y-128543000D01*
X133172922Y-128543000D01*
X133323809Y-128512987D01*
X133465942Y-128454113D01*
X133593859Y-128368642D01*
X133702642Y-128259859D01*
X133788113Y-128131942D01*
X133846987Y-127989809D01*
X133877000Y-127838922D01*
X133877000Y-127685078D01*
X133846987Y-127534191D01*
X133788113Y-127392058D01*
X133702642Y-127264141D01*
X133593859Y-127155358D01*
X133465942Y-127069887D01*
X133323809Y-127011013D01*
X133172922Y-126981000D01*
X133019078Y-126981000D01*
X132868191Y-127011013D01*
X132726058Y-127069887D01*
X132598141Y-127155358D01*
X132489358Y-127264141D01*
X132403887Y-127392058D01*
X132345013Y-127534191D01*
X132315000Y-127685078D01*
X131813300Y-127685078D01*
X131813300Y-123181911D01*
X131854358Y-123243359D01*
X131963141Y-123352142D01*
X132091058Y-123437613D01*
X132233191Y-123496487D01*
X132384078Y-123526500D01*
X132537922Y-123526500D01*
X132688809Y-123496487D01*
X132830942Y-123437613D01*
X132958859Y-123352142D01*
X133067642Y-123243359D01*
X133094883Y-123202590D01*
X133117756Y-123257811D01*
X133203227Y-123385728D01*
X133312010Y-123494511D01*
X133439927Y-123579982D01*
X133476624Y-123595182D01*
X133476623Y-125402641D01*
X133410564Y-125446780D01*
X133301781Y-125555563D01*
X133216310Y-125683480D01*
X133157436Y-125825613D01*
X133127423Y-125976500D01*
X133127423Y-126130344D01*
X133157436Y-126281231D01*
X133216310Y-126423364D01*
X133301781Y-126551281D01*
X133410564Y-126660064D01*
X133538481Y-126745535D01*
X133680614Y-126804409D01*
X133831501Y-126834422D01*
X133985345Y-126834422D01*
X134136232Y-126804409D01*
X134278365Y-126745535D01*
X134406282Y-126660064D01*
X134515065Y-126551281D01*
X134600536Y-126423364D01*
X134659410Y-126281231D01*
X134689423Y-126130344D01*
X134689423Y-125976500D01*
X134659410Y-125825613D01*
X134600536Y-125683480D01*
X134515065Y-125555563D01*
X134406282Y-125446780D01*
X134340223Y-125402641D01*
X134340223Y-124141724D01*
X134376141Y-124177642D01*
X134504058Y-124263113D01*
X134646191Y-124321987D01*
X134797078Y-124352000D01*
X134950922Y-124352000D01*
X135101809Y-124321987D01*
X135243942Y-124263113D01*
X135371859Y-124177642D01*
X135480642Y-124068859D01*
X135566113Y-123940942D01*
X135624987Y-123798809D01*
X135655000Y-123647922D01*
X135655000Y-123494078D01*
X135624987Y-123343191D01*
X135566113Y-123201058D01*
X135480642Y-123073141D01*
X135371859Y-122964358D01*
X135331200Y-122937191D01*
X135331200Y-122744377D01*
X137416118Y-120659460D01*
X137464078Y-120669000D01*
X137617922Y-120669000D01*
X137768809Y-120638987D01*
X137871201Y-120596574D01*
X137871200Y-131659585D01*
X137749931Y-131683707D01*
X137525903Y-131776502D01*
X137324283Y-131911220D01*
X137152820Y-132082683D01*
X137018102Y-132284303D01*
X136925307Y-132508331D01*
X136878000Y-132746157D01*
X136878000Y-132988643D01*
X136925307Y-133226469D01*
X137018102Y-133450497D01*
X137152820Y-133652117D01*
X137324283Y-133823580D01*
X137525903Y-133958298D01*
X137749931Y-134051093D01*
X137987757Y-134098400D01*
X138230243Y-134098400D01*
X138468069Y-134051093D01*
X138692097Y-133958298D01*
X138893717Y-133823580D01*
X139065180Y-133652117D01*
X139199898Y-133450497D01*
X139292693Y-133226469D01*
X139340000Y-132988643D01*
X139340000Y-132746157D01*
X139292693Y-132508331D01*
X139199898Y-132284303D01*
X139065180Y-132082683D01*
X138893717Y-131911220D01*
X138734800Y-131805035D01*
X138734800Y-131259056D01*
X139527976Y-132052233D01*
X139465307Y-132203531D01*
X139418000Y-132441357D01*
X139418000Y-132683843D01*
X139465307Y-132921669D01*
X139558102Y-133145697D01*
X139692820Y-133347317D01*
X139864283Y-133518780D01*
X140065903Y-133653498D01*
X140289931Y-133746293D01*
X140527757Y-133793600D01*
X140770243Y-133793600D01*
X141008069Y-133746293D01*
X141232097Y-133653498D01*
X141433717Y-133518780D01*
X141605180Y-133347317D01*
X141739898Y-133145697D01*
X141832693Y-132921669D01*
X141880000Y-132683843D01*
X141880000Y-132441357D01*
X141832693Y-132203531D01*
X141739898Y-131979503D01*
X141605180Y-131777883D01*
X141433717Y-131606420D01*
X141363197Y-131559300D01*
X142124644Y-131559300D01*
X142447612Y-131882269D01*
X142404283Y-131911220D01*
X142232820Y-132082683D01*
X142098102Y-132284303D01*
X142005307Y-132508331D01*
X141958000Y-132746157D01*
X141958000Y-132988643D01*
X142005307Y-133226469D01*
X142098102Y-133450497D01*
X142232820Y-133652117D01*
X142404283Y-133823580D01*
X142605903Y-133958298D01*
X142829931Y-134051093D01*
X143067757Y-134098400D01*
X143310243Y-134098400D01*
X143548069Y-134051093D01*
X143772097Y-133958298D01*
X143973717Y-133823580D01*
X144145180Y-133652117D01*
X144279898Y-133450497D01*
X144372693Y-133226469D01*
X144420000Y-132988643D01*
X144420000Y-132746157D01*
X144372693Y-132508331D01*
X144279898Y-132284303D01*
X144145180Y-132082683D01*
X143973717Y-131911220D01*
X143772097Y-131776502D01*
X143548069Y-131683707D01*
X143451069Y-131664412D01*
X142623835Y-130837179D01*
X142610306Y-130820694D01*
X142544556Y-130766734D01*
X142469542Y-130726639D01*
X142388148Y-130701948D01*
X142324710Y-130695700D01*
X142303500Y-130693611D01*
X142282290Y-130695700D01*
X140704358Y-130695700D01*
X139580606Y-129571950D01*
X139580606Y-126715107D01*
X139583141Y-126717642D01*
X139711058Y-126803113D01*
X139853191Y-126861987D01*
X140004078Y-126892000D01*
X140157922Y-126892000D01*
X140308809Y-126861987D01*
X140450942Y-126803113D01*
X140578859Y-126717642D01*
X140687642Y-126608859D01*
X140773113Y-126480942D01*
X140831987Y-126338809D01*
X140862000Y-126187922D01*
X140862000Y-126034078D01*
X140831987Y-125883191D01*
X140773113Y-125741058D01*
X140687642Y-125613141D01*
X140578859Y-125504358D01*
X140450942Y-125418887D01*
X140308809Y-125360013D01*
X140157922Y-125330000D01*
X140004078Y-125330000D01*
X139853191Y-125360013D01*
X139711058Y-125418887D01*
X139583141Y-125504358D01*
X139580606Y-125506893D01*
X139580606Y-119497152D01*
X139625727Y-119497152D01*
X139776614Y-119467139D01*
X139918747Y-119408265D01*
X140046664Y-119322794D01*
X140155447Y-119214011D01*
X140240918Y-119086094D01*
X140299792Y-118943961D01*
X140329805Y-118793074D01*
X140329805Y-118639230D01*
X140299792Y-118488343D01*
X140240918Y-118346210D01*
X140158979Y-118223578D01*
X143808500Y-118223578D01*
X143808500Y-118377422D01*
X143838513Y-118528309D01*
X143897387Y-118670442D01*
X143982858Y-118798359D01*
X144091641Y-118907142D01*
X144219558Y-118992613D01*
X144361691Y-119051487D01*
X144512578Y-119081500D01*
X144666422Y-119081500D01*
X144817309Y-119051487D01*
X144959442Y-118992613D01*
X145087359Y-118907142D01*
X145196142Y-118798359D01*
X145281613Y-118670442D01*
X145340487Y-118528309D01*
X145370500Y-118377422D01*
X145370500Y-118223578D01*
X145340487Y-118072691D01*
X145281613Y-117930558D01*
X145196142Y-117802641D01*
X145087359Y-117693858D01*
X144959442Y-117608387D01*
X144817309Y-117549513D01*
X144666422Y-117519500D01*
X144512578Y-117519500D01*
X144361691Y-117549513D01*
X144219558Y-117608387D01*
X144091641Y-117693858D01*
X143982858Y-117802641D01*
X143897387Y-117930558D01*
X143838513Y-118072691D01*
X143808500Y-118223578D01*
X140158979Y-118223578D01*
X140155447Y-118218293D01*
X140046664Y-118109510D01*
X139918747Y-118024039D01*
X139895863Y-118014560D01*
X139919784Y-117956809D01*
X139938432Y-117863059D01*
X139956940Y-117881567D01*
X140084857Y-117967038D01*
X140226990Y-118025912D01*
X140377877Y-118055925D01*
X140531721Y-118055925D01*
X140682608Y-118025912D01*
X140824741Y-117967038D01*
X140952658Y-117881567D01*
X141061441Y-117772784D01*
X141087690Y-117733499D01*
X141195864Y-117778307D01*
X141346751Y-117808320D01*
X141500595Y-117808320D01*
X141651482Y-117778307D01*
X141793615Y-117719433D01*
X141921532Y-117633962D01*
X142030315Y-117525179D01*
X142115786Y-117397262D01*
X142174660Y-117255129D01*
X142204673Y-117104242D01*
X142204673Y-116950398D01*
X142176412Y-116808319D01*
X142676847Y-116808319D01*
X142732146Y-116941822D01*
X142817617Y-117069739D01*
X142926400Y-117178522D01*
X143054317Y-117263993D01*
X143196450Y-117322867D01*
X143347337Y-117352880D01*
X143501181Y-117352880D01*
X143652068Y-117322867D01*
X143794201Y-117263993D01*
X143922118Y-117178522D01*
X144030901Y-117069739D01*
X144116372Y-116941822D01*
X144135216Y-116896328D01*
X144156212Y-116907551D01*
X144237607Y-116932242D01*
X144322255Y-116940579D01*
X144343465Y-116938490D01*
X144387183Y-116938490D01*
X144431322Y-117004549D01*
X144540105Y-117113332D01*
X144668022Y-117198803D01*
X144810155Y-117257677D01*
X144961042Y-117287690D01*
X145114886Y-117287690D01*
X145265773Y-117257677D01*
X145407906Y-117198803D01*
X145535823Y-117113332D01*
X145644606Y-117004549D01*
X145730077Y-116876632D01*
X145788951Y-116734499D01*
X145818964Y-116583612D01*
X145818964Y-116429768D01*
X145788951Y-116278881D01*
X145730077Y-116136748D01*
X145644606Y-116008831D01*
X145535823Y-115900048D01*
X145407906Y-115814577D01*
X145265773Y-115755703D01*
X145149647Y-115732604D01*
X145153461Y-115713432D01*
X145153461Y-115559588D01*
X145123448Y-115408701D01*
X145064574Y-115266568D01*
X144979103Y-115138651D01*
X144870320Y-115029868D01*
X144742403Y-114944397D01*
X144600270Y-114885523D01*
X144449383Y-114855510D01*
X144295539Y-114855510D01*
X144144652Y-114885523D01*
X144002519Y-114944397D01*
X143890287Y-115019388D01*
X143708080Y-115019388D01*
X146271900Y-112455569D01*
X146266913Y-112506198D01*
X146269003Y-112527418D01*
X146269002Y-120697404D01*
X146266913Y-120718614D01*
X146269002Y-120739823D01*
X146275250Y-120803261D01*
X146299941Y-120884655D01*
X146340036Y-120959669D01*
X146393996Y-121025420D01*
X146410480Y-121038948D01*
X146523003Y-121151471D01*
X146523002Y-131157941D01*
X146239367Y-131441576D01*
X146088069Y-131378907D01*
X145850243Y-131331600D01*
X145607757Y-131331600D01*
X145369931Y-131378907D01*
X145145903Y-131471702D01*
X144944283Y-131606420D01*
X144772820Y-131777883D01*
X144638102Y-131979503D01*
X144545307Y-132203531D01*
X144498000Y-132441357D01*
X144498000Y-132683843D01*
X144545307Y-132921669D01*
X144638102Y-133145697D01*
X144772820Y-133347317D01*
X144944283Y-133518780D01*
X145145903Y-133653498D01*
X145369931Y-133746293D01*
X145607757Y-133793600D01*
X145850243Y-133793600D01*
X146088069Y-133746293D01*
X146312097Y-133653498D01*
X146513717Y-133518780D01*
X146685180Y-133347317D01*
X146819898Y-133145697D01*
X146912693Y-132921669D01*
X146960000Y-132683843D01*
X146960000Y-132441357D01*
X146912693Y-132203531D01*
X146850024Y-132052233D01*
X146936402Y-131965855D01*
X146941891Y-132021590D01*
X146966582Y-132102984D01*
X147006677Y-132177998D01*
X147060637Y-132243749D01*
X147077122Y-132257278D01*
X147156441Y-132336597D01*
X147085307Y-132508331D01*
X147038000Y-132746157D01*
X147038000Y-132988643D01*
X147085307Y-133226469D01*
X147178102Y-133450497D01*
X147312820Y-133652117D01*
X147484283Y-133823580D01*
X147685903Y-133958298D01*
X147909931Y-134051093D01*
X148147757Y-134098400D01*
X148390243Y-134098400D01*
X148628069Y-134051093D01*
X148852097Y-133958298D01*
X149053717Y-133823580D01*
X149225180Y-133652117D01*
X149359898Y-133450497D01*
X149452693Y-133226469D01*
X149500000Y-132988643D01*
X149500000Y-132746157D01*
X149452693Y-132508331D01*
X149359898Y-132284303D01*
X149225180Y-132082683D01*
X149053717Y-131911220D01*
X148852097Y-131776502D01*
X148628069Y-131683707D01*
X148390243Y-131636400D01*
X148147757Y-131636400D01*
X147909931Y-131683707D01*
X147799243Y-131729555D01*
X147799243Y-130163499D01*
X149687976Y-132052234D01*
X149625307Y-132203531D01*
X149578000Y-132441357D01*
X149578000Y-132683843D01*
X149625307Y-132921669D01*
X149718102Y-133145697D01*
X149852820Y-133347317D01*
X150024283Y-133518780D01*
X150225903Y-133653498D01*
X150449931Y-133746293D01*
X150687757Y-133793600D01*
X150930243Y-133793600D01*
X151168069Y-133746293D01*
X151392097Y-133653498D01*
X151593717Y-133518780D01*
X151765180Y-133347317D01*
X151899898Y-133145697D01*
X151992693Y-132921669D01*
X152040000Y-132683843D01*
X152040000Y-132441357D01*
X151992693Y-132203531D01*
X151899898Y-131979503D01*
X151765180Y-131777883D01*
X151593717Y-131606420D01*
X151392097Y-131471702D01*
X151168069Y-131378907D01*
X150930243Y-131331600D01*
X150687757Y-131331600D01*
X150449931Y-131378907D01*
X150298634Y-131441576D01*
X148513800Y-129656744D01*
X148513800Y-114933809D01*
X148601058Y-114992113D01*
X148743191Y-115050987D01*
X148809002Y-115064077D01*
X148809001Y-120824405D01*
X148809001Y-120824406D01*
X148809002Y-127312081D01*
X148806912Y-127333301D01*
X148815249Y-127417948D01*
X148816870Y-127423290D01*
X148839941Y-127499343D01*
X148880036Y-127574357D01*
X148933996Y-127640107D01*
X148950475Y-127653631D01*
X152920700Y-131623858D01*
X152920700Y-131712383D01*
X152765903Y-131776502D01*
X152564283Y-131911220D01*
X152392820Y-132082683D01*
X152258102Y-132284303D01*
X152165307Y-132508331D01*
X152118000Y-132746157D01*
X152118000Y-132988643D01*
X152165307Y-133226469D01*
X152258102Y-133450497D01*
X152392820Y-133652117D01*
X152564283Y-133823580D01*
X152765903Y-133958298D01*
X152989931Y-134051093D01*
X153227757Y-134098400D01*
X153470243Y-134098400D01*
X153708069Y-134051093D01*
X153932097Y-133958298D01*
X154133717Y-133823580D01*
X154305180Y-133652117D01*
X154439898Y-133450497D01*
X154532693Y-133226469D01*
X154580000Y-132988643D01*
X154580000Y-132746157D01*
X154532693Y-132508331D01*
X154439898Y-132284303D01*
X154305180Y-132082683D01*
X154133717Y-131911220D01*
X153932097Y-131776502D01*
X153784300Y-131715283D01*
X153784300Y-131466202D01*
X153786388Y-131444999D01*
X153784300Y-131423796D01*
X153784300Y-131423790D01*
X153778860Y-131368555D01*
X153778052Y-131360351D01*
X153763675Y-131312958D01*
X153753361Y-131278958D01*
X153713266Y-131203944D01*
X153659306Y-131138194D01*
X153642833Y-131124675D01*
X149672601Y-127154445D01*
X149672601Y-127105757D01*
X154724364Y-132157522D01*
X154705307Y-132203531D01*
X154658000Y-132441357D01*
X154658000Y-132683843D01*
X154705307Y-132921669D01*
X154798102Y-133145697D01*
X154932820Y-133347317D01*
X155104283Y-133518780D01*
X155305903Y-133653498D01*
X155529931Y-133746293D01*
X155767757Y-133793600D01*
X156010243Y-133793600D01*
X156248069Y-133746293D01*
X156472097Y-133653498D01*
X156673717Y-133518780D01*
X156845180Y-133347317D01*
X156979898Y-133145697D01*
X157072693Y-132921669D01*
X157120000Y-132683843D01*
X157120000Y-132441357D01*
X157072693Y-132203531D01*
X156995596Y-132017400D01*
X157196157Y-132017400D01*
X157196157Y-133717400D01*
X157203513Y-133792089D01*
X157225299Y-133863908D01*
X157260678Y-133930096D01*
X157308289Y-133988111D01*
X157366304Y-134035722D01*
X157432492Y-134071101D01*
X157504311Y-134092887D01*
X157579000Y-134100243D01*
X159279000Y-134100243D01*
X159353689Y-134092887D01*
X159425508Y-134071101D01*
X159491696Y-134035722D01*
X159549711Y-133988111D01*
X159597322Y-133930096D01*
X159632701Y-133863908D01*
X159654487Y-133792089D01*
X159661843Y-133717400D01*
X159661843Y-132017400D01*
X159654487Y-131942711D01*
X159632701Y-131870892D01*
X159597322Y-131804704D01*
X159549711Y-131746689D01*
X159491696Y-131699078D01*
X159425508Y-131663699D01*
X159353689Y-131641913D01*
X159279000Y-131634557D01*
X157579000Y-131634557D01*
X157504311Y-131641913D01*
X157432492Y-131663699D01*
X157366304Y-131699078D01*
X157308289Y-131746689D01*
X157260678Y-131804704D01*
X157225299Y-131870892D01*
X157203513Y-131942711D01*
X157196157Y-132017400D01*
X156995596Y-132017400D01*
X156979898Y-131979503D01*
X156845180Y-131777883D01*
X156673717Y-131606420D01*
X156472097Y-131471702D01*
X156248069Y-131378907D01*
X156010243Y-131331600D01*
X155767757Y-131331600D01*
X155529931Y-131378907D01*
X155305903Y-131471702D01*
X155278302Y-131490144D01*
X151155735Y-127367578D01*
X162350500Y-127367578D01*
X162350500Y-127521422D01*
X162380513Y-127672309D01*
X162439387Y-127814442D01*
X162524858Y-127942359D01*
X162633641Y-128051142D01*
X162761558Y-128136613D01*
X162885378Y-128187901D01*
X162825058Y-128212887D01*
X162697141Y-128298358D01*
X162588358Y-128407141D01*
X162502887Y-128535058D01*
X162444013Y-128677191D01*
X162414000Y-128828078D01*
X162414000Y-128981922D01*
X162444013Y-129132809D01*
X162502887Y-129274942D01*
X162588358Y-129402859D01*
X162598499Y-129413000D01*
X162588358Y-129423141D01*
X162502887Y-129551058D01*
X162444013Y-129693191D01*
X162414000Y-129844078D01*
X162414000Y-129997922D01*
X162444013Y-130148809D01*
X162502887Y-130290942D01*
X162588358Y-130418859D01*
X162697141Y-130527642D01*
X162825058Y-130613113D01*
X162967191Y-130671987D01*
X163118078Y-130702000D01*
X163271922Y-130702000D01*
X163422809Y-130671987D01*
X163564942Y-130613113D01*
X163692859Y-130527642D01*
X163703000Y-130517501D01*
X163713141Y-130527642D01*
X163841058Y-130613113D01*
X163983191Y-130671987D01*
X164134078Y-130702000D01*
X164287922Y-130702000D01*
X164438809Y-130671987D01*
X164580942Y-130613113D01*
X164708859Y-130527642D01*
X164817642Y-130418859D01*
X164903113Y-130290942D01*
X164961987Y-130148809D01*
X164992000Y-129997922D01*
X164992000Y-129844078D01*
X164961987Y-129693191D01*
X164903113Y-129551058D01*
X164817642Y-129423141D01*
X164807501Y-129413000D01*
X164817642Y-129402859D01*
X164903113Y-129274942D01*
X164961987Y-129132809D01*
X164992000Y-128981922D01*
X164992000Y-128828078D01*
X165017500Y-128828078D01*
X165017500Y-128981922D01*
X165047513Y-129132809D01*
X165106387Y-129274942D01*
X165191858Y-129402859D01*
X165201999Y-129413000D01*
X165191858Y-129423141D01*
X165106387Y-129551058D01*
X165047513Y-129693191D01*
X165017500Y-129844078D01*
X165017500Y-129997922D01*
X165047513Y-130148809D01*
X165106387Y-130290942D01*
X165191858Y-130418859D01*
X165300641Y-130527642D01*
X165428558Y-130613113D01*
X165570691Y-130671987D01*
X165721578Y-130702000D01*
X165875422Y-130702000D01*
X166026309Y-130671987D01*
X166168442Y-130613113D01*
X166296359Y-130527642D01*
X166405142Y-130418859D01*
X166490613Y-130290942D01*
X166549487Y-130148809D01*
X166579500Y-129997922D01*
X166579500Y-129844078D01*
X166549487Y-129693191D01*
X166490613Y-129551058D01*
X166405142Y-129423141D01*
X166395001Y-129413000D01*
X166405142Y-129402859D01*
X166490613Y-129274942D01*
X166549487Y-129132809D01*
X166579500Y-128981922D01*
X166579500Y-128828078D01*
X166605000Y-128828078D01*
X166605000Y-128981922D01*
X166635013Y-129132809D01*
X166693887Y-129274942D01*
X166779358Y-129402859D01*
X166789499Y-129413000D01*
X166779358Y-129423141D01*
X166693887Y-129551058D01*
X166635013Y-129693191D01*
X166605000Y-129844078D01*
X166605000Y-129997922D01*
X166635013Y-130148809D01*
X166693887Y-130290942D01*
X166779358Y-130418859D01*
X166888141Y-130527642D01*
X167016058Y-130613113D01*
X167158191Y-130671987D01*
X167309078Y-130702000D01*
X167462922Y-130702000D01*
X167613809Y-130671987D01*
X167755942Y-130613113D01*
X167883859Y-130527642D01*
X167992642Y-130418859D01*
X168078113Y-130290942D01*
X168136987Y-130148809D01*
X168167000Y-129997922D01*
X168167000Y-129844078D01*
X168136987Y-129693191D01*
X168078113Y-129551058D01*
X167992642Y-129423141D01*
X167982501Y-129413000D01*
X167992642Y-129402859D01*
X168078113Y-129274942D01*
X168136987Y-129132809D01*
X168167000Y-128981922D01*
X168167000Y-128828078D01*
X168136987Y-128677191D01*
X168078113Y-128535058D01*
X167992642Y-128407141D01*
X167883859Y-128298358D01*
X167755942Y-128212887D01*
X167613809Y-128154013D01*
X167462922Y-128124000D01*
X167309078Y-128124000D01*
X167158191Y-128154013D01*
X167016058Y-128212887D01*
X166888141Y-128298358D01*
X166779358Y-128407141D01*
X166693887Y-128535058D01*
X166635013Y-128677191D01*
X166605000Y-128828078D01*
X166579500Y-128828078D01*
X166549487Y-128677191D01*
X166490613Y-128535058D01*
X166405142Y-128407141D01*
X166296359Y-128298358D01*
X166168442Y-128212887D01*
X166026309Y-128154013D01*
X165875422Y-128124000D01*
X165721578Y-128124000D01*
X165570691Y-128154013D01*
X165428558Y-128212887D01*
X165300641Y-128298358D01*
X165191858Y-128407141D01*
X165106387Y-128535058D01*
X165047513Y-128677191D01*
X165017500Y-128828078D01*
X164992000Y-128828078D01*
X164961987Y-128677191D01*
X164903113Y-128535058D01*
X164817642Y-128407141D01*
X164708859Y-128298358D01*
X164580942Y-128212887D01*
X164488872Y-128174750D01*
X164580942Y-128136613D01*
X164708859Y-128051142D01*
X164817642Y-127942359D01*
X164903113Y-127814442D01*
X164961987Y-127672309D01*
X164992000Y-127521422D01*
X164992000Y-127367578D01*
X164961987Y-127216691D01*
X164903113Y-127074558D01*
X164817642Y-126946641D01*
X164708859Y-126837858D01*
X164580942Y-126752387D01*
X164438809Y-126693513D01*
X164287922Y-126663500D01*
X164134078Y-126663500D01*
X163983191Y-126693513D01*
X163841058Y-126752387D01*
X163713141Y-126837858D01*
X163671250Y-126879749D01*
X163629359Y-126837858D01*
X163501442Y-126752387D01*
X163359309Y-126693513D01*
X163208422Y-126663500D01*
X163054578Y-126663500D01*
X162903691Y-126693513D01*
X162761558Y-126752387D01*
X162633641Y-126837858D01*
X162524858Y-126946641D01*
X162439387Y-127074558D01*
X162380513Y-127216691D01*
X162350500Y-127367578D01*
X151155735Y-127367578D01*
X150323411Y-126535255D01*
X150323411Y-124510078D01*
X154984500Y-124510078D01*
X154984500Y-124663922D01*
X155014513Y-124814809D01*
X155073387Y-124956942D01*
X155158858Y-125084859D01*
X155267641Y-125193642D01*
X155395558Y-125279113D01*
X155537691Y-125337987D01*
X155688578Y-125368000D01*
X155842422Y-125368000D01*
X155993309Y-125337987D01*
X156135442Y-125279113D01*
X156263359Y-125193642D01*
X156372142Y-125084859D01*
X156457613Y-124956942D01*
X156516487Y-124814809D01*
X156546500Y-124663922D01*
X156546500Y-124510078D01*
X156521239Y-124383078D01*
X161461500Y-124383078D01*
X161461500Y-124536922D01*
X161491513Y-124687809D01*
X161550387Y-124829942D01*
X161635858Y-124957859D01*
X161744641Y-125066642D01*
X161872558Y-125152113D01*
X162014691Y-125210987D01*
X162165578Y-125241000D01*
X162319422Y-125241000D01*
X162470309Y-125210987D01*
X162612442Y-125152113D01*
X162740359Y-125066642D01*
X162849142Y-124957859D01*
X162934613Y-124829942D01*
X162993487Y-124687809D01*
X163023500Y-124536922D01*
X163023500Y-124383078D01*
X162993487Y-124232191D01*
X162934613Y-124090058D01*
X162849142Y-123962141D01*
X162740359Y-123853358D01*
X162612442Y-123767887D01*
X162470309Y-123709013D01*
X162319422Y-123679000D01*
X162165578Y-123679000D01*
X162014691Y-123709013D01*
X161872558Y-123767887D01*
X161744641Y-123853358D01*
X161635858Y-123962141D01*
X161550387Y-124090058D01*
X161491513Y-124232191D01*
X161461500Y-124383078D01*
X156521239Y-124383078D01*
X156516487Y-124359191D01*
X156457613Y-124217058D01*
X156372142Y-124089141D01*
X156263359Y-123980358D01*
X156135442Y-123894887D01*
X155993309Y-123836013D01*
X155842422Y-123806000D01*
X155688578Y-123806000D01*
X155537691Y-123836013D01*
X155395558Y-123894887D01*
X155267641Y-123980358D01*
X155158858Y-124089141D01*
X155073387Y-124217058D01*
X155014513Y-124359191D01*
X154984500Y-124510078D01*
X150323411Y-124510078D01*
X150323411Y-122287578D01*
X168383000Y-122287578D01*
X168383000Y-122441422D01*
X168413013Y-122592309D01*
X168471887Y-122734442D01*
X168557358Y-122862359D01*
X168666141Y-122971142D01*
X168794058Y-123056613D01*
X168936191Y-123115487D01*
X169087078Y-123145500D01*
X169240922Y-123145500D01*
X169391809Y-123115487D01*
X169533942Y-123056613D01*
X169661859Y-122971142D01*
X169770642Y-122862359D01*
X169856113Y-122734442D01*
X169914987Y-122592309D01*
X169945000Y-122441422D01*
X169945000Y-122287578D01*
X169914987Y-122136691D01*
X169856113Y-121994558D01*
X169770642Y-121866641D01*
X169661859Y-121757858D01*
X169533942Y-121672387D01*
X169391809Y-121613513D01*
X169240922Y-121583500D01*
X169087078Y-121583500D01*
X168936191Y-121613513D01*
X168794058Y-121672387D01*
X168666141Y-121757858D01*
X168557358Y-121866641D01*
X168471887Y-121994558D01*
X168413013Y-122136691D01*
X168383000Y-122287578D01*
X150323411Y-122287578D01*
X150323411Y-120448758D01*
X150941901Y-120448758D01*
X150941901Y-120691244D01*
X150989208Y-120929070D01*
X151082003Y-121153098D01*
X151216721Y-121354718D01*
X151388184Y-121526181D01*
X151589804Y-121660899D01*
X151813832Y-121753694D01*
X152051658Y-121801001D01*
X152294144Y-121801001D01*
X152531970Y-121753694D01*
X152755998Y-121660899D01*
X152957618Y-121526181D01*
X153129081Y-121354718D01*
X153263799Y-121153098D01*
X153356594Y-120929070D01*
X153357027Y-120926891D01*
X154311324Y-120926891D01*
X154355975Y-121074100D01*
X154481159Y-121336921D01*
X154655212Y-121570270D01*
X154871445Y-121765179D01*
X155121548Y-121914158D01*
X155395909Y-122011482D01*
X155625800Y-121890815D01*
X155625800Y-120697001D01*
X155879800Y-120697001D01*
X155879800Y-121890815D01*
X156109691Y-122011482D01*
X156384052Y-121914158D01*
X156634155Y-121765179D01*
X156850388Y-121570270D01*
X157024441Y-121336921D01*
X157149625Y-121074100D01*
X157194276Y-120926891D01*
X157072955Y-120697001D01*
X155879800Y-120697001D01*
X155625800Y-120697001D01*
X154432645Y-120697001D01*
X154311324Y-120926891D01*
X153357027Y-120926891D01*
X153403901Y-120691244D01*
X153403901Y-120448758D01*
X153356594Y-120210932D01*
X153263799Y-119986904D01*
X153129081Y-119785284D01*
X152957618Y-119613821D01*
X152755998Y-119479103D01*
X152531970Y-119386308D01*
X152294144Y-119339001D01*
X152051658Y-119339001D01*
X151813832Y-119386308D01*
X151589804Y-119479103D01*
X151388184Y-119613821D01*
X151216721Y-119785284D01*
X151082003Y-119986904D01*
X150989208Y-120210932D01*
X150941901Y-120448758D01*
X150323411Y-120448758D01*
X150323411Y-117908758D01*
X150637101Y-117908758D01*
X150637101Y-118151244D01*
X150684408Y-118389070D01*
X150777203Y-118613098D01*
X150911921Y-118814718D01*
X151083384Y-118986181D01*
X151285004Y-119120899D01*
X151509032Y-119213694D01*
X151746858Y-119261001D01*
X151989344Y-119261001D01*
X152227170Y-119213694D01*
X152451198Y-119120899D01*
X152652818Y-118986181D01*
X152824281Y-118814718D01*
X152958999Y-118613098D01*
X153051794Y-118389070D01*
X153099101Y-118151244D01*
X153099101Y-117908758D01*
X154217000Y-117908758D01*
X154217000Y-118151244D01*
X154264307Y-118389070D01*
X154357102Y-118613098D01*
X154491820Y-118814718D01*
X154663283Y-118986181D01*
X154864903Y-119120899D01*
X155088931Y-119213694D01*
X155131775Y-119222216D01*
X155121548Y-119225844D01*
X154871445Y-119374823D01*
X154655212Y-119569732D01*
X154481159Y-119803081D01*
X154355975Y-120065902D01*
X154311324Y-120213111D01*
X154432645Y-120443001D01*
X155625800Y-120443001D01*
X155625800Y-120423001D01*
X155879800Y-120423001D01*
X155879800Y-120443001D01*
X157072955Y-120443001D01*
X157194276Y-120213111D01*
X157149625Y-120065902D01*
X157024441Y-119803081D01*
X156850388Y-119569732D01*
X156634155Y-119374823D01*
X156384052Y-119225844D01*
X156109691Y-119128520D01*
X155879802Y-119249186D01*
X155879802Y-119183567D01*
X156031097Y-119120899D01*
X156138584Y-119049078D01*
X159048500Y-119049078D01*
X159048500Y-119202922D01*
X159078513Y-119353809D01*
X159137387Y-119495942D01*
X159222858Y-119623859D01*
X159331641Y-119732642D01*
X159459558Y-119818113D01*
X159601691Y-119876987D01*
X159752578Y-119907000D01*
X159906422Y-119907000D01*
X160057309Y-119876987D01*
X160199442Y-119818113D01*
X160327359Y-119732642D01*
X160436142Y-119623859D01*
X160521613Y-119495942D01*
X160580487Y-119353809D01*
X160610500Y-119202922D01*
X160610500Y-119049078D01*
X160580487Y-118898191D01*
X160521613Y-118756058D01*
X160436142Y-118628141D01*
X160327359Y-118519358D01*
X160199442Y-118433887D01*
X160057309Y-118375013D01*
X159906422Y-118345000D01*
X159752578Y-118345000D01*
X159601691Y-118375013D01*
X159459558Y-118433887D01*
X159331641Y-118519358D01*
X159222858Y-118628141D01*
X159137387Y-118756058D01*
X159078513Y-118898191D01*
X159048500Y-119049078D01*
X156138584Y-119049078D01*
X156232717Y-118986181D01*
X156404180Y-118814718D01*
X156538898Y-118613098D01*
X156631693Y-118389070D01*
X156679000Y-118151244D01*
X156679000Y-117908758D01*
X156631693Y-117670932D01*
X156538898Y-117446904D01*
X156404180Y-117245284D01*
X156232717Y-117073821D01*
X156031097Y-116939103D01*
X155807069Y-116846308D01*
X155569243Y-116799001D01*
X155326757Y-116799001D01*
X155088931Y-116846308D01*
X154864903Y-116939103D01*
X154663283Y-117073821D01*
X154491820Y-117245284D01*
X154357102Y-117446904D01*
X154264307Y-117670932D01*
X154217000Y-117908758D01*
X153099101Y-117908758D01*
X153051794Y-117670932D01*
X152958999Y-117446904D01*
X152824281Y-117245284D01*
X152652818Y-117073821D01*
X152451198Y-116939103D01*
X152227170Y-116846308D01*
X151989344Y-116799001D01*
X151746858Y-116799001D01*
X151509032Y-116846308D01*
X151285004Y-116939103D01*
X151083384Y-117073821D01*
X150911921Y-117245284D01*
X150777203Y-117446904D01*
X150684408Y-117670932D01*
X150637101Y-117908758D01*
X150323411Y-117908758D01*
X150323411Y-116763078D01*
X163938000Y-116763078D01*
X163938000Y-116916922D01*
X163968013Y-117067809D01*
X164026887Y-117209942D01*
X164112358Y-117337859D01*
X164221141Y-117446642D01*
X164287200Y-117490781D01*
X164287201Y-117946148D01*
X164284641Y-117947858D01*
X164175858Y-118056641D01*
X164090387Y-118184558D01*
X164031513Y-118326691D01*
X164001500Y-118477578D01*
X164001500Y-118631422D01*
X164031513Y-118782309D01*
X164090387Y-118924442D01*
X164175858Y-119052359D01*
X164284641Y-119161142D01*
X164412558Y-119246613D01*
X164554691Y-119305487D01*
X164705578Y-119335500D01*
X164859422Y-119335500D01*
X165010309Y-119305487D01*
X165152442Y-119246613D01*
X165280359Y-119161142D01*
X165389142Y-119052359D01*
X165474613Y-118924442D01*
X165533487Y-118782309D01*
X165563500Y-118631422D01*
X165563500Y-118477578D01*
X165533487Y-118326691D01*
X165474613Y-118184558D01*
X165389142Y-118056641D01*
X165280359Y-117947858D01*
X165152442Y-117862387D01*
X165150800Y-117861707D01*
X165150800Y-117490781D01*
X165216859Y-117446642D01*
X165325642Y-117337859D01*
X165411113Y-117209942D01*
X165469987Y-117067809D01*
X165500000Y-116916922D01*
X165500000Y-116763078D01*
X165469987Y-116612191D01*
X165411113Y-116470058D01*
X165325642Y-116342141D01*
X165216859Y-116233358D01*
X165088942Y-116147887D01*
X164946809Y-116089013D01*
X164795922Y-116059000D01*
X164642078Y-116059000D01*
X164491191Y-116089013D01*
X164349058Y-116147887D01*
X164221141Y-116233358D01*
X164112358Y-116342141D01*
X164026887Y-116470058D01*
X163968013Y-116612191D01*
X163938000Y-116763078D01*
X150323411Y-116763078D01*
X150323411Y-116558831D01*
X150389470Y-116514692D01*
X150498253Y-116405909D01*
X150583724Y-116277992D01*
X150642598Y-116135859D01*
X150672611Y-115984972D01*
X150672611Y-115831128D01*
X150642598Y-115680241D01*
X150583724Y-115538108D01*
X150498253Y-115410191D01*
X150389470Y-115301408D01*
X150261553Y-115215937D01*
X150119420Y-115157063D01*
X149968533Y-115127050D01*
X149814689Y-115127050D01*
X149672601Y-115155313D01*
X149672601Y-114647036D01*
X149675515Y-114640001D01*
X150940058Y-114640001D01*
X150940058Y-116340001D01*
X150947414Y-116414690D01*
X150969200Y-116486509D01*
X151004579Y-116552697D01*
X151052190Y-116610712D01*
X151110205Y-116658323D01*
X151176393Y-116693702D01*
X151248212Y-116715488D01*
X151322901Y-116722844D01*
X153022901Y-116722844D01*
X153097590Y-116715488D01*
X153169409Y-116693702D01*
X153235597Y-116658323D01*
X153293612Y-116610712D01*
X153341223Y-116552697D01*
X153376602Y-116486509D01*
X153398388Y-116414690D01*
X153405744Y-116340001D01*
X153405744Y-114640001D01*
X154519957Y-114640001D01*
X154519957Y-116340001D01*
X154527313Y-116414690D01*
X154549099Y-116486509D01*
X154584478Y-116552697D01*
X154632089Y-116610712D01*
X154690104Y-116658323D01*
X154756292Y-116693702D01*
X154828111Y-116715488D01*
X154902800Y-116722844D01*
X156602800Y-116722844D01*
X156677489Y-116715488D01*
X156749308Y-116693702D01*
X156815496Y-116658323D01*
X156873511Y-116610712D01*
X156921122Y-116552697D01*
X156956501Y-116486509D01*
X156978287Y-116414690D01*
X156985643Y-116340001D01*
X156985643Y-114640001D01*
X156978287Y-114565312D01*
X156956501Y-114493493D01*
X156921122Y-114427305D01*
X156873511Y-114369290D01*
X156815496Y-114321679D01*
X156749308Y-114286300D01*
X156677489Y-114264514D01*
X156602800Y-114257158D01*
X154902800Y-114257158D01*
X154828111Y-114264514D01*
X154756292Y-114286300D01*
X154690104Y-114321679D01*
X154632089Y-114369290D01*
X154584478Y-114427305D01*
X154549099Y-114493493D01*
X154527313Y-114565312D01*
X154519957Y-114640001D01*
X153405744Y-114640001D01*
X153398388Y-114565312D01*
X153376602Y-114493493D01*
X153341223Y-114427305D01*
X153293612Y-114369290D01*
X153235597Y-114321679D01*
X153169409Y-114286300D01*
X153097590Y-114264514D01*
X153022901Y-114257158D01*
X151322901Y-114257158D01*
X151248212Y-114264514D01*
X151176393Y-114286300D01*
X151110205Y-114321679D01*
X151052190Y-114369290D01*
X151004579Y-114427305D01*
X150969200Y-114493493D01*
X150947414Y-114565312D01*
X150940058Y-114640001D01*
X149675515Y-114640001D01*
X149721987Y-114527809D01*
X149752000Y-114376922D01*
X149752000Y-114223078D01*
X149721987Y-114072191D01*
X149663113Y-113930058D01*
X149577642Y-113802141D01*
X149468859Y-113693358D01*
X149340942Y-113607887D01*
X149198809Y-113549013D01*
X149047922Y-113519000D01*
X148894078Y-113519000D01*
X148850965Y-113527576D01*
X148832987Y-113437191D01*
X148774113Y-113295058D01*
X148688642Y-113167141D01*
X148579859Y-113058358D01*
X148451942Y-112972887D01*
X148309809Y-112914013D01*
X148158922Y-112884000D01*
X148139067Y-112884000D01*
X148148443Y-112836865D01*
X148148443Y-112683021D01*
X148118430Y-112532134D01*
X148082370Y-112445078D01*
X161588500Y-112445078D01*
X161588500Y-112598922D01*
X161618513Y-112749809D01*
X161677387Y-112891942D01*
X161762858Y-113019859D01*
X161871641Y-113128642D01*
X161999558Y-113214113D01*
X162141691Y-113272987D01*
X162292578Y-113303000D01*
X162446422Y-113303000D01*
X162597309Y-113272987D01*
X162739442Y-113214113D01*
X162867359Y-113128642D01*
X162976142Y-113019859D01*
X163061613Y-112891942D01*
X163120487Y-112749809D01*
X163150500Y-112598922D01*
X163150500Y-112445078D01*
X163120487Y-112294191D01*
X163061613Y-112152058D01*
X162976142Y-112024141D01*
X162867359Y-111915358D01*
X162739442Y-111829887D01*
X162597309Y-111771013D01*
X162446422Y-111741000D01*
X162292578Y-111741000D01*
X162141691Y-111771013D01*
X161999558Y-111829887D01*
X161871641Y-111915358D01*
X161762858Y-112024141D01*
X161677387Y-112152058D01*
X161618513Y-112294191D01*
X161588500Y-112445078D01*
X148082370Y-112445078D01*
X148059556Y-112390001D01*
X147974085Y-112262084D01*
X147865302Y-112153301D01*
X147744844Y-112072814D01*
X148054157Y-111763501D01*
X148132078Y-111779000D01*
X148285922Y-111779000D01*
X148436809Y-111748987D01*
X148578942Y-111690113D01*
X148706859Y-111604642D01*
X148815642Y-111495859D01*
X148901113Y-111367942D01*
X148959987Y-111225809D01*
X148990000Y-111074922D01*
X148990000Y-110921078D01*
X148959987Y-110770191D01*
X148901113Y-110628058D01*
X148815642Y-110500141D01*
X148706859Y-110391358D01*
X148578942Y-110305887D01*
X148475229Y-110262927D01*
X148579078Y-110159078D01*
X154603500Y-110159078D01*
X154603500Y-110312922D01*
X154633513Y-110463809D01*
X154692387Y-110605942D01*
X154777858Y-110733859D01*
X154886641Y-110842642D01*
X155014558Y-110928113D01*
X155156691Y-110986987D01*
X155307578Y-111017000D01*
X155461422Y-111017000D01*
X155612309Y-110986987D01*
X155754442Y-110928113D01*
X155882359Y-110842642D01*
X155991142Y-110733859D01*
X156076613Y-110605942D01*
X156135487Y-110463809D01*
X156165500Y-110312922D01*
X156165500Y-110159078D01*
X156135487Y-110008191D01*
X156076613Y-109866058D01*
X155991142Y-109738141D01*
X155882359Y-109629358D01*
X155754442Y-109543887D01*
X155706620Y-109524078D01*
X164382500Y-109524078D01*
X164382500Y-109677922D01*
X164412513Y-109828809D01*
X164471387Y-109970942D01*
X164556858Y-110098859D01*
X164665641Y-110207642D01*
X164793558Y-110293113D01*
X164935691Y-110351987D01*
X165086578Y-110382000D01*
X165240422Y-110382000D01*
X165391309Y-110351987D01*
X165533442Y-110293113D01*
X165661359Y-110207642D01*
X165770142Y-110098859D01*
X165855613Y-109970942D01*
X165914487Y-109828809D01*
X165944500Y-109677922D01*
X165944500Y-109524078D01*
X165914487Y-109373191D01*
X165855613Y-109231058D01*
X165770142Y-109103141D01*
X165661359Y-108994358D01*
X165533442Y-108908887D01*
X165391309Y-108850013D01*
X165240422Y-108820000D01*
X165086578Y-108820000D01*
X164935691Y-108850013D01*
X164793558Y-108908887D01*
X164665641Y-108994358D01*
X164556858Y-109103141D01*
X164471387Y-109231058D01*
X164412513Y-109373191D01*
X164382500Y-109524078D01*
X155706620Y-109524078D01*
X155612309Y-109485013D01*
X155461422Y-109455000D01*
X155307578Y-109455000D01*
X155156691Y-109485013D01*
X155014558Y-109543887D01*
X154886641Y-109629358D01*
X154777858Y-109738141D01*
X154692387Y-109866058D01*
X154633513Y-110008191D01*
X154603500Y-110159078D01*
X148579078Y-110159078D01*
X152134357Y-106603800D01*
X154918790Y-106603800D01*
X154940000Y-106605889D01*
X154961210Y-106603800D01*
X155024648Y-106597552D01*
X155106042Y-106572861D01*
X155181056Y-106532766D01*
X155246806Y-106478806D01*
X155260335Y-106462321D01*
X157922134Y-103800524D01*
X158073431Y-103863193D01*
X158311257Y-103910500D01*
X158553743Y-103910500D01*
X158791569Y-103863193D01*
X159015597Y-103770398D01*
X159217217Y-103635680D01*
X159388680Y-103464217D01*
X159523398Y-103262597D01*
X159616193Y-103038569D01*
X159663500Y-102800743D01*
X159663500Y-102558257D01*
X159616193Y-102320431D01*
X159523398Y-102096403D01*
X159388680Y-101894783D01*
X159217217Y-101723320D01*
X159015597Y-101588602D01*
X158791569Y-101495807D01*
X158553743Y-101448500D01*
X158311257Y-101448500D01*
X158073431Y-101495807D01*
X157849403Y-101588602D01*
X157647783Y-101723320D01*
X157476320Y-101894783D01*
X157341602Y-102096403D01*
X157248807Y-102320431D01*
X157201500Y-102558257D01*
X157201500Y-102800743D01*
X157248807Y-103038569D01*
X157311476Y-103189866D01*
X154761144Y-105740200D01*
X151976709Y-105740200D01*
X151955499Y-105738111D01*
X151870852Y-105746448D01*
X151839068Y-105756090D01*
X152070858Y-105524300D01*
X153140790Y-105524300D01*
X153162000Y-105526389D01*
X153183210Y-105524300D01*
X153246648Y-105518052D01*
X153328042Y-105493361D01*
X153403056Y-105453266D01*
X153468806Y-105399306D01*
X153482335Y-105382821D01*
X155373153Y-103492004D01*
X155533431Y-103558393D01*
X155771257Y-103605700D01*
X156013743Y-103605700D01*
X156251569Y-103558393D01*
X156475597Y-103465598D01*
X156677217Y-103330880D01*
X156848680Y-103159417D01*
X156983398Y-102957797D01*
X157076193Y-102733769D01*
X157123500Y-102495943D01*
X157123500Y-102253457D01*
X157076193Y-102015631D01*
X156983398Y-101791603D01*
X156848680Y-101589983D01*
X156677217Y-101418520D01*
X156475597Y-101283802D01*
X156251569Y-101191007D01*
X156013743Y-101143700D01*
X155771257Y-101143700D01*
X155533431Y-101191007D01*
X155309403Y-101283802D01*
X155107783Y-101418520D01*
X154936320Y-101589983D01*
X154801602Y-101791603D01*
X154708807Y-102015631D01*
X154661500Y-102253457D01*
X154661500Y-102495943D01*
X154708807Y-102733769D01*
X154767756Y-102876086D01*
X154487346Y-103156497D01*
X154536193Y-103038569D01*
X154583500Y-102800743D01*
X154583500Y-102558257D01*
X154536193Y-102320431D01*
X154443398Y-102096403D01*
X154308680Y-101894783D01*
X154137217Y-101723320D01*
X153935597Y-101588602D01*
X153711569Y-101495807D01*
X153473743Y-101448500D01*
X153231257Y-101448500D01*
X152993431Y-101495807D01*
X152769403Y-101588602D01*
X152567783Y-101723320D01*
X152396320Y-101894783D01*
X152261602Y-102096403D01*
X152168807Y-102320431D01*
X152142336Y-102453507D01*
X152029496Y-102566347D01*
X152043500Y-102495943D01*
X152043500Y-102253457D01*
X151996193Y-102015631D01*
X151903398Y-101791603D01*
X151768680Y-101589983D01*
X151597217Y-101418520D01*
X151395597Y-101283802D01*
X151171569Y-101191007D01*
X150933743Y-101143700D01*
X150691257Y-101143700D01*
X150453431Y-101191007D01*
X150229403Y-101283802D01*
X150027783Y-101418520D01*
X149856320Y-101589983D01*
X149721602Y-101791603D01*
X149628807Y-102015631D01*
X149581500Y-102253457D01*
X149581500Y-102495943D01*
X149628807Y-102733769D01*
X149706355Y-102920988D01*
X149360683Y-103266660D01*
X149363398Y-103262597D01*
X149456193Y-103038569D01*
X149503500Y-102800743D01*
X149503500Y-102558257D01*
X149456193Y-102320431D01*
X149363398Y-102096403D01*
X149228680Y-101894783D01*
X149057217Y-101723320D01*
X148855597Y-101588602D01*
X148631569Y-101495807D01*
X148393743Y-101448500D01*
X148151257Y-101448500D01*
X147913431Y-101495807D01*
X147689403Y-101588602D01*
X147487783Y-101723320D01*
X147316320Y-101894783D01*
X147181602Y-102096403D01*
X147088807Y-102320431D01*
X147041500Y-102558257D01*
X147041500Y-102800743D01*
X147088807Y-103038569D01*
X147181602Y-103262597D01*
X147316320Y-103464217D01*
X147487783Y-103635680D01*
X147689403Y-103770398D01*
X147818753Y-103823976D01*
X146134743Y-105507986D01*
X146158052Y-105431148D01*
X146164300Y-105367710D01*
X146164300Y-105367709D01*
X146166389Y-105346501D01*
X146164300Y-105325291D01*
X146164300Y-103528267D01*
X146315597Y-103465598D01*
X146517217Y-103330880D01*
X146688680Y-103159417D01*
X146823398Y-102957797D01*
X146916193Y-102733769D01*
X146963500Y-102495943D01*
X146963500Y-102253457D01*
X146916193Y-102015631D01*
X146823398Y-101791603D01*
X146688680Y-101589983D01*
X146517217Y-101418520D01*
X146315597Y-101283802D01*
X146091569Y-101191007D01*
X145853743Y-101143700D01*
X145611257Y-101143700D01*
X145373431Y-101191007D01*
X145149403Y-101283802D01*
X144947783Y-101418520D01*
X144776320Y-101589983D01*
X144641602Y-101791603D01*
X144548807Y-102015631D01*
X144501500Y-102253457D01*
X144501500Y-102495943D01*
X144548807Y-102733769D01*
X144641602Y-102957797D01*
X144776320Y-103159417D01*
X144947783Y-103330880D01*
X145149403Y-103465598D01*
X145300701Y-103528267D01*
X145300700Y-105167642D01*
X143624300Y-106844042D01*
X143624300Y-103833067D01*
X143775597Y-103770398D01*
X143977217Y-103635680D01*
X144148680Y-103464217D01*
X144283398Y-103262597D01*
X144376193Y-103038569D01*
X144423500Y-102800743D01*
X144423500Y-102558257D01*
X144376193Y-102320431D01*
X144283398Y-102096403D01*
X144148680Y-101894783D01*
X143977217Y-101723320D01*
X143775597Y-101588602D01*
X143551569Y-101495807D01*
X143313743Y-101448500D01*
X143071257Y-101448500D01*
X142833431Y-101495807D01*
X142609403Y-101588602D01*
X142407783Y-101723320D01*
X142236320Y-101894783D01*
X142101602Y-102096403D01*
X142008807Y-102320431D01*
X141961500Y-102558257D01*
X141961500Y-102800743D01*
X142008807Y-103038569D01*
X142101602Y-103262597D01*
X142236320Y-103464217D01*
X142407783Y-103635680D01*
X142609403Y-103770398D01*
X142760700Y-103833067D01*
X142760701Y-107281100D01*
X141367547Y-108674254D01*
X141370000Y-108661922D01*
X141370000Y-108508078D01*
X141339987Y-108357191D01*
X141281113Y-108215058D01*
X141195642Y-108087141D01*
X141086859Y-107978358D01*
X140958942Y-107892887D01*
X140816809Y-107834013D01*
X140665922Y-107804000D01*
X140512078Y-107804000D01*
X140361191Y-107834013D01*
X140219058Y-107892887D01*
X140091141Y-107978358D01*
X139982358Y-108087141D01*
X139896887Y-108215058D01*
X139838013Y-108357191D01*
X139808000Y-108508078D01*
X139808000Y-108661922D01*
X139838013Y-108812809D01*
X139896887Y-108954942D01*
X139982358Y-109082859D01*
X140091141Y-109191642D01*
X140219058Y-109277113D01*
X140361191Y-109335987D01*
X140512078Y-109366000D01*
X140665922Y-109366000D01*
X140678254Y-109363547D01*
X136178999Y-113862803D01*
X136178999Y-109657971D01*
X136624833Y-109212139D01*
X136641306Y-109198620D01*
X136695266Y-109132870D01*
X136735361Y-109057856D01*
X136760052Y-108976462D01*
X136766300Y-108913024D01*
X136766300Y-108913023D01*
X136768389Y-108891815D01*
X136766300Y-108870605D01*
X136766300Y-105461856D01*
X137275357Y-104952800D01*
X139996290Y-104952800D01*
X140017500Y-104954889D01*
X140038710Y-104952800D01*
X140102148Y-104946552D01*
X140183542Y-104921861D01*
X140258556Y-104881766D01*
X140324306Y-104827806D01*
X140337835Y-104811322D01*
X141006333Y-104142825D01*
X141022806Y-104129306D01*
X141076766Y-104063556D01*
X141116861Y-103988542D01*
X141141552Y-103907148D01*
X141147800Y-103843710D01*
X141147800Y-103843709D01*
X141149889Y-103822501D01*
X141147800Y-103801291D01*
X141147800Y-103501965D01*
X141235597Y-103465598D01*
X141437217Y-103330880D01*
X141608680Y-103159417D01*
X141743398Y-102957797D01*
X141836193Y-102733769D01*
X141883500Y-102495943D01*
X141883500Y-102253457D01*
X141836193Y-102015631D01*
X141743398Y-101791603D01*
X141608680Y-101589983D01*
X141437217Y-101418520D01*
X141235597Y-101283802D01*
X141011569Y-101191007D01*
X140773743Y-101143700D01*
X140531257Y-101143700D01*
X140293431Y-101191007D01*
X140069403Y-101283802D01*
X139867783Y-101418520D01*
X139696320Y-101589983D01*
X139561602Y-101791603D01*
X139468807Y-102015631D01*
X139421500Y-102253457D01*
X139421500Y-102495943D01*
X139468807Y-102733769D01*
X139561602Y-102957797D01*
X139696320Y-103159417D01*
X139867783Y-103330880D01*
X140069403Y-103465598D01*
X140284200Y-103554569D01*
X140284200Y-103643642D01*
X139838644Y-104089200D01*
X137313457Y-104089200D01*
X137602133Y-103800524D01*
X137753431Y-103863193D01*
X137991257Y-103910500D01*
X138233743Y-103910500D01*
X138471569Y-103863193D01*
X138695597Y-103770398D01*
X138897217Y-103635680D01*
X139068680Y-103464217D01*
X139203398Y-103262597D01*
X139296193Y-103038569D01*
X139343500Y-102800743D01*
X139343500Y-102558257D01*
X139296193Y-102320431D01*
X139203398Y-102096403D01*
X139068680Y-101894783D01*
X138897217Y-101723320D01*
X138695597Y-101588602D01*
X138471569Y-101495807D01*
X138233743Y-101448500D01*
X137991257Y-101448500D01*
X137753431Y-101495807D01*
X137529403Y-101588602D01*
X137327783Y-101723320D01*
X137156320Y-101894783D01*
X137021602Y-102096403D01*
X136928807Y-102320431D01*
X136881500Y-102558257D01*
X136881500Y-102800743D01*
X136928807Y-103038569D01*
X136991476Y-103189867D01*
X136726519Y-103454824D01*
X136740822Y-103437396D01*
X136776201Y-103371208D01*
X136797987Y-103299389D01*
X136805343Y-103224700D01*
X136805343Y-101524700D01*
X136797987Y-101450011D01*
X136776201Y-101378192D01*
X136740822Y-101312004D01*
X136693211Y-101253989D01*
X136635196Y-101206378D01*
X136569008Y-101170999D01*
X136497189Y-101149213D01*
X136422500Y-101141857D01*
X134722500Y-101141857D01*
X134647811Y-101149213D01*
X134575992Y-101170999D01*
X134509804Y-101206378D01*
X134451789Y-101253989D01*
X134404178Y-101312004D01*
X134368799Y-101378192D01*
X134347013Y-101450011D01*
X134339657Y-101524700D01*
X134339657Y-103224700D01*
X134347013Y-103299389D01*
X134368799Y-103371208D01*
X134404178Y-103437396D01*
X134451789Y-103495411D01*
X134509804Y-103543022D01*
X134575992Y-103578401D01*
X134647811Y-103600187D01*
X134722500Y-103607543D01*
X135077200Y-103607543D01*
X135077201Y-108685372D01*
X134790068Y-108972506D01*
X134773584Y-108986034D01*
X134719624Y-109051785D01*
X134679529Y-109126799D01*
X134659914Y-109191460D01*
X134654838Y-109208193D01*
X134646501Y-109292840D01*
X134648590Y-109314050D01*
X134648591Y-110697517D01*
X134639000Y-110707108D01*
X134639000Y-110667078D01*
X134608987Y-110516191D01*
X134550113Y-110374058D01*
X134464642Y-110246141D01*
X134355859Y-110137358D01*
X134227942Y-110051887D01*
X134085809Y-109993013D01*
X133934922Y-109963000D01*
X133781078Y-109963000D01*
X133630191Y-109993013D01*
X133488058Y-110051887D01*
X133360141Y-110137358D01*
X133337699Y-110159800D01*
X131697809Y-110159800D01*
X131670642Y-110119141D01*
X131561859Y-110010358D01*
X131433942Y-109924887D01*
X131291809Y-109866013D01*
X131140922Y-109836000D01*
X130987078Y-109836000D01*
X130836191Y-109866013D01*
X130694058Y-109924887D01*
X130566141Y-110010358D01*
X130457358Y-110119141D01*
X130371887Y-110247058D01*
X130313013Y-110389191D01*
X130283000Y-110540078D01*
X130283000Y-110693922D01*
X130313013Y-110844809D01*
X130371887Y-110986942D01*
X130457358Y-111114859D01*
X130566141Y-111223642D01*
X130615229Y-111256441D01*
X130582191Y-111263013D01*
X130440058Y-111321887D01*
X130312141Y-111407358D01*
X130203358Y-111516141D01*
X130117887Y-111644058D01*
X130059013Y-111786191D01*
X130029000Y-111937078D01*
X122563747Y-111937078D01*
X122591798Y-111895097D01*
X122684593Y-111671069D01*
X122731900Y-111433243D01*
X122731900Y-111190757D01*
X122684593Y-110952931D01*
X122591798Y-110728903D01*
X122457080Y-110527283D01*
X122285617Y-110355820D01*
X122083997Y-110221102D01*
X121859969Y-110128307D01*
X121622143Y-110081000D01*
X121379657Y-110081000D01*
X121141831Y-110128307D01*
X120917803Y-110221102D01*
X120716183Y-110355820D01*
X120544720Y-110527283D01*
X120410002Y-110728903D01*
X120317207Y-110952931D01*
X120269900Y-111190757D01*
X119553791Y-111190757D01*
X119709902Y-110252844D01*
X120085582Y-108920784D01*
X120605164Y-107637998D01*
X120992262Y-106920578D01*
X122155000Y-106920578D01*
X122155000Y-107074422D01*
X122185013Y-107225309D01*
X122243887Y-107367442D01*
X122329358Y-107495359D01*
X122402999Y-107569000D01*
X122329358Y-107642641D01*
X122243887Y-107770558D01*
X122185013Y-107912691D01*
X122155000Y-108063578D01*
X122155000Y-108217422D01*
X122185013Y-108368309D01*
X122243887Y-108510442D01*
X122329358Y-108638359D01*
X122438141Y-108747142D01*
X122566058Y-108832613D01*
X122708191Y-108891487D01*
X122859078Y-108921500D01*
X123012922Y-108921500D01*
X123163809Y-108891487D01*
X123305942Y-108832613D01*
X123433859Y-108747142D01*
X123542642Y-108638359D01*
X123628113Y-108510442D01*
X123686987Y-108368309D01*
X123717000Y-108217422D01*
X123717000Y-108063578D01*
X123704370Y-108000078D01*
X126981000Y-108000078D01*
X126981000Y-108153922D01*
X127011013Y-108304809D01*
X127069887Y-108446942D01*
X127155358Y-108574859D01*
X127264141Y-108683642D01*
X127392058Y-108769113D01*
X127534191Y-108827987D01*
X127685078Y-108858000D01*
X127838922Y-108858000D01*
X127989809Y-108827987D01*
X128131942Y-108769113D01*
X128259859Y-108683642D01*
X128368642Y-108574859D01*
X128454113Y-108446942D01*
X128512987Y-108304809D01*
X128543000Y-108153922D01*
X128543000Y-108000078D01*
X128512987Y-107849191D01*
X128454113Y-107707058D01*
X128368642Y-107579141D01*
X128259859Y-107470358D01*
X128131942Y-107384887D01*
X127989809Y-107326013D01*
X127838922Y-107296000D01*
X127685078Y-107296000D01*
X127534191Y-107326013D01*
X127392058Y-107384887D01*
X127264141Y-107470358D01*
X127155358Y-107579141D01*
X127069887Y-107707058D01*
X127011013Y-107849191D01*
X126981000Y-108000078D01*
X123704370Y-108000078D01*
X123686987Y-107912691D01*
X123628113Y-107770558D01*
X123542642Y-107642641D01*
X123469001Y-107569000D01*
X123542642Y-107495359D01*
X123628113Y-107367442D01*
X123686987Y-107225309D01*
X123717000Y-107074422D01*
X123717000Y-106920578D01*
X123686987Y-106769691D01*
X123628113Y-106627558D01*
X123542642Y-106499641D01*
X123433859Y-106390858D01*
X123305942Y-106305387D01*
X123163809Y-106246513D01*
X123012922Y-106216500D01*
X122859078Y-106216500D01*
X122708191Y-106246513D01*
X122566058Y-106305387D01*
X122438141Y-106390858D01*
X122329358Y-106499641D01*
X122243887Y-106627558D01*
X122185013Y-106769691D01*
X122155000Y-106920578D01*
X120992262Y-106920578D01*
X121262372Y-106419977D01*
X122049273Y-105281426D01*
X122956359Y-104236102D01*
X123972677Y-103296627D01*
X125085937Y-102474360D01*
X126282720Y-101779213D01*
X127548559Y-101219592D01*
X128868146Y-100802260D01*
X130225577Y-100532250D01*
X131612392Y-100412139D01*
X132003194Y-100406000D01*
X160988829Y-100406000D01*
X162381933Y-100482668D01*
G37*
X162381933Y-100482668D02*
X163747156Y-100709902D01*
X165079216Y-101085582D01*
X166362002Y-101605164D01*
X167580023Y-102262372D01*
X168718574Y-103049273D01*
X169763898Y-103956359D01*
X170703373Y-104972677D01*
X171525640Y-106085937D01*
X172220787Y-107282720D01*
X172780408Y-108548559D01*
X173197740Y-109868146D01*
X173467750Y-111225577D01*
X173587861Y-112612392D01*
X173593968Y-113001128D01*
X173588112Y-113576500D01*
X168866441Y-113576500D01*
X168846500Y-113574536D01*
X168826560Y-113576500D01*
X168826559Y-113576500D01*
X168766910Y-113582375D01*
X168690379Y-113605590D01*
X168619847Y-113643290D01*
X168558026Y-113694026D01*
X168507290Y-113755847D01*
X168469590Y-113826379D01*
X168446375Y-113902910D01*
X168438536Y-113982500D01*
X168440501Y-114002451D01*
X168440500Y-115423059D01*
X168440500Y-115677059D01*
X168438536Y-115697000D01*
X168446375Y-115776590D01*
X168469590Y-115853121D01*
X168507290Y-115923653D01*
X168549970Y-115975658D01*
X168558026Y-115985474D01*
X168619847Y-116036210D01*
X168690379Y-116073910D01*
X168766910Y-116097125D01*
X168846500Y-116104964D01*
X168866440Y-116103000D01*
X173520500Y-116103000D01*
X173520501Y-118974000D01*
X170615239Y-118974000D01*
X170643500Y-118831922D01*
X170643500Y-118678078D01*
X170613487Y-118527191D01*
X170554613Y-118385058D01*
X170469142Y-118257141D01*
X170360359Y-118148358D01*
X170232442Y-118062887D01*
X170090309Y-118004013D01*
X169939422Y-117974000D01*
X169785578Y-117974000D01*
X169634691Y-118004013D01*
X169492558Y-118062887D01*
X169364641Y-118148358D01*
X169255858Y-118257141D01*
X169170387Y-118385058D01*
X169111513Y-118527191D01*
X169081500Y-118678078D01*
X169081500Y-118831922D01*
X169109761Y-118974000D01*
X168866440Y-118974000D01*
X168846500Y-118972036D01*
X168826559Y-118974000D01*
X168766910Y-118979875D01*
X168690379Y-119003090D01*
X168619847Y-119040790D01*
X168558026Y-119091526D01*
X168507290Y-119153347D01*
X168469590Y-119223879D01*
X168446375Y-119300410D01*
X168438536Y-119380000D01*
X168440500Y-119399941D01*
X168440500Y-119614060D01*
X168440501Y-121074549D01*
X168438536Y-121094500D01*
X168446375Y-121174090D01*
X168469590Y-121250621D01*
X168507290Y-121321153D01*
X168558026Y-121382974D01*
X168619847Y-121433710D01*
X168690379Y-121471410D01*
X168766910Y-121494625D01*
X168826559Y-121500500D01*
X168826560Y-121500500D01*
X168846500Y-121502464D01*
X168866441Y-121500500D01*
X173588459Y-121500500D01*
X173593877Y-121991070D01*
X173517332Y-123381933D01*
X173290097Y-124747160D01*
X172914417Y-126079219D01*
X172394836Y-127362002D01*
X171737624Y-128580029D01*
X170950727Y-129718574D01*
X170043641Y-130763898D01*
X169027328Y-131703368D01*
X167914063Y-132525640D01*
X166717276Y-133220789D01*
X165451441Y-133780408D01*
X164131852Y-134197740D01*
X162774424Y-134467750D01*
X161387608Y-134587861D01*
X160996806Y-134594000D01*
X132011171Y-134594000D01*
X130618067Y-134517332D01*
X129252840Y-134290097D01*
X127920781Y-133914417D01*
X126637998Y-133394836D01*
X125419971Y-132737624D01*
X124281426Y-131950727D01*
X123236102Y-131043641D01*
X122296632Y-130027328D01*
X121474360Y-128914063D01*
X120779211Y-127717276D01*
X120219592Y-126451441D01*
X119802260Y-125131852D01*
X119532250Y-123774424D01*
X119479209Y-123162000D01*
X119963257Y-123162000D01*
X119963257Y-124862000D01*
X119970613Y-124936689D01*
X119992399Y-125008508D01*
X120027778Y-125074696D01*
X120075389Y-125132711D01*
X120133404Y-125180322D01*
X120199592Y-125215701D01*
X120271411Y-125237487D01*
X120346100Y-125244843D01*
X122046100Y-125244843D01*
X122120789Y-125237487D01*
X122192608Y-125215701D01*
X122258796Y-125180322D01*
X122316811Y-125132711D01*
X122364422Y-125074696D01*
X122399801Y-125008508D01*
X122421587Y-124936689D01*
X122428943Y-124862000D01*
X122428943Y-123162000D01*
X122421587Y-123087311D01*
X122399801Y-123015492D01*
X122364422Y-122949304D01*
X122316811Y-122891289D01*
X122258796Y-122843678D01*
X122192608Y-122808299D01*
X122120789Y-122786513D01*
X122046100Y-122779157D01*
X120346100Y-122779157D01*
X120271411Y-122786513D01*
X120199592Y-122808299D01*
X120133404Y-122843678D01*
X120075389Y-122891289D01*
X120027778Y-122949304D01*
X119992399Y-123015492D01*
X119970613Y-123087311D01*
X119963257Y-123162000D01*
X119479209Y-123162000D01*
X119412139Y-122387608D01*
X119406000Y-121996806D01*
X119406000Y-121350757D01*
X120269900Y-121350757D01*
X120269900Y-121593243D01*
X120317207Y-121831069D01*
X120410002Y-122055097D01*
X120544720Y-122256717D01*
X120716183Y-122428180D01*
X120917803Y-122562898D01*
X121141831Y-122655693D01*
X121379657Y-122703000D01*
X121622143Y-122703000D01*
X121859969Y-122655693D01*
X122083997Y-122562898D01*
X122285617Y-122428180D01*
X122457080Y-122256717D01*
X122591798Y-122055097D01*
X122684593Y-121831069D01*
X122731900Y-121593243D01*
X122731900Y-121350757D01*
X122684593Y-121112931D01*
X122591798Y-120888903D01*
X122457080Y-120687283D01*
X122285617Y-120515820D01*
X122083997Y-120381102D01*
X121859969Y-120288307D01*
X121622143Y-120241000D01*
X121379657Y-120241000D01*
X121141831Y-120288307D01*
X120917803Y-120381102D01*
X120716183Y-120515820D01*
X120544720Y-120687283D01*
X120410002Y-120888903D01*
X120317207Y-121112931D01*
X120269900Y-121350757D01*
X119406000Y-121350757D01*
X119406000Y-118810757D01*
X119965100Y-118810757D01*
X119965100Y-119053243D01*
X120012407Y-119291069D01*
X120105202Y-119515097D01*
X120239920Y-119716717D01*
X120411383Y-119888180D01*
X120613003Y-120022898D01*
X120837031Y-120115693D01*
X121074857Y-120163000D01*
X121317343Y-120163000D01*
X121555169Y-120115693D01*
X121779197Y-120022898D01*
X121980817Y-119888180D01*
X122152280Y-119716717D01*
X122286998Y-119515097D01*
X122379793Y-119291069D01*
X122427100Y-119053243D01*
X122427100Y-118810757D01*
X122379793Y-118572931D01*
X122286998Y-118348903D01*
X122152280Y-118147283D01*
X121980817Y-117975820D01*
X121779197Y-117841102D01*
X121555169Y-117748307D01*
X121317343Y-117701000D01*
X121074857Y-117701000D01*
X120837031Y-117748307D01*
X120613003Y-117841102D01*
X120411383Y-117975820D01*
X120239920Y-118147283D01*
X120105202Y-118348903D01*
X120012407Y-118572931D01*
X119965100Y-118810757D01*
X119406000Y-118810757D01*
X119406000Y-116270757D01*
X120269900Y-116270757D01*
X120269900Y-116513243D01*
X120317207Y-116751069D01*
X120410002Y-116975097D01*
X120544720Y-117176717D01*
X120716183Y-117348180D01*
X120917803Y-117482898D01*
X121141831Y-117575693D01*
X121379657Y-117623000D01*
X121622143Y-117623000D01*
X121859969Y-117575693D01*
X122083997Y-117482898D01*
X122285617Y-117348180D01*
X122457080Y-117176717D01*
X122591798Y-116975097D01*
X122684593Y-116751069D01*
X122731900Y-116513243D01*
X122731900Y-116270757D01*
X122684593Y-116032931D01*
X122591798Y-115808903D01*
X122457080Y-115607283D01*
X122285617Y-115435820D01*
X122083997Y-115301102D01*
X121859969Y-115208307D01*
X121622143Y-115161000D01*
X121379657Y-115161000D01*
X121141831Y-115208307D01*
X120917803Y-115301102D01*
X120716183Y-115435820D01*
X120544720Y-115607283D01*
X120410002Y-115808903D01*
X120317207Y-116032931D01*
X120269900Y-116270757D01*
X119406000Y-116270757D01*
X119406000Y-113730757D01*
X119965100Y-113730757D01*
X119965100Y-113973243D01*
X120012407Y-114211069D01*
X120105202Y-114435097D01*
X120239920Y-114636717D01*
X120411383Y-114808180D01*
X120613003Y-114942898D01*
X120837031Y-115035693D01*
X121074857Y-115083000D01*
X121317343Y-115083000D01*
X121555169Y-115035693D01*
X121779197Y-114942898D01*
X121980817Y-114808180D01*
X122152280Y-114636717D01*
X122216517Y-114540578D01*
X129648000Y-114540578D01*
X129648000Y-114694422D01*
X129678013Y-114845309D01*
X129736887Y-114987442D01*
X129822358Y-115115359D01*
X129931141Y-115224142D01*
X130059058Y-115309613D01*
X130201191Y-115368487D01*
X130352078Y-115398500D01*
X130505922Y-115398500D01*
X130656809Y-115368487D01*
X130798942Y-115309613D01*
X130926859Y-115224142D01*
X131035642Y-115115359D01*
X131121113Y-114987442D01*
X131179987Y-114845309D01*
X131210000Y-114694422D01*
X131210000Y-114540578D01*
X131179987Y-114389691D01*
X131121113Y-114247558D01*
X131035642Y-114119641D01*
X130926859Y-114010858D01*
X130798942Y-113925387D01*
X130656809Y-113866513D01*
X130505922Y-113836500D01*
X130352078Y-113836500D01*
X130201191Y-113866513D01*
X130059058Y-113925387D01*
X129931141Y-114010858D01*
X129822358Y-114119641D01*
X129736887Y-114247558D01*
X129678013Y-114389691D01*
X129648000Y-114540578D01*
X122216517Y-114540578D01*
X122286998Y-114435097D01*
X122379793Y-114211069D01*
X122427100Y-113973243D01*
X122427100Y-113730757D01*
X122379793Y-113492931D01*
X122286998Y-113268903D01*
X122152280Y-113067283D01*
X121980817Y-112895820D01*
X121779197Y-112761102D01*
X121555169Y-112668307D01*
X121317343Y-112621000D01*
X121074857Y-112621000D01*
X120837031Y-112668307D01*
X120613003Y-112761102D01*
X120411383Y-112895820D01*
X120239920Y-113067283D01*
X120105202Y-113268903D01*
X120012407Y-113492931D01*
X119965100Y-113730757D01*
X119406000Y-113730757D01*
X119406000Y-113011171D01*
X119482668Y-111618067D01*
X119553791Y-111190757D01*
X120269900Y-111190757D01*
X120269900Y-111433243D01*
X120317207Y-111671069D01*
X120410002Y-111895097D01*
X120544720Y-112096717D01*
X120716183Y-112268180D01*
X120917803Y-112402898D01*
X121141831Y-112495693D01*
X121379657Y-112543000D01*
X121622143Y-112543000D01*
X121859969Y-112495693D01*
X122083997Y-112402898D01*
X122285617Y-112268180D01*
X122457080Y-112096717D01*
X122563747Y-111937078D01*
X130029000Y-111937078D01*
X130029000Y-112090922D01*
X130059013Y-112241809D01*
X130117887Y-112383942D01*
X130203358Y-112511859D01*
X130312141Y-112620642D01*
X130440058Y-112706113D01*
X130582191Y-112764987D01*
X130733078Y-112795000D01*
X130886922Y-112795000D01*
X131037809Y-112764987D01*
X131179942Y-112706113D01*
X131307859Y-112620642D01*
X131416642Y-112511859D01*
X131502113Y-112383942D01*
X131560987Y-112241809D01*
X131591000Y-112090922D01*
X131591000Y-111937078D01*
X131560987Y-111786191D01*
X131502113Y-111644058D01*
X131416642Y-111516141D01*
X131307859Y-111407358D01*
X131258771Y-111374559D01*
X131291809Y-111367987D01*
X131433942Y-111309113D01*
X131561859Y-111223642D01*
X131670642Y-111114859D01*
X131697809Y-111074200D01*
X133149425Y-111074200D01*
X133165887Y-111113942D01*
X133251358Y-111241859D01*
X133360141Y-111350642D01*
X133488058Y-111436113D01*
X133630191Y-111494987D01*
X133781078Y-111525000D01*
X133821109Y-111525000D01*
X133357551Y-111988559D01*
X133341066Y-112002088D01*
X133287106Y-112067839D01*
X133247011Y-112142853D01*
X133229860Y-112199392D01*
X133222320Y-112224247D01*
X133213983Y-112308894D01*
X133216072Y-112330104D01*
X133216073Y-120088970D01*
X133150013Y-120133110D01*
X133041230Y-120241893D01*
X132955759Y-120369810D01*
X132896885Y-120511943D01*
X132866872Y-120662830D01*
X132866872Y-120747183D01*
X132754261Y-120747183D01*
X132603374Y-120777196D01*
X132461241Y-120836070D01*
X132333324Y-120921541D01*
X132224541Y-121030324D01*
X132139070Y-121158241D01*
X132080196Y-121300374D01*
X132050183Y-121451261D01*
X132050183Y-121605105D01*
X132080196Y-121755992D01*
X132139070Y-121898125D01*
X132209916Y-122004154D01*
X132091058Y-122053387D01*
X131963141Y-122138858D01*
X131854358Y-122247641D01*
X131813300Y-122309089D01*
X131813300Y-121046781D01*
X131879359Y-121002642D01*
X131988142Y-120893859D01*
X132073613Y-120765942D01*
X132132487Y-120623809D01*
X132162500Y-120472922D01*
X132162500Y-120319078D01*
X132132487Y-120168191D01*
X132073613Y-120026058D01*
X131988142Y-119898141D01*
X131879359Y-119789358D01*
X131751442Y-119703887D01*
X131609309Y-119645013D01*
X131458422Y-119615000D01*
X131304578Y-119615000D01*
X131153691Y-119645013D01*
X131011558Y-119703887D01*
X130883641Y-119789358D01*
X130774858Y-119898141D01*
X130689387Y-120026058D01*
X130630513Y-120168191D01*
X130600500Y-120319078D01*
X130600500Y-120472922D01*
X130630513Y-120623809D01*
X130689387Y-120765942D01*
X130774858Y-120893859D01*
X130883641Y-121002642D01*
X130949701Y-121046782D01*
X130949700Y-128312290D01*
X130947611Y-128333500D01*
X130949700Y-128354709D01*
X130955948Y-128418147D01*
X130980639Y-128499541D01*
X131020734Y-128574555D01*
X131074694Y-128640306D01*
X131091179Y-128653835D01*
X134460160Y-132022818D01*
X134385307Y-132203531D01*
X134338000Y-132441357D01*
X134338000Y-132683843D01*
X134385307Y-132921669D01*
X134478102Y-133145697D01*
X134612820Y-133347317D01*
X134784283Y-133518780D01*
X134985903Y-133653498D01*
X135209931Y-133746293D01*
X135447757Y-133793600D01*
X135690243Y-133793600D01*
X135928069Y-133746293D01*
X136152097Y-133653498D01*
X136353717Y-133518780D01*
X136525180Y-133347317D01*
X136659898Y-133145697D01*
X136752693Y-132921669D01*
X136800000Y-132683843D01*
X136800000Y-132441357D01*
X136752693Y-132203531D01*
X136659898Y-131979503D01*
X136525180Y-131777883D01*
X136353717Y-131606420D01*
X136152097Y-131471702D01*
X135928069Y-131378907D01*
X135690243Y-131331600D01*
X135447757Y-131331600D01*
X135209931Y-131378907D01*
X135088049Y-131429392D01*
X131813300Y-128154644D01*
X131813300Y-127685078D01*
X132315000Y-127685078D01*
X132315000Y-127838922D01*
X132345013Y-127989809D01*
X132403887Y-128131942D01*
X132489358Y-128259859D01*
X132598141Y-128368642D01*
X132726058Y-128454113D01*
X132868191Y-128512987D01*
X133019078Y-128543000D01*
X133172922Y-128543000D01*
X133323809Y-128512987D01*
X133465942Y-128454113D01*
X133593859Y-128368642D01*
X133702642Y-128259859D01*
X133788113Y-128131942D01*
X133846987Y-127989809D01*
X133877000Y-127838922D01*
X133877000Y-127685078D01*
X133846987Y-127534191D01*
X133788113Y-127392058D01*
X133702642Y-127264141D01*
X133593859Y-127155358D01*
X133465942Y-127069887D01*
X133323809Y-127011013D01*
X133172922Y-126981000D01*
X133019078Y-126981000D01*
X132868191Y-127011013D01*
X132726058Y-127069887D01*
X132598141Y-127155358D01*
X132489358Y-127264141D01*
X132403887Y-127392058D01*
X132345013Y-127534191D01*
X132315000Y-127685078D01*
X131813300Y-127685078D01*
X131813300Y-123181911D01*
X131854358Y-123243359D01*
X131963141Y-123352142D01*
X132091058Y-123437613D01*
X132233191Y-123496487D01*
X132384078Y-123526500D01*
X132537922Y-123526500D01*
X132688809Y-123496487D01*
X132830942Y-123437613D01*
X132958859Y-123352142D01*
X133067642Y-123243359D01*
X133094883Y-123202590D01*
X133117756Y-123257811D01*
X133203227Y-123385728D01*
X133312010Y-123494511D01*
X133439927Y-123579982D01*
X133476624Y-123595182D01*
X133476623Y-125402641D01*
X133410564Y-125446780D01*
X133301781Y-125555563D01*
X133216310Y-125683480D01*
X133157436Y-125825613D01*
X133127423Y-125976500D01*
X133127423Y-126130344D01*
X133157436Y-126281231D01*
X133216310Y-126423364D01*
X133301781Y-126551281D01*
X133410564Y-126660064D01*
X133538481Y-126745535D01*
X133680614Y-126804409D01*
X133831501Y-126834422D01*
X133985345Y-126834422D01*
X134136232Y-126804409D01*
X134278365Y-126745535D01*
X134406282Y-126660064D01*
X134515065Y-126551281D01*
X134600536Y-126423364D01*
X134659410Y-126281231D01*
X134689423Y-126130344D01*
X134689423Y-125976500D01*
X134659410Y-125825613D01*
X134600536Y-125683480D01*
X134515065Y-125555563D01*
X134406282Y-125446780D01*
X134340223Y-125402641D01*
X134340223Y-124141724D01*
X134376141Y-124177642D01*
X134504058Y-124263113D01*
X134646191Y-124321987D01*
X134797078Y-124352000D01*
X134950922Y-124352000D01*
X135101809Y-124321987D01*
X135243942Y-124263113D01*
X135371859Y-124177642D01*
X135480642Y-124068859D01*
X135566113Y-123940942D01*
X135624987Y-123798809D01*
X135655000Y-123647922D01*
X135655000Y-123494078D01*
X135624987Y-123343191D01*
X135566113Y-123201058D01*
X135480642Y-123073141D01*
X135371859Y-122964358D01*
X135331200Y-122937191D01*
X135331200Y-122744377D01*
X137416118Y-120659460D01*
X137464078Y-120669000D01*
X137617922Y-120669000D01*
X137768809Y-120638987D01*
X137871201Y-120596574D01*
X137871200Y-131659585D01*
X137749931Y-131683707D01*
X137525903Y-131776502D01*
X137324283Y-131911220D01*
X137152820Y-132082683D01*
X137018102Y-132284303D01*
X136925307Y-132508331D01*
X136878000Y-132746157D01*
X136878000Y-132988643D01*
X136925307Y-133226469D01*
X137018102Y-133450497D01*
X137152820Y-133652117D01*
X137324283Y-133823580D01*
X137525903Y-133958298D01*
X137749931Y-134051093D01*
X137987757Y-134098400D01*
X138230243Y-134098400D01*
X138468069Y-134051093D01*
X138692097Y-133958298D01*
X138893717Y-133823580D01*
X139065180Y-133652117D01*
X139199898Y-133450497D01*
X139292693Y-133226469D01*
X139340000Y-132988643D01*
X139340000Y-132746157D01*
X139292693Y-132508331D01*
X139199898Y-132284303D01*
X139065180Y-132082683D01*
X138893717Y-131911220D01*
X138734800Y-131805035D01*
X138734800Y-131259056D01*
X139527976Y-132052233D01*
X139465307Y-132203531D01*
X139418000Y-132441357D01*
X139418000Y-132683843D01*
X139465307Y-132921669D01*
X139558102Y-133145697D01*
X139692820Y-133347317D01*
X139864283Y-133518780D01*
X140065903Y-133653498D01*
X140289931Y-133746293D01*
X140527757Y-133793600D01*
X140770243Y-133793600D01*
X141008069Y-133746293D01*
X141232097Y-133653498D01*
X141433717Y-133518780D01*
X141605180Y-133347317D01*
X141739898Y-133145697D01*
X141832693Y-132921669D01*
X141880000Y-132683843D01*
X141880000Y-132441357D01*
X141832693Y-132203531D01*
X141739898Y-131979503D01*
X141605180Y-131777883D01*
X141433717Y-131606420D01*
X141363197Y-131559300D01*
X142124644Y-131559300D01*
X142447612Y-131882269D01*
X142404283Y-131911220D01*
X142232820Y-132082683D01*
X142098102Y-132284303D01*
X142005307Y-132508331D01*
X141958000Y-132746157D01*
X141958000Y-132988643D01*
X142005307Y-133226469D01*
X142098102Y-133450497D01*
X142232820Y-133652117D01*
X142404283Y-133823580D01*
X142605903Y-133958298D01*
X142829931Y-134051093D01*
X143067757Y-134098400D01*
X143310243Y-134098400D01*
X143548069Y-134051093D01*
X143772097Y-133958298D01*
X143973717Y-133823580D01*
X144145180Y-133652117D01*
X144279898Y-133450497D01*
X144372693Y-133226469D01*
X144420000Y-132988643D01*
X144420000Y-132746157D01*
X144372693Y-132508331D01*
X144279898Y-132284303D01*
X144145180Y-132082683D01*
X143973717Y-131911220D01*
X143772097Y-131776502D01*
X143548069Y-131683707D01*
X143451069Y-131664412D01*
X142623835Y-130837179D01*
X142610306Y-130820694D01*
X142544556Y-130766734D01*
X142469542Y-130726639D01*
X142388148Y-130701948D01*
X142324710Y-130695700D01*
X142303500Y-130693611D01*
X142282290Y-130695700D01*
X140704358Y-130695700D01*
X139580606Y-129571950D01*
X139580606Y-126715107D01*
X139583141Y-126717642D01*
X139711058Y-126803113D01*
X139853191Y-126861987D01*
X140004078Y-126892000D01*
X140157922Y-126892000D01*
X140308809Y-126861987D01*
X140450942Y-126803113D01*
X140578859Y-126717642D01*
X140687642Y-126608859D01*
X140773113Y-126480942D01*
X140831987Y-126338809D01*
X140862000Y-126187922D01*
X140862000Y-126034078D01*
X140831987Y-125883191D01*
X140773113Y-125741058D01*
X140687642Y-125613141D01*
X140578859Y-125504358D01*
X140450942Y-125418887D01*
X140308809Y-125360013D01*
X140157922Y-125330000D01*
X140004078Y-125330000D01*
X139853191Y-125360013D01*
X139711058Y-125418887D01*
X139583141Y-125504358D01*
X139580606Y-125506893D01*
X139580606Y-119497152D01*
X139625727Y-119497152D01*
X139776614Y-119467139D01*
X139918747Y-119408265D01*
X140046664Y-119322794D01*
X140155447Y-119214011D01*
X140240918Y-119086094D01*
X140299792Y-118943961D01*
X140329805Y-118793074D01*
X140329805Y-118639230D01*
X140299792Y-118488343D01*
X140240918Y-118346210D01*
X140158979Y-118223578D01*
X143808500Y-118223578D01*
X143808500Y-118377422D01*
X143838513Y-118528309D01*
X143897387Y-118670442D01*
X143982858Y-118798359D01*
X144091641Y-118907142D01*
X144219558Y-118992613D01*
X144361691Y-119051487D01*
X144512578Y-119081500D01*
X144666422Y-119081500D01*
X144817309Y-119051487D01*
X144959442Y-118992613D01*
X145087359Y-118907142D01*
X145196142Y-118798359D01*
X145281613Y-118670442D01*
X145340487Y-118528309D01*
X145370500Y-118377422D01*
X145370500Y-118223578D01*
X145340487Y-118072691D01*
X145281613Y-117930558D01*
X145196142Y-117802641D01*
X145087359Y-117693858D01*
X144959442Y-117608387D01*
X144817309Y-117549513D01*
X144666422Y-117519500D01*
X144512578Y-117519500D01*
X144361691Y-117549513D01*
X144219558Y-117608387D01*
X144091641Y-117693858D01*
X143982858Y-117802641D01*
X143897387Y-117930558D01*
X143838513Y-118072691D01*
X143808500Y-118223578D01*
X140158979Y-118223578D01*
X140155447Y-118218293D01*
X140046664Y-118109510D01*
X139918747Y-118024039D01*
X139895863Y-118014560D01*
X139919784Y-117956809D01*
X139938432Y-117863059D01*
X139956940Y-117881567D01*
X140084857Y-117967038D01*
X140226990Y-118025912D01*
X140377877Y-118055925D01*
X140531721Y-118055925D01*
X140682608Y-118025912D01*
X140824741Y-117967038D01*
X140952658Y-117881567D01*
X141061441Y-117772784D01*
X141087690Y-117733499D01*
X141195864Y-117778307D01*
X141346751Y-117808320D01*
X141500595Y-117808320D01*
X141651482Y-117778307D01*
X141793615Y-117719433D01*
X141921532Y-117633962D01*
X142030315Y-117525179D01*
X142115786Y-117397262D01*
X142174660Y-117255129D01*
X142204673Y-117104242D01*
X142204673Y-116950398D01*
X142176412Y-116808319D01*
X142676847Y-116808319D01*
X142732146Y-116941822D01*
X142817617Y-117069739D01*
X142926400Y-117178522D01*
X143054317Y-117263993D01*
X143196450Y-117322867D01*
X143347337Y-117352880D01*
X143501181Y-117352880D01*
X143652068Y-117322867D01*
X143794201Y-117263993D01*
X143922118Y-117178522D01*
X144030901Y-117069739D01*
X144116372Y-116941822D01*
X144135216Y-116896328D01*
X144156212Y-116907551D01*
X144237607Y-116932242D01*
X144322255Y-116940579D01*
X144343465Y-116938490D01*
X144387183Y-116938490D01*
X144431322Y-117004549D01*
X144540105Y-117113332D01*
X144668022Y-117198803D01*
X144810155Y-117257677D01*
X144961042Y-117287690D01*
X145114886Y-117287690D01*
X145265773Y-117257677D01*
X145407906Y-117198803D01*
X145535823Y-117113332D01*
X145644606Y-117004549D01*
X145730077Y-116876632D01*
X145788951Y-116734499D01*
X145818964Y-116583612D01*
X145818964Y-116429768D01*
X145788951Y-116278881D01*
X145730077Y-116136748D01*
X145644606Y-116008831D01*
X145535823Y-115900048D01*
X145407906Y-115814577D01*
X145265773Y-115755703D01*
X145149647Y-115732604D01*
X145153461Y-115713432D01*
X145153461Y-115559588D01*
X145123448Y-115408701D01*
X145064574Y-115266568D01*
X144979103Y-115138651D01*
X144870320Y-115029868D01*
X144742403Y-114944397D01*
X144600270Y-114885523D01*
X144449383Y-114855510D01*
X144295539Y-114855510D01*
X144144652Y-114885523D01*
X144002519Y-114944397D01*
X143890287Y-115019388D01*
X143708080Y-115019388D01*
X146271900Y-112455569D01*
X146266913Y-112506198D01*
X146269003Y-112527418D01*
X146269002Y-120697404D01*
X146266913Y-120718614D01*
X146269002Y-120739823D01*
X146275250Y-120803261D01*
X146299941Y-120884655D01*
X146340036Y-120959669D01*
X146393996Y-121025420D01*
X146410480Y-121038948D01*
X146523003Y-121151471D01*
X146523002Y-131157941D01*
X146239367Y-131441576D01*
X146088069Y-131378907D01*
X145850243Y-131331600D01*
X145607757Y-131331600D01*
X145369931Y-131378907D01*
X145145903Y-131471702D01*
X144944283Y-131606420D01*
X144772820Y-131777883D01*
X144638102Y-131979503D01*
X144545307Y-132203531D01*
X144498000Y-132441357D01*
X144498000Y-132683843D01*
X144545307Y-132921669D01*
X144638102Y-133145697D01*
X144772820Y-133347317D01*
X144944283Y-133518780D01*
X145145903Y-133653498D01*
X145369931Y-133746293D01*
X145607757Y-133793600D01*
X145850243Y-133793600D01*
X146088069Y-133746293D01*
X146312097Y-133653498D01*
X146513717Y-133518780D01*
X146685180Y-133347317D01*
X146819898Y-133145697D01*
X146912693Y-132921669D01*
X146960000Y-132683843D01*
X146960000Y-132441357D01*
X146912693Y-132203531D01*
X146850024Y-132052233D01*
X146936402Y-131965855D01*
X146941891Y-132021590D01*
X146966582Y-132102984D01*
X147006677Y-132177998D01*
X147060637Y-132243749D01*
X147077122Y-132257278D01*
X147156441Y-132336597D01*
X147085307Y-132508331D01*
X147038000Y-132746157D01*
X147038000Y-132988643D01*
X147085307Y-133226469D01*
X147178102Y-133450497D01*
X147312820Y-133652117D01*
X147484283Y-133823580D01*
X147685903Y-133958298D01*
X147909931Y-134051093D01*
X148147757Y-134098400D01*
X148390243Y-134098400D01*
X148628069Y-134051093D01*
X148852097Y-133958298D01*
X149053717Y-133823580D01*
X149225180Y-133652117D01*
X149359898Y-133450497D01*
X149452693Y-133226469D01*
X149500000Y-132988643D01*
X149500000Y-132746157D01*
X149452693Y-132508331D01*
X149359898Y-132284303D01*
X149225180Y-132082683D01*
X149053717Y-131911220D01*
X148852097Y-131776502D01*
X148628069Y-131683707D01*
X148390243Y-131636400D01*
X148147757Y-131636400D01*
X147909931Y-131683707D01*
X147799243Y-131729555D01*
X147799243Y-130163499D01*
X149687976Y-132052234D01*
X149625307Y-132203531D01*
X149578000Y-132441357D01*
X149578000Y-132683843D01*
X149625307Y-132921669D01*
X149718102Y-133145697D01*
X149852820Y-133347317D01*
X150024283Y-133518780D01*
X150225903Y-133653498D01*
X150449931Y-133746293D01*
X150687757Y-133793600D01*
X150930243Y-133793600D01*
X151168069Y-133746293D01*
X151392097Y-133653498D01*
X151593717Y-133518780D01*
X151765180Y-133347317D01*
X151899898Y-133145697D01*
X151992693Y-132921669D01*
X152040000Y-132683843D01*
X152040000Y-132441357D01*
X151992693Y-132203531D01*
X151899898Y-131979503D01*
X151765180Y-131777883D01*
X151593717Y-131606420D01*
X151392097Y-131471702D01*
X151168069Y-131378907D01*
X150930243Y-131331600D01*
X150687757Y-131331600D01*
X150449931Y-131378907D01*
X150298634Y-131441576D01*
X148513800Y-129656744D01*
X148513800Y-114933809D01*
X148601058Y-114992113D01*
X148743191Y-115050987D01*
X148809002Y-115064077D01*
X148809001Y-120824405D01*
X148809001Y-120824406D01*
X148809002Y-127312081D01*
X148806912Y-127333301D01*
X148815249Y-127417948D01*
X148816870Y-127423290D01*
X148839941Y-127499343D01*
X148880036Y-127574357D01*
X148933996Y-127640107D01*
X148950475Y-127653631D01*
X152920700Y-131623858D01*
X152920700Y-131712383D01*
X152765903Y-131776502D01*
X152564283Y-131911220D01*
X152392820Y-132082683D01*
X152258102Y-132284303D01*
X152165307Y-132508331D01*
X152118000Y-132746157D01*
X152118000Y-132988643D01*
X152165307Y-133226469D01*
X152258102Y-133450497D01*
X152392820Y-133652117D01*
X152564283Y-133823580D01*
X152765903Y-133958298D01*
X152989931Y-134051093D01*
X153227757Y-134098400D01*
X153470243Y-134098400D01*
X153708069Y-134051093D01*
X153932097Y-133958298D01*
X154133717Y-133823580D01*
X154305180Y-133652117D01*
X154439898Y-133450497D01*
X154532693Y-133226469D01*
X154580000Y-132988643D01*
X154580000Y-132746157D01*
X154532693Y-132508331D01*
X154439898Y-132284303D01*
X154305180Y-132082683D01*
X154133717Y-131911220D01*
X153932097Y-131776502D01*
X153784300Y-131715283D01*
X153784300Y-131466202D01*
X153786388Y-131444999D01*
X153784300Y-131423796D01*
X153784300Y-131423790D01*
X153778860Y-131368555D01*
X153778052Y-131360351D01*
X153763675Y-131312958D01*
X153753361Y-131278958D01*
X153713266Y-131203944D01*
X153659306Y-131138194D01*
X153642833Y-131124675D01*
X149672601Y-127154445D01*
X149672601Y-127105757D01*
X154724364Y-132157522D01*
X154705307Y-132203531D01*
X154658000Y-132441357D01*
X154658000Y-132683843D01*
X154705307Y-132921669D01*
X154798102Y-133145697D01*
X154932820Y-133347317D01*
X155104283Y-133518780D01*
X155305903Y-133653498D01*
X155529931Y-133746293D01*
X155767757Y-133793600D01*
X156010243Y-133793600D01*
X156248069Y-133746293D01*
X156472097Y-133653498D01*
X156673717Y-133518780D01*
X156845180Y-133347317D01*
X156979898Y-133145697D01*
X157072693Y-132921669D01*
X157120000Y-132683843D01*
X157120000Y-132441357D01*
X157072693Y-132203531D01*
X156995596Y-132017400D01*
X157196157Y-132017400D01*
X157196157Y-133717400D01*
X157203513Y-133792089D01*
X157225299Y-133863908D01*
X157260678Y-133930096D01*
X157308289Y-133988111D01*
X157366304Y-134035722D01*
X157432492Y-134071101D01*
X157504311Y-134092887D01*
X157579000Y-134100243D01*
X159279000Y-134100243D01*
X159353689Y-134092887D01*
X159425508Y-134071101D01*
X159491696Y-134035722D01*
X159549711Y-133988111D01*
X159597322Y-133930096D01*
X159632701Y-133863908D01*
X159654487Y-133792089D01*
X159661843Y-133717400D01*
X159661843Y-132017400D01*
X159654487Y-131942711D01*
X159632701Y-131870892D01*
X159597322Y-131804704D01*
X159549711Y-131746689D01*
X159491696Y-131699078D01*
X159425508Y-131663699D01*
X159353689Y-131641913D01*
X159279000Y-131634557D01*
X157579000Y-131634557D01*
X157504311Y-131641913D01*
X157432492Y-131663699D01*
X157366304Y-131699078D01*
X157308289Y-131746689D01*
X157260678Y-131804704D01*
X157225299Y-131870892D01*
X157203513Y-131942711D01*
X157196157Y-132017400D01*
X156995596Y-132017400D01*
X156979898Y-131979503D01*
X156845180Y-131777883D01*
X156673717Y-131606420D01*
X156472097Y-131471702D01*
X156248069Y-131378907D01*
X156010243Y-131331600D01*
X155767757Y-131331600D01*
X155529931Y-131378907D01*
X155305903Y-131471702D01*
X155278302Y-131490144D01*
X151155735Y-127367578D01*
X162350500Y-127367578D01*
X162350500Y-127521422D01*
X162380513Y-127672309D01*
X162439387Y-127814442D01*
X162524858Y-127942359D01*
X162633641Y-128051142D01*
X162761558Y-128136613D01*
X162885378Y-128187901D01*
X162825058Y-128212887D01*
X162697141Y-128298358D01*
X162588358Y-128407141D01*
X162502887Y-128535058D01*
X162444013Y-128677191D01*
X162414000Y-128828078D01*
X162414000Y-128981922D01*
X162444013Y-129132809D01*
X162502887Y-129274942D01*
X162588358Y-129402859D01*
X162598499Y-129413000D01*
X162588358Y-129423141D01*
X162502887Y-129551058D01*
X162444013Y-129693191D01*
X162414000Y-129844078D01*
X162414000Y-129997922D01*
X162444013Y-130148809D01*
X162502887Y-130290942D01*
X162588358Y-130418859D01*
X162697141Y-130527642D01*
X162825058Y-130613113D01*
X162967191Y-130671987D01*
X163118078Y-130702000D01*
X163271922Y-130702000D01*
X163422809Y-130671987D01*
X163564942Y-130613113D01*
X163692859Y-130527642D01*
X163703000Y-130517501D01*
X163713141Y-130527642D01*
X163841058Y-130613113D01*
X163983191Y-130671987D01*
X164134078Y-130702000D01*
X164287922Y-130702000D01*
X164438809Y-130671987D01*
X164580942Y-130613113D01*
X164708859Y-130527642D01*
X164817642Y-130418859D01*
X164903113Y-130290942D01*
X164961987Y-130148809D01*
X164992000Y-129997922D01*
X164992000Y-129844078D01*
X164961987Y-129693191D01*
X164903113Y-129551058D01*
X164817642Y-129423141D01*
X164807501Y-129413000D01*
X164817642Y-129402859D01*
X164903113Y-129274942D01*
X164961987Y-129132809D01*
X164992000Y-128981922D01*
X164992000Y-128828078D01*
X165017500Y-128828078D01*
X165017500Y-128981922D01*
X165047513Y-129132809D01*
X165106387Y-129274942D01*
X165191858Y-129402859D01*
X165201999Y-129413000D01*
X165191858Y-129423141D01*
X165106387Y-129551058D01*
X165047513Y-129693191D01*
X165017500Y-129844078D01*
X165017500Y-129997922D01*
X165047513Y-130148809D01*
X165106387Y-130290942D01*
X165191858Y-130418859D01*
X165300641Y-130527642D01*
X165428558Y-130613113D01*
X165570691Y-130671987D01*
X165721578Y-130702000D01*
X165875422Y-130702000D01*
X166026309Y-130671987D01*
X166168442Y-130613113D01*
X166296359Y-130527642D01*
X166405142Y-130418859D01*
X166490613Y-130290942D01*
X166549487Y-130148809D01*
X166579500Y-129997922D01*
X166579500Y-129844078D01*
X166549487Y-129693191D01*
X166490613Y-129551058D01*
X166405142Y-129423141D01*
X166395001Y-129413000D01*
X166405142Y-129402859D01*
X166490613Y-129274942D01*
X166549487Y-129132809D01*
X166579500Y-128981922D01*
X166579500Y-128828078D01*
X166605000Y-128828078D01*
X166605000Y-128981922D01*
X166635013Y-129132809D01*
X166693887Y-129274942D01*
X166779358Y-129402859D01*
X166789499Y-129413000D01*
X166779358Y-129423141D01*
X166693887Y-129551058D01*
X166635013Y-129693191D01*
X166605000Y-129844078D01*
X166605000Y-129997922D01*
X166635013Y-130148809D01*
X166693887Y-130290942D01*
X166779358Y-130418859D01*
X166888141Y-130527642D01*
X167016058Y-130613113D01*
X167158191Y-130671987D01*
X167309078Y-130702000D01*
X167462922Y-130702000D01*
X167613809Y-130671987D01*
X167755942Y-130613113D01*
X167883859Y-130527642D01*
X167992642Y-130418859D01*
X168078113Y-130290942D01*
X168136987Y-130148809D01*
X168167000Y-129997922D01*
X168167000Y-129844078D01*
X168136987Y-129693191D01*
X168078113Y-129551058D01*
X167992642Y-129423141D01*
X167982501Y-129413000D01*
X167992642Y-129402859D01*
X168078113Y-129274942D01*
X168136987Y-129132809D01*
X168167000Y-128981922D01*
X168167000Y-128828078D01*
X168136987Y-128677191D01*
X168078113Y-128535058D01*
X167992642Y-128407141D01*
X167883859Y-128298358D01*
X167755942Y-128212887D01*
X167613809Y-128154013D01*
X167462922Y-128124000D01*
X167309078Y-128124000D01*
X167158191Y-128154013D01*
X167016058Y-128212887D01*
X166888141Y-128298358D01*
X166779358Y-128407141D01*
X166693887Y-128535058D01*
X166635013Y-128677191D01*
X166605000Y-128828078D01*
X166579500Y-128828078D01*
X166549487Y-128677191D01*
X166490613Y-128535058D01*
X166405142Y-128407141D01*
X166296359Y-128298358D01*
X166168442Y-128212887D01*
X166026309Y-128154013D01*
X165875422Y-128124000D01*
X165721578Y-128124000D01*
X165570691Y-128154013D01*
X165428558Y-128212887D01*
X165300641Y-128298358D01*
X165191858Y-128407141D01*
X165106387Y-128535058D01*
X165047513Y-128677191D01*
X165017500Y-128828078D01*
X164992000Y-128828078D01*
X164961987Y-128677191D01*
X164903113Y-128535058D01*
X164817642Y-128407141D01*
X164708859Y-128298358D01*
X164580942Y-128212887D01*
X164488872Y-128174750D01*
X164580942Y-128136613D01*
X164708859Y-128051142D01*
X164817642Y-127942359D01*
X164903113Y-127814442D01*
X164961987Y-127672309D01*
X164992000Y-127521422D01*
X164992000Y-127367578D01*
X164961987Y-127216691D01*
X164903113Y-127074558D01*
X164817642Y-126946641D01*
X164708859Y-126837858D01*
X164580942Y-126752387D01*
X164438809Y-126693513D01*
X164287922Y-126663500D01*
X164134078Y-126663500D01*
X163983191Y-126693513D01*
X163841058Y-126752387D01*
X163713141Y-126837858D01*
X163671250Y-126879749D01*
X163629359Y-126837858D01*
X163501442Y-126752387D01*
X163359309Y-126693513D01*
X163208422Y-126663500D01*
X163054578Y-126663500D01*
X162903691Y-126693513D01*
X162761558Y-126752387D01*
X162633641Y-126837858D01*
X162524858Y-126946641D01*
X162439387Y-127074558D01*
X162380513Y-127216691D01*
X162350500Y-127367578D01*
X151155735Y-127367578D01*
X150323411Y-126535255D01*
X150323411Y-124510078D01*
X154984500Y-124510078D01*
X154984500Y-124663922D01*
X155014513Y-124814809D01*
X155073387Y-124956942D01*
X155158858Y-125084859D01*
X155267641Y-125193642D01*
X155395558Y-125279113D01*
X155537691Y-125337987D01*
X155688578Y-125368000D01*
X155842422Y-125368000D01*
X155993309Y-125337987D01*
X156135442Y-125279113D01*
X156263359Y-125193642D01*
X156372142Y-125084859D01*
X156457613Y-124956942D01*
X156516487Y-124814809D01*
X156546500Y-124663922D01*
X156546500Y-124510078D01*
X156521239Y-124383078D01*
X161461500Y-124383078D01*
X161461500Y-124536922D01*
X161491513Y-124687809D01*
X161550387Y-124829942D01*
X161635858Y-124957859D01*
X161744641Y-125066642D01*
X161872558Y-125152113D01*
X162014691Y-125210987D01*
X162165578Y-125241000D01*
X162319422Y-125241000D01*
X162470309Y-125210987D01*
X162612442Y-125152113D01*
X162740359Y-125066642D01*
X162849142Y-124957859D01*
X162934613Y-124829942D01*
X162993487Y-124687809D01*
X163023500Y-124536922D01*
X163023500Y-124383078D01*
X162993487Y-124232191D01*
X162934613Y-124090058D01*
X162849142Y-123962141D01*
X162740359Y-123853358D01*
X162612442Y-123767887D01*
X162470309Y-123709013D01*
X162319422Y-123679000D01*
X162165578Y-123679000D01*
X162014691Y-123709013D01*
X161872558Y-123767887D01*
X161744641Y-123853358D01*
X161635858Y-123962141D01*
X161550387Y-124090058D01*
X161491513Y-124232191D01*
X161461500Y-124383078D01*
X156521239Y-124383078D01*
X156516487Y-124359191D01*
X156457613Y-124217058D01*
X156372142Y-124089141D01*
X156263359Y-123980358D01*
X156135442Y-123894887D01*
X155993309Y-123836013D01*
X155842422Y-123806000D01*
X155688578Y-123806000D01*
X155537691Y-123836013D01*
X155395558Y-123894887D01*
X155267641Y-123980358D01*
X155158858Y-124089141D01*
X155073387Y-124217058D01*
X155014513Y-124359191D01*
X154984500Y-124510078D01*
X150323411Y-124510078D01*
X150323411Y-122287578D01*
X168383000Y-122287578D01*
X168383000Y-122441422D01*
X168413013Y-122592309D01*
X168471887Y-122734442D01*
X168557358Y-122862359D01*
X168666141Y-122971142D01*
X168794058Y-123056613D01*
X168936191Y-123115487D01*
X169087078Y-123145500D01*
X169240922Y-123145500D01*
X169391809Y-123115487D01*
X169533942Y-123056613D01*
X169661859Y-122971142D01*
X169770642Y-122862359D01*
X169856113Y-122734442D01*
X169914987Y-122592309D01*
X169945000Y-122441422D01*
X169945000Y-122287578D01*
X169914987Y-122136691D01*
X169856113Y-121994558D01*
X169770642Y-121866641D01*
X169661859Y-121757858D01*
X169533942Y-121672387D01*
X169391809Y-121613513D01*
X169240922Y-121583500D01*
X169087078Y-121583500D01*
X168936191Y-121613513D01*
X168794058Y-121672387D01*
X168666141Y-121757858D01*
X168557358Y-121866641D01*
X168471887Y-121994558D01*
X168413013Y-122136691D01*
X168383000Y-122287578D01*
X150323411Y-122287578D01*
X150323411Y-120448758D01*
X150941901Y-120448758D01*
X150941901Y-120691244D01*
X150989208Y-120929070D01*
X151082003Y-121153098D01*
X151216721Y-121354718D01*
X151388184Y-121526181D01*
X151589804Y-121660899D01*
X151813832Y-121753694D01*
X152051658Y-121801001D01*
X152294144Y-121801001D01*
X152531970Y-121753694D01*
X152755998Y-121660899D01*
X152957618Y-121526181D01*
X153129081Y-121354718D01*
X153263799Y-121153098D01*
X153356594Y-120929070D01*
X153357027Y-120926891D01*
X154311324Y-120926891D01*
X154355975Y-121074100D01*
X154481159Y-121336921D01*
X154655212Y-121570270D01*
X154871445Y-121765179D01*
X155121548Y-121914158D01*
X155395909Y-122011482D01*
X155625800Y-121890815D01*
X155625800Y-120697001D01*
X155879800Y-120697001D01*
X155879800Y-121890815D01*
X156109691Y-122011482D01*
X156384052Y-121914158D01*
X156634155Y-121765179D01*
X156850388Y-121570270D01*
X157024441Y-121336921D01*
X157149625Y-121074100D01*
X157194276Y-120926891D01*
X157072955Y-120697001D01*
X155879800Y-120697001D01*
X155625800Y-120697001D01*
X154432645Y-120697001D01*
X154311324Y-120926891D01*
X153357027Y-120926891D01*
X153403901Y-120691244D01*
X153403901Y-120448758D01*
X153356594Y-120210932D01*
X153263799Y-119986904D01*
X153129081Y-119785284D01*
X152957618Y-119613821D01*
X152755998Y-119479103D01*
X152531970Y-119386308D01*
X152294144Y-119339001D01*
X152051658Y-119339001D01*
X151813832Y-119386308D01*
X151589804Y-119479103D01*
X151388184Y-119613821D01*
X151216721Y-119785284D01*
X151082003Y-119986904D01*
X150989208Y-120210932D01*
X150941901Y-120448758D01*
X150323411Y-120448758D01*
X150323411Y-117908758D01*
X150637101Y-117908758D01*
X150637101Y-118151244D01*
X150684408Y-118389070D01*
X150777203Y-118613098D01*
X150911921Y-118814718D01*
X151083384Y-118986181D01*
X151285004Y-119120899D01*
X151509032Y-119213694D01*
X151746858Y-119261001D01*
X151989344Y-119261001D01*
X152227170Y-119213694D01*
X152451198Y-119120899D01*
X152652818Y-118986181D01*
X152824281Y-118814718D01*
X152958999Y-118613098D01*
X153051794Y-118389070D01*
X153099101Y-118151244D01*
X153099101Y-117908758D01*
X154217000Y-117908758D01*
X154217000Y-118151244D01*
X154264307Y-118389070D01*
X154357102Y-118613098D01*
X154491820Y-118814718D01*
X154663283Y-118986181D01*
X154864903Y-119120899D01*
X155088931Y-119213694D01*
X155131775Y-119222216D01*
X155121548Y-119225844D01*
X154871445Y-119374823D01*
X154655212Y-119569732D01*
X154481159Y-119803081D01*
X154355975Y-120065902D01*
X154311324Y-120213111D01*
X154432645Y-120443001D01*
X155625800Y-120443001D01*
X155625800Y-120423001D01*
X155879800Y-120423001D01*
X155879800Y-120443001D01*
X157072955Y-120443001D01*
X157194276Y-120213111D01*
X157149625Y-120065902D01*
X157024441Y-119803081D01*
X156850388Y-119569732D01*
X156634155Y-119374823D01*
X156384052Y-119225844D01*
X156109691Y-119128520D01*
X155879802Y-119249186D01*
X155879802Y-119183567D01*
X156031097Y-119120899D01*
X156138584Y-119049078D01*
X159048500Y-119049078D01*
X159048500Y-119202922D01*
X159078513Y-119353809D01*
X159137387Y-119495942D01*
X159222858Y-119623859D01*
X159331641Y-119732642D01*
X159459558Y-119818113D01*
X159601691Y-119876987D01*
X159752578Y-119907000D01*
X159906422Y-119907000D01*
X160057309Y-119876987D01*
X160199442Y-119818113D01*
X160327359Y-119732642D01*
X160436142Y-119623859D01*
X160521613Y-119495942D01*
X160580487Y-119353809D01*
X160610500Y-119202922D01*
X160610500Y-119049078D01*
X160580487Y-118898191D01*
X160521613Y-118756058D01*
X160436142Y-118628141D01*
X160327359Y-118519358D01*
X160199442Y-118433887D01*
X160057309Y-118375013D01*
X159906422Y-118345000D01*
X159752578Y-118345000D01*
X159601691Y-118375013D01*
X159459558Y-118433887D01*
X159331641Y-118519358D01*
X159222858Y-118628141D01*
X159137387Y-118756058D01*
X159078513Y-118898191D01*
X159048500Y-119049078D01*
X156138584Y-119049078D01*
X156232717Y-118986181D01*
X156404180Y-118814718D01*
X156538898Y-118613098D01*
X156631693Y-118389070D01*
X156679000Y-118151244D01*
X156679000Y-117908758D01*
X156631693Y-117670932D01*
X156538898Y-117446904D01*
X156404180Y-117245284D01*
X156232717Y-117073821D01*
X156031097Y-116939103D01*
X155807069Y-116846308D01*
X155569243Y-116799001D01*
X155326757Y-116799001D01*
X155088931Y-116846308D01*
X154864903Y-116939103D01*
X154663283Y-117073821D01*
X154491820Y-117245284D01*
X154357102Y-117446904D01*
X154264307Y-117670932D01*
X154217000Y-117908758D01*
X153099101Y-117908758D01*
X153051794Y-117670932D01*
X152958999Y-117446904D01*
X152824281Y-117245284D01*
X152652818Y-117073821D01*
X152451198Y-116939103D01*
X152227170Y-116846308D01*
X151989344Y-116799001D01*
X151746858Y-116799001D01*
X151509032Y-116846308D01*
X151285004Y-116939103D01*
X151083384Y-117073821D01*
X150911921Y-117245284D01*
X150777203Y-117446904D01*
X150684408Y-117670932D01*
X150637101Y-117908758D01*
X150323411Y-117908758D01*
X150323411Y-116763078D01*
X163938000Y-116763078D01*
X163938000Y-116916922D01*
X163968013Y-117067809D01*
X164026887Y-117209942D01*
X164112358Y-117337859D01*
X164221141Y-117446642D01*
X164287200Y-117490781D01*
X164287201Y-117946148D01*
X164284641Y-117947858D01*
X164175858Y-118056641D01*
X164090387Y-118184558D01*
X164031513Y-118326691D01*
X164001500Y-118477578D01*
X164001500Y-118631422D01*
X164031513Y-118782309D01*
X164090387Y-118924442D01*
X164175858Y-119052359D01*
X164284641Y-119161142D01*
X164412558Y-119246613D01*
X164554691Y-119305487D01*
X164705578Y-119335500D01*
X164859422Y-119335500D01*
X165010309Y-119305487D01*
X165152442Y-119246613D01*
X165280359Y-119161142D01*
X165389142Y-119052359D01*
X165474613Y-118924442D01*
X165533487Y-118782309D01*
X165563500Y-118631422D01*
X165563500Y-118477578D01*
X165533487Y-118326691D01*
X165474613Y-118184558D01*
X165389142Y-118056641D01*
X165280359Y-117947858D01*
X165152442Y-117862387D01*
X165150800Y-117861707D01*
X165150800Y-117490781D01*
X165216859Y-117446642D01*
X165325642Y-117337859D01*
X165411113Y-117209942D01*
X165469987Y-117067809D01*
X165500000Y-116916922D01*
X165500000Y-116763078D01*
X165469987Y-116612191D01*
X165411113Y-116470058D01*
X165325642Y-116342141D01*
X165216859Y-116233358D01*
X165088942Y-116147887D01*
X164946809Y-116089013D01*
X164795922Y-116059000D01*
X164642078Y-116059000D01*
X164491191Y-116089013D01*
X164349058Y-116147887D01*
X164221141Y-116233358D01*
X164112358Y-116342141D01*
X164026887Y-116470058D01*
X163968013Y-116612191D01*
X163938000Y-116763078D01*
X150323411Y-116763078D01*
X150323411Y-116558831D01*
X150389470Y-116514692D01*
X150498253Y-116405909D01*
X150583724Y-116277992D01*
X150642598Y-116135859D01*
X150672611Y-115984972D01*
X150672611Y-115831128D01*
X150642598Y-115680241D01*
X150583724Y-115538108D01*
X150498253Y-115410191D01*
X150389470Y-115301408D01*
X150261553Y-115215937D01*
X150119420Y-115157063D01*
X149968533Y-115127050D01*
X149814689Y-115127050D01*
X149672601Y-115155313D01*
X149672601Y-114647036D01*
X149675515Y-114640001D01*
X150940058Y-114640001D01*
X150940058Y-116340001D01*
X150947414Y-116414690D01*
X150969200Y-116486509D01*
X151004579Y-116552697D01*
X151052190Y-116610712D01*
X151110205Y-116658323D01*
X151176393Y-116693702D01*
X151248212Y-116715488D01*
X151322901Y-116722844D01*
X153022901Y-116722844D01*
X153097590Y-116715488D01*
X153169409Y-116693702D01*
X153235597Y-116658323D01*
X153293612Y-116610712D01*
X153341223Y-116552697D01*
X153376602Y-116486509D01*
X153398388Y-116414690D01*
X153405744Y-116340001D01*
X153405744Y-114640001D01*
X154519957Y-114640001D01*
X154519957Y-116340001D01*
X154527313Y-116414690D01*
X154549099Y-116486509D01*
X154584478Y-116552697D01*
X154632089Y-116610712D01*
X154690104Y-116658323D01*
X154756292Y-116693702D01*
X154828111Y-116715488D01*
X154902800Y-116722844D01*
X156602800Y-116722844D01*
X156677489Y-116715488D01*
X156749308Y-116693702D01*
X156815496Y-116658323D01*
X156873511Y-116610712D01*
X156921122Y-116552697D01*
X156956501Y-116486509D01*
X156978287Y-116414690D01*
X156985643Y-116340001D01*
X156985643Y-114640001D01*
X156978287Y-114565312D01*
X156956501Y-114493493D01*
X156921122Y-114427305D01*
X156873511Y-114369290D01*
X156815496Y-114321679D01*
X156749308Y-114286300D01*
X156677489Y-114264514D01*
X156602800Y-114257158D01*
X154902800Y-114257158D01*
X154828111Y-114264514D01*
X154756292Y-114286300D01*
X154690104Y-114321679D01*
X154632089Y-114369290D01*
X154584478Y-114427305D01*
X154549099Y-114493493D01*
X154527313Y-114565312D01*
X154519957Y-114640001D01*
X153405744Y-114640001D01*
X153398388Y-114565312D01*
X153376602Y-114493493D01*
X153341223Y-114427305D01*
X153293612Y-114369290D01*
X153235597Y-114321679D01*
X153169409Y-114286300D01*
X153097590Y-114264514D01*
X153022901Y-114257158D01*
X151322901Y-114257158D01*
X151248212Y-114264514D01*
X151176393Y-114286300D01*
X151110205Y-114321679D01*
X151052190Y-114369290D01*
X151004579Y-114427305D01*
X150969200Y-114493493D01*
X150947414Y-114565312D01*
X150940058Y-114640001D01*
X149675515Y-114640001D01*
X149721987Y-114527809D01*
X149752000Y-114376922D01*
X149752000Y-114223078D01*
X149721987Y-114072191D01*
X149663113Y-113930058D01*
X149577642Y-113802141D01*
X149468859Y-113693358D01*
X149340942Y-113607887D01*
X149198809Y-113549013D01*
X149047922Y-113519000D01*
X148894078Y-113519000D01*
X148850965Y-113527576D01*
X148832987Y-113437191D01*
X148774113Y-113295058D01*
X148688642Y-113167141D01*
X148579859Y-113058358D01*
X148451942Y-112972887D01*
X148309809Y-112914013D01*
X148158922Y-112884000D01*
X148139067Y-112884000D01*
X148148443Y-112836865D01*
X148148443Y-112683021D01*
X148118430Y-112532134D01*
X148082370Y-112445078D01*
X161588500Y-112445078D01*
X161588500Y-112598922D01*
X161618513Y-112749809D01*
X161677387Y-112891942D01*
X161762858Y-113019859D01*
X161871641Y-113128642D01*
X161999558Y-113214113D01*
X162141691Y-113272987D01*
X162292578Y-113303000D01*
X162446422Y-113303000D01*
X162597309Y-113272987D01*
X162739442Y-113214113D01*
X162867359Y-113128642D01*
X162976142Y-113019859D01*
X163061613Y-112891942D01*
X163120487Y-112749809D01*
X163150500Y-112598922D01*
X163150500Y-112445078D01*
X163120487Y-112294191D01*
X163061613Y-112152058D01*
X162976142Y-112024141D01*
X162867359Y-111915358D01*
X162739442Y-111829887D01*
X162597309Y-111771013D01*
X162446422Y-111741000D01*
X162292578Y-111741000D01*
X162141691Y-111771013D01*
X161999558Y-111829887D01*
X161871641Y-111915358D01*
X161762858Y-112024141D01*
X161677387Y-112152058D01*
X161618513Y-112294191D01*
X161588500Y-112445078D01*
X148082370Y-112445078D01*
X148059556Y-112390001D01*
X147974085Y-112262084D01*
X147865302Y-112153301D01*
X147744844Y-112072814D01*
X148054157Y-111763501D01*
X148132078Y-111779000D01*
X148285922Y-111779000D01*
X148436809Y-111748987D01*
X148578942Y-111690113D01*
X148706859Y-111604642D01*
X148815642Y-111495859D01*
X148901113Y-111367942D01*
X148959987Y-111225809D01*
X148990000Y-111074922D01*
X148990000Y-110921078D01*
X148959987Y-110770191D01*
X148901113Y-110628058D01*
X148815642Y-110500141D01*
X148706859Y-110391358D01*
X148578942Y-110305887D01*
X148475229Y-110262927D01*
X148579078Y-110159078D01*
X154603500Y-110159078D01*
X154603500Y-110312922D01*
X154633513Y-110463809D01*
X154692387Y-110605942D01*
X154777858Y-110733859D01*
X154886641Y-110842642D01*
X155014558Y-110928113D01*
X155156691Y-110986987D01*
X155307578Y-111017000D01*
X155461422Y-111017000D01*
X155612309Y-110986987D01*
X155754442Y-110928113D01*
X155882359Y-110842642D01*
X155991142Y-110733859D01*
X156076613Y-110605942D01*
X156135487Y-110463809D01*
X156165500Y-110312922D01*
X156165500Y-110159078D01*
X156135487Y-110008191D01*
X156076613Y-109866058D01*
X155991142Y-109738141D01*
X155882359Y-109629358D01*
X155754442Y-109543887D01*
X155706620Y-109524078D01*
X164382500Y-109524078D01*
X164382500Y-109677922D01*
X164412513Y-109828809D01*
X164471387Y-109970942D01*
X164556858Y-110098859D01*
X164665641Y-110207642D01*
X164793558Y-110293113D01*
X164935691Y-110351987D01*
X165086578Y-110382000D01*
X165240422Y-110382000D01*
X165391309Y-110351987D01*
X165533442Y-110293113D01*
X165661359Y-110207642D01*
X165770142Y-110098859D01*
X165855613Y-109970942D01*
X165914487Y-109828809D01*
X165944500Y-109677922D01*
X165944500Y-109524078D01*
X165914487Y-109373191D01*
X165855613Y-109231058D01*
X165770142Y-109103141D01*
X165661359Y-108994358D01*
X165533442Y-108908887D01*
X165391309Y-108850013D01*
X165240422Y-108820000D01*
X165086578Y-108820000D01*
X164935691Y-108850013D01*
X164793558Y-108908887D01*
X164665641Y-108994358D01*
X164556858Y-109103141D01*
X164471387Y-109231058D01*
X164412513Y-109373191D01*
X164382500Y-109524078D01*
X155706620Y-109524078D01*
X155612309Y-109485013D01*
X155461422Y-109455000D01*
X155307578Y-109455000D01*
X155156691Y-109485013D01*
X155014558Y-109543887D01*
X154886641Y-109629358D01*
X154777858Y-109738141D01*
X154692387Y-109866058D01*
X154633513Y-110008191D01*
X154603500Y-110159078D01*
X148579078Y-110159078D01*
X152134357Y-106603800D01*
X154918790Y-106603800D01*
X154940000Y-106605889D01*
X154961210Y-106603800D01*
X155024648Y-106597552D01*
X155106042Y-106572861D01*
X155181056Y-106532766D01*
X155246806Y-106478806D01*
X155260335Y-106462321D01*
X157922134Y-103800524D01*
X158073431Y-103863193D01*
X158311257Y-103910500D01*
X158553743Y-103910500D01*
X158791569Y-103863193D01*
X159015597Y-103770398D01*
X159217217Y-103635680D01*
X159388680Y-103464217D01*
X159523398Y-103262597D01*
X159616193Y-103038569D01*
X159663500Y-102800743D01*
X159663500Y-102558257D01*
X159616193Y-102320431D01*
X159523398Y-102096403D01*
X159388680Y-101894783D01*
X159217217Y-101723320D01*
X159015597Y-101588602D01*
X158791569Y-101495807D01*
X158553743Y-101448500D01*
X158311257Y-101448500D01*
X158073431Y-101495807D01*
X157849403Y-101588602D01*
X157647783Y-101723320D01*
X157476320Y-101894783D01*
X157341602Y-102096403D01*
X157248807Y-102320431D01*
X157201500Y-102558257D01*
X157201500Y-102800743D01*
X157248807Y-103038569D01*
X157311476Y-103189866D01*
X154761144Y-105740200D01*
X151976709Y-105740200D01*
X151955499Y-105738111D01*
X151870852Y-105746448D01*
X151839068Y-105756090D01*
X152070858Y-105524300D01*
X153140790Y-105524300D01*
X153162000Y-105526389D01*
X153183210Y-105524300D01*
X153246648Y-105518052D01*
X153328042Y-105493361D01*
X153403056Y-105453266D01*
X153468806Y-105399306D01*
X153482335Y-105382821D01*
X155373153Y-103492004D01*
X155533431Y-103558393D01*
X155771257Y-103605700D01*
X156013743Y-103605700D01*
X156251569Y-103558393D01*
X156475597Y-103465598D01*
X156677217Y-103330880D01*
X156848680Y-103159417D01*
X156983398Y-102957797D01*
X157076193Y-102733769D01*
X157123500Y-102495943D01*
X157123500Y-102253457D01*
X157076193Y-102015631D01*
X156983398Y-101791603D01*
X156848680Y-101589983D01*
X156677217Y-101418520D01*
X156475597Y-101283802D01*
X156251569Y-101191007D01*
X156013743Y-101143700D01*
X155771257Y-101143700D01*
X155533431Y-101191007D01*
X155309403Y-101283802D01*
X155107783Y-101418520D01*
X154936320Y-101589983D01*
X154801602Y-101791603D01*
X154708807Y-102015631D01*
X154661500Y-102253457D01*
X154661500Y-102495943D01*
X154708807Y-102733769D01*
X154767756Y-102876086D01*
X154487346Y-103156497D01*
X154536193Y-103038569D01*
X154583500Y-102800743D01*
X154583500Y-102558257D01*
X154536193Y-102320431D01*
X154443398Y-102096403D01*
X154308680Y-101894783D01*
X154137217Y-101723320D01*
X153935597Y-101588602D01*
X153711569Y-101495807D01*
X153473743Y-101448500D01*
X153231257Y-101448500D01*
X152993431Y-101495807D01*
X152769403Y-101588602D01*
X152567783Y-101723320D01*
X152396320Y-101894783D01*
X152261602Y-102096403D01*
X152168807Y-102320431D01*
X152142336Y-102453507D01*
X152029496Y-102566347D01*
X152043500Y-102495943D01*
X152043500Y-102253457D01*
X151996193Y-102015631D01*
X151903398Y-101791603D01*
X151768680Y-101589983D01*
X151597217Y-101418520D01*
X151395597Y-101283802D01*
X151171569Y-101191007D01*
X150933743Y-101143700D01*
X150691257Y-101143700D01*
X150453431Y-101191007D01*
X150229403Y-101283802D01*
X150027783Y-101418520D01*
X149856320Y-101589983D01*
X149721602Y-101791603D01*
X149628807Y-102015631D01*
X149581500Y-102253457D01*
X149581500Y-102495943D01*
X149628807Y-102733769D01*
X149706355Y-102920988D01*
X149360683Y-103266660D01*
X149363398Y-103262597D01*
X149456193Y-103038569D01*
X149503500Y-102800743D01*
X149503500Y-102558257D01*
X149456193Y-102320431D01*
X149363398Y-102096403D01*
X149228680Y-101894783D01*
X149057217Y-101723320D01*
X148855597Y-101588602D01*
X148631569Y-101495807D01*
X148393743Y-101448500D01*
X148151257Y-101448500D01*
X147913431Y-101495807D01*
X147689403Y-101588602D01*
X147487783Y-101723320D01*
X147316320Y-101894783D01*
X147181602Y-102096403D01*
X147088807Y-102320431D01*
X147041500Y-102558257D01*
X147041500Y-102800743D01*
X147088807Y-103038569D01*
X147181602Y-103262597D01*
X147316320Y-103464217D01*
X147487783Y-103635680D01*
X147689403Y-103770398D01*
X147818753Y-103823976D01*
X146134743Y-105507986D01*
X146158052Y-105431148D01*
X146164300Y-105367710D01*
X146164300Y-105367709D01*
X146166389Y-105346501D01*
X146164300Y-105325291D01*
X146164300Y-103528267D01*
X146315597Y-103465598D01*
X146517217Y-103330880D01*
X146688680Y-103159417D01*
X146823398Y-102957797D01*
X146916193Y-102733769D01*
X146963500Y-102495943D01*
X146963500Y-102253457D01*
X146916193Y-102015631D01*
X146823398Y-101791603D01*
X146688680Y-101589983D01*
X146517217Y-101418520D01*
X146315597Y-101283802D01*
X146091569Y-101191007D01*
X145853743Y-101143700D01*
X145611257Y-101143700D01*
X145373431Y-101191007D01*
X145149403Y-101283802D01*
X144947783Y-101418520D01*
X144776320Y-101589983D01*
X144641602Y-101791603D01*
X144548807Y-102015631D01*
X144501500Y-102253457D01*
X144501500Y-102495943D01*
X144548807Y-102733769D01*
X144641602Y-102957797D01*
X144776320Y-103159417D01*
X144947783Y-103330880D01*
X145149403Y-103465598D01*
X145300701Y-103528267D01*
X145300700Y-105167642D01*
X143624300Y-106844042D01*
X143624300Y-103833067D01*
X143775597Y-103770398D01*
X143977217Y-103635680D01*
X144148680Y-103464217D01*
X144283398Y-103262597D01*
X144376193Y-103038569D01*
X144423500Y-102800743D01*
X144423500Y-102558257D01*
X144376193Y-102320431D01*
X144283398Y-102096403D01*
X144148680Y-101894783D01*
X143977217Y-101723320D01*
X143775597Y-101588602D01*
X143551569Y-101495807D01*
X143313743Y-101448500D01*
X143071257Y-101448500D01*
X142833431Y-101495807D01*
X142609403Y-101588602D01*
X142407783Y-101723320D01*
X142236320Y-101894783D01*
X142101602Y-102096403D01*
X142008807Y-102320431D01*
X141961500Y-102558257D01*
X141961500Y-102800743D01*
X142008807Y-103038569D01*
X142101602Y-103262597D01*
X142236320Y-103464217D01*
X142407783Y-103635680D01*
X142609403Y-103770398D01*
X142760700Y-103833067D01*
X142760701Y-107281100D01*
X141367547Y-108674254D01*
X141370000Y-108661922D01*
X141370000Y-108508078D01*
X141339987Y-108357191D01*
X141281113Y-108215058D01*
X141195642Y-108087141D01*
X141086859Y-107978358D01*
X140958942Y-107892887D01*
X140816809Y-107834013D01*
X140665922Y-107804000D01*
X140512078Y-107804000D01*
X140361191Y-107834013D01*
X140219058Y-107892887D01*
X140091141Y-107978358D01*
X139982358Y-108087141D01*
X139896887Y-108215058D01*
X139838013Y-108357191D01*
X139808000Y-108508078D01*
X139808000Y-108661922D01*
X139838013Y-108812809D01*
X139896887Y-108954942D01*
X139982358Y-109082859D01*
X140091141Y-109191642D01*
X140219058Y-109277113D01*
X140361191Y-109335987D01*
X140512078Y-109366000D01*
X140665922Y-109366000D01*
X140678254Y-109363547D01*
X136178999Y-113862803D01*
X136178999Y-109657971D01*
X136624833Y-109212139D01*
X136641306Y-109198620D01*
X136695266Y-109132870D01*
X136735361Y-109057856D01*
X136760052Y-108976462D01*
X136766300Y-108913024D01*
X136766300Y-108913023D01*
X136768389Y-108891815D01*
X136766300Y-108870605D01*
X136766300Y-105461856D01*
X137275357Y-104952800D01*
X139996290Y-104952800D01*
X140017500Y-104954889D01*
X140038710Y-104952800D01*
X140102148Y-104946552D01*
X140183542Y-104921861D01*
X140258556Y-104881766D01*
X140324306Y-104827806D01*
X140337835Y-104811322D01*
X141006333Y-104142825D01*
X141022806Y-104129306D01*
X141076766Y-104063556D01*
X141116861Y-103988542D01*
X141141552Y-103907148D01*
X141147800Y-103843710D01*
X141147800Y-103843709D01*
X141149889Y-103822501D01*
X141147800Y-103801291D01*
X141147800Y-103501965D01*
X141235597Y-103465598D01*
X141437217Y-103330880D01*
X141608680Y-103159417D01*
X141743398Y-102957797D01*
X141836193Y-102733769D01*
X141883500Y-102495943D01*
X141883500Y-102253457D01*
X141836193Y-102015631D01*
X141743398Y-101791603D01*
X141608680Y-101589983D01*
X141437217Y-101418520D01*
X141235597Y-101283802D01*
X141011569Y-101191007D01*
X140773743Y-101143700D01*
X140531257Y-101143700D01*
X140293431Y-101191007D01*
X140069403Y-101283802D01*
X139867783Y-101418520D01*
X139696320Y-101589983D01*
X139561602Y-101791603D01*
X139468807Y-102015631D01*
X139421500Y-102253457D01*
X139421500Y-102495943D01*
X139468807Y-102733769D01*
X139561602Y-102957797D01*
X139696320Y-103159417D01*
X139867783Y-103330880D01*
X140069403Y-103465598D01*
X140284200Y-103554569D01*
X140284200Y-103643642D01*
X139838644Y-104089200D01*
X137313457Y-104089200D01*
X137602133Y-103800524D01*
X137753431Y-103863193D01*
X137991257Y-103910500D01*
X138233743Y-103910500D01*
X138471569Y-103863193D01*
X138695597Y-103770398D01*
X138897217Y-103635680D01*
X139068680Y-103464217D01*
X139203398Y-103262597D01*
X139296193Y-103038569D01*
X139343500Y-102800743D01*
X139343500Y-102558257D01*
X139296193Y-102320431D01*
X139203398Y-102096403D01*
X139068680Y-101894783D01*
X138897217Y-101723320D01*
X138695597Y-101588602D01*
X138471569Y-101495807D01*
X138233743Y-101448500D01*
X137991257Y-101448500D01*
X137753431Y-101495807D01*
X137529403Y-101588602D01*
X137327783Y-101723320D01*
X137156320Y-101894783D01*
X137021602Y-102096403D01*
X136928807Y-102320431D01*
X136881500Y-102558257D01*
X136881500Y-102800743D01*
X136928807Y-103038569D01*
X136991476Y-103189867D01*
X136726519Y-103454824D01*
X136740822Y-103437396D01*
X136776201Y-103371208D01*
X136797987Y-103299389D01*
X136805343Y-103224700D01*
X136805343Y-101524700D01*
X136797987Y-101450011D01*
X136776201Y-101378192D01*
X136740822Y-101312004D01*
X136693211Y-101253989D01*
X136635196Y-101206378D01*
X136569008Y-101170999D01*
X136497189Y-101149213D01*
X136422500Y-101141857D01*
X134722500Y-101141857D01*
X134647811Y-101149213D01*
X134575992Y-101170999D01*
X134509804Y-101206378D01*
X134451789Y-101253989D01*
X134404178Y-101312004D01*
X134368799Y-101378192D01*
X134347013Y-101450011D01*
X134339657Y-101524700D01*
X134339657Y-103224700D01*
X134347013Y-103299389D01*
X134368799Y-103371208D01*
X134404178Y-103437396D01*
X134451789Y-103495411D01*
X134509804Y-103543022D01*
X134575992Y-103578401D01*
X134647811Y-103600187D01*
X134722500Y-103607543D01*
X135077200Y-103607543D01*
X135077201Y-108685372D01*
X134790068Y-108972506D01*
X134773584Y-108986034D01*
X134719624Y-109051785D01*
X134679529Y-109126799D01*
X134659914Y-109191460D01*
X134654838Y-109208193D01*
X134646501Y-109292840D01*
X134648590Y-109314050D01*
X134648591Y-110697517D01*
X134639000Y-110707108D01*
X134639000Y-110667078D01*
X134608987Y-110516191D01*
X134550113Y-110374058D01*
X134464642Y-110246141D01*
X134355859Y-110137358D01*
X134227942Y-110051887D01*
X134085809Y-109993013D01*
X133934922Y-109963000D01*
X133781078Y-109963000D01*
X133630191Y-109993013D01*
X133488058Y-110051887D01*
X133360141Y-110137358D01*
X133337699Y-110159800D01*
X131697809Y-110159800D01*
X131670642Y-110119141D01*
X131561859Y-110010358D01*
X131433942Y-109924887D01*
X131291809Y-109866013D01*
X131140922Y-109836000D01*
X130987078Y-109836000D01*
X130836191Y-109866013D01*
X130694058Y-109924887D01*
X130566141Y-110010358D01*
X130457358Y-110119141D01*
X130371887Y-110247058D01*
X130313013Y-110389191D01*
X130283000Y-110540078D01*
X130283000Y-110693922D01*
X130313013Y-110844809D01*
X130371887Y-110986942D01*
X130457358Y-111114859D01*
X130566141Y-111223642D01*
X130615229Y-111256441D01*
X130582191Y-111263013D01*
X130440058Y-111321887D01*
X130312141Y-111407358D01*
X130203358Y-111516141D01*
X130117887Y-111644058D01*
X130059013Y-111786191D01*
X130029000Y-111937078D01*
X122563747Y-111937078D01*
X122591798Y-111895097D01*
X122684593Y-111671069D01*
X122731900Y-111433243D01*
X122731900Y-111190757D01*
X122684593Y-110952931D01*
X122591798Y-110728903D01*
X122457080Y-110527283D01*
X122285617Y-110355820D01*
X122083997Y-110221102D01*
X121859969Y-110128307D01*
X121622143Y-110081000D01*
X121379657Y-110081000D01*
X121141831Y-110128307D01*
X120917803Y-110221102D01*
X120716183Y-110355820D01*
X120544720Y-110527283D01*
X120410002Y-110728903D01*
X120317207Y-110952931D01*
X120269900Y-111190757D01*
X119553791Y-111190757D01*
X119709902Y-110252844D01*
X120085582Y-108920784D01*
X120605164Y-107637998D01*
X120992262Y-106920578D01*
X122155000Y-106920578D01*
X122155000Y-107074422D01*
X122185013Y-107225309D01*
X122243887Y-107367442D01*
X122329358Y-107495359D01*
X122402999Y-107569000D01*
X122329358Y-107642641D01*
X122243887Y-107770558D01*
X122185013Y-107912691D01*
X122155000Y-108063578D01*
X122155000Y-108217422D01*
X122185013Y-108368309D01*
X122243887Y-108510442D01*
X122329358Y-108638359D01*
X122438141Y-108747142D01*
X122566058Y-108832613D01*
X122708191Y-108891487D01*
X122859078Y-108921500D01*
X123012922Y-108921500D01*
X123163809Y-108891487D01*
X123305942Y-108832613D01*
X123433859Y-108747142D01*
X123542642Y-108638359D01*
X123628113Y-108510442D01*
X123686987Y-108368309D01*
X123717000Y-108217422D01*
X123717000Y-108063578D01*
X123704370Y-108000078D01*
X126981000Y-108000078D01*
X126981000Y-108153922D01*
X127011013Y-108304809D01*
X127069887Y-108446942D01*
X127155358Y-108574859D01*
X127264141Y-108683642D01*
X127392058Y-108769113D01*
X127534191Y-108827987D01*
X127685078Y-108858000D01*
X127838922Y-108858000D01*
X127989809Y-108827987D01*
X128131942Y-108769113D01*
X128259859Y-108683642D01*
X128368642Y-108574859D01*
X128454113Y-108446942D01*
X128512987Y-108304809D01*
X128543000Y-108153922D01*
X128543000Y-108000078D01*
X128512987Y-107849191D01*
X128454113Y-107707058D01*
X128368642Y-107579141D01*
X128259859Y-107470358D01*
X128131942Y-107384887D01*
X127989809Y-107326013D01*
X127838922Y-107296000D01*
X127685078Y-107296000D01*
X127534191Y-107326013D01*
X127392058Y-107384887D01*
X127264141Y-107470358D01*
X127155358Y-107579141D01*
X127069887Y-107707058D01*
X127011013Y-107849191D01*
X126981000Y-108000078D01*
X123704370Y-108000078D01*
X123686987Y-107912691D01*
X123628113Y-107770558D01*
X123542642Y-107642641D01*
X123469001Y-107569000D01*
X123542642Y-107495359D01*
X123628113Y-107367442D01*
X123686987Y-107225309D01*
X123717000Y-107074422D01*
X123717000Y-106920578D01*
X123686987Y-106769691D01*
X123628113Y-106627558D01*
X123542642Y-106499641D01*
X123433859Y-106390858D01*
X123305942Y-106305387D01*
X123163809Y-106246513D01*
X123012922Y-106216500D01*
X122859078Y-106216500D01*
X122708191Y-106246513D01*
X122566058Y-106305387D01*
X122438141Y-106390858D01*
X122329358Y-106499641D01*
X122243887Y-106627558D01*
X122185013Y-106769691D01*
X122155000Y-106920578D01*
X120992262Y-106920578D01*
X121262372Y-106419977D01*
X122049273Y-105281426D01*
X122956359Y-104236102D01*
X123972677Y-103296627D01*
X125085937Y-102474360D01*
X126282720Y-101779213D01*
X127548559Y-101219592D01*
X128868146Y-100802260D01*
X130225577Y-100532250D01*
X131612392Y-100412139D01*
X132003194Y-100406000D01*
X160988829Y-100406000D01*
X162381933Y-100482668D01*
%TD*%
M02*
