%TF.GenerationSoftware,KiCad,Pcbnew,(5.1.6)-1*%
%TF.CreationDate,2021-01-10T13:33:15-07:00*%
%TF.ProjectId,AltoidsSmall,416c746f-6964-4735-936d-616c6c2e6b69,rev?*%
%TF.SameCoordinates,Original*%
%TF.FileFunction,Paste,Top*%
%TF.FilePolarity,Positive*%
%FSLAX46Y46*%
G04 Gerber Fmt 4.6, Leading zero omitted, Abs format (unit mm)*
G04 Created by KiCad (PCBNEW (5.1.6)-1) date 2021-01-10 13:33:15*
%MOMM*%
%LPD*%
G01*
G04 APERTURE LIST*
%ADD10R,1.400000X1.200000*%
%ADD11R,0.800000X0.900000*%
%ADD12R,0.900000X1.000000*%
%ADD13R,1.350000X0.400000*%
%ADD14R,0.300000X1.400000*%
%ADD15R,0.900000X0.800000*%
G04 APERTURE END LIST*
%TO.C,D3*%
G36*
G01*
X158855000Y-122056500D02*
X159280000Y-122056500D01*
G75*
G02*
X159492500Y-122269000I0J-212500D01*
G01*
X159492500Y-123069000D01*
G75*
G02*
X159280000Y-123281500I-212500J0D01*
G01*
X158855000Y-123281500D01*
G75*
G02*
X158642500Y-123069000I0J212500D01*
G01*
X158642500Y-122269000D01*
G75*
G02*
X158855000Y-122056500I212500J0D01*
G01*
G37*
G36*
G01*
X158855000Y-120431500D02*
X159280000Y-120431500D01*
G75*
G02*
X159492500Y-120644000I0J-212500D01*
G01*
X159492500Y-121444000D01*
G75*
G02*
X159280000Y-121656500I-212500J0D01*
G01*
X158855000Y-121656500D01*
G75*
G02*
X158642500Y-121444000I0J212500D01*
G01*
X158642500Y-120644000D01*
G75*
G02*
X158855000Y-120431500I212500J0D01*
G01*
G37*
%TD*%
%TO.C,D2*%
G36*
G01*
X159153000Y-112449000D02*
X158728000Y-112449000D01*
G75*
G02*
X158515500Y-112236500I0J212500D01*
G01*
X158515500Y-111436500D01*
G75*
G02*
X158728000Y-111224000I212500J0D01*
G01*
X159153000Y-111224000D01*
G75*
G02*
X159365500Y-111436500I0J-212500D01*
G01*
X159365500Y-112236500D01*
G75*
G02*
X159153000Y-112449000I-212500J0D01*
G01*
G37*
G36*
G01*
X159153000Y-114074000D02*
X158728000Y-114074000D01*
G75*
G02*
X158515500Y-113861500I0J212500D01*
G01*
X158515500Y-113061500D01*
G75*
G02*
X158728000Y-112849000I212500J0D01*
G01*
X159153000Y-112849000D01*
G75*
G02*
X159365500Y-113061500I0J-212500D01*
G01*
X159365500Y-113861500D01*
G75*
G02*
X159153000Y-114074000I-212500J0D01*
G01*
G37*
%TD*%
%TO.C,D1*%
G36*
G01*
X140103000Y-128006500D02*
X139678000Y-128006500D01*
G75*
G02*
X139465500Y-127794000I0J212500D01*
G01*
X139465500Y-126994000D01*
G75*
G02*
X139678000Y-126781500I212500J0D01*
G01*
X140103000Y-126781500D01*
G75*
G02*
X140315500Y-126994000I0J-212500D01*
G01*
X140315500Y-127794000D01*
G75*
G02*
X140103000Y-128006500I-212500J0D01*
G01*
G37*
G36*
G01*
X140103000Y-129631500D02*
X139678000Y-129631500D01*
G75*
G02*
X139465500Y-129419000I0J212500D01*
G01*
X139465500Y-128619000D01*
G75*
G02*
X139678000Y-128406500I212500J0D01*
G01*
X140103000Y-128406500D01*
G75*
G02*
X140315500Y-128619000I0J-212500D01*
G01*
X140315500Y-129419000D01*
G75*
G02*
X140103000Y-129631500I-212500J0D01*
G01*
G37*
%TD*%
%TO.C,C19*%
G36*
G01*
X143795000Y-120603000D02*
X143795000Y-121078000D01*
G75*
G02*
X143557500Y-121315500I-237500J0D01*
G01*
X142982500Y-121315500D01*
G75*
G02*
X142745000Y-121078000I0J237500D01*
G01*
X142745000Y-120603000D01*
G75*
G02*
X142982500Y-120365500I237500J0D01*
G01*
X143557500Y-120365500D01*
G75*
G02*
X143795000Y-120603000I0J-237500D01*
G01*
G37*
G36*
G01*
X145545000Y-120603000D02*
X145545000Y-121078000D01*
G75*
G02*
X145307500Y-121315500I-237500J0D01*
G01*
X144732500Y-121315500D01*
G75*
G02*
X144495000Y-121078000I0J237500D01*
G01*
X144495000Y-120603000D01*
G75*
G02*
X144732500Y-120365500I237500J0D01*
G01*
X145307500Y-120365500D01*
G75*
G02*
X145545000Y-120603000I0J-237500D01*
G01*
G37*
%TD*%
D10*
%TO.C,Y1*%
X143235500Y-122657500D03*
X145435500Y-122657500D03*
X145435500Y-124357500D03*
X143235500Y-124357500D03*
%TD*%
D11*
%TO.C,U6*%
X158940500Y-129079500D03*
X157990500Y-127079500D03*
X159890500Y-127079500D03*
%TD*%
%TO.C,FB1*%
G36*
G01*
X161151250Y-132974500D02*
X162063750Y-132974500D01*
G75*
G02*
X162307500Y-133218250I0J-243750D01*
G01*
X162307500Y-133705750D01*
G75*
G02*
X162063750Y-133949500I-243750J0D01*
G01*
X161151250Y-133949500D01*
G75*
G02*
X160907500Y-133705750I0J243750D01*
G01*
X160907500Y-133218250D01*
G75*
G02*
X161151250Y-132974500I243750J0D01*
G01*
G37*
G36*
G01*
X161151250Y-131099500D02*
X162063750Y-131099500D01*
G75*
G02*
X162307500Y-131343250I0J-243750D01*
G01*
X162307500Y-131830750D01*
G75*
G02*
X162063750Y-132074500I-243750J0D01*
G01*
X161151250Y-132074500D01*
G75*
G02*
X160907500Y-131830750I0J243750D01*
G01*
X160907500Y-131343250D01*
G75*
G02*
X161151250Y-131099500I243750J0D01*
G01*
G37*
%TD*%
%TO.C,C18*%
G36*
G01*
X144622000Y-126158000D02*
X144622000Y-125683000D01*
G75*
G02*
X144859500Y-125445500I237500J0D01*
G01*
X145434500Y-125445500D01*
G75*
G02*
X145672000Y-125683000I0J-237500D01*
G01*
X145672000Y-126158000D01*
G75*
G02*
X145434500Y-126395500I-237500J0D01*
G01*
X144859500Y-126395500D01*
G75*
G02*
X144622000Y-126158000I0J237500D01*
G01*
G37*
G36*
G01*
X142872000Y-126158000D02*
X142872000Y-125683000D01*
G75*
G02*
X143109500Y-125445500I237500J0D01*
G01*
X143684500Y-125445500D01*
G75*
G02*
X143922000Y-125683000I0J-237500D01*
G01*
X143922000Y-126158000D01*
G75*
G02*
X143684500Y-126395500I-237500J0D01*
G01*
X143109500Y-126395500D01*
G75*
G02*
X142872000Y-126158000I0J237500D01*
G01*
G37*
%TD*%
%TO.C,C17*%
G36*
G01*
X156163000Y-128366000D02*
X156638000Y-128366000D01*
G75*
G02*
X156875500Y-128603500I0J-237500D01*
G01*
X156875500Y-129178500D01*
G75*
G02*
X156638000Y-129416000I-237500J0D01*
G01*
X156163000Y-129416000D01*
G75*
G02*
X155925500Y-129178500I0J237500D01*
G01*
X155925500Y-128603500D01*
G75*
G02*
X156163000Y-128366000I237500J0D01*
G01*
G37*
G36*
G01*
X156163000Y-126616000D02*
X156638000Y-126616000D01*
G75*
G02*
X156875500Y-126853500I0J-237500D01*
G01*
X156875500Y-127428500D01*
G75*
G02*
X156638000Y-127666000I-237500J0D01*
G01*
X156163000Y-127666000D01*
G75*
G02*
X155925500Y-127428500I0J237500D01*
G01*
X155925500Y-126853500D01*
G75*
G02*
X156163000Y-126616000I237500J0D01*
G01*
G37*
%TD*%
%TO.C,C16*%
G36*
G01*
X161718000Y-127729500D02*
X161243000Y-127729500D01*
G75*
G02*
X161005500Y-127492000I0J237500D01*
G01*
X161005500Y-126917000D01*
G75*
G02*
X161243000Y-126679500I237500J0D01*
G01*
X161718000Y-126679500D01*
G75*
G02*
X161955500Y-126917000I0J-237500D01*
G01*
X161955500Y-127492000D01*
G75*
G02*
X161718000Y-127729500I-237500J0D01*
G01*
G37*
G36*
G01*
X161718000Y-129479500D02*
X161243000Y-129479500D01*
G75*
G02*
X161005500Y-129242000I0J237500D01*
G01*
X161005500Y-128667000D01*
G75*
G02*
X161243000Y-128429500I237500J0D01*
G01*
X161718000Y-128429500D01*
G75*
G02*
X161955500Y-128667000I0J-237500D01*
G01*
X161955500Y-129242000D01*
G75*
G02*
X161718000Y-129479500I-237500J0D01*
G01*
G37*
%TD*%
%TO.C,C13*%
G36*
G01*
X163708500Y-114248250D02*
X163708500Y-113335750D01*
G75*
G02*
X163952250Y-113092000I243750J0D01*
G01*
X164439750Y-113092000D01*
G75*
G02*
X164683500Y-113335750I0J-243750D01*
G01*
X164683500Y-114248250D01*
G75*
G02*
X164439750Y-114492000I-243750J0D01*
G01*
X163952250Y-114492000D01*
G75*
G02*
X163708500Y-114248250I0J243750D01*
G01*
G37*
G36*
G01*
X161833500Y-114248250D02*
X161833500Y-113335750D01*
G75*
G02*
X162077250Y-113092000I243750J0D01*
G01*
X162564750Y-113092000D01*
G75*
G02*
X162808500Y-113335750I0J-243750D01*
G01*
X162808500Y-114248250D01*
G75*
G02*
X162564750Y-114492000I-243750J0D01*
G01*
X162077250Y-114492000D01*
G75*
G02*
X161833500Y-114248250I0J243750D01*
G01*
G37*
%TD*%
D12*
%TO.C,SW2*%
X147111500Y-126136500D03*
X147111500Y-127736500D03*
X151211500Y-126136500D03*
X151211500Y-127736500D03*
%TD*%
%TO.C,SW1*%
X130919000Y-126263500D03*
X130919000Y-127863500D03*
X135019000Y-126263500D03*
X135019000Y-127863500D03*
%TD*%
%TO.C,C12*%
G36*
G01*
X161019500Y-112489500D02*
X160544500Y-112489500D01*
G75*
G02*
X160307000Y-112252000I0J237500D01*
G01*
X160307000Y-111677000D01*
G75*
G02*
X160544500Y-111439500I237500J0D01*
G01*
X161019500Y-111439500D01*
G75*
G02*
X161257000Y-111677000I0J-237500D01*
G01*
X161257000Y-112252000D01*
G75*
G02*
X161019500Y-112489500I-237500J0D01*
G01*
G37*
G36*
G01*
X161019500Y-114239500D02*
X160544500Y-114239500D01*
G75*
G02*
X160307000Y-114002000I0J237500D01*
G01*
X160307000Y-113427000D01*
G75*
G02*
X160544500Y-113189500I237500J0D01*
G01*
X161019500Y-113189500D01*
G75*
G02*
X161257000Y-113427000I0J-237500D01*
G01*
X161257000Y-114002000D01*
G75*
G02*
X161019500Y-114239500I-237500J0D01*
G01*
G37*
%TD*%
D13*
%TO.C,U4*%
X172739600Y-118820000D03*
X172739600Y-117520000D03*
X172739600Y-116220000D03*
X172739600Y-118170000D03*
X172739600Y-116870000D03*
%TD*%
D14*
%TO.C,U5*%
X126730000Y-118976500D03*
X126230000Y-118976500D03*
X125730000Y-118976500D03*
X125230000Y-118976500D03*
X124730000Y-118976500D03*
X124730000Y-114576500D03*
X125230000Y-114576500D03*
X125730000Y-114576500D03*
X126230000Y-114576500D03*
X126730000Y-114576500D03*
%TD*%
%TO.C,U3*%
G36*
G01*
X162535500Y-117121000D02*
X162110500Y-117121000D01*
G75*
G02*
X161898000Y-116908500I0J212500D01*
G01*
X161898000Y-116483500D01*
G75*
G02*
X162110500Y-116271000I212500J0D01*
G01*
X162535500Y-116271000D01*
G75*
G02*
X162748000Y-116483500I0J-212500D01*
G01*
X162748000Y-116908500D01*
G75*
G02*
X162535500Y-117121000I-212500J0D01*
G01*
G37*
G36*
G01*
X161485500Y-117121000D02*
X161060500Y-117121000D01*
G75*
G02*
X160848000Y-116908500I0J212500D01*
G01*
X160848000Y-116483500D01*
G75*
G02*
X161060500Y-116271000I212500J0D01*
G01*
X161485500Y-116271000D01*
G75*
G02*
X161698000Y-116483500I0J-212500D01*
G01*
X161698000Y-116908500D01*
G75*
G02*
X161485500Y-117121000I-212500J0D01*
G01*
G37*
G36*
G01*
X162535500Y-118171000D02*
X162110500Y-118171000D01*
G75*
G02*
X161898000Y-117958500I0J212500D01*
G01*
X161898000Y-117533500D01*
G75*
G02*
X162110500Y-117321000I212500J0D01*
G01*
X162535500Y-117321000D01*
G75*
G02*
X162748000Y-117533500I0J-212500D01*
G01*
X162748000Y-117958500D01*
G75*
G02*
X162535500Y-118171000I-212500J0D01*
G01*
G37*
G36*
G01*
X161485500Y-118171000D02*
X161060500Y-118171000D01*
G75*
G02*
X160848000Y-117958500I0J212500D01*
G01*
X160848000Y-117533500D01*
G75*
G02*
X161060500Y-117321000I212500J0D01*
G01*
X161485500Y-117321000D01*
G75*
G02*
X161698000Y-117533500I0J-212500D01*
G01*
X161698000Y-117958500D01*
G75*
G02*
X161485500Y-118171000I-212500J0D01*
G01*
G37*
G36*
G01*
X160198000Y-118346000D02*
X159498000Y-118346000D01*
G75*
G02*
X159423000Y-118271000I0J75000D01*
G01*
X159423000Y-118121000D01*
G75*
G02*
X159498000Y-118046000I75000J0D01*
G01*
X160198000Y-118046000D01*
G75*
G02*
X160273000Y-118121000I0J-75000D01*
G01*
X160273000Y-118271000D01*
G75*
G02*
X160198000Y-118346000I-75000J0D01*
G01*
G37*
G36*
G01*
X160198000Y-117696000D02*
X159498000Y-117696000D01*
G75*
G02*
X159423000Y-117621000I0J75000D01*
G01*
X159423000Y-117471000D01*
G75*
G02*
X159498000Y-117396000I75000J0D01*
G01*
X160198000Y-117396000D01*
G75*
G02*
X160273000Y-117471000I0J-75000D01*
G01*
X160273000Y-117621000D01*
G75*
G02*
X160198000Y-117696000I-75000J0D01*
G01*
G37*
G36*
G01*
X160198000Y-117046000D02*
X159498000Y-117046000D01*
G75*
G02*
X159423000Y-116971000I0J75000D01*
G01*
X159423000Y-116821000D01*
G75*
G02*
X159498000Y-116746000I75000J0D01*
G01*
X160198000Y-116746000D01*
G75*
G02*
X160273000Y-116821000I0J-75000D01*
G01*
X160273000Y-116971000D01*
G75*
G02*
X160198000Y-117046000I-75000J0D01*
G01*
G37*
G36*
G01*
X160198000Y-116396000D02*
X159498000Y-116396000D01*
G75*
G02*
X159423000Y-116321000I0J75000D01*
G01*
X159423000Y-116171000D01*
G75*
G02*
X159498000Y-116096000I75000J0D01*
G01*
X160198000Y-116096000D01*
G75*
G02*
X160273000Y-116171000I0J-75000D01*
G01*
X160273000Y-116321000D01*
G75*
G02*
X160198000Y-116396000I-75000J0D01*
G01*
G37*
G36*
G01*
X160898000Y-115696000D02*
X160748000Y-115696000D01*
G75*
G02*
X160673000Y-115621000I0J75000D01*
G01*
X160673000Y-114921000D01*
G75*
G02*
X160748000Y-114846000I75000J0D01*
G01*
X160898000Y-114846000D01*
G75*
G02*
X160973000Y-114921000I0J-75000D01*
G01*
X160973000Y-115621000D01*
G75*
G02*
X160898000Y-115696000I-75000J0D01*
G01*
G37*
G36*
G01*
X161548000Y-115696000D02*
X161398000Y-115696000D01*
G75*
G02*
X161323000Y-115621000I0J75000D01*
G01*
X161323000Y-114921000D01*
G75*
G02*
X161398000Y-114846000I75000J0D01*
G01*
X161548000Y-114846000D01*
G75*
G02*
X161623000Y-114921000I0J-75000D01*
G01*
X161623000Y-115621000D01*
G75*
G02*
X161548000Y-115696000I-75000J0D01*
G01*
G37*
G36*
G01*
X162198000Y-115696000D02*
X162048000Y-115696000D01*
G75*
G02*
X161973000Y-115621000I0J75000D01*
G01*
X161973000Y-114921000D01*
G75*
G02*
X162048000Y-114846000I75000J0D01*
G01*
X162198000Y-114846000D01*
G75*
G02*
X162273000Y-114921000I0J-75000D01*
G01*
X162273000Y-115621000D01*
G75*
G02*
X162198000Y-115696000I-75000J0D01*
G01*
G37*
G36*
G01*
X162848000Y-115696000D02*
X162698000Y-115696000D01*
G75*
G02*
X162623000Y-115621000I0J75000D01*
G01*
X162623000Y-114921000D01*
G75*
G02*
X162698000Y-114846000I75000J0D01*
G01*
X162848000Y-114846000D01*
G75*
G02*
X162923000Y-114921000I0J-75000D01*
G01*
X162923000Y-115621000D01*
G75*
G02*
X162848000Y-115696000I-75000J0D01*
G01*
G37*
G36*
G01*
X164098000Y-116396000D02*
X163398000Y-116396000D01*
G75*
G02*
X163323000Y-116321000I0J75000D01*
G01*
X163323000Y-116171000D01*
G75*
G02*
X163398000Y-116096000I75000J0D01*
G01*
X164098000Y-116096000D01*
G75*
G02*
X164173000Y-116171000I0J-75000D01*
G01*
X164173000Y-116321000D01*
G75*
G02*
X164098000Y-116396000I-75000J0D01*
G01*
G37*
G36*
G01*
X164098000Y-117046000D02*
X163398000Y-117046000D01*
G75*
G02*
X163323000Y-116971000I0J75000D01*
G01*
X163323000Y-116821000D01*
G75*
G02*
X163398000Y-116746000I75000J0D01*
G01*
X164098000Y-116746000D01*
G75*
G02*
X164173000Y-116821000I0J-75000D01*
G01*
X164173000Y-116971000D01*
G75*
G02*
X164098000Y-117046000I-75000J0D01*
G01*
G37*
G36*
G01*
X164098000Y-117696000D02*
X163398000Y-117696000D01*
G75*
G02*
X163323000Y-117621000I0J75000D01*
G01*
X163323000Y-117471000D01*
G75*
G02*
X163398000Y-117396000I75000J0D01*
G01*
X164098000Y-117396000D01*
G75*
G02*
X164173000Y-117471000I0J-75000D01*
G01*
X164173000Y-117621000D01*
G75*
G02*
X164098000Y-117696000I-75000J0D01*
G01*
G37*
G36*
G01*
X164098000Y-118346000D02*
X163398000Y-118346000D01*
G75*
G02*
X163323000Y-118271000I0J75000D01*
G01*
X163323000Y-118121000D01*
G75*
G02*
X163398000Y-118046000I75000J0D01*
G01*
X164098000Y-118046000D01*
G75*
G02*
X164173000Y-118121000I0J-75000D01*
G01*
X164173000Y-118271000D01*
G75*
G02*
X164098000Y-118346000I-75000J0D01*
G01*
G37*
G36*
G01*
X162848000Y-119596000D02*
X162698000Y-119596000D01*
G75*
G02*
X162623000Y-119521000I0J75000D01*
G01*
X162623000Y-118821000D01*
G75*
G02*
X162698000Y-118746000I75000J0D01*
G01*
X162848000Y-118746000D01*
G75*
G02*
X162923000Y-118821000I0J-75000D01*
G01*
X162923000Y-119521000D01*
G75*
G02*
X162848000Y-119596000I-75000J0D01*
G01*
G37*
G36*
G01*
X162198000Y-119596000D02*
X162048000Y-119596000D01*
G75*
G02*
X161973000Y-119521000I0J75000D01*
G01*
X161973000Y-118821000D01*
G75*
G02*
X162048000Y-118746000I75000J0D01*
G01*
X162198000Y-118746000D01*
G75*
G02*
X162273000Y-118821000I0J-75000D01*
G01*
X162273000Y-119521000D01*
G75*
G02*
X162198000Y-119596000I-75000J0D01*
G01*
G37*
G36*
G01*
X161548000Y-119596000D02*
X161398000Y-119596000D01*
G75*
G02*
X161323000Y-119521000I0J75000D01*
G01*
X161323000Y-118821000D01*
G75*
G02*
X161398000Y-118746000I75000J0D01*
G01*
X161548000Y-118746000D01*
G75*
G02*
X161623000Y-118821000I0J-75000D01*
G01*
X161623000Y-119521000D01*
G75*
G02*
X161548000Y-119596000I-75000J0D01*
G01*
G37*
G36*
G01*
X160898000Y-119596000D02*
X160748000Y-119596000D01*
G75*
G02*
X160673000Y-119521000I0J75000D01*
G01*
X160673000Y-118821000D01*
G75*
G02*
X160748000Y-118746000I75000J0D01*
G01*
X160898000Y-118746000D01*
G75*
G02*
X160973000Y-118821000I0J-75000D01*
G01*
X160973000Y-119521000D01*
G75*
G02*
X160898000Y-119596000I-75000J0D01*
G01*
G37*
%TD*%
%TO.C,R12*%
G36*
G01*
X126158000Y-110203500D02*
X125683000Y-110203500D01*
G75*
G02*
X125445500Y-109966000I0J237500D01*
G01*
X125445500Y-109391000D01*
G75*
G02*
X125683000Y-109153500I237500J0D01*
G01*
X126158000Y-109153500D01*
G75*
G02*
X126395500Y-109391000I0J-237500D01*
G01*
X126395500Y-109966000D01*
G75*
G02*
X126158000Y-110203500I-237500J0D01*
G01*
G37*
G36*
G01*
X126158000Y-111953500D02*
X125683000Y-111953500D01*
G75*
G02*
X125445500Y-111716000I0J237500D01*
G01*
X125445500Y-111141000D01*
G75*
G02*
X125683000Y-110903500I237500J0D01*
G01*
X126158000Y-110903500D01*
G75*
G02*
X126395500Y-111141000I0J-237500D01*
G01*
X126395500Y-111716000D01*
G75*
G02*
X126158000Y-111953500I-237500J0D01*
G01*
G37*
%TD*%
%TO.C,R11*%
G36*
G01*
X123968500Y-110903500D02*
X124443500Y-110903500D01*
G75*
G02*
X124681000Y-111141000I0J-237500D01*
G01*
X124681000Y-111716000D01*
G75*
G02*
X124443500Y-111953500I-237500J0D01*
G01*
X123968500Y-111953500D01*
G75*
G02*
X123731000Y-111716000I0J237500D01*
G01*
X123731000Y-111141000D01*
G75*
G02*
X123968500Y-110903500I237500J0D01*
G01*
G37*
G36*
G01*
X123968500Y-109153500D02*
X124443500Y-109153500D01*
G75*
G02*
X124681000Y-109391000I0J-237500D01*
G01*
X124681000Y-109966000D01*
G75*
G02*
X124443500Y-110203500I-237500J0D01*
G01*
X123968500Y-110203500D01*
G75*
G02*
X123731000Y-109966000I0J237500D01*
G01*
X123731000Y-109391000D01*
G75*
G02*
X123968500Y-109153500I237500J0D01*
G01*
G37*
%TD*%
%TO.C,R10*%
G36*
G01*
X159670000Y-124159000D02*
X159670000Y-124634000D01*
G75*
G02*
X159432500Y-124871500I-237500J0D01*
G01*
X158857500Y-124871500D01*
G75*
G02*
X158620000Y-124634000I0J237500D01*
G01*
X158620000Y-124159000D01*
G75*
G02*
X158857500Y-123921500I237500J0D01*
G01*
X159432500Y-123921500D01*
G75*
G02*
X159670000Y-124159000I0J-237500D01*
G01*
G37*
G36*
G01*
X161420000Y-124159000D02*
X161420000Y-124634000D01*
G75*
G02*
X161182500Y-124871500I-237500J0D01*
G01*
X160607500Y-124871500D01*
G75*
G02*
X160370000Y-124634000I0J237500D01*
G01*
X160370000Y-124159000D01*
G75*
G02*
X160607500Y-123921500I237500J0D01*
G01*
X161182500Y-123921500D01*
G75*
G02*
X161420000Y-124159000I0J-237500D01*
G01*
G37*
%TD*%
%TO.C,R9*%
G36*
G01*
X158084000Y-110346500D02*
X158084000Y-109871500D01*
G75*
G02*
X158321500Y-109634000I237500J0D01*
G01*
X158896500Y-109634000D01*
G75*
G02*
X159134000Y-109871500I0J-237500D01*
G01*
X159134000Y-110346500D01*
G75*
G02*
X158896500Y-110584000I-237500J0D01*
G01*
X158321500Y-110584000D01*
G75*
G02*
X158084000Y-110346500I0J237500D01*
G01*
G37*
G36*
G01*
X156334000Y-110346500D02*
X156334000Y-109871500D01*
G75*
G02*
X156571500Y-109634000I237500J0D01*
G01*
X157146500Y-109634000D01*
G75*
G02*
X157384000Y-109871500I0J-237500D01*
G01*
X157384000Y-110346500D01*
G75*
G02*
X157146500Y-110584000I-237500J0D01*
G01*
X156571500Y-110584000D01*
G75*
G02*
X156334000Y-110346500I0J237500D01*
G01*
G37*
%TD*%
%TO.C,R8*%
G36*
G01*
X167291500Y-116823500D02*
X167291500Y-116348500D01*
G75*
G02*
X167529000Y-116111000I237500J0D01*
G01*
X168104000Y-116111000D01*
G75*
G02*
X168341500Y-116348500I0J-237500D01*
G01*
X168341500Y-116823500D01*
G75*
G02*
X168104000Y-117061000I-237500J0D01*
G01*
X167529000Y-117061000D01*
G75*
G02*
X167291500Y-116823500I0J237500D01*
G01*
G37*
G36*
G01*
X165541500Y-116823500D02*
X165541500Y-116348500D01*
G75*
G02*
X165779000Y-116111000I237500J0D01*
G01*
X166354000Y-116111000D01*
G75*
G02*
X166591500Y-116348500I0J-237500D01*
G01*
X166591500Y-116823500D01*
G75*
G02*
X166354000Y-117061000I-237500J0D01*
G01*
X165779000Y-117061000D01*
G75*
G02*
X165541500Y-116823500I0J237500D01*
G01*
G37*
%TD*%
%TO.C,R7*%
G36*
G01*
X167355000Y-118792000D02*
X167355000Y-118317000D01*
G75*
G02*
X167592500Y-118079500I237500J0D01*
G01*
X168167500Y-118079500D01*
G75*
G02*
X168405000Y-118317000I0J-237500D01*
G01*
X168405000Y-118792000D01*
G75*
G02*
X168167500Y-119029500I-237500J0D01*
G01*
X167592500Y-119029500D01*
G75*
G02*
X167355000Y-118792000I0J237500D01*
G01*
G37*
G36*
G01*
X165605000Y-118792000D02*
X165605000Y-118317000D01*
G75*
G02*
X165842500Y-118079500I237500J0D01*
G01*
X166417500Y-118079500D01*
G75*
G02*
X166655000Y-118317000I0J-237500D01*
G01*
X166655000Y-118792000D01*
G75*
G02*
X166417500Y-119029500I-237500J0D01*
G01*
X165842500Y-119029500D01*
G75*
G02*
X165605000Y-118792000I0J237500D01*
G01*
G37*
%TD*%
%TO.C,R6*%
G36*
G01*
X164067500Y-110775000D02*
X163592500Y-110775000D01*
G75*
G02*
X163355000Y-110537500I0J237500D01*
G01*
X163355000Y-109962500D01*
G75*
G02*
X163592500Y-109725000I237500J0D01*
G01*
X164067500Y-109725000D01*
G75*
G02*
X164305000Y-109962500I0J-237500D01*
G01*
X164305000Y-110537500D01*
G75*
G02*
X164067500Y-110775000I-237500J0D01*
G01*
G37*
G36*
G01*
X164067500Y-112525000D02*
X163592500Y-112525000D01*
G75*
G02*
X163355000Y-112287500I0J237500D01*
G01*
X163355000Y-111712500D01*
G75*
G02*
X163592500Y-111475000I237500J0D01*
G01*
X164067500Y-111475000D01*
G75*
G02*
X164305000Y-111712500I0J-237500D01*
G01*
X164305000Y-112287500D01*
G75*
G02*
X164067500Y-112525000I-237500J0D01*
G01*
G37*
%TD*%
%TO.C,C15*%
G36*
G01*
X130715500Y-113521500D02*
X130715500Y-113046500D01*
G75*
G02*
X130953000Y-112809000I237500J0D01*
G01*
X131528000Y-112809000D01*
G75*
G02*
X131765500Y-113046500I0J-237500D01*
G01*
X131765500Y-113521500D01*
G75*
G02*
X131528000Y-113759000I-237500J0D01*
G01*
X130953000Y-113759000D01*
G75*
G02*
X130715500Y-113521500I0J237500D01*
G01*
G37*
G36*
G01*
X128965500Y-113521500D02*
X128965500Y-113046500D01*
G75*
G02*
X129203000Y-112809000I237500J0D01*
G01*
X129778000Y-112809000D01*
G75*
G02*
X130015500Y-113046500I0J-237500D01*
G01*
X130015500Y-113521500D01*
G75*
G02*
X129778000Y-113759000I-237500J0D01*
G01*
X129203000Y-113759000D01*
G75*
G02*
X128965500Y-113521500I0J237500D01*
G01*
G37*
%TD*%
%TO.C,C14*%
G36*
G01*
X128286500Y-116047000D02*
X128761500Y-116047000D01*
G75*
G02*
X128999000Y-116284500I0J-237500D01*
G01*
X128999000Y-116859500D01*
G75*
G02*
X128761500Y-117097000I-237500J0D01*
G01*
X128286500Y-117097000D01*
G75*
G02*
X128049000Y-116859500I0J237500D01*
G01*
X128049000Y-116284500D01*
G75*
G02*
X128286500Y-116047000I237500J0D01*
G01*
G37*
G36*
G01*
X128286500Y-114297000D02*
X128761500Y-114297000D01*
G75*
G02*
X128999000Y-114534500I0J-237500D01*
G01*
X128999000Y-115109500D01*
G75*
G02*
X128761500Y-115347000I-237500J0D01*
G01*
X128286500Y-115347000D01*
G75*
G02*
X128049000Y-115109500I0J237500D01*
G01*
X128049000Y-114534500D01*
G75*
G02*
X128286500Y-114297000I237500J0D01*
G01*
G37*
%TD*%
%TO.C,C11*%
G36*
G01*
X166655000Y-114697500D02*
X166655000Y-115172500D01*
G75*
G02*
X166417500Y-115410000I-237500J0D01*
G01*
X165842500Y-115410000D01*
G75*
G02*
X165605000Y-115172500I0J237500D01*
G01*
X165605000Y-114697500D01*
G75*
G02*
X165842500Y-114460000I237500J0D01*
G01*
X166417500Y-114460000D01*
G75*
G02*
X166655000Y-114697500I0J-237500D01*
G01*
G37*
G36*
G01*
X168405000Y-114697500D02*
X168405000Y-115172500D01*
G75*
G02*
X168167500Y-115410000I-237500J0D01*
G01*
X167592500Y-115410000D01*
G75*
G02*
X167355000Y-115172500I0J237500D01*
G01*
X167355000Y-114697500D01*
G75*
G02*
X167592500Y-114460000I237500J0D01*
G01*
X168167500Y-114460000D01*
G75*
G02*
X168405000Y-114697500I0J-237500D01*
G01*
G37*
%TD*%
%TO.C,C10*%
G36*
G01*
X166591500Y-119968000D02*
X166591500Y-120443000D01*
G75*
G02*
X166354000Y-120680500I-237500J0D01*
G01*
X165779000Y-120680500D01*
G75*
G02*
X165541500Y-120443000I0J237500D01*
G01*
X165541500Y-119968000D01*
G75*
G02*
X165779000Y-119730500I237500J0D01*
G01*
X166354000Y-119730500D01*
G75*
G02*
X166591500Y-119968000I0J-237500D01*
G01*
G37*
G36*
G01*
X168341500Y-119968000D02*
X168341500Y-120443000D01*
G75*
G02*
X168104000Y-120680500I-237500J0D01*
G01*
X167529000Y-120680500D01*
G75*
G02*
X167291500Y-120443000I0J237500D01*
G01*
X167291500Y-119968000D01*
G75*
G02*
X167529000Y-119730500I237500J0D01*
G01*
X168104000Y-119730500D01*
G75*
G02*
X168341500Y-119968000I0J-237500D01*
G01*
G37*
%TD*%
%TO.C,C9*%
G36*
G01*
X166036000Y-111791000D02*
X165561000Y-111791000D01*
G75*
G02*
X165323500Y-111553500I0J237500D01*
G01*
X165323500Y-110978500D01*
G75*
G02*
X165561000Y-110741000I237500J0D01*
G01*
X166036000Y-110741000D01*
G75*
G02*
X166273500Y-110978500I0J-237500D01*
G01*
X166273500Y-111553500D01*
G75*
G02*
X166036000Y-111791000I-237500J0D01*
G01*
G37*
G36*
G01*
X166036000Y-113541000D02*
X165561000Y-113541000D01*
G75*
G02*
X165323500Y-113303500I0J237500D01*
G01*
X165323500Y-112728500D01*
G75*
G02*
X165561000Y-112491000I237500J0D01*
G01*
X166036000Y-112491000D01*
G75*
G02*
X166273500Y-112728500I0J-237500D01*
G01*
X166273500Y-113303500D01*
G75*
G02*
X166036000Y-113541000I-237500J0D01*
G01*
G37*
%TD*%
%TO.C,C8*%
G36*
G01*
X131398000Y-117049000D02*
X131873000Y-117049000D01*
G75*
G02*
X132110500Y-117286500I0J-237500D01*
G01*
X132110500Y-117861500D01*
G75*
G02*
X131873000Y-118099000I-237500J0D01*
G01*
X131398000Y-118099000D01*
G75*
G02*
X131160500Y-117861500I0J237500D01*
G01*
X131160500Y-117286500D01*
G75*
G02*
X131398000Y-117049000I237500J0D01*
G01*
G37*
G36*
G01*
X131398000Y-115299000D02*
X131873000Y-115299000D01*
G75*
G02*
X132110500Y-115536500I0J-237500D01*
G01*
X132110500Y-116111500D01*
G75*
G02*
X131873000Y-116349000I-237500J0D01*
G01*
X131398000Y-116349000D01*
G75*
G02*
X131160500Y-116111500I0J237500D01*
G01*
X131160500Y-115536500D01*
G75*
G02*
X131398000Y-115299000I237500J0D01*
G01*
G37*
%TD*%
%TO.C,C6*%
G36*
G01*
X138143500Y-124540000D02*
X138143500Y-125015000D01*
G75*
G02*
X137906000Y-125252500I-237500J0D01*
G01*
X137331000Y-125252500D01*
G75*
G02*
X137093500Y-125015000I0J237500D01*
G01*
X137093500Y-124540000D01*
G75*
G02*
X137331000Y-124302500I237500J0D01*
G01*
X137906000Y-124302500D01*
G75*
G02*
X138143500Y-124540000I0J-237500D01*
G01*
G37*
G36*
G01*
X139893500Y-124540000D02*
X139893500Y-125015000D01*
G75*
G02*
X139656000Y-125252500I-237500J0D01*
G01*
X139081000Y-125252500D01*
G75*
G02*
X138843500Y-125015000I0J237500D01*
G01*
X138843500Y-124540000D01*
G75*
G02*
X139081000Y-124302500I237500J0D01*
G01*
X139656000Y-124302500D01*
G75*
G02*
X139893500Y-124540000I0J-237500D01*
G01*
G37*
%TD*%
%TO.C,U2*%
G36*
G01*
X137942236Y-121174984D02*
X137005320Y-122111900D01*
G75*
G02*
X136899254Y-122111900I-53033J53033D01*
G01*
X136793188Y-122005834D01*
G75*
G02*
X136793188Y-121899768I53033J53033D01*
G01*
X137730104Y-120962852D01*
G75*
G02*
X137836170Y-120962852I53033J-53033D01*
G01*
X137942236Y-121068918D01*
G75*
G02*
X137942236Y-121174984I-53033J-53033D01*
G01*
G37*
G36*
G01*
X137588682Y-120821430D02*
X136651766Y-121758346D01*
G75*
G02*
X136545700Y-121758346I-53033J53033D01*
G01*
X136439634Y-121652280D01*
G75*
G02*
X136439634Y-121546214I53033J53033D01*
G01*
X137376550Y-120609298D01*
G75*
G02*
X137482616Y-120609298I53033J-53033D01*
G01*
X137588682Y-120715364D01*
G75*
G02*
X137588682Y-120821430I-53033J-53033D01*
G01*
G37*
G36*
G01*
X137235129Y-120467877D02*
X136298213Y-121404793D01*
G75*
G02*
X136192147Y-121404793I-53033J53033D01*
G01*
X136086081Y-121298727D01*
G75*
G02*
X136086081Y-121192661I53033J53033D01*
G01*
X137022997Y-120255745D01*
G75*
G02*
X137129063Y-120255745I53033J-53033D01*
G01*
X137235129Y-120361811D01*
G75*
G02*
X137235129Y-120467877I-53033J-53033D01*
G01*
G37*
G36*
G01*
X136881575Y-120114323D02*
X135944659Y-121051239D01*
G75*
G02*
X135838593Y-121051239I-53033J53033D01*
G01*
X135732527Y-120945173D01*
G75*
G02*
X135732527Y-120839107I53033J53033D01*
G01*
X136669443Y-119902191D01*
G75*
G02*
X136775509Y-119902191I53033J-53033D01*
G01*
X136881575Y-120008257D01*
G75*
G02*
X136881575Y-120114323I-53033J-53033D01*
G01*
G37*
G36*
G01*
X136528022Y-119760770D02*
X135591106Y-120697686D01*
G75*
G02*
X135485040Y-120697686I-53033J53033D01*
G01*
X135378974Y-120591620D01*
G75*
G02*
X135378974Y-120485554I53033J53033D01*
G01*
X136315890Y-119548638D01*
G75*
G02*
X136421956Y-119548638I53033J-53033D01*
G01*
X136528022Y-119654704D01*
G75*
G02*
X136528022Y-119760770I-53033J-53033D01*
G01*
G37*
G36*
G01*
X136174469Y-119407217D02*
X135237553Y-120344133D01*
G75*
G02*
X135131487Y-120344133I-53033J53033D01*
G01*
X135025421Y-120238067D01*
G75*
G02*
X135025421Y-120132001I53033J53033D01*
G01*
X135962337Y-119195085D01*
G75*
G02*
X136068403Y-119195085I53033J-53033D01*
G01*
X136174469Y-119301151D01*
G75*
G02*
X136174469Y-119407217I-53033J-53033D01*
G01*
G37*
G36*
G01*
X135820915Y-119053663D02*
X134883999Y-119990579D01*
G75*
G02*
X134777933Y-119990579I-53033J53033D01*
G01*
X134671867Y-119884513D01*
G75*
G02*
X134671867Y-119778447I53033J53033D01*
G01*
X135608783Y-118841531D01*
G75*
G02*
X135714849Y-118841531I53033J-53033D01*
G01*
X135820915Y-118947597D01*
G75*
G02*
X135820915Y-119053663I-53033J-53033D01*
G01*
G37*
G36*
G01*
X135467362Y-118700110D02*
X134530446Y-119637026D01*
G75*
G02*
X134424380Y-119637026I-53033J53033D01*
G01*
X134318314Y-119530960D01*
G75*
G02*
X134318314Y-119424894I53033J53033D01*
G01*
X135255230Y-118487978D01*
G75*
G02*
X135361296Y-118487978I53033J-53033D01*
G01*
X135467362Y-118594044D01*
G75*
G02*
X135467362Y-118700110I-53033J-53033D01*
G01*
G37*
G36*
G01*
X135113809Y-118346557D02*
X134176893Y-119283473D01*
G75*
G02*
X134070827Y-119283473I-53033J53033D01*
G01*
X133964761Y-119177407D01*
G75*
G02*
X133964761Y-119071341I53033J53033D01*
G01*
X134901677Y-118134425D01*
G75*
G02*
X135007743Y-118134425I53033J-53033D01*
G01*
X135113809Y-118240491D01*
G75*
G02*
X135113809Y-118346557I-53033J-53033D01*
G01*
G37*
G36*
G01*
X134760255Y-117993003D02*
X133823339Y-118929919D01*
G75*
G02*
X133717273Y-118929919I-53033J53033D01*
G01*
X133611207Y-118823853D01*
G75*
G02*
X133611207Y-118717787I53033J53033D01*
G01*
X134548123Y-117780871D01*
G75*
G02*
X134654189Y-117780871I53033J-53033D01*
G01*
X134760255Y-117886937D01*
G75*
G02*
X134760255Y-117993003I-53033J-53033D01*
G01*
G37*
G36*
G01*
X134406702Y-117639450D02*
X133469786Y-118576366D01*
G75*
G02*
X133363720Y-118576366I-53033J53033D01*
G01*
X133257654Y-118470300D01*
G75*
G02*
X133257654Y-118364234I53033J53033D01*
G01*
X134194570Y-117427318D01*
G75*
G02*
X134300636Y-117427318I53033J-53033D01*
G01*
X134406702Y-117533384D01*
G75*
G02*
X134406702Y-117639450I-53033J-53033D01*
G01*
G37*
G36*
G01*
X134053148Y-117285896D02*
X133116232Y-118222812D01*
G75*
G02*
X133010166Y-118222812I-53033J53033D01*
G01*
X132904100Y-118116746D01*
G75*
G02*
X132904100Y-118010680I53033J53033D01*
G01*
X133841016Y-117073764D01*
G75*
G02*
X133947082Y-117073764I53033J-53033D01*
G01*
X134053148Y-117179830D01*
G75*
G02*
X134053148Y-117285896I-53033J-53033D01*
G01*
G37*
G36*
G01*
X134053148Y-116119170D02*
X133947082Y-116225236D01*
G75*
G02*
X133841016Y-116225236I-53033J53033D01*
G01*
X132904100Y-115288320D01*
G75*
G02*
X132904100Y-115182254I53033J53033D01*
G01*
X133010166Y-115076188D01*
G75*
G02*
X133116232Y-115076188I53033J-53033D01*
G01*
X134053148Y-116013104D01*
G75*
G02*
X134053148Y-116119170I-53033J-53033D01*
G01*
G37*
G36*
G01*
X134406702Y-115765616D02*
X134300636Y-115871682D01*
G75*
G02*
X134194570Y-115871682I-53033J53033D01*
G01*
X133257654Y-114934766D01*
G75*
G02*
X133257654Y-114828700I53033J53033D01*
G01*
X133363720Y-114722634D01*
G75*
G02*
X133469786Y-114722634I53033J-53033D01*
G01*
X134406702Y-115659550D01*
G75*
G02*
X134406702Y-115765616I-53033J-53033D01*
G01*
G37*
G36*
G01*
X134760255Y-115412063D02*
X134654189Y-115518129D01*
G75*
G02*
X134548123Y-115518129I-53033J53033D01*
G01*
X133611207Y-114581213D01*
G75*
G02*
X133611207Y-114475147I53033J53033D01*
G01*
X133717273Y-114369081D01*
G75*
G02*
X133823339Y-114369081I53033J-53033D01*
G01*
X134760255Y-115305997D01*
G75*
G02*
X134760255Y-115412063I-53033J-53033D01*
G01*
G37*
G36*
G01*
X135113809Y-115058509D02*
X135007743Y-115164575D01*
G75*
G02*
X134901677Y-115164575I-53033J53033D01*
G01*
X133964761Y-114227659D01*
G75*
G02*
X133964761Y-114121593I53033J53033D01*
G01*
X134070827Y-114015527D01*
G75*
G02*
X134176893Y-114015527I53033J-53033D01*
G01*
X135113809Y-114952443D01*
G75*
G02*
X135113809Y-115058509I-53033J-53033D01*
G01*
G37*
G36*
G01*
X135467362Y-114704956D02*
X135361296Y-114811022D01*
G75*
G02*
X135255230Y-114811022I-53033J53033D01*
G01*
X134318314Y-113874106D01*
G75*
G02*
X134318314Y-113768040I53033J53033D01*
G01*
X134424380Y-113661974D01*
G75*
G02*
X134530446Y-113661974I53033J-53033D01*
G01*
X135467362Y-114598890D01*
G75*
G02*
X135467362Y-114704956I-53033J-53033D01*
G01*
G37*
G36*
G01*
X135820915Y-114351403D02*
X135714849Y-114457469D01*
G75*
G02*
X135608783Y-114457469I-53033J53033D01*
G01*
X134671867Y-113520553D01*
G75*
G02*
X134671867Y-113414487I53033J53033D01*
G01*
X134777933Y-113308421D01*
G75*
G02*
X134883999Y-113308421I53033J-53033D01*
G01*
X135820915Y-114245337D01*
G75*
G02*
X135820915Y-114351403I-53033J-53033D01*
G01*
G37*
G36*
G01*
X136174469Y-113997849D02*
X136068403Y-114103915D01*
G75*
G02*
X135962337Y-114103915I-53033J53033D01*
G01*
X135025421Y-113166999D01*
G75*
G02*
X135025421Y-113060933I53033J53033D01*
G01*
X135131487Y-112954867D01*
G75*
G02*
X135237553Y-112954867I53033J-53033D01*
G01*
X136174469Y-113891783D01*
G75*
G02*
X136174469Y-113997849I-53033J-53033D01*
G01*
G37*
G36*
G01*
X136528022Y-113644296D02*
X136421956Y-113750362D01*
G75*
G02*
X136315890Y-113750362I-53033J53033D01*
G01*
X135378974Y-112813446D01*
G75*
G02*
X135378974Y-112707380I53033J53033D01*
G01*
X135485040Y-112601314D01*
G75*
G02*
X135591106Y-112601314I53033J-53033D01*
G01*
X136528022Y-113538230D01*
G75*
G02*
X136528022Y-113644296I-53033J-53033D01*
G01*
G37*
G36*
G01*
X136881575Y-113290743D02*
X136775509Y-113396809D01*
G75*
G02*
X136669443Y-113396809I-53033J53033D01*
G01*
X135732527Y-112459893D01*
G75*
G02*
X135732527Y-112353827I53033J53033D01*
G01*
X135838593Y-112247761D01*
G75*
G02*
X135944659Y-112247761I53033J-53033D01*
G01*
X136881575Y-113184677D01*
G75*
G02*
X136881575Y-113290743I-53033J-53033D01*
G01*
G37*
G36*
G01*
X137235129Y-112937189D02*
X137129063Y-113043255D01*
G75*
G02*
X137022997Y-113043255I-53033J53033D01*
G01*
X136086081Y-112106339D01*
G75*
G02*
X136086081Y-112000273I53033J53033D01*
G01*
X136192147Y-111894207D01*
G75*
G02*
X136298213Y-111894207I53033J-53033D01*
G01*
X137235129Y-112831123D01*
G75*
G02*
X137235129Y-112937189I-53033J-53033D01*
G01*
G37*
G36*
G01*
X137588682Y-112583636D02*
X137482616Y-112689702D01*
G75*
G02*
X137376550Y-112689702I-53033J53033D01*
G01*
X136439634Y-111752786D01*
G75*
G02*
X136439634Y-111646720I53033J53033D01*
G01*
X136545700Y-111540654D01*
G75*
G02*
X136651766Y-111540654I53033J-53033D01*
G01*
X137588682Y-112477570D01*
G75*
G02*
X137588682Y-112583636I-53033J-53033D01*
G01*
G37*
G36*
G01*
X137942236Y-112230082D02*
X137836170Y-112336148D01*
G75*
G02*
X137730104Y-112336148I-53033J53033D01*
G01*
X136793188Y-111399232D01*
G75*
G02*
X136793188Y-111293166I53033J53033D01*
G01*
X136899254Y-111187100D01*
G75*
G02*
X137005320Y-111187100I53033J-53033D01*
G01*
X137942236Y-112124016D01*
G75*
G02*
X137942236Y-112230082I-53033J-53033D01*
G01*
G37*
G36*
G01*
X139939812Y-111399232D02*
X139002896Y-112336148D01*
G75*
G02*
X138896830Y-112336148I-53033J53033D01*
G01*
X138790764Y-112230082D01*
G75*
G02*
X138790764Y-112124016I53033J53033D01*
G01*
X139727680Y-111187100D01*
G75*
G02*
X139833746Y-111187100I53033J-53033D01*
G01*
X139939812Y-111293166D01*
G75*
G02*
X139939812Y-111399232I-53033J-53033D01*
G01*
G37*
G36*
G01*
X140293366Y-111752786D02*
X139356450Y-112689702D01*
G75*
G02*
X139250384Y-112689702I-53033J53033D01*
G01*
X139144318Y-112583636D01*
G75*
G02*
X139144318Y-112477570I53033J53033D01*
G01*
X140081234Y-111540654D01*
G75*
G02*
X140187300Y-111540654I53033J-53033D01*
G01*
X140293366Y-111646720D01*
G75*
G02*
X140293366Y-111752786I-53033J-53033D01*
G01*
G37*
G36*
G01*
X140646919Y-112106339D02*
X139710003Y-113043255D01*
G75*
G02*
X139603937Y-113043255I-53033J53033D01*
G01*
X139497871Y-112937189D01*
G75*
G02*
X139497871Y-112831123I53033J53033D01*
G01*
X140434787Y-111894207D01*
G75*
G02*
X140540853Y-111894207I53033J-53033D01*
G01*
X140646919Y-112000273D01*
G75*
G02*
X140646919Y-112106339I-53033J-53033D01*
G01*
G37*
G36*
G01*
X141000473Y-112459893D02*
X140063557Y-113396809D01*
G75*
G02*
X139957491Y-113396809I-53033J53033D01*
G01*
X139851425Y-113290743D01*
G75*
G02*
X139851425Y-113184677I53033J53033D01*
G01*
X140788341Y-112247761D01*
G75*
G02*
X140894407Y-112247761I53033J-53033D01*
G01*
X141000473Y-112353827D01*
G75*
G02*
X141000473Y-112459893I-53033J-53033D01*
G01*
G37*
G36*
G01*
X141354026Y-112813446D02*
X140417110Y-113750362D01*
G75*
G02*
X140311044Y-113750362I-53033J53033D01*
G01*
X140204978Y-113644296D01*
G75*
G02*
X140204978Y-113538230I53033J53033D01*
G01*
X141141894Y-112601314D01*
G75*
G02*
X141247960Y-112601314I53033J-53033D01*
G01*
X141354026Y-112707380D01*
G75*
G02*
X141354026Y-112813446I-53033J-53033D01*
G01*
G37*
G36*
G01*
X141707579Y-113166999D02*
X140770663Y-114103915D01*
G75*
G02*
X140664597Y-114103915I-53033J53033D01*
G01*
X140558531Y-113997849D01*
G75*
G02*
X140558531Y-113891783I53033J53033D01*
G01*
X141495447Y-112954867D01*
G75*
G02*
X141601513Y-112954867I53033J-53033D01*
G01*
X141707579Y-113060933D01*
G75*
G02*
X141707579Y-113166999I-53033J-53033D01*
G01*
G37*
G36*
G01*
X142061133Y-113520553D02*
X141124217Y-114457469D01*
G75*
G02*
X141018151Y-114457469I-53033J53033D01*
G01*
X140912085Y-114351403D01*
G75*
G02*
X140912085Y-114245337I53033J53033D01*
G01*
X141849001Y-113308421D01*
G75*
G02*
X141955067Y-113308421I53033J-53033D01*
G01*
X142061133Y-113414487D01*
G75*
G02*
X142061133Y-113520553I-53033J-53033D01*
G01*
G37*
G36*
G01*
X142414686Y-113874106D02*
X141477770Y-114811022D01*
G75*
G02*
X141371704Y-114811022I-53033J53033D01*
G01*
X141265638Y-114704956D01*
G75*
G02*
X141265638Y-114598890I53033J53033D01*
G01*
X142202554Y-113661974D01*
G75*
G02*
X142308620Y-113661974I53033J-53033D01*
G01*
X142414686Y-113768040D01*
G75*
G02*
X142414686Y-113874106I-53033J-53033D01*
G01*
G37*
G36*
G01*
X142768239Y-114227659D02*
X141831323Y-115164575D01*
G75*
G02*
X141725257Y-115164575I-53033J53033D01*
G01*
X141619191Y-115058509D01*
G75*
G02*
X141619191Y-114952443I53033J53033D01*
G01*
X142556107Y-114015527D01*
G75*
G02*
X142662173Y-114015527I53033J-53033D01*
G01*
X142768239Y-114121593D01*
G75*
G02*
X142768239Y-114227659I-53033J-53033D01*
G01*
G37*
G36*
G01*
X143121793Y-114581213D02*
X142184877Y-115518129D01*
G75*
G02*
X142078811Y-115518129I-53033J53033D01*
G01*
X141972745Y-115412063D01*
G75*
G02*
X141972745Y-115305997I53033J53033D01*
G01*
X142909661Y-114369081D01*
G75*
G02*
X143015727Y-114369081I53033J-53033D01*
G01*
X143121793Y-114475147D01*
G75*
G02*
X143121793Y-114581213I-53033J-53033D01*
G01*
G37*
G36*
G01*
X143475346Y-114934766D02*
X142538430Y-115871682D01*
G75*
G02*
X142432364Y-115871682I-53033J53033D01*
G01*
X142326298Y-115765616D01*
G75*
G02*
X142326298Y-115659550I53033J53033D01*
G01*
X143263214Y-114722634D01*
G75*
G02*
X143369280Y-114722634I53033J-53033D01*
G01*
X143475346Y-114828700D01*
G75*
G02*
X143475346Y-114934766I-53033J-53033D01*
G01*
G37*
G36*
G01*
X143828900Y-115288320D02*
X142891984Y-116225236D01*
G75*
G02*
X142785918Y-116225236I-53033J53033D01*
G01*
X142679852Y-116119170D01*
G75*
G02*
X142679852Y-116013104I53033J53033D01*
G01*
X143616768Y-115076188D01*
G75*
G02*
X143722834Y-115076188I53033J-53033D01*
G01*
X143828900Y-115182254D01*
G75*
G02*
X143828900Y-115288320I-53033J-53033D01*
G01*
G37*
G36*
G01*
X143828900Y-118116746D02*
X143722834Y-118222812D01*
G75*
G02*
X143616768Y-118222812I-53033J53033D01*
G01*
X142679852Y-117285896D01*
G75*
G02*
X142679852Y-117179830I53033J53033D01*
G01*
X142785918Y-117073764D01*
G75*
G02*
X142891984Y-117073764I53033J-53033D01*
G01*
X143828900Y-118010680D01*
G75*
G02*
X143828900Y-118116746I-53033J-53033D01*
G01*
G37*
G36*
G01*
X143475346Y-118470300D02*
X143369280Y-118576366D01*
G75*
G02*
X143263214Y-118576366I-53033J53033D01*
G01*
X142326298Y-117639450D01*
G75*
G02*
X142326298Y-117533384I53033J53033D01*
G01*
X142432364Y-117427318D01*
G75*
G02*
X142538430Y-117427318I53033J-53033D01*
G01*
X143475346Y-118364234D01*
G75*
G02*
X143475346Y-118470300I-53033J-53033D01*
G01*
G37*
G36*
G01*
X143121793Y-118823853D02*
X143015727Y-118929919D01*
G75*
G02*
X142909661Y-118929919I-53033J53033D01*
G01*
X141972745Y-117993003D01*
G75*
G02*
X141972745Y-117886937I53033J53033D01*
G01*
X142078811Y-117780871D01*
G75*
G02*
X142184877Y-117780871I53033J-53033D01*
G01*
X143121793Y-118717787D01*
G75*
G02*
X143121793Y-118823853I-53033J-53033D01*
G01*
G37*
G36*
G01*
X142768239Y-119177407D02*
X142662173Y-119283473D01*
G75*
G02*
X142556107Y-119283473I-53033J53033D01*
G01*
X141619191Y-118346557D01*
G75*
G02*
X141619191Y-118240491I53033J53033D01*
G01*
X141725257Y-118134425D01*
G75*
G02*
X141831323Y-118134425I53033J-53033D01*
G01*
X142768239Y-119071341D01*
G75*
G02*
X142768239Y-119177407I-53033J-53033D01*
G01*
G37*
G36*
G01*
X142414686Y-119530960D02*
X142308620Y-119637026D01*
G75*
G02*
X142202554Y-119637026I-53033J53033D01*
G01*
X141265638Y-118700110D01*
G75*
G02*
X141265638Y-118594044I53033J53033D01*
G01*
X141371704Y-118487978D01*
G75*
G02*
X141477770Y-118487978I53033J-53033D01*
G01*
X142414686Y-119424894D01*
G75*
G02*
X142414686Y-119530960I-53033J-53033D01*
G01*
G37*
G36*
G01*
X142061133Y-119884513D02*
X141955067Y-119990579D01*
G75*
G02*
X141849001Y-119990579I-53033J53033D01*
G01*
X140912085Y-119053663D01*
G75*
G02*
X140912085Y-118947597I53033J53033D01*
G01*
X141018151Y-118841531D01*
G75*
G02*
X141124217Y-118841531I53033J-53033D01*
G01*
X142061133Y-119778447D01*
G75*
G02*
X142061133Y-119884513I-53033J-53033D01*
G01*
G37*
G36*
G01*
X141707579Y-120238067D02*
X141601513Y-120344133D01*
G75*
G02*
X141495447Y-120344133I-53033J53033D01*
G01*
X140558531Y-119407217D01*
G75*
G02*
X140558531Y-119301151I53033J53033D01*
G01*
X140664597Y-119195085D01*
G75*
G02*
X140770663Y-119195085I53033J-53033D01*
G01*
X141707579Y-120132001D01*
G75*
G02*
X141707579Y-120238067I-53033J-53033D01*
G01*
G37*
G36*
G01*
X141354026Y-120591620D02*
X141247960Y-120697686D01*
G75*
G02*
X141141894Y-120697686I-53033J53033D01*
G01*
X140204978Y-119760770D01*
G75*
G02*
X140204978Y-119654704I53033J53033D01*
G01*
X140311044Y-119548638D01*
G75*
G02*
X140417110Y-119548638I53033J-53033D01*
G01*
X141354026Y-120485554D01*
G75*
G02*
X141354026Y-120591620I-53033J-53033D01*
G01*
G37*
G36*
G01*
X141000473Y-120945173D02*
X140894407Y-121051239D01*
G75*
G02*
X140788341Y-121051239I-53033J53033D01*
G01*
X139851425Y-120114323D01*
G75*
G02*
X139851425Y-120008257I53033J53033D01*
G01*
X139957491Y-119902191D01*
G75*
G02*
X140063557Y-119902191I53033J-53033D01*
G01*
X141000473Y-120839107D01*
G75*
G02*
X141000473Y-120945173I-53033J-53033D01*
G01*
G37*
G36*
G01*
X140646919Y-121298727D02*
X140540853Y-121404793D01*
G75*
G02*
X140434787Y-121404793I-53033J53033D01*
G01*
X139497871Y-120467877D01*
G75*
G02*
X139497871Y-120361811I53033J53033D01*
G01*
X139603937Y-120255745D01*
G75*
G02*
X139710003Y-120255745I53033J-53033D01*
G01*
X140646919Y-121192661D01*
G75*
G02*
X140646919Y-121298727I-53033J-53033D01*
G01*
G37*
G36*
G01*
X140293366Y-121652280D02*
X140187300Y-121758346D01*
G75*
G02*
X140081234Y-121758346I-53033J53033D01*
G01*
X139144318Y-120821430D01*
G75*
G02*
X139144318Y-120715364I53033J53033D01*
G01*
X139250384Y-120609298D01*
G75*
G02*
X139356450Y-120609298I53033J-53033D01*
G01*
X140293366Y-121546214D01*
G75*
G02*
X140293366Y-121652280I-53033J-53033D01*
G01*
G37*
G36*
G01*
X139939812Y-122005834D02*
X139833746Y-122111900D01*
G75*
G02*
X139727680Y-122111900I-53033J53033D01*
G01*
X138790764Y-121174984D01*
G75*
G02*
X138790764Y-121068918I53033J53033D01*
G01*
X138896830Y-120962852D01*
G75*
G02*
X139002896Y-120962852I53033J-53033D01*
G01*
X139939812Y-121899768D01*
G75*
G02*
X139939812Y-122005834I-53033J-53033D01*
G01*
G37*
%TD*%
D15*
%TO.C,U1*%
X169338500Y-126682500D03*
X167338500Y-127632500D03*
X167338500Y-125732500D03*
%TD*%
%TO.C,R5*%
G36*
G01*
X146589000Y-119142500D02*
X146589000Y-119617500D01*
G75*
G02*
X146351500Y-119855000I-237500J0D01*
G01*
X145776500Y-119855000D01*
G75*
G02*
X145539000Y-119617500I0J237500D01*
G01*
X145539000Y-119142500D01*
G75*
G02*
X145776500Y-118905000I237500J0D01*
G01*
X146351500Y-118905000D01*
G75*
G02*
X146589000Y-119142500I0J-237500D01*
G01*
G37*
G36*
G01*
X148339000Y-119142500D02*
X148339000Y-119617500D01*
G75*
G02*
X148101500Y-119855000I-237500J0D01*
G01*
X147526500Y-119855000D01*
G75*
G02*
X147289000Y-119617500I0J237500D01*
G01*
X147289000Y-119142500D01*
G75*
G02*
X147526500Y-118905000I237500J0D01*
G01*
X148101500Y-118905000D01*
G75*
G02*
X148339000Y-119142500I0J-237500D01*
G01*
G37*
%TD*%
%TO.C,R4*%
G36*
G01*
X131412500Y-123714500D02*
X131412500Y-124189500D01*
G75*
G02*
X131175000Y-124427000I-237500J0D01*
G01*
X130600000Y-124427000D01*
G75*
G02*
X130362500Y-124189500I0J237500D01*
G01*
X130362500Y-123714500D01*
G75*
G02*
X130600000Y-123477000I237500J0D01*
G01*
X131175000Y-123477000D01*
G75*
G02*
X131412500Y-123714500I0J-237500D01*
G01*
G37*
G36*
G01*
X133162500Y-123714500D02*
X133162500Y-124189500D01*
G75*
G02*
X132925000Y-124427000I-237500J0D01*
G01*
X132350000Y-124427000D01*
G75*
G02*
X132112500Y-124189500I0J237500D01*
G01*
X132112500Y-123714500D01*
G75*
G02*
X132350000Y-123477000I237500J0D01*
G01*
X132925000Y-123477000D01*
G75*
G02*
X133162500Y-123714500I0J-237500D01*
G01*
G37*
%TD*%
%TO.C,R3*%
G36*
G01*
X141969500Y-127983500D02*
X141494500Y-127983500D01*
G75*
G02*
X141257000Y-127746000I0J237500D01*
G01*
X141257000Y-127171000D01*
G75*
G02*
X141494500Y-126933500I237500J0D01*
G01*
X141969500Y-126933500D01*
G75*
G02*
X142207000Y-127171000I0J-237500D01*
G01*
X142207000Y-127746000D01*
G75*
G02*
X141969500Y-127983500I-237500J0D01*
G01*
G37*
G36*
G01*
X141969500Y-129733500D02*
X141494500Y-129733500D01*
G75*
G02*
X141257000Y-129496000I0J237500D01*
G01*
X141257000Y-128921000D01*
G75*
G02*
X141494500Y-128683500I237500J0D01*
G01*
X141969500Y-128683500D01*
G75*
G02*
X142207000Y-128921000I0J-237500D01*
G01*
X142207000Y-129496000D01*
G75*
G02*
X141969500Y-129733500I-237500J0D01*
G01*
G37*
%TD*%
%TO.C,R2*%
G36*
G01*
X128985000Y-110967000D02*
X129460000Y-110967000D01*
G75*
G02*
X129697500Y-111204500I0J-237500D01*
G01*
X129697500Y-111779500D01*
G75*
G02*
X129460000Y-112017000I-237500J0D01*
G01*
X128985000Y-112017000D01*
G75*
G02*
X128747500Y-111779500I0J237500D01*
G01*
X128747500Y-111204500D01*
G75*
G02*
X128985000Y-110967000I237500J0D01*
G01*
G37*
G36*
G01*
X128985000Y-109217000D02*
X129460000Y-109217000D01*
G75*
G02*
X129697500Y-109454500I0J-237500D01*
G01*
X129697500Y-110029500D01*
G75*
G02*
X129460000Y-110267000I-237500J0D01*
G01*
X128985000Y-110267000D01*
G75*
G02*
X128747500Y-110029500I0J237500D01*
G01*
X128747500Y-109454500D01*
G75*
G02*
X128985000Y-109217000I237500J0D01*
G01*
G37*
%TD*%
%TO.C,R1*%
G36*
G01*
X127334000Y-110903500D02*
X127809000Y-110903500D01*
G75*
G02*
X128046500Y-111141000I0J-237500D01*
G01*
X128046500Y-111716000D01*
G75*
G02*
X127809000Y-111953500I-237500J0D01*
G01*
X127334000Y-111953500D01*
G75*
G02*
X127096500Y-111716000I0J237500D01*
G01*
X127096500Y-111141000D01*
G75*
G02*
X127334000Y-110903500I237500J0D01*
G01*
G37*
G36*
G01*
X127334000Y-109153500D02*
X127809000Y-109153500D01*
G75*
G02*
X128046500Y-109391000I0J-237500D01*
G01*
X128046500Y-109966000D01*
G75*
G02*
X127809000Y-110203500I-237500J0D01*
G01*
X127334000Y-110203500D01*
G75*
G02*
X127096500Y-109966000I0J237500D01*
G01*
X127096500Y-109391000D01*
G75*
G02*
X127334000Y-109153500I237500J0D01*
G01*
G37*
%TD*%
%TO.C,C7*%
G36*
G01*
X138016500Y-108093500D02*
X138016500Y-108568500D01*
G75*
G02*
X137779000Y-108806000I-237500J0D01*
G01*
X137204000Y-108806000D01*
G75*
G02*
X136966500Y-108568500I0J237500D01*
G01*
X136966500Y-108093500D01*
G75*
G02*
X137204000Y-107856000I237500J0D01*
G01*
X137779000Y-107856000D01*
G75*
G02*
X138016500Y-108093500I0J-237500D01*
G01*
G37*
G36*
G01*
X139766500Y-108093500D02*
X139766500Y-108568500D01*
G75*
G02*
X139529000Y-108806000I-237500J0D01*
G01*
X138954000Y-108806000D01*
G75*
G02*
X138716500Y-108568500I0J237500D01*
G01*
X138716500Y-108093500D01*
G75*
G02*
X138954000Y-107856000I237500J0D01*
G01*
X139529000Y-107856000D01*
G75*
G02*
X139766500Y-108093500I0J-237500D01*
G01*
G37*
%TD*%
%TO.C,C5*%
G36*
G01*
X138143500Y-123079500D02*
X138143500Y-123554500D01*
G75*
G02*
X137906000Y-123792000I-237500J0D01*
G01*
X137331000Y-123792000D01*
G75*
G02*
X137093500Y-123554500I0J237500D01*
G01*
X137093500Y-123079500D01*
G75*
G02*
X137331000Y-122842000I237500J0D01*
G01*
X137906000Y-122842000D01*
G75*
G02*
X138143500Y-123079500I0J-237500D01*
G01*
G37*
G36*
G01*
X139893500Y-123079500D02*
X139893500Y-123554500D01*
G75*
G02*
X139656000Y-123792000I-237500J0D01*
G01*
X139081000Y-123792000D01*
G75*
G02*
X138843500Y-123554500I0J237500D01*
G01*
X138843500Y-123079500D01*
G75*
G02*
X139081000Y-122842000I237500J0D01*
G01*
X139656000Y-122842000D01*
G75*
G02*
X139893500Y-123079500I0J-237500D01*
G01*
G37*
%TD*%
%TO.C,C4*%
G36*
G01*
X129874000Y-117049000D02*
X130349000Y-117049000D01*
G75*
G02*
X130586500Y-117286500I0J-237500D01*
G01*
X130586500Y-117861500D01*
G75*
G02*
X130349000Y-118099000I-237500J0D01*
G01*
X129874000Y-118099000D01*
G75*
G02*
X129636500Y-117861500I0J237500D01*
G01*
X129636500Y-117286500D01*
G75*
G02*
X129874000Y-117049000I237500J0D01*
G01*
G37*
G36*
G01*
X129874000Y-115299000D02*
X130349000Y-115299000D01*
G75*
G02*
X130586500Y-115536500I0J-237500D01*
G01*
X130586500Y-116111500D01*
G75*
G02*
X130349000Y-116349000I-237500J0D01*
G01*
X129874000Y-116349000D01*
G75*
G02*
X129636500Y-116111500I0J237500D01*
G01*
X129636500Y-115536500D01*
G75*
G02*
X129874000Y-115299000I237500J0D01*
G01*
G37*
%TD*%
%TO.C,C3*%
G36*
G01*
X138016500Y-109744500D02*
X138016500Y-110219500D01*
G75*
G02*
X137779000Y-110457000I-237500J0D01*
G01*
X137204000Y-110457000D01*
G75*
G02*
X136966500Y-110219500I0J237500D01*
G01*
X136966500Y-109744500D01*
G75*
G02*
X137204000Y-109507000I237500J0D01*
G01*
X137779000Y-109507000D01*
G75*
G02*
X138016500Y-109744500I0J-237500D01*
G01*
G37*
G36*
G01*
X139766500Y-109744500D02*
X139766500Y-110219500D01*
G75*
G02*
X139529000Y-110457000I-237500J0D01*
G01*
X138954000Y-110457000D01*
G75*
G02*
X138716500Y-110219500I0J237500D01*
G01*
X138716500Y-109744500D01*
G75*
G02*
X138954000Y-109507000I237500J0D01*
G01*
X139529000Y-109507000D01*
G75*
G02*
X139766500Y-109744500I0J-237500D01*
G01*
G37*
%TD*%
%TO.C,C2*%
G36*
G01*
X166036000Y-126269000D02*
X165561000Y-126269000D01*
G75*
G02*
X165323500Y-126031500I0J237500D01*
G01*
X165323500Y-125456500D01*
G75*
G02*
X165561000Y-125219000I237500J0D01*
G01*
X166036000Y-125219000D01*
G75*
G02*
X166273500Y-125456500I0J-237500D01*
G01*
X166273500Y-126031500D01*
G75*
G02*
X166036000Y-126269000I-237500J0D01*
G01*
G37*
G36*
G01*
X166036000Y-128019000D02*
X165561000Y-128019000D01*
G75*
G02*
X165323500Y-127781500I0J237500D01*
G01*
X165323500Y-127206500D01*
G75*
G02*
X165561000Y-126969000I237500J0D01*
G01*
X166036000Y-126969000D01*
G75*
G02*
X166273500Y-127206500I0J-237500D01*
G01*
X166273500Y-127781500D01*
G75*
G02*
X166036000Y-128019000I-237500J0D01*
G01*
G37*
%TD*%
%TO.C,C1*%
G36*
G01*
X167988500Y-123905000D02*
X167988500Y-124380000D01*
G75*
G02*
X167751000Y-124617500I-237500J0D01*
G01*
X167176000Y-124617500D01*
G75*
G02*
X166938500Y-124380000I0J237500D01*
G01*
X166938500Y-123905000D01*
G75*
G02*
X167176000Y-123667500I237500J0D01*
G01*
X167751000Y-123667500D01*
G75*
G02*
X167988500Y-123905000I0J-237500D01*
G01*
G37*
G36*
G01*
X169738500Y-123905000D02*
X169738500Y-124380000D01*
G75*
G02*
X169501000Y-124617500I-237500J0D01*
G01*
X168926000Y-124617500D01*
G75*
G02*
X168688500Y-124380000I0J237500D01*
G01*
X168688500Y-123905000D01*
G75*
G02*
X168926000Y-123667500I237500J0D01*
G01*
X169501000Y-123667500D01*
G75*
G02*
X169738500Y-123905000I0J-237500D01*
G01*
G37*
%TD*%
M02*
